<svg version="1.2" xmlns="http://www.w3.org/2000/svg" viewBox="0 0 44 256" width="44" height="256">
	<title>icons-svg</title>
	<defs>
		<linearGradient id="g1" x2="1" gradientUnits="userSpaceOnUse" gradientTransform="matrix(99.113,98.124,-156.479,158.056,691.22,46.896)">
			<stop offset="0" stop-color="#387eb8"/>
			<stop offset="1" stop-color="#366994"/>
		</linearGradient>
		<linearGradient id="g2" x2="1" gradientUnits="userSpaceOnUse" gradientTransform="matrix(106.436,100.617,-160.255,169.523,752.056,109.905)">
			<stop offset="0" stop-color="#ffe052"/>
			<stop offset="1" stop-color="#ffc331"/>
		</linearGradient>
		<clipPath clipPathUnits="userSpaceOnUse" id="cp1">
			<path d="m1282 38h180v180h-180z"/>
		</clipPath>
		<clipPath clipPathUnits="userSpaceOnUse" id="cp2">
			<path d="m1872 28h200v200h-200z"/>
		</clipPath>
	</defs>
	<style>
		.s0 { fill: #e14e1d } 
		.s1 { fill: #ffffff } 
		.s2 { fill: #ebebeb } 
		.s3 { fill: #0277bd } 
		.s4 { fill: #f0db4f } 
		.s5 { fill: #323330 } 
		.s6 { fill: #242938 } 
		.s7 { fill: url(#g1) } 
		.s8 { fill: url(#g2) } 
		.s9 { fill: #f58219 } 
		.s10 { fill: #023430 } 
		.s11 { fill: #10aa50 } 
		.s12 { fill: #b8c4c2 } 
		.s13 { fill: #12924f } 
		.s14 { fill: #f03c2e } 
	</style>
	<g id="Layer">
		<g id="Layer">
			<path id="Layer" class="s0" d="m-256 60c0-33.1 26.9-60 60-60h136c33.1 0 60 26.9 60 60v136c0 33.1-26.9 60-60 60h-136c-33.1 0-60-26.9-60-60z"/>
			<path id="Layer" class="s1" d="m-208 38l8.6 96.6h110.7l-3.7 41.4-35.6 9.7-35.6-9.7-2.4-26.6h-32.1l4.6 51.3 65.5 18.2 65.5-18.2 8.7-98h-116.4l-2.9-32.8h122.1 0.1l2.9-31.9z"/>
			<path id="Layer" class="s2" d="m-128 38h-80l8.6 96.6h71.4v-31.9h-42.2l-2.9-32.8h45.1z"/>
			<path id="Layer" class="s2" d="m-128 185.6v0.1l-35.6-9.7-2.4-26.6h-32.1l4.6 51.3 65.5 18.2z"/>
		</g>
	</g>
	<g id="Layer">
		<g id="Layer">
			<path id="Layer" class="s3" d="m44 60c0-33.1 26.9-60 60-60h136c33.1 0 60 26.9 60 60v136c0 33.1-26.9 60-60 60h-136c-33.1 0-60-26.9-60-60z"/>
			<path id="Layer" class="s2" d="m97.8 102.7l2.8 31.9h71.5v-31.9z"/>
			<path id="Layer" class="s2" d="m172.1 38h-0.1-80l2.9 31.9h77.2z"/>
			<path id="Layer" class="s2" d="m172.1 218.8v-33.2h-0.1l-35.6-9.6-2.3-25.4h-17.3-14.8l4.5 50.1 65.4 18.2z"/>
			<path id="Layer" class="s1" d="m211.3 134.6l-3.7 41.4-35.6 9.6v33.3l65.5-18.2 0.4-5.4 7.6-84.1 0.7-8.5 5.8-64.7h-80v31.9h45l-2.9 32.8h-42.1v31.9z"/>
		</g>
	</g>
	<g id="Layer">
		<g id="Layer">
			<path id="Layer" class="s4" d="m344 60c0-33.1 26.9-60 60-60h136c33.1 0 60 26.9 60 60v136c0 33.1-26.9 60-60 60h-136c-33.1 0-60-26.9-60-60z"/>
			<path id="Layer" class="s5" d="m411.3 213.9l19.6-11.8c3.8 6.7 7.2 12.3 15.5 12.3 7.9 0 12.9-3 12.9-15.1v-81.8h24v82.2c0 24.9-14.6 36.2-35.9 36.2-19.2 0-30.4-9.9-36.1-22z"/>
			<path id="Layer" class="s5" d="m496.4 211.4l19.6-11.4c5.1 8.4 11.8 14.6 23.7 14.6 10 0 16.3-5 16.3-11.8 0-8.3-6.5-11.2-17.5-16l-6-2.6c-17.4-7.4-28.9-16.7-28.9-36.3 0-18 13.7-31.7 35.2-31.7 15.3 0 26.3 5.3 34.2 19.2l-18.7 12c-4.1-7.4-8.6-10.3-15.5-10.3-7 0-11.5 4.5-11.5 10.3 0 7.2 4.5 10.2 14.8 14.6l6 2.6c20.5 8.8 32 17.7 32 37.8 0 21.7-17 33.5-39.9 33.5-22.3 0-36.8-10.6-43.8-24.5z"/>
		</g>
	</g>
	<g id="Layer">
		<g id="Layer">
			<path id="Layer" class="s6" d="m644 60c0-33.1 26.9-60 60-60h136c33.1 0 60 26.9 60 60v136c0 33.1-26.9 60-60 60h-136c-33.1 0-60-26.9-60-60z"/>
			<path id="Layer" fill-rule="evenodd" class="s7" d="m820.2 55.5v43.9c0 26.5-27 26.1-27 26.1h-48c-28.8 0-27.9 28.4-27.9 28.4v23.7h-16.9c0 0-28.4 1.9-28.4-49.4 0-51.2 32.5-47.5 32.5-47.5h67.7v-6.9h-48.5v-22.8c0 0-3.2-22 47.6-22 53 0 48.9 26.5 48.9 26.5zm-84.4-2.4c0 4.8 3.9 8.7 8.8 8.7 4.8 0 8.7-3.9 8.7-8.7 0-4.9-3.9-8.8-8.7-8.8-4.9 0-8.8 3.9-8.8 8.8z"/>
			<path id="Layer" fill-rule="evenodd" class="s8" d="m723.8 201.4v-43.9c0-26.5 27-26 27-26h48c28.8 0 27.9-28.4 27.9-28.4v-23.8h16.9c0 0 28.4-1.8 28.4 49.4 0 51.3-32.5 47.6-32.5 47.6h-67.7v6.8h48.5v22.8c0 0 3.2 22.1-47.6 22.1-53 0-48.9-26.6-48.9-26.6zm84.4 2.5c0-4.8-3.9-8.7-8.8-8.7-4.8 0-8.7 3.9-8.7 8.7 0 4.8 3.9 8.7 8.7 8.7 4.9 0 8.8-3.9 8.8-8.7z"/>
		</g>
	</g>
	<g id="Layer">
		<g id="Layer">
			<path id="Layer" class="s6" d="m944 60c0-33.1 26.9-60 60-60h136c33.1 0 60 26.9 60 60v136c0 33.1-26.9 60-60 60h-136c-33.1 0-60-26.9-60-60z"/>
			<path id="Layer" fill-rule="evenodd" class="s1" d="m1045.6 182.6c0 0-7.6 4.7 5.4 6 15.7 2 24 1.7 41.4-1.6 0 0 4.7 3 11 5.3-39.1 16.7-88.5-1-57.8-9.7zm-5-21.7q0 0 0 0 0 0 0 0zm4.7 7.7c17 1.7 30.4 2 53.4-2.7 0 0 3 3.4 8 5-47 14.1-99.8 1.4-66.1-10-0.2 0.2-8.1 6.4 4.7 7.7zm87.5 30.4q0 0 0.1 0.1-0.1-0.1-0.1-0.1zm0.1 0.1c20.4 9.4-45.3 28-125 15-29.1-4.7 14.4-21.1 22-15.8 0 0-2.3 0-6.6 1-4.4 0.7-17.7 5.1-10.7 8.1 20 8.6 91.5 6.6 113.8 0 11.2-3.4 7.1-7.7 6.5-8.3zm-83.6-60.9c0 0-36.4 8.7-13 11.7 10 1.4 29.7 1 48.1-0.3 15-1.3 30.1-4 30.1-4 0 0-5.4 2.3-9.1 4.7-37.1 9.6-108.2 5.3-87.8-4.7 17.3-8.4 31.7-7.4 31.7-7.4zm65.1 36.4c37.4-19.3 20.1-38 8-35.7-3 0.7-4.3 1.3-4.3 1.3 0 0 1-2 3.3-2.6 23.7-8.4 42.4 25-7.6 38 0 0 0.3-0.3 0.6-1zm-61.4 52.8c-23.7-1.3-28.4-5.3-28.4-5.3 22.4 3.6 60.4 4.3 91.2-1.4 27-5 29.7-11.7 29.7-11.7-1.4 17.1-56.5 20.7-92.5 18.4z"/>
			<path id="Layer" fill-rule="evenodd" class="s9" d="m1091.7 28c0 0 20.7 21-19.7 52.8-32.4 25.7-7.4 40.4 0 57.1-19.1-17.1-32.7-32.1-23.4-46.1 13.7-20.7 51.5-30.7 43.1-63.8zm-10.7 95.8c-32.7-37.7 35.7-54.7 35.7-54.7-43.4 25-35.4 32.4-25 47.4 11.3 15.7-13.4 28.4-13.4 28.4 0 0 12.4-10 2.7-21.1z"/>
		</g>
	</g>
	<g id="Layer">
		<g id="Layer">
			<path id="Layer" class="s6" d="m1244 60c0-33.1 26.9-60 60-60h136c33.1 0 60 26.9 60 60v136c0 33.1-26.9 60-60 60h-136c-33.1 0-60-26.9-60-60z"/>
			<g id="Clip-Path" clip-path="url(#cp1)">
				<g id="Layer">
					<path id="Layer" fill-rule="evenodd" class="s1" d="m1447.8 178.2q0 0 0 0 0 0 0 0.1zm0 0c-0.5-2.4-6.5-5.4-8.5-6.9-3.9-2.8-8-5.7-12.2-8.3-2.2-1.3-6-2.3-8.5-3.4-3.3-1.3-10.6-2.6-12.4-5.2-3.7-4.7-6.2-10.6-8.7-16.3-2.6-5.8-5.8-11.9-8.4-17.9-1.3-2.9-1.9-5.5-3.4-8.3-8.9-17.1-22.1-31.5-38.2-41.6-5.3-3.3-11.1-6.3-17.6-8.4-3.7-1.1-8.1-0.5-12-1.3h-2.6c-2.2-0.6-4-3-5.7-4.2-3.8-2.5-7.6-4.2-12.2-6.1-1.5-0.7-6.1-2.4-7.7-1-0.9 0.2-1.4 0.6-1.7 1.5-1 1.5-0.1 3.7 0.5 5 1.9 3.9 4.4 6.2 6.7 9.5 2.1 2.9 4.7 6.2 6.2 9.4 3.2 6.8 4.6 14.3 7.6 21.2 1.1 2.5 2.8 5.4 4.4 7.7 1.3 1.9 3.8 3.2 4.5 5.5 1.5 2.4-2.2 10.5-3.1 13-3.2 10-2.5 23.9 1.1 32.5 1.5 3.4 2.8 7.4 6.8 8.4 0.2-0.3 0-0.1 0.5-0.3 0.8-6.7 1.1-13.1 3.4-18.3 1.3-3.3 4-5.6 5.9-8.3 1.2 0.7 1.2 2.9 1.9 4.4 1.6 3.7 3.3 7.9 5.3 11.6 4 7.8 8.6 15.4 13.7 22.2 1.7 2.4 4.2 5.1 6.4 7.3 0.9 0.8 2 1.3 2.8 2.4h0.2v0.4c-3.7-1.3-6-5.1-8.9-7.3-5.5-4.1-12.1-10.4-15.9-16.3l-5.1-10.1v-0.3c-0.7 1-0.4 2-0.8 3.4-1.6 6.1-0.4 13-5.9 15.2-6.3 2.6-10.9-4.1-12.8-7.1-6.3-10.2-8-27.2-3.6-40.9 1-3.1 1.1-6.7 2.8-9.2-0.3-2.2-2.1-2.7-3-4.1-1.7-2.3-3.2-5-4.6-7.6-2.5-4.9-4.4-10.9-6.3-16.3-0.9-2.2-1.2-4.3-2-6.4-1.5-3.2-4.1-6.3-6.2-9.1-2.8-4.1-11-11.8-7.7-19.7 5.1-12.5 23.1-3.1 30.1 1.3 1.7 1.1 3.7 3.4 5.6 4.3l9.2 0.5c5.7 1.3 11.1 2.4 15.7 5 21 12.2 34.7 24.8 47.3 45.5 2.7 4.3 4.1 9.1 6.3 13.8l10 21.2c1.6 3.2 2.8 6.7 5 9.4 0.9 1.2 3.3 1.5 4.8 2.3 4.1 2 9 3.6 12.7 6.1 7.1 4.3 14 9.6 20.2 14.9 2.4 2.1 4 5 6.2 7.2v1.1l-5.9 1.7c-4.3 1.1-8.1 0.9-12.2 1.9-2.6 0.8-5.8 1.7-8.5 2l0.2 0.3c1.6 4.5 10.2 8.1 14.1 10.8 4.8 3.4 9.2 7.5 12.8 12.3l3.6 3.5c0.9 1.2 1.1 2.8 2 3.9v0.4c-1.7-0.6-2.6-2.2-3.9-3.2-2.7-1.8-5.4-4-8.1-5.7-4.7-2.9-10-4.6-14.8-7.6l-7.9-5.6c-2.3-1.7-4.9-4.9-6.3-7.4-0.9-1.3-1-2.9-2-3.9 0.3-2.3 3.2-2.3 5-3 6.4-2.7 14-3.7 23.8-3.4zm-124.9-105.7c1 0.9 2.6 1.5 3.4 2.8 0.6 0.8 0.7 1.7 1.4 2.5 0 2.9-0.8 4.9-2.6 6.1l-0.2 0.3-2.8-5.9c-1.2-1.7-3-3-3.9-5h-0.3v-0.2q2.5-0.7 5-0.6z"/>
				</g>
			</g>
		</g>
	</g>
	<g id="Layer">
		<g id="Layer">
			<path id="Layer" class="s10" d="m1544 60c0-33.1 26.9-60 60-60h136c33.1 0 60 26.9 60 60v136c0 33.1-26.9 60-60 60h-136c-33.1 0-60-26.9-60-60z"/>
			<path id="Layer" class="s11" d="m1715.2 107.6c-10.6-46.5-32.5-58.9-38.1-67.6q-3.5-5.8-6.2-12c-0.2 4.1-0.8 6.7-4.3 9.9-7 6.2-37 30.6-39.5 83.4-2.3 49.3 36.2 79.7 41.3 82.8 3.9 1.9 8.7 0 11-1.7 18.6-12.8 44-46.8 35.8-94.8"/>
			<path id="Layer" class="s12" d="m1672.5 177.9c-0.9 12.2-1.6 19.2-4.1 26.2 0 0 1.6 11.6 2.8 23.9h4q1.4-13 4.4-25.7c-5.2-2.6-6.9-13.7-7.1-24.4z"/>
			<path id="Layer" class="s13" d="m1679.6 202.3c-5.3-2.5-6.8-13.8-7-24.4 1.3-17.5 1.6-35.1 1.1-52.6-0.3-9.2 0.1-85.1-2.3-96.3q2.5 5.7 5.7 11c5.6 8.7 27.5 21.1 38.1 67.6 8.2 47.9-17.1 81.8-35.6 94.7z"/>
		</g>
	</g>
	<g id="Layer">
		<g id="Layer">
			<path id="Layer" class="s14" d="m1844 60c0-33.1 26.9-60 60-60h136c33.1 0 60 26.9 60 60v136c0 33.1-26.9 60-60 60h-136c-33.1 0-60-26.9-60-60z"/>
			<g id="Clip-Path" clip-path="url(#cp2)">
				<g id="Layer">
					<path id="Layer" class="s1" d="m2068.2 119.1l-87.3-87.3c-1.2-1.2-2.6-2.2-4.2-2.8-1.5-0.7-3.2-1-4.9-1-1.7 0-3.4 0.3-4.9 1-1.6 0.6-3 1.6-4.2 2.8l-18.1 18.1 23 23c5.3-1.9 11.4-0.6 15.7 3.7 2 2 3.5 4.6 4.1 7.4 0.6 2.8 0.5 5.7-0.5 8.4l22.2 22.2c5.4-1.9 11.6-0.7 15.8 3.6 1.5 1.4 2.6 3.1 3.4 5 0.7 1.8 1.1 3.8 1.1 5.8 0 2.1-0.4 4.1-1.1 5.9-0.8 1.9-1.9 3.6-3.4 5-1.4 1.4-3.1 2.5-4.9 3.3-1.9 0.8-3.9 1.2-5.9 1.2-2 0-4-0.4-5.9-1.2-1.8-0.8-3.5-1.9-4.9-3.3-4.5-4.5-5.7-11.1-3.4-16.7l-20.7-20.7v54.4c1.5 0.8 2.9 1.8 4.1 2.9 1.4 1.5 2.6 3.2 3.3 5 0.8 1.9 1.2 3.9 1.2 5.9 0 2-0.4 4-1.2 5.8-0.7 1.9-1.9 3.6-3.3 5-1.4 1.4-3.1 2.6-5 3.3-1.8 0.8-3.8 1.2-5.8 1.2-2 0-4-0.4-5.9-1.2-1.9-0.7-3.5-1.9-5-3.3-1.4-1.4-2.5-3.1-3.3-5-0.8-1.8-1.2-3.8-1.2-5.8 0-2 0.4-4 1.2-5.9 0.8-1.8 1.9-3.5 3.3-5 1.5-1.4 3.2-2.5 5.1-3.3v-54.9c-1.9-0.8-3.6-1.9-5.1-3.4-2.1-2.1-3.6-4.8-4.2-7.8-0.6-3-0.2-6.1 0.9-8.9l-22.7-22.7-59.8 59.8c-1.2 1.2-2.2 2.6-2.8 4.2-0.7 1.6-1 3.2-1 4.9 0 1.7 0.3 3.4 1 5 0.6 1.5 1.6 2.9 2.8 4.1l87.3 87.4c1.2 1.2 2.6 2.1 4.2 2.7 1.5 0.7 3.2 1 4.9 1 1.7 0 3.4-0.3 4.9-1 1.6-0.6 3-1.5 4.2-2.7l86.9-86.8c1.2-1.2 2.2-2.6 2.8-4.2 0.7-1.6 1-3.2 1-4.9 0-1.7-0.3-3.4-1-5-0.6-1.5-1.6-2.9-2.8-4.1"/>
				</g>
			</g>
		</g>
	</g>
</svg>