<svg width="48" height="48" viewBox="0 0 48 48" fill="none" xmlns="http://www.w3.org/2000/svg">
<g clip-path="url(#clip0_2_787)">
<path d="M36.75 0H11.25C5.0368 0 0 5.0368 0 11.25V36.75C0 42.9632 5.0368 48 11.25 48H36.75C42.9632 48 48 42.9632 48 36.75V11.25C48 5.0368 42.9632 0 36.75 0Z" fill="#242938"/>
<path d="M19.0564 34.2411C19.0564 34.2411 17.6165 35.1174 20.0586 35.3681C23.0076 35.7439 24.5668 35.6811 27.8224 35.0554C27.8224 35.0554 28.6988 35.6196 29.8886 36.0574C22.5621 39.1879 13.2954 35.8695 19.0564 34.2411ZM18.1172 30.1714C18.1172 30.1714 16.5516 31.3612 18.9936 31.6112C22.1863 31.9241 24.6919 31.9869 29.0123 31.1111C29.0123 31.1111 29.5764 31.7376 30.5151 32.0505C21.687 34.6802 11.7933 32.3004 18.1172 30.1719V30.1714ZM35.3991 37.3095C35.3991 37.3095 36.4633 38.1859 34.2092 38.8751C30.0137 40.1272 16.6145 40.5036 12.8575 38.8751C11.5433 38.3109 14.0474 37.4966 14.861 37.3723C15.6752 37.1844 16.1131 37.1844 16.1131 37.1844C14.6732 36.1824 6.53295 39.2507 11.9805 40.1336C26.9454 42.5762 39.2811 39.0694 35.3985 37.3159L35.3991 37.3095ZM19.7451 25.9131C19.7451 25.9131 12.9197 27.5415 17.3024 28.1044C19.1809 28.3543 22.875 28.2922 26.319 28.0416C29.1368 27.7914 31.9609 27.2902 31.9609 27.2902C31.9609 27.2902 30.9587 27.7286 30.2702 28.1666C23.3141 29.9841 9.97701 29.1699 13.7968 27.2914C17.0536 25.7257 19.7451 25.9131 19.7451 25.9131ZM31.9543 32.7382C38.9681 29.1064 35.7113 25.6001 33.4571 26.0387C32.8929 26.1637 32.643 26.2888 32.643 26.2888C32.643 26.2888 32.8307 25.9131 33.2693 25.7887C37.7147 24.2231 41.2217 30.4849 31.8294 32.9269C31.8294 32.9269 31.8923 32.8641 31.9543 32.739V32.7382ZM20.4336 42.6307C27.1961 43.0693 37.5276 42.3806 37.7783 39.1866C37.7783 39.1866 37.2782 40.4387 32.2058 41.3781C26.4454 42.4423 19.3065 42.3172 15.1117 41.628C15.1117 41.628 15.9881 42.3793 20.4341 42.63L20.4336 42.6307Z" fill="white"/>
<path d="M27.6909 5.25C27.6909 5.25 31.5729 9.19478 23.9968 15.1424C17.9229 19.9635 22.6185 22.719 23.9968 25.8489C20.4277 22.6562 17.8614 19.8379 19.6136 17.208C22.1871 13.328 29.2616 11.4496 27.6909 5.25ZM25.6875 23.2204C27.5031 25.2866 25.1874 27.1652 25.1874 27.1652C25.1874 27.1652 29.8207 24.7866 27.6922 21.8426C25.7509 19.0249 24.2482 17.6472 32.3884 12.9504C32.3884 12.9504 19.5521 16.1432 25.6888 23.2191L25.6875 23.2204Z" fill="#F58219"/>
</g>
<defs>
<clipPath id="clip0_2_787">
<rect width="48" height="48" fill="white"/>
</clipPath>
</defs>
</svg>
