<svg width="48" height="48" viewBox="0 0 48 48" fill="none" xmlns="http://www.w3.org/2000/svg">
<g clip-path="url(#clip0_2_777)">
<path d="M36.75 0H11.25C5.0368 0 0 5.0368 0 11.25V36.75C0 42.9632 5.0368 48 11.25 48H36.75C42.9632 48 48 42.9632 48 36.75V11.25C48 5.0368 42.9632 0 36.75 0Z" fill="#F0DB4F"/>
<path d="M12.6209 40.1122L16.2943 37.8892C17.0029 39.1457 17.6475 40.2088 19.1938 40.2088C20.676 40.2088 21.6105 39.6291 21.6105 37.3738V22.0367H26.1214V37.4376C26.1214 42.1095 23.3827 44.2361 19.3871 44.2361C15.7787 44.2361 13.6841 42.3673 12.6209 40.1119" fill="#323330"/>
<path d="M28.5714 39.6289L32.2442 37.5024C33.2111 39.0814 34.4677 40.2412 36.6907 40.2412C38.5599 40.2412 39.7517 39.3067 39.7517 38.0179C39.7517 36.4714 38.5273 35.9235 36.4652 35.0216L35.3377 34.5381C32.0833 33.1528 29.9244 31.4128 29.9244 27.7397C29.9244 24.3564 32.5022 21.7787 36.5299 21.7787C39.3975 21.7787 41.4596 22.7777 42.9416 25.3875L39.4296 27.6429C38.6561 26.2575 37.8187 25.7098 36.5299 25.7098C35.2087 25.7098 34.371 26.5476 34.371 27.6429C34.371 28.9961 35.2087 29.544 37.1419 30.3819L38.2695 30.8651C42.1037 32.5086 44.2626 34.1837 44.2626 37.9534C44.2626 42.0135 41.0728 44.2365 36.7875 44.2365C32.5989 44.2365 29.8924 42.2389 28.5714 39.6289Z" fill="#323330"/>
</g>
<defs>
<clipPath id="clip0_2_777">
<rect width="48" height="48" fill="white"/>
</clipPath>
</defs>
</svg>
