<svg width="48" height="48" viewBox="0 0 48 48" fill="none" xmlns="http://www.w3.org/2000/svg">
<g clip-path="url(#clip0_2_782)">
<path d="M36.75 0H11.25C5.0368 0 0 5.0368 0 11.25V36.75C0 42.9632 5.0368 48 11.25 48H36.75C42.9632 48 48 42.9632 48 36.75V11.25C48 5.0368 42.9632 0 36.75 0Z" fill="#242938"/>
<path d="M23.8648 5.4375C14.345 5.4375 14.9395 9.56588 14.9395 9.56588L14.9501 13.8428H24.0347V15.127H11.3417C11.3417 15.127 5.25 14.4361 5.25 24.0416C5.25 33.6472 10.567 33.3068 10.567 33.3068H13.7402V28.8493C13.7402 28.8493 13.5692 23.5324 18.9724 23.5324H27.9825C27.9825 23.5324 33.0448 23.6141 33.0448 18.6398V10.4149C33.0448 10.4149 33.8134 5.4375 23.8648 5.4375ZM18.8556 8.31356C19.7595 8.31356 20.49 9.04408 20.49 9.94792C20.49 10.8518 19.7595 11.5823 18.8556 11.5823C17.9517 11.5823 17.2212 10.8518 17.2212 9.94792C17.2212 9.04408 17.9517 8.31356 18.8556 8.31356Z" fill="url(#paint0_linear_2_782)"/>
<path d="M24.1352 42.7421C33.6549 42.7421 33.0606 38.6139 33.0606 38.6139L33.0499 34.3369H23.9653V33.0527H36.6583C36.6583 33.0527 42.75 33.7436 42.75 24.138C42.75 14.5324 37.4331 14.8731 37.4331 14.8731H34.2598V19.3305C34.2598 19.3305 34.4308 24.6474 29.0276 24.6474H20.0175C20.0175 24.6474 14.9551 24.5655 14.9551 29.5399V37.7648C14.9551 37.7648 14.1865 42.7421 24.1352 42.7421ZM29.1444 39.8661C28.2405 39.8661 27.51 39.1356 27.51 38.2318C27.51 37.3279 28.2405 36.5974 29.1444 36.5974C30.0482 36.5974 30.7789 37.3279 30.7789 38.2318C30.7789 39.1356 30.0482 39.8661 29.1444 39.8661Z" fill="url(#paint1_linear_2_782)"/>
</g>
<defs>
<linearGradient id="paint0_linear_2_782" x1="8.85375" y1="8.793" x2="27.4374" y2="27.1912" gradientUnits="userSpaceOnUse">
<stop stop-color="#387EB8"/>
<stop offset="1" stop-color="#366994"/>
</linearGradient>
<linearGradient id="paint1_linear_2_782" x1="20.2605" y1="20.6072" x2="40.2172" y2="39.4729" gradientUnits="userSpaceOnUse">
<stop stop-color="#FFE052"/>
<stop offset="1" stop-color="#FFC331"/>
</linearGradient>
<clipPath id="clip0_2_782">
<rect width="48" height="48" fill="white"/>
</clipPath>
</defs>
</svg>
