<svg data-made-by="cubiq" width="48" height="48" viewBox="0 0 48 48" fill="none" xmlns="http://www.w3.org/2000/svg">
<rect width="48" height="48" rx="11.2" fill="#FBEBD7"/>
<path d="M11.4439 27.624C10.7786 27.2182 10.0734 26.9122 9.44801 26.4531C8.71658 25.911 8.13258 25.1944 7.74932 24.3686C7.54973 23.9494 7.37897 23.517 7.13947 23.1178C7.0552 22.9759 7.08403 22.9315 7.25035 22.9338C8.19949 22.9515 9.15529 22.8539 10.0978 23.0868L9.295 22.6588C8.80349 22.4117 8.38284 22.0437 8.07252 21.5895C7.7622 21.1353 7.57238 20.6096 7.52089 20.0619C7.45517 19.7944 7.42903 19.5187 7.44328 19.2436C7.62069 19.1971 7.69387 19.3456 7.79144 19.4388C8.08967 19.7545 8.45495 19.9993 8.86034 20.1551C8.97344 20.1152 8.9047 20.022 8.918 19.9533C8.91357 19.8942 8.91357 19.8349 8.918 19.7759C8.93584 19.5809 8.92463 19.3843 8.88474 19.1926C8.84869 19.0732 8.83002 18.9492 8.8293 18.8245C8.8293 18.6826 8.89583 18.6027 9.05106 18.6493C9.45418 18.8684 9.78823 19.1956 10.0157 19.594C10.0021 19.8112 10.014 20.0293 10.0512 20.2438C10.0512 20.8869 10.3218 21.4502 10.6145 22.0001C10.865 22.4952 11.1895 22.9491 11.5769 23.3462C11.5769 23.3063 11.5459 23.2553 11.5282 23.1977C11.3352 22.4991 11.1401 21.8028 10.9538 21.102C10.9049 20.1192 10.5576 19.1746 9.95807 18.3943C9.77506 18.127 9.56392 17.8802 9.32827 17.658C9.22143 17.5593 9.14457 17.4325 9.1065 17.2921C9.07989 16.8818 9.13311 16.4716 9.07767 16.0635C9.05328 15.9327 9.03775 15.7974 9.02001 15.6644C9.00737 15.6226 9.00737 15.5779 9.01999 15.5361C9.03262 15.4943 9.05731 15.4571 9.09098 15.4293C9.17968 15.3739 9.2573 15.4293 9.32605 15.4803C10 15.9526 10.5805 16.5459 11.0381 17.23C11.0491 17.25 11.0558 17.2744 11.0824 17.281C11.0336 16.3141 10.8451 15.396 10.1687 14.6398C9.94698 14.3959 9.98025 14.2739 10.222 14.1342C10.2857 14.1395 10.3447 14.1698 10.3861 14.2185C10.5886 14.4486 10.7711 14.6957 10.9316 14.9569C10.9638 15.007 10.9786 15.0662 10.9737 15.1255C10.9737 14.5511 11.058 13.9745 10.874 13.4113C10.8079 13.2344 10.7293 13.0625 10.6389 12.8968C10.5515 12.7453 10.4231 12.6214 10.2686 12.5395C10.1141 12.4575 9.93961 12.4207 9.76514 12.4333C9.67831 12.4385 9.59429 12.466 9.5212 12.5131C9.29944 12.6794 9.29943 12.8768 9.56112 13.0121C9.72744 13.0764 9.85384 13.174 9.8494 13.3713C9.84638 13.4632 9.81609 13.5522 9.76239 13.6268C9.70868 13.7014 9.63399 13.7584 9.54781 13.7905C9.15307 13.979 8.64745 13.735 8.439 13.2871C8.14405 12.6218 8.60088 11.8212 9.19299 11.6239C9.3101 11.5774 9.43337 11.5482 9.5589 11.5374C9.71856 11.5374 9.87824 11.5374 10.0357 11.5374C10.451 11.6073 10.8307 11.8151 11.1135 12.1273C11.1126 11.6714 11.1401 11.2159 11.1955 10.7634C11.26 10.5005 11.3529 10.2455 11.4727 10.0028C11.5948 9.77487 11.752 9.56759 11.9384 9.38848C12.1153 9.23184 12.3262 9.11861 12.5545 9.05778C12.7828 8.99696 13.0221 8.99022 13.2535 9.03809C13.2996 9.05028 13.3449 9.06584 13.3887 9.08466C13.5043 9.14224 13.6105 9.21701 13.7036 9.30643C13.7665 9.3633 13.8217 9.42816 13.8678 9.49936C14.1871 10.0338 13.7613 10.739 12.9097 10.7856C13.0527 10.9383 13.2381 11.0448 13.442 11.0916C13.7332 11.1587 14.0303 11.1974 14.329 11.2069C15.4565 11.2342 16.5837 11.1398 17.6909 10.9253C18.0258 10.8588 18.0502 10.8344 17.9615 10.5062C17.6178 9.22659 17.2607 7.95145 16.9236 6.66967C16.8793 6.41686 16.815 6.19953 16.52 6.09974C16.4142 6.05376 16.3216 5.98195 16.2507 5.89091C16.1798 5.79986 16.1328 5.69247 16.1142 5.57859C16.0739 5.35814 16.1099 5.13055 16.2162 4.93326C16.2673 4.85557 16.3337 4.78916 16.4114 4.73811C16.6058 4.63046 16.8312 4.59288 17.05 4.63167C17.5357 4.79577 17.7309 5.12398 17.6178 5.61186C17.5998 5.66328 17.6015 5.7195 17.6223 5.7698C17.6432 5.82011 17.6818 5.86098 17.7309 5.88463C18.3207 6.24832 18.9328 6.57209 19.5294 6.92469C19.6646 7.00453 19.689 6.92469 19.7134 6.81159C19.7999 6.42794 19.8642 6.03986 19.9596 5.65621C19.9788 5.62204 19.9907 5.58426 19.9946 5.54525C19.9985 5.50625 19.9943 5.46686 19.9822 5.42957C19.9701 5.39227 19.9504 5.35789 19.9244 5.32857C19.8984 5.29926 19.8666 5.27566 19.831 5.25925C19.7304 5.19466 19.6528 5.09998 19.6092 4.9887C19.5354 4.84649 19.5074 4.685 19.5288 4.52624C19.5502 4.36749 19.6201 4.21922 19.7289 4.10165C19.8166 3.98813 19.9369 3.90413 20.0736 3.86092C20.2104 3.81771 20.3571 3.81737 20.494 3.85993C20.6458 3.89112 20.7843 3.96832 20.8906 4.08101C20.997 4.1937 21.066 4.33641 21.0884 4.48974C21.1189 4.66203 21.0875 4.83958 20.9996 4.99092C20.9797 5.01585 20.9654 5.04479 20.9577 5.07576C20.9499 5.10673 20.949 5.13901 20.9549 5.17038C20.9608 5.20175 20.9734 5.23148 20.9918 5.25753C21.0103 5.28359 21.0341 5.30536 21.0617 5.32135C21.3833 5.56529 21.6361 5.88241 21.9488 6.13744C22.0663 6.25275 22.1927 6.3592 22.3058 6.47673C22.4189 6.59427 22.481 6.55657 22.552 6.4479C22.6499 6.29615 22.7337 6.13583 22.8026 5.9689C22.8176 5.92051 22.8218 5.8694 22.8149 5.8192C22.808 5.769 22.7902 5.72093 22.7627 5.67839C22.6852 5.55947 22.6359 5.42447 22.6185 5.28365C22.6382 5.16679 22.6887 5.05731 22.7649 4.96653C22.9866 4.62501 23.2084 4.28128 23.4479 3.94642C23.4763 3.91764 23.4982 3.88313 23.5121 3.8452C23.5261 3.80727 23.5318 3.7668 23.5289 3.72649C23.5259 3.68618 23.5144 3.64696 23.4951 3.61146C23.4758 3.57596 23.4491 3.54499 23.4169 3.52063C23.3427 3.4456 23.2849 3.35609 23.2469 3.2577C23.2089 3.15931 23.1917 3.05414 23.1961 2.94877C23.2006 2.8434 23.2268 2.74008 23.273 2.64528C23.3192 2.55047 23.3845 2.4662 23.4647 2.39774C23.5449 2.32928 23.6384 2.2781 23.7393 2.24738C23.8402 2.21667 23.9463 2.20708 24.0511 2.21922C24.1559 2.23136 24.257 2.26497 24.3482 2.31795C24.4394 2.37093 24.5187 2.44214 24.5811 2.52714C24.6817 2.66553 24.7335 2.83341 24.7282 3.00442C24.723 3.17542 24.6611 3.33985 24.5523 3.47185C24.3549 3.718 24.3527 3.72022 24.5301 3.98412C24.7319 4.28571 24.9248 4.58953 25.14 4.88226C25.2319 4.98087 25.2968 5.10156 25.3285 5.23264C25.3167 5.38143 25.2611 5.52341 25.1688 5.64069C25.1256 5.71068 25.1027 5.7913 25.1027 5.87354C25.1027 5.95578 25.1256 6.0364 25.1688 6.10639C25.2442 6.24388 25.3063 6.38803 25.3906 6.52552C25.4748 6.66301 25.5303 6.66079 25.6278 6.55878C25.7631 6.41907 25.905 6.2838 26.0381 6.13965C26.2776 5.89793 26.5104 5.65178 26.7588 5.42114C26.8362 5.36831 26.8905 5.28798 26.9107 5.19651C26.9309 5.10504 26.9154 5.00931 26.8675 4.92883C26.7861 4.75404 26.772 4.55535 26.828 4.37085C26.8841 4.18634 27.0062 4.02901 27.1711 3.92899C27.3359 3.82898 27.5319 3.79333 27.7214 3.82888C27.9109 3.86442 28.0807 3.96866 28.1981 4.12161C28.3167 4.26265 28.3802 4.44186 28.377 4.62612C28.3737 4.81038 28.3039 4.98722 28.1803 5.12398C27.9142 5.37013 27.9297 5.60964 28.014 5.90458C28.0983 6.19953 28.1692 6.49891 28.2358 6.79164C28.2668 6.92469 28.3245 6.95796 28.4575 6.88921C29.0363 6.56544 29.6173 6.2461 30.1828 5.90458C30.2493 5.87038 30.3016 5.8138 30.3304 5.74482C30.3592 5.67584 30.3627 5.59891 30.3403 5.52759C30.3019 5.34813 30.3297 5.16085 30.4186 5.00028C30.5074 4.8397 30.6513 4.71666 30.8237 4.65384C30.9798 4.59079 31.1527 4.5828 31.314 4.63117C31.4752 4.67954 31.6152 4.7814 31.7108 4.91996C31.8239 5.07525 31.8751 5.26705 31.8546 5.45805C31.8341 5.64904 31.7433 5.82559 31.5999 5.95337C31.5905 5.96539 31.5793 5.97587 31.5666 5.98442C31.2163 6.15074 31.1409 6.48338 31.0499 6.81159C30.7129 8.02907 30.3847 9.25099 30.0542 10.4662C29.9566 10.8122 29.9766 10.8344 30.327 10.9098C31.5342 11.154 32.7665 11.2515 33.9972 11.2003C34.4237 11.1922 34.8339 11.0353 35.157 10.7568C34.9915 10.7835 34.822 10.7706 34.6625 10.7191C34.4728 10.6599 34.3086 10.5387 34.196 10.3751C34.0834 10.2114 34.029 10.0147 34.0415 9.81648C34.0632 9.6151 34.153 9.42718 34.2963 9.28396C34.4395 9.14075 34.6274 9.05085 34.8288 9.02922C35.0488 8.99872 35.2729 9.01773 35.4847 9.08487C35.6965 9.15201 35.8906 9.26559 36.0529 9.41731C36.1216 9.48605 36.1846 9.56021 36.2414 9.63907C36.5147 9.99579 36.6994 10.4123 36.7803 10.8543C36.8704 11.2797 36.9017 11.7155 36.8734 12.1494C37.6518 11.4575 38.357 11.34 39.06 11.7746C39.1326 11.8152 39.1955 11.8712 39.2441 11.9388C39.2796 11.9809 39.3173 12.023 39.3505 12.0696C39.4254 12.1783 39.4907 12.2933 39.5457 12.4133C39.5717 12.4781 39.5925 12.5448 39.6078 12.6129C39.6078 12.6617 39.6078 12.7105 39.6211 12.7593C39.6262 12.8594 39.6203 12.9598 39.6033 13.0587C39.5604 13.2201 39.4849 13.371 39.3816 13.5022C39.2938 13.63 39.1716 13.7304 39.0291 13.7916C38.8866 13.8528 38.7297 13.8724 38.5766 13.8481C38.4777 13.834 38.3855 13.7898 38.3126 13.7216C38.2396 13.6534 38.1893 13.5644 38.1685 13.4667C38.1414 13.3828 38.1472 13.2917 38.1846 13.2118C38.2221 13.132 38.2885 13.0693 38.3703 13.0365C38.4901 12.9921 38.6564 13.0143 38.6608 12.8147C38.6622 12.735 38.637 12.6571 38.5893 12.5932C38.5415 12.5294 38.4738 12.4833 38.3969 12.4621C38.2849 12.4119 38.1614 12.3926 38.0393 12.4062C37.9172 12.4199 37.801 12.466 37.7028 12.5397C37.2992 12.8014 37.1484 13.205 37.0531 13.6485L37.0375 13.7417C37.0052 14.1578 36.9955 14.5753 37.0087 14.9924C37.1662 14.8128 37.2593 14.6443 37.3879 14.5045C37.5165 14.3648 37.6274 14.2096 37.8314 14.1874C38.0177 14.285 38.0089 14.4269 37.8847 14.5533C37.1373 15.3317 36.9355 16.3008 36.9067 17.3298C37.2279 16.7502 37.6659 16.2435 38.1929 15.8418C38.3345 15.7194 38.4826 15.6046 38.6364 15.498C38.8405 15.3716 38.927 15.4116 38.938 15.6488C38.9546 15.8611 38.948 16.0745 38.9181 16.2853C38.89 16.6194 38.8796 16.9547 38.887 17.2899C38.8863 17.3157 38.881 17.3413 38.8715 17.3653C38.6498 17.6735 38.3703 17.9441 38.133 18.2523C37.522 19.0293 37.1382 19.9604 37.0242 20.9423C36.8867 21.7385 36.6228 22.4947 36.4299 23.2819C36.4283 23.2854 36.4275 23.2892 36.4275 23.293C36.4275 23.2968 36.4283 23.3006 36.4299 23.3041C36.4299 23.3041 36.4454 23.3041 36.4543 23.3041C37.0513 22.5991 37.5149 21.7913 37.8226 20.9201C37.914 20.693 37.9534 20.4482 37.9379 20.2039C37.9615 19.994 37.9674 19.7826 37.9556 19.5718C38.1877 19.2027 38.5087 18.8977 38.8893 18.6848C39.029 18.6005 39.111 18.656 39.111 18.8311C39.1288 19.0529 39.0578 19.2525 39.0711 19.4676C39.0711 19.6251 39.0711 19.7825 39.0711 19.94C39.0711 20.1462 39.1044 20.1617 39.2929 20.0664C39.6361 19.8713 39.9554 19.6369 40.2442 19.3678C40.2842 19.3292 40.3264 19.2929 40.3706 19.2591C40.4239 19.2237 40.4815 19.186 40.5458 19.2192C40.5731 19.2365 40.5945 19.2617 40.6071 19.2914C40.6198 19.3211 40.6232 19.3539 40.6168 19.3855C40.5214 20.8492 40.0446 22.0866 38.6098 22.7541C38.5012 22.8029 38.4058 22.8739 38.2838 22.9338C39.0982 22.8449 39.9184 22.8212 40.7365 22.8628C40.9583 22.8628 41.0137 23.0069 40.8918 23.1843C40.7037 23.4953 40.5442 23.8226 40.415 24.1623C40.1563 24.7744 39.7948 25.3376 39.3461 25.8278C39.2578 25.9158 39.1748 26.0091 39.0977 26.1072C38.5364 26.5854 37.9118 26.9839 37.2416 27.2914C37.042 27.4156 36.8291 27.5132 36.6228 27.624C36.3904 27.7553 36.1681 27.9035 35.9576 28.0676C35.8311 28.1607 35.7003 28.2494 35.5806 28.3514C35.533 28.3867 35.4966 28.435 35.4758 28.4905C35.4549 28.5459 35.4505 28.6062 35.463 28.6641C35.4896 28.7949 35.5495 28.8371 35.6848 28.7683C36.7403 28.2362 37.8886 27.9124 39.0667 27.8148C39.0822 27.8148 39.0977 27.8148 39.1132 27.8148C39.2027 27.7902 39.298 27.7988 39.3816 27.8392C39.2759 27.7963 39.1748 27.7428 39.08 27.6795C38.8039 27.5046 38.4954 27.3869 38.173 27.3335C38.0643 27.3069 37.929 27.3069 37.9224 27.1428C38.1042 26.8811 38.3903 26.8789 38.6653 26.8457C38.8338 26.8457 39.0024 26.8457 39.1709 26.8457C39.8184 26.9462 40.4214 27.2372 40.9029 27.6817C41.0982 27.8519 41.2819 28.0349 41.4528 28.2295C41.5444 28.305 41.6052 28.4115 41.6236 28.5288C41.6236 28.6131 41.7677 28.6597 41.7012 28.7506C41.6347 28.8415 41.5127 28.8105 41.4196 28.7883C39.8672 28.4468 38.3548 28.6286 36.8357 29.0655C36.9381 29.1306 37.0543 29.1708 37.175 29.183C37.8402 29.3697 38.4231 29.7752 38.8294 30.334C38.8848 30.4116 38.9913 30.4981 38.9225 30.6023C38.8864 30.6489 38.84 30.6866 38.7869 30.7124C38.7338 30.7382 38.6755 30.7513 38.6165 30.7509C38.5067 30.753 38.3985 30.7246 38.3038 30.6688C38.1453 30.5804 37.9761 30.5126 37.8004 30.467C37.9892 30.6994 38.1626 30.9438 38.3193 31.1989C38.5412 31.5531 38.6585 31.9629 38.6575 32.3809C38.6566 32.799 38.5375 33.2082 38.3141 33.5615C38.0906 33.9148 37.7718 34.1977 37.3945 34.3776C37.0172 34.5576 36.5967 34.6272 36.1815 34.5785C36.0463 34.5785 36.0196 34.6162 36.0219 34.7315C36.0219 34.9378 36.0108 35.144 36.0219 35.348C36.0368 35.4679 36.0131 35.5894 35.954 35.6947C35.8949 35.8001 35.8037 35.8838 35.6937 35.9335C34.913 36.3925 34.1413 36.8671 33.3718 37.3439C31.327 38.5918 29.4014 40.0253 27.6193 41.6261C26.3409 42.7684 25.2221 44.0775 24.2928 45.5181C24.0844 45.8485 23.9047 45.8751 23.7273 45.5868C22.4211 43.469 20.6648 41.7725 18.7487 40.2202C16.7686 38.6463 14.6605 37.2406 12.4463 36.0178C12.107 35.8248 11.9428 35.6119 11.9805 35.2239C12.0005 35.0221 12.0426 34.7626 11.9428 34.6273C11.8431 34.492 11.5747 34.5963 11.3818 34.5874C10.4526 34.5453 9.57664 33.7003 9.45023 32.7445C9.38916 32.3698 9.41435 31.9861 9.52387 31.6226C9.63338 31.2591 9.82436 30.9253 10.0823 30.6467C10.1288 30.5979 10.1687 30.5424 10.2331 30.4604C10.0627 30.5021 9.89805 30.5647 9.74296 30.6467C9.65879 30.6901 9.57215 30.7286 9.4835 30.762C9.40757 30.7849 9.32631 30.7828 9.25166 30.7561C9.177 30.7293 9.11291 30.6793 9.0688 30.6134C8.97788 30.5092 9.10872 30.4271 9.16194 30.3562C9.55703 29.7998 10.1244 29.389 10.7764 29.1875C10.8961 29.1476 11.0159 29.1143 11.1667 29.0699C10.7546 28.9265 10.3288 28.8261 9.89598 28.7706C9.05088 28.6067 8.18595 28.5708 7.33018 28.6641C7.04189 28.704 6.75803 28.7639 6.46974 28.8083C6.41208 28.8083 6.3389 28.8304 6.29677 28.7661C6.25463 28.7018 6.30785 28.6442 6.34333 28.5976C6.94653 27.8125 7.64952 27.1628 8.65189 26.9344C8.8957 26.8654 9.15192 26.8524 9.40149 26.8961C9.65105 26.9399 9.88753 27.0394 10.0933 27.1872C9.63417 27.2633 9.1947 27.4299 8.80047 27.6773C8.72064 27.8414 8.85147 27.8303 8.93796 27.8303C9.19733 27.8368 9.45593 27.8612 9.71191 27.9035C10.578 28.0244 11.4181 28.2882 12.1979 28.6841C12.291 28.7306 12.3952 28.8282 12.4884 28.6841C12.5815 28.5399 12.4884 28.449 12.3908 28.3625C12.3125 28.3099 12.2383 28.2513 12.169 28.1873C12.0287 28.0214 11.8568 27.885 11.6634 27.7859C11.5799 27.7477 11.5051 27.6926 11.4439 27.624Z" fill="#2B1A10"/>
<path d="M12.2068 28.1474C12.3176 28.2317 12.4285 28.3115 12.5416 28.4002C12.5742 28.4224 12.5989 28.4542 12.6124 28.4912C12.626 28.5282 12.6276 28.5685 12.617 28.6064C12.5594 28.8637 12.4618 28.9147 12.2223 28.7839C11.4226 28.3645 10.5558 28.0883 9.66092 27.9678C9.32162 27.9145 8.97789 27.9057 8.6275 27.8768C8.63274 27.83 8.65276 27.7861 8.68466 27.7514C8.71656 27.7167 8.75867 27.693 8.80491 27.6839C8.89583 27.7571 8.9668 27.6839 9.03998 27.6484C9.58302 27.4149 10.1854 27.3568 10.7631 27.4821C10.9494 27.5309 11.1268 27.6085 11.3086 27.6728C11.6393 27.7628 11.946 27.9249 12.2068 28.1474Z" fill="#915836"/>
<path d="M39.3927 29.3826C39.8251 29.3826 40.1112 29.5445 40.2221 29.8261C40.2687 29.9223 40.2774 30.0324 40.2466 30.1347C40.2158 30.237 40.1477 30.3239 40.0557 30.3783C39.8783 30.487 39.7275 30.4426 39.5656 30.2275C39.4109 29.9988 39.2234 29.794 39.009 29.6199C38.8937 29.5356 38.9048 29.4735 39.0423 29.4447C39.1798 29.4159 39.3195 29.3981 39.3927 29.3826Z" fill="#2E1D11"/>
<path d="M7.74934 30.0279C7.7401 29.9288 7.76098 29.8293 7.80925 29.7422C7.85752 29.6552 7.93093 29.5847 8.01988 29.5401C8.16576 29.4537 8.32911 29.4011 8.49796 29.3862C8.6668 29.3712 8.83686 29.3942 8.99565 29.4536C9.02669 29.4536 9.0777 29.4536 9.08435 29.5135C9.091 29.5733 9.05108 29.5844 9.01782 29.5999C8.7512 29.7536 8.53359 29.9796 8.39023 30.2519C8.35254 30.3218 8.29138 30.3762 8.21755 30.4054C8.14371 30.4346 8.06193 30.4368 7.98662 30.4116C7.90582 30.3896 7.83638 30.3378 7.79233 30.2666C7.74828 30.1953 7.73291 30.1101 7.74934 30.0279Z" fill="#2D1D11"/>
<path d="M40.2664 31.6402C40.2678 31.7058 40.2555 31.771 40.2304 31.8317C40.2054 31.8924 40.168 31.9473 40.1208 31.9929C40.0735 32.0385 40.0173 32.0739 39.9558 32.0967C39.8942 32.1196 39.8286 32.1295 39.763 32.1258C39.7044 32.1238 39.6467 32.1102 39.5934 32.0858C39.54 32.0613 39.4921 32.0266 39.4522 31.9835C39.4124 31.9403 39.3816 31.8898 39.3615 31.8346C39.3413 31.7795 39.3324 31.721 39.335 31.6623C39.3281 31.5978 39.3353 31.5325 39.3563 31.4711C39.3773 31.4097 39.4116 31.3536 39.4566 31.3069C39.5017 31.2601 39.5564 31.2238 39.6171 31.2006C39.6777 31.1773 39.7426 31.1676 39.8074 31.1722C39.869 31.17 39.9305 31.1806 39.9878 31.2035C40.0451 31.2263 40.097 31.2608 40.1402 31.3049C40.1834 31.3489 40.2169 31.4015 40.2387 31.4592C40.2604 31.5169 40.2699 31.5786 40.2664 31.6402Z" fill="#2D1D11"/>
<path d="M8.65856 31.6601C8.65739 31.721 8.64426 31.781 8.61989 31.8368C8.59552 31.8926 8.5604 31.943 8.51654 31.9853C8.47268 32.0275 8.42092 32.0606 8.36425 32.0829C8.30757 32.1051 8.24707 32.1159 8.1862 32.1147C8.12534 32.1136 8.0653 32.1004 8.00951 32.0761C7.95373 32.0517 7.90328 32.0166 7.86107 31.9727C7.81886 31.9289 7.7857 31.8771 7.76348 31.8204C7.74126 31.7637 7.73043 31.7032 7.73159 31.6424C7.73101 31.5812 7.74248 31.5206 7.76534 31.4638C7.78821 31.4071 7.82202 31.3554 7.86485 31.3118C7.90769 31.2681 7.95869 31.2333 8.01497 31.2094C8.07125 31.1854 8.1317 31.1728 8.19286 31.1722C8.25687 31.1687 8.32088 31.1791 8.38049 31.2027C8.4401 31.2263 8.49389 31.2625 8.53815 31.3089C8.58242 31.3552 8.6161 31.4106 8.63689 31.4713C8.65767 31.5319 8.66507 31.5963 8.65856 31.6601Z" fill="#2C1C11"/>
<path d="M12.2067 28.1474C11.911 27.9877 11.6117 27.8295 11.3086 27.6728C11.3529 27.6529 11.4106 27.6861 11.4439 27.6329C11.7396 27.733 12.0031 27.9107 12.2067 28.1474Z" fill="#C69E84"/>
<path d="M12.5904 31.6956C12.2156 31.1745 11.4816 30.8085 10.5369 31.1944C10.6792 31 10.8445 30.8235 11.0292 30.6688C11.1556 30.6467 11.2376 30.5402 11.3574 30.4981C11.6733 30.3983 12.0129 30.4021 12.3265 30.5092C12.3952 30.5291 12.4618 30.609 12.5483 30.5225C12.5747 30.5159 12.5994 30.5035 12.6205 30.4863C12.6416 30.469 12.6585 30.4473 12.6702 30.4227C13.1673 29.7263 13.4432 28.8963 13.4619 28.0409C13.4486 25.158 13.4508 22.2751 13.4486 19.3811C13.4486 17.7888 13.4486 16.1966 13.4597 14.6021C13.5883 14.713 13.4841 14.8549 13.5196 14.9614C13.5229 14.9163 13.5229 14.8711 13.5196 14.8261C13.5307 14.6465 13.626 14.5467 13.7923 14.6043C14.1468 14.6765 14.5093 14.7004 14.8701 14.6753C15.1939 14.6753 15.2138 14.713 15.0675 15.0035C15.0463 15.0703 15.0156 15.1338 14.9766 15.192C14.8495 15.2737 14.6992 15.3118 14.5486 15.3007C14.4465 15.3007 14.3734 15.3339 14.3756 15.4404C14.3493 15.91 14.3619 16.381 14.4133 16.8486C14.434 16.9887 14.4414 17.1306 14.4355 17.2721L14.4355 28.622C14.4695 29.5629 14.172 30.4859 13.595 31.2299C13.5653 31.2664 13.5479 31.3115 13.5455 31.3586C13.5432 31.4056 13.5558 31.4522 13.5817 31.4916C13.8522 31.9551 14.0518 32.454 14.3091 32.9242C14.3703 33.0622 14.4834 33.1705 14.624 33.2258C14.8072 33.3758 14.9751 33.5437 15.1251 33.7269C15.2959 34.0552 15.6042 34.2437 15.8703 34.4743C16.7643 35.2251 17.714 35.9071 18.711 36.5145C19.8622 37.2486 20.912 38.1306 21.8335 39.138C22.1484 39.4795 22.4455 39.8365 22.7804 40.1581C23.1153 40.4796 23.4967 40.8012 23.8626 41.1094C23.958 41.1915 24.0223 41.1405 24.0844 41.0873C24.6284 40.6691 25.1325 40.2014 25.5901 39.6901C26.4346 38.6879 27.4034 37.7974 28.473 37.0401C29.5087 36.3349 30.5776 35.6785 31.5777 34.9245C31.9572 34.6394 32.3208 34.3337 32.6666 34.0086C32.7353 33.9443 32.8085 33.88 32.7974 33.7691C32.997 33.5872 33.1567 33.361 33.374 33.1903C33.5337 33.1903 33.6113 33.0794 33.6734 32.9685C33.9262 32.4784 34.1635 31.9817 34.454 31.5093C34.5072 31.4206 34.5493 31.3253 34.454 31.2299C33.8148 30.4338 33.4848 29.4336 33.5248 28.4135C33.5403 24.4218 33.5248 20.4079 33.5248 16.4028C33.5248 16.0635 33.5248 15.7242 33.5359 15.3872C33.5359 15.294 33.4161 15.2718 33.4095 15.1831C33.394 15.1521 33.4938 15.1476 33.4317 15.1188C33.3696 15.09 33.323 15.0989 33.2831 15.0589C33.1922 14.9702 33.0946 14.8704 33.119 14.7374C33.1434 14.6043 33.2809 14.611 33.3873 14.6065C33.457 14.5952 33.5254 14.5766 33.5913 14.5511C33.6827 14.5338 33.7759 14.5286 33.8685 14.5356C34.0363 14.5194 34.205 14.555 34.352 14.6376C34.4252 14.6886 34.383 14.5866 34.4074 14.5622C34.4142 14.5291 34.4322 14.4993 34.4584 14.4779C34.5582 14.54 34.5028 14.6376 34.5028 14.7152C34.5028 19.0026 34.5028 23.29 34.5028 27.5775C34.5028 28.3847 34.5959 29.1675 35.004 29.8816C35.1282 30.1033 35.2745 30.3051 35.412 30.5158C35.514 30.6023 35.6049 30.5158 35.6936 30.4892C35.8897 30.4348 36.0914 30.4036 36.2946 30.3961C36.4157 30.3856 36.5375 30.4036 36.6503 30.4487C36.7631 30.4937 36.8638 30.5646 36.9444 30.6555C37.1535 30.8038 37.3301 30.9932 37.4633 31.2122C36.8113 30.9505 36.2237 30.9638 35.6892 31.4095C35.3654 31.8131 35.004 32.1901 34.8354 32.7024C34.6403 33.2834 34.5272 33.86 34.7356 34.461C34.7507 34.5059 34.756 34.5535 34.7512 34.6007C34.7245 34.7604 34.6026 34.8091 34.4673 34.8446C34.2195 34.8962 33.9657 34.9126 33.7133 34.8934C33.4192 34.8887 33.131 34.9755 32.8883 35.1418C31.4779 36.1952 29.9744 37.1155 28.5618 38.1644C27.3852 39.0302 26.301 40.0148 25.3262 41.1028C24.9178 41.5299 24.5378 41.9833 24.1886 42.46C24.0422 42.6817 23.9402 42.664 23.7894 42.46C23.2071 41.666 22.5571 40.9241 21.8468 40.2423C20.8784 39.3142 19.8453 38.4561 18.7554 37.6743C17.5756 36.8316 16.3382 36.0688 15.185 35.1884C15.0506 35.0726 14.8931 34.9866 14.723 34.9362C14.5529 34.8857 14.374 34.8719 14.1982 34.8956C13.9244 34.8907 13.6518 34.8588 13.3843 34.8003C13.3363 34.7974 13.2913 34.7758 13.2589 34.7402C13.2266 34.7045 13.2095 34.6577 13.2113 34.6096C13.4177 33.9943 13.3965 33.3255 13.1515 32.7246C13.0479 32.46 12.91 32.2102 12.7412 31.9817C12.6793 31.8929 12.6286 31.7968 12.5904 31.6956Z" fill="#AC7550"/>
<path d="M34.7179 34.5896C34.3453 33.3987 34.7179 32.403 35.5362 31.5293C35.5778 31.4716 35.6382 31.43 35.7069 31.4117C35.7069 31.4273 35.6914 31.445 35.7069 31.4561C35.82 31.8863 35.6116 32.2301 35.4275 32.5937C35.3155 32.8709 35.2553 33.1663 35.2501 33.4653C35.205 33.9429 35.1887 34.4227 35.2013 34.9023C35.2055 34.9862 35.1843 35.0694 35.1403 35.1411C35.0964 35.2127 35.0319 35.2694 34.9552 35.3037C34.3719 35.5942 33.8131 35.9335 33.2609 36.2794C32.6089 36.6875 31.9658 37.1111 31.3183 37.528C30.531 38.0336 29.777 38.5858 29.0341 39.1513C28.3511 39.6702 27.7035 40.229 27.0648 40.8034C26.5792 41.2469 26.0891 41.6727 25.6433 42.1517C25.1244 42.7106 24.6077 43.2605 24.1265 43.8637C24.0267 43.9857 23.9779 43.9657 23.8936 43.8637C23.2451 43.0503 22.5459 42.2785 21.8002 41.553C20.8343 40.6302 19.8186 39.7611 18.7576 38.9495C17.8306 38.2443 16.8726 37.5834 15.8969 36.9536C15.2316 36.5234 14.5663 36.0843 13.8633 35.7139C13.6061 35.5787 13.3577 35.4301 13.0938 35.3103C12.7744 35.164 12.8454 34.8668 12.8321 34.6118C12.8399 34.108 12.8065 33.6044 12.7323 33.106C12.6847 32.844 12.6019 32.5896 12.4862 32.3498C12.4334 32.2777 12.4076 32.1894 12.4132 32.1002C12.4189 32.0111 12.4557 31.9267 12.5172 31.8619C12.5523 31.8103 12.5806 31.7544 12.6015 31.6956C13.2379 32.2611 13.7103 33.7247 13.2668 34.594C13.2357 34.6251 13.2468 34.665 13.2401 34.7027C13.1781 35.011 13.1803 35.0309 13.5085 35.0287C13.9808 35.0287 14.4488 35.0797 14.9189 35.0819C15.0368 35.0775 15.154 35.1019 15.2604 35.1529C16.0211 35.6829 16.775 36.2284 17.549 36.7429C18.4072 37.3129 19.2499 37.9072 20.0527 38.5547C21.5013 39.6815 22.7871 41.0032 23.8737 42.4821C23.9779 42.6307 24.04 42.5731 24.1132 42.4666C24.8252 41.4933 25.6343 40.595 26.5282 39.7855C27.4114 38.9527 28.3599 38.1918 29.3645 37.5102C30.5155 36.7119 31.6953 35.9579 32.8196 35.1174C33.3028 35.0657 33.7884 35.0406 34.2744 35.042H34.3697C34.5183 35.042 34.7001 35.0864 34.7999 34.9755C34.8997 34.8646 34.7112 34.7204 34.7179 34.5896Z" fill="#673017"/>
<path d="M24.0533 11.8589H23.8648C23.5726 11.9547 23.2675 12.0049 22.96 12.0075C21.4609 12.1472 19.9795 12.4111 18.487 12.6063C17.5268 12.7327 16.5666 12.8502 15.6041 12.8968C14.8634 12.9345 14.1205 12.8724 13.3865 12.9655C13.2908 12.9741 13.1954 12.9472 13.1182 12.8901H13.0694C12.8099 12.8569 12.8121 12.8569 12.8077 13.1119C12.8033 13.3669 12.8232 13.5554 12.7966 13.7927C12.6259 13.8104 12.6303 13.6752 12.6192 13.5709C12.6026 13.3976 12.6026 13.2231 12.6192 13.0498C12.6274 12.97 12.6104 12.8897 12.5707 12.8201C12.5309 12.7505 12.4703 12.6951 12.3974 12.6617C12.2466 12.5708 12.1757 12.5907 12.1269 12.7637C12.1021 12.8877 12.0939 13.0145 12.1025 13.1407C12.1025 13.2893 12.1025 13.4401 12.1025 13.5842C12.1025 13.6752 12.1025 13.7749 12.0049 13.8282C11.9384 13.806 11.9583 13.7506 11.9583 13.7084V12.4311C11.9539 12.4076 11.9544 12.3835 11.9597 12.3602C11.965 12.3369 11.9752 12.315 11.9894 12.2958C12.2939 12.2581 12.6007 12.2425 12.9075 12.2492C13.8212 12.2492 14.737 12.2781 15.6485 12.216C16.2982 12.1738 16.948 12.1029 17.5933 12.0097C19.3674 11.7569 21.1415 11.5085 22.9157 11.3644C24.0807 11.3048 25.2488 11.3485 26.4062 11.4952C27.7545 11.6261 29.0917 11.8523 30.4356 12.023C31.3803 12.145 32.3295 12.2182 33.2831 12.2448C34.1125 12.2714 34.9396 12.2448 35.769 12.2647C35.8622 12.2647 35.9597 12.2403 36.044 12.3069V12.9278C35.9154 13.123 35.8799 13.1341 35.7735 12.9589C35.667 12.7837 35.6182 12.8325 35.5406 12.9589C35.5095 13.0223 35.47 13.0812 35.4231 13.1341C35.3632 13.1895 35.3078 13.276 35.2013 13.2072C35.1836 12.8724 35.1836 12.8724 34.8642 12.8812C34.8208 12.9158 34.7701 12.94 34.7159 12.9519C34.6617 12.9638 34.6055 12.9631 34.5516 12.95C34.2464 12.9116 33.9385 12.8997 33.6312 12.9145C32.1729 12.8995 30.7174 12.781 29.2758 12.5597C28.1049 12.4111 26.9429 12.1805 25.7631 12.0873C25.3706 12.0563 24.9803 11.9898 24.5877 11.9587C24.4049 11.9595 24.2235 11.9257 24.0533 11.8589Z" fill="#AE7853"/>
<path d="M14.9566 15.1676C14.9367 15.0102 14.9566 14.8705 15.1274 14.8039C15.072 14.7086 14.9943 14.7463 14.93 14.7418C14.5419 14.713 14.1472 14.7995 13.7636 14.6598C13.6394 14.6132 13.5418 14.6842 13.5418 14.8438C13.5443 14.9454 13.5391 15.0469 13.5263 15.1477C13.4531 14.9725 13.544 14.7751 13.4575 14.6021C13.4575 14.5533 13.4154 14.4957 13.493 14.4668C13.7468 14.5182 14.0061 14.5375 14.2647 14.5245C18.2565 14.4801 22.2659 14.5112 26.2688 14.5045C28.4221 14.5045 30.5754 14.5045 32.7287 14.5045C32.9505 14.5045 33.1855 14.54 33.414 14.5312C33.4455 14.5275 33.4774 14.5315 33.5071 14.5427C33.5368 14.5538 33.5634 14.5719 33.5847 14.5955C33.5673 14.6212 33.5433 14.6418 33.5152 14.6551C33.4871 14.6683 33.456 14.6738 33.4251 14.6709C33.3341 14.6709 33.1656 14.6176 33.2033 14.764C33.241 14.9104 33.2831 15.0678 33.4871 15.0523C33.5027 15.0523 33.516 15.0412 33.5315 15.039C33.5847 15.039 33.6557 15.0102 33.669 15.0811C33.6823 15.1521 33.598 15.161 33.5426 15.1676C33.5108 15.1698 33.479 15.1698 33.4472 15.1676C33.4119 15.1992 33.3704 15.2232 33.3254 15.238C33.2804 15.2529 33.2328 15.2584 33.1855 15.2541C33.0747 15.2541 32.9638 15.2541 32.8529 15.2541C27.6903 15.2541 22.5269 15.2541 17.3628 15.2541C16.6975 15.2541 16.0211 15.2541 15.3514 15.2541C15.205 15.2541 15.0631 15.2763 14.9566 15.1676Z" fill="#AF7A56"/>
<path d="M11.9717 12.3224V13.7794H12.0183C12.0183 13.4911 12.0183 13.2006 12.0183 12.9123C12.0142 12.8017 12.0402 12.6921 12.0937 12.5952C12.1802 12.4399 12.2445 12.4599 12.4041 12.5442C12.739 12.7194 12.6747 12.9877 12.688 13.276C12.688 13.4467 12.6037 13.6397 12.77 13.7883C12.8141 14.0693 12.8193 14.3551 12.7856 14.6376L12.7856 23.3307C12.7881 23.464 12.7829 23.5972 12.77 23.7299C12.4645 22.9738 12.2313 22.1904 12.0737 21.3903C11.9718 20.7592 11.9272 20.1201 11.9407 19.4809C11.9407 17.1154 11.9407 14.75 11.9407 12.3845C11.9407 12.3335 11.9096 12.2736 11.9739 12.2359C11.9796 12.2417 11.9841 12.2485 11.9871 12.256C11.9901 12.2635 11.9915 12.2716 11.9913 12.2796C11.9911 12.2877 11.9892 12.2957 11.9859 12.303C11.9825 12.3104 11.9777 12.317 11.9717 12.3224Z" fill="#AB734B"/>
<path d="M35.1947 13.2228C35.3565 13.1917 35.4164 13.0587 35.4763 12.9322C35.5207 12.8435 35.5717 12.7615 35.6803 12.7615C35.789 12.7615 35.7868 12.8613 35.809 12.9322C35.8777 13.154 35.9575 12.9699 36.0307 12.9322C36.0307 14.733 36.0307 16.5315 36.0307 18.3322C36.0307 19.1993 36.0595 20.0686 35.9819 20.9335C35.8888 21.7818 35.6861 22.6144 35.3787 23.4105C35.3344 23.5369 35.2812 23.6589 35.2324 23.7853C35.1703 23.7654 35.1947 23.721 35.1947 23.69C35.1947 20.2408 35.1947 16.7909 35.1947 13.3403V13.2228Z" fill="#AA734E"/>
<path d="M24.0533 11.8589C24.6299 11.8589 25.1954 11.9742 25.7654 12.0208C26.5726 12.0851 27.3731 12.2004 28.1715 12.3291C29.0319 12.4688 29.8968 12.5619 30.7617 12.675C31.1342 12.726 31.509 12.7748 31.8838 12.7925C32.569 12.8258 33.2543 12.8302 33.9395 12.8502C34.2456 12.8613 34.5516 12.8812 34.8576 12.8968C34.8576 12.981 34.7889 13.0121 34.7334 13.0542C34.5095 13.1994 34.2961 13.3602 34.0948 13.5354C34.0649 13.5621 34.0296 13.5821 33.9914 13.5939C33.9531 13.6058 33.9127 13.6093 33.873 13.6042L31.2983 13.6042C30.9222 13.5223 30.5404 13.4689 30.1563 13.4445C29.4355 13.3647 28.7237 13.2338 28.0096 13.1074C27.3909 12.9966 26.7699 12.9034 26.1268 12.7304C26.3109 12.9655 26.5127 13.1318 26.6857 13.3248C26.7544 13.4024 26.8675 13.4689 26.7988 13.6042C26.3841 13.633 26.0248 13.6508 25.7498 13.1873C25.4748 12.7238 24.9537 12.5375 24.5301 12.2381C24.356 12.132 24.1959 12.0047 24.0533 11.8589Z" fill="#693017"/>
<path d="M13.1093 12.8901C13.6438 12.8458 14.1804 12.8524 14.7149 12.8435C15.847 12.8281 16.9768 12.7369 18.0968 12.5708C19.3231 12.3867 20.5495 12.2004 21.7802 12.0563C22.4699 11.944 23.1663 11.8781 23.8648 11.8589C23.6751 12.07 23.4499 12.2464 23.1995 12.3801C22.7044 12.6707 22.2778 13.0648 21.9488 13.5354C21.9354 13.5646 21.9147 13.5897 21.8886 13.6084C21.8626 13.6271 21.8321 13.6386 21.8002 13.6419C21.5077 13.656 21.2145 13.6434 20.9242 13.6042C21.3003 13.3481 21.6372 13.0389 21.9244 12.6861C21.6242 12.7254 21.3276 12.7884 21.0373 12.8746C19.7068 13.134 18.3873 13.3802 17.0456 13.5288C16.9292 13.5388 16.8144 13.5634 16.7041 13.602C15.8858 13.6241 15.0675 13.6663 14.2492 13.653C14.1154 13.6616 13.9832 13.6197 13.8788 13.5354C13.6305 13.3159 13.3045 13.1828 13.1093 12.8901Z" fill="#6B3018"/>
<path d="M25.945 8.95383L25.3795 9.34635C25.2464 9.34635 25.1954 9.23768 25.1289 9.15563C24.7807 8.71211 24.4104 8.30185 24.0866 7.84723C23.9868 7.70974 23.9047 7.69643 23.7983 7.84723C23.5034 8.25528 23.1618 8.62562 22.8758 9.04031C22.7804 9.17559 22.6939 9.34191 22.4899 9.35078L21.8246 8.90726C21.6691 8.83272 21.528 8.73138 21.4077 8.60788C21.3523 8.56352 21.3079 8.50808 21.2547 8.46151C20.9109 8.14217 20.9087 8.13996 20.5894 8.46151C20.4279 8.62225 20.2442 8.75893 20.0438 8.86734C19.964 8.91391 19.882 8.97379 19.7822 8.90947C19.7822 8.72541 19.9374 8.61896 20.0483 8.52361C20.2821 8.2749 20.4685 7.98555 20.5983 7.66982C20.6581 7.50572 20.7335 7.35048 20.7912 7.18638C20.8488 7.02227 20.9043 7.02006 21.0307 7.12872C21.2924 7.35048 21.5407 7.59442 21.8024 7.82284C21.893 7.91888 22.0139 7.9808 22.1447 7.99816C22.2756 8.01553 22.4085 7.98729 22.5209 7.91819C22.9312 7.71639 23.133 7.33718 23.4191 7.03114C23.5202 6.90976 23.6128 6.78158 23.6963 6.64749C23.8559 6.42573 23.9291 6.42573 24.0932 6.64749C24.2863 6.94366 24.5037 7.22329 24.743 7.48354C24.997 7.71976 25.2935 7.90563 25.6167 8.03129C25.6661 8.05557 25.7221 8.06308 25.7761 8.05267C25.8301 8.04227 25.8793 8.01452 25.9161 7.97364C26.2177 7.72083 26.5104 7.45471 26.8143 7.20412C27.0183 7.03558 27.0715 7.04445 27.1602 7.28839C27.2136 7.44471 27.2774 7.59731 27.3509 7.74522C27.4508 8.03833 27.641 8.29222 27.8943 8.47039L27.9408 8.50143C28.0118 8.64114 28.2336 8.65445 28.2402 8.85182C28.1737 8.96935 28.0717 8.94274 27.9697 8.92278C27.679 8.83847 27.4251 8.65882 27.2489 8.41272C26.9917 8.12443 26.9385 8.12 26.6302 8.36394C26.4841 8.48461 26.3456 8.61422 26.2155 8.75202C26.1422 8.83933 26.0496 8.90842 25.945 8.95383Z" fill="#AE7651"/>
<path d="M29.216 10.1447C29.1655 10.3823 29.0995 10.6164 29.0186 10.8455C28.9942 10.9719 28.8767 10.9563 28.7857 10.9497C28.3245 10.9186 27.8632 10.8898 27.4019 10.8477C26.9872 10.8122 26.577 10.7412 26.1623 10.7168C25.3861 10.6725 24.6099 10.6215 23.8315 10.6259C22.96 10.6259 22.0929 10.7035 21.2236 10.79C20.7646 10.8344 20.3033 10.8809 19.8398 10.9031C19.6052 10.9146 19.3712 10.9383 19.139 10.9741C19.0193 10.994 18.9749 10.9608 18.9173 10.8565C18.8064 10.6193 18.7887 10.3554 18.6955 10.1136C18.6467 9.99167 18.7576 10.0072 18.8352 10.0072C18.955 10.107 19.088 10.0072 19.2144 10.0294C19.4473 10.1802 19.7045 10.1247 19.9574 10.1203C20.2102 10.1159 20.5095 10.1203 20.7845 10.0804C21.9063 9.9614 23.034 9.90883 24.162 9.92292C25.0047 9.92292 25.8474 9.98502 26.6901 10.0227C27.0892 10.0405 27.4906 10.0848 27.8898 10.1292C28.0548 10.1464 28.2216 10.1336 28.3821 10.0915C28.6587 10.0209 28.9506 10.0396 29.216 10.1447Z" fill="#693019"/>
<path d="M38.5921 25.351C38.1619 25.6393 37.7272 25.9187 37.3059 26.2159C36.6943 26.6323 36.122 27.1037 35.5961 27.624C35.5696 27.653 35.5415 27.6804 35.5118 27.7061C35.4475 27.7571 35.3832 27.8525 35.29 27.8192C35.1969 27.7859 35.2412 27.6817 35.2279 27.5974C35.1463 27.2136 35.1585 26.8157 35.2634 26.4376C35.3654 26.4376 35.3166 26.3112 35.3965 26.2979C35.5694 26.238 35.687 26.054 35.8977 26.0761C35.9098 26.0756 35.9215 26.0716 35.9314 26.0645C35.9412 26.0574 35.9488 26.0476 35.9531 26.0362C36.0196 25.8145 36.2236 25.7036 36.3678 25.5417C36.4033 25.5018 36.421 25.433 36.4809 25.433C36.6873 25.4084 36.8907 25.3638 37.0885 25.3C37.4012 25.2401 37.7183 25.1203 38.0554 25.1935C38.1862 25.2224 38.3171 25.3244 38.4745 25.2268C38.5455 25.1847 38.5721 25.2933 38.5921 25.351Z" fill="#91532E"/>
<path d="M22.4899 9.34634C22.8713 9.03144 23.0886 8.57904 23.4191 8.222C23.5513 8.07701 23.6721 7.92206 23.7805 7.75852C23.8914 7.59663 23.9868 7.59442 24.0932 7.75852C24.4059 8.21313 24.7829 8.61674 25.1178 9.05361C25.1998 9.15784 25.293 9.25542 25.3794 9.35521C25.2974 9.42839 25.1954 9.47718 25.1422 9.57697C25.099 9.61703 25.0469 9.64633 24.9903 9.66251C24.9337 9.6787 24.874 9.6813 24.8162 9.67011C24.2928 9.67011 23.7672 9.65459 23.2439 9.67011C23.1862 9.68271 23.1264 9.68101 23.0696 9.66516C23.0127 9.64932 22.9607 9.6198 22.9179 9.57919C22.7671 9.50823 22.5719 9.53484 22.4899 9.34634Z" fill="#693216"/>
<path d="M11.9717 12.3224L11.9606 12.227C12.4972 12.2159 13.0339 12.1849 13.5706 12.2004C15.3541 12.2173 17.1355 12.0725 18.8929 11.768C20.5358 11.5024 22.1931 11.335 23.8559 11.2668C24.7162 11.2709 25.5754 11.3294 26.4284 11.442C28.2025 11.6105 29.9566 11.9454 31.7307 12.1073C32.8639 12.2137 34.0016 12.1938 35.1392 12.1982C35.3832 12.1982 35.6271 12.1982 35.8733 12.1982C35.942 12.1982 36.0462 12.1649 36.0329 12.3024C34.8088 12.3024 33.5935 12.3357 32.365 12.2559C31.2007 12.176 30.0431 12.0341 28.8899 11.8589C27.7368 11.6837 26.5282 11.5728 25.3417 11.442C23.7894 11.269 22.2592 11.4708 20.7246 11.6349C19.0636 11.8101 17.4226 12.1361 15.7549 12.247C14.4975 12.349 13.2335 12.3113 11.9717 12.3224Z" fill="#F3D5BC"/>
<path d="M25.9449 8.95382C26.1951 8.67086 26.4688 8.40972 26.7633 8.17321C26.8897 8.06898 27.0915 8.12886 27.2267 8.29296C27.4485 8.54799 27.6459 8.80524 28.0007 8.87842C28.0366 8.89148 28.0748 8.89704 28.1129 8.89475C28.1511 8.89246 28.1884 8.88238 28.2224 8.86511C28.784 8.54251 29.3103 8.16196 29.7925 7.72969C29.8613 7.67203 29.899 7.57002 30.0143 7.58554C29.8413 8.13995 29.6595 8.69436 29.502 9.24876C29.4421 9.47053 29.3157 9.47052 29.1539 9.42839C28.6837 9.3419 28.2136 9.24211 27.7412 9.17336C27.1469 9.08688 26.5459 9.02478 25.9449 8.95382Z" fill="#8A4E2A"/>
<path d="M9.92701 24.7411C9.38813 24.3708 8.80046 24.0758 8.23718 23.6013C8.68071 23.5525 9.03553 23.4482 9.41696 23.5436C9.53228 23.6323 9.68308 23.6146 9.8117 23.6611C10.4242 23.8593 10.9885 24.1834 11.4682 24.6127C11.9479 25.042 12.3324 25.5669 12.597 26.1538C12.603 26.1678 12.6061 26.1829 12.6061 26.1981C12.6061 26.2133 12.603 26.2284 12.597 26.2425C12.4928 26.3245 12.4218 26.2646 12.3598 26.1848C12.2289 26.0185 12.0914 25.8544 11.9451 25.6991C11.7149 25.4563 11.4449 25.2545 11.1467 25.1026C11.1334 25.1026 11.1135 25.0826 11.1024 25.0871C10.7365 25.2556 10.5723 24.8808 10.3084 24.7766C10.1754 24.7212 10.0468 24.8143 9.92701 24.7411Z" fill="#A8724E"/>
<path d="M9.92701 24.7411C10.1089 24.6702 10.2574 24.6014 10.4459 24.8032C10.5479 24.9141 10.8251 24.8542 10.8362 25.127C11.0314 24.9651 11.3729 25.0848 11.6168 25.2977C11.9315 25.5683 12.2149 25.8733 12.4618 26.207C12.4839 26.238 12.5482 26.2336 12.5948 26.2469C12.6214 26.2247 12.5948 26.1693 12.6414 26.1604C12.7428 26.3478 12.7904 26.5597 12.7789 26.7725C12.8091 26.8715 12.8091 26.9773 12.7789 27.0763C12.7304 27.0078 12.6586 26.9593 12.5769 26.9401C12.4952 26.9209 12.4093 26.9323 12.3354 26.972C12.2932 26.9942 12.24 26.9721 12.2112 26.921C11.9118 26.5152 11.4771 26.2691 11.0691 26.0029C10.5912 25.707 10.0614 25.5045 9.50788 25.4064L9.24176 25.2578C9.57874 25.1487 9.93233 25.0999 10.2863 25.1137C10.2175 24.9185 10.0113 24.8897 9.92701 24.7411Z" fill="#9A5D36"/>
<path d="M19.7844 8.90725C20.1647 8.77215 20.4975 8.52946 20.7424 8.20869C20.8355 8.10668 20.9043 8.10003 20.9996 8.17321C21.2933 8.39695 21.5697 8.64232 21.8268 8.90725C21.495 9.00072 21.1548 9.06163 20.8111 9.08909C20.1245 9.17019 19.4433 9.29163 18.7709 9.45278C18.6423 9.48383 18.5602 9.47939 18.5159 9.3419C18.3496 8.80967 18.1566 8.28631 18.0413 7.74077C18.0835 7.71194 18.1145 7.74077 18.1433 7.76517C18.6118 8.20073 19.1415 8.56533 19.7156 8.84737C19.7429 8.86169 19.7665 8.8822 19.7844 8.90725Z" fill="#8E512D"/>
<path d="M16.6996 13.602C16.8482 13.4068 17.0811 13.4445 17.2762 13.4224C17.977 13.3381 18.6778 13.2449 19.3719 13.1141C19.9943 12.9958 20.6175 12.8739 21.2414 12.7482C21.4875 12.6994 21.7314 12.6329 21.9754 12.5774C22.0041 12.5673 22.0354 12.5673 22.0641 12.5774C22.0951 12.5974 22.084 12.6351 22.0641 12.6595C21.7729 13.009 21.4339 13.3158 21.0573 13.5709C21.013 13.5866 20.9667 13.5956 20.9198 13.5975H18.6046C18.417 13.633 18.2245 13.633 18.0369 13.5975H17.4669C17.2317 13.633 16.9925 13.633 16.7573 13.5975L16.6996 13.602Z" fill="#834829"/>
<path d="M39.1266 27.8658C38.7496 27.9278 38.3726 27.9789 38 28.0543C37.1807 28.2051 36.3899 28.4827 35.656 28.877C35.5207 28.9524 35.4697 28.9457 35.4165 28.775C35.3758 28.6851 35.3701 28.5833 35.4005 28.4894C35.4308 28.3955 35.495 28.3163 35.5806 28.2671C35.7003 28.1807 35.8201 28.092 35.9421 28.0055C36.2481 27.9079 36.4876 27.6883 36.7715 27.5619C37.1309 27.4144 37.5173 27.3437 37.9057 27.3544C38.2941 27.3651 38.676 27.4569 39.0268 27.624C39.0977 27.6928 39.1887 27.7482 39.1266 27.8658Z" fill="#915532"/>
<path d="M29.2159 10.1447C28.8063 10.138 28.3966 10.158 27.9896 10.2046C27.7153 10.214 27.4408 10.1924 27.1713 10.1403C26.7677 10.0782 26.3619 10.0826 25.956 10.0604C24.9492 10.0072 23.9424 9.97836 22.9356 10.0072C22.3812 10.0249 21.8268 10.0449 21.2768 10.1048C20.7779 10.158 20.2789 10.1913 19.7799 10.2179C19.616 10.1972 19.4506 10.1897 19.2854 10.1957C19.2743 10.1269 19.3541 10.1403 19.3475 10.1336C19.3009 10.0715 19.2233 10.1336 19.1656 10.0915C19.1856 9.99167 19.2677 10.0094 19.3342 10.0028C20.706 9.81202 22.0877 9.70096 23.4723 9.67011C24.5899 9.65378 25.7076 9.69523 26.8209 9.7943C27.586 9.86748 28.3466 9.97171 29.1095 10.0626C29.1489 10.0626 29.1872 10.0759 29.2182 10.1003C29.2219 10.115 29.2211 10.1305 29.2159 10.1447Z" fill="#925A38"/>
<path d="M33.578 14.5932C32.4493 14.5378 31.3205 14.5644 30.1939 14.5622C25.3773 14.5622 20.562 14.5622 15.7483 14.5622C15.0608 14.5622 14.3756 14.5999 13.6903 14.5622C13.6105 14.5622 13.5041 14.6021 13.4863 14.4668C15.1126 14.4668 16.7389 14.4668 18.3651 14.4668L34.1103 14.4668C34.23 14.4668 34.3476 14.4668 34.4651 14.4779V14.5578C34.3786 14.6465 34.281 14.5932 34.1835 14.5844C34.0846 14.5651 33.9826 14.5704 33.8863 14.5999L33.578 14.5932Z" fill="#F1D1B7"/>
<path d="M26.8032 13.5975C26.7788 13.4512 26.6457 13.3868 26.557 13.2915C26.3369 13.0943 26.1417 12.8709 25.976 12.6262C26.1411 12.6261 26.3043 12.6609 26.455 12.7282C27.2578 12.9123 28.0739 13.0209 28.8811 13.1828C29.6373 13.3336 30.4068 13.3602 31.1631 13.5088C31.2251 13.5088 31.2917 13.5088 31.3028 13.5997H30.3093C29.777 13.5066 29.247 13.5997 28.7148 13.5997C28.646 13.5997 28.5751 13.6308 28.5085 13.5997L26.8032 13.5975Z" fill="#864B29"/>
<path d="M38.4568 23.5458C38.9003 23.4327 39.3439 23.5458 39.8295 23.599C39.3039 24.0581 38.6963 24.3131 38.1685 24.6857C37.98 24.7034 37.8004 24.6524 37.6052 24.6857C37.2438 24.7234 36.9577 24.9585 36.6051 25.005C36.5142 25.005 36.4609 25.1226 36.3833 25.1758C36.3057 25.229 36.197 25.2756 36.1616 25.1226C36.1644 25.0713 36.1782 25.0213 36.2019 24.9758C36.2256 24.9303 36.2587 24.8904 36.2991 24.8587C36.8912 24.2976 37.5343 23.8164 38.3504 23.6257C38.428 23.6079 38.51 23.6257 38.5721 23.5857C38.562 23.591 38.5509 23.5941 38.5395 23.5949C38.5281 23.5957 38.5167 23.5942 38.5059 23.5905C38.4951 23.5868 38.4852 23.5809 38.4768 23.5732C38.4683 23.5655 38.4615 23.5562 38.4568 23.5458Z" fill="#AD7750"/>
<path d="M9.50787 25.4064C9.64093 25.3221 9.75403 25.4064 9.88043 25.4308C10.3107 25.4996 10.6655 25.7435 11.0602 25.8943C11.2243 25.9586 11.3396 26.1582 11.5037 26.2092C11.7699 26.2912 11.9273 26.5219 12.0981 26.6771C12.1588 26.7566 12.242 26.8161 12.3369 26.8477C12.4318 26.8793 12.534 26.8817 12.6303 26.8545C12.7412 26.8257 12.7013 26.9721 12.7789 27.0275V26.7791C12.892 27.114 12.8033 27.4444 12.7545 27.7771C12.7345 27.919 12.6214 27.7992 12.5793 27.7638C12.3309 27.5597 12.0914 27.3446 11.8497 27.1317C11.3318 26.6872 10.7867 26.2754 10.2175 25.8987C9.98022 25.7324 9.74516 25.5661 9.50787 25.4064Z" fill="#824421"/>
<path d="M36.1793 25.0893C36.2037 25.1536 36.248 25.2312 36.3057 25.1514C36.4875 24.8986 36.7958 24.9119 37.0309 24.7833C37.3014 24.6347 37.5919 24.6524 37.8647 24.5615C38.0266 24.5127 38.051 24.6923 38.1685 24.679C37.9977 24.8121 37.827 24.9474 37.6141 25.1225C37.9802 25.1014 38.3475 25.1366 38.7029 25.2268C38.7163 25.3133 38.6253 25.3088 38.5921 25.3554C38.4834 25.2002 38.3903 25.3554 38.2905 25.3709C38.2439 25.3842 38.1862 25.4397 38.1574 25.3554C38.1574 25.3377 38.1973 25.3044 38.2239 25.2733C37.9246 25.2733 37.6207 25.2135 37.3369 25.3332C37.1839 25.3975 36.9799 25.3332 36.869 25.5106C36.8401 25.5616 36.767 25.4862 36.7448 25.5106C36.6539 25.5772 36.4387 25.3709 36.441 25.6503C36.441 25.7147 36.3545 25.7058 36.3079 25.728C36.253 25.7474 36.2039 25.7803 36.1652 25.8237C36.1264 25.8671 36.0992 25.9196 36.0862 25.9763C36.0507 26.1382 35.9642 26.2513 35.7712 26.1648C35.7269 26.1449 35.6803 26.1648 35.6714 26.1937C35.6404 26.3312 35.5118 26.3134 35.4231 26.36C35.3455 26.2336 35.4696 26.1382 35.4763 26.0251C35.5973 25.7521 35.7539 25.4964 35.942 25.2645C36.0041 25.1846 36.0484 25.0671 36.1793 25.0893Z" fill="#A16540"/>
<path d="M29.2182 10.1048C28.5108 10.0826 27.8078 9.97836 27.1026 9.9074C25.6519 9.76182 24.193 9.71588 22.7361 9.7699C21.5541 9.81204 20.3832 9.96062 19.2056 10.0715C19.1909 10.0771 19.1774 10.0854 19.1657 10.0959C19.0537 10.1081 18.9406 10.1081 18.8286 10.0959C18.7 10.0671 18.8508 10.0405 18.8419 10.0072C19.4562 9.92735 20.0705 9.84309 20.687 9.76325C21.4277 9.66789 22.1706 9.61245 22.9179 9.57032H25.1355C26.4195 9.67011 27.6991 9.79208 28.9676 10.0028C29.0519 10.0161 29.1339 10.0449 29.2182 10.0648C29.2198 10.0675 29.2206 10.0706 29.2206 10.0737C29.2206 10.0768 29.2198 10.0799 29.2182 10.0826C29.2182 10.0826 29.2248 10.1048 29.2182 10.1048Z" fill="#EDCEB2"/>
<path d="M11.7522 32.6337C12.0138 32.9042 12.0826 33.2213 11.9518 33.4564C11.8612 33.5918 11.7278 33.6927 11.5729 33.743C11.418 33.7933 11.2507 33.79 11.098 33.7336C10.9206 33.6909 10.7581 33.6012 10.6273 33.474C10.4966 33.3468 10.4026 33.1868 10.3551 33.0107C10.3035 32.8529 10.3018 32.6831 10.3502 32.5244C10.3987 32.3657 10.4948 32.2257 10.6256 32.1236C10.789 31.9867 10.9936 31.9086 11.2066 31.9018C11.2931 31.9018 11.3641 31.9018 11.3796 32.0083C11.3951 32.1147 11.3463 32.1569 11.2465 32.1879C10.9006 32.2966 10.7587 32.5139 10.823 32.8133C10.8335 32.9289 10.8877 33.0361 10.9745 33.1132C11.0612 33.1903 11.1741 33.2315 11.2901 33.2284C11.4062 33.2253 11.5167 33.1781 11.5992 33.0965C11.6817 33.0149 11.7301 32.9049 11.7344 32.7889C11.7411 32.7423 11.7455 32.7046 11.7522 32.6337Z" fill="#A97351"/>
<path d="M36.2148 32.6248C36.2214 32.7541 36.2579 32.88 36.3212 32.9929C36.3717 33.0746 36.4467 33.1383 36.5355 33.1749C36.6243 33.2115 36.7223 33.2192 36.8157 33.1969C36.9139 33.1789 37.0036 33.1297 37.0715 33.0565C37.1395 32.9834 37.182 32.8903 37.1927 32.7911C37.2149 32.6823 37.2021 32.5693 37.1563 32.4682C37.1106 32.3671 37.0341 32.283 36.9377 32.2278C36.8761 32.1918 36.8097 32.1649 36.7403 32.148C36.6539 32.1258 36.6051 32.0881 36.6139 31.9861C36.6228 31.8841 36.7093 31.8841 36.7869 31.8841C36.9475 31.8817 37.1057 31.9229 37.2447 32.0034C37.3837 32.0839 37.4982 32.2005 37.5761 32.341C37.6539 32.4815 37.6922 32.6404 37.6868 32.8009C37.6814 32.9615 37.6325 33.1175 37.5453 33.2524C37.4405 33.4331 37.2832 33.5776 37.0942 33.6668C36.9053 33.7559 36.6937 33.7854 36.4875 33.7513C36.3765 33.7404 36.2714 33.6959 36.1863 33.6238C36.1011 33.5517 36.0399 33.4554 36.0107 33.3477C35.968 33.2207 35.9646 33.0837 36.001 32.9547C36.0374 32.8257 36.1119 32.7107 36.2148 32.6248Z" fill="#A97551"/>
<path d="M9.97584 19.5807C10.0845 19.6117 10.1266 19.7093 10.1976 19.7869C10.4844 20.1475 10.7292 20.5396 10.9272 20.9556C10.9439 21.008 10.9795 21.0522 11.027 21.0798L11.5991 23.2243C11.6391 23.3218 11.5991 23.3507 11.5193 23.2997C11.4379 23.2369 11.3738 23.1545 11.333 23.0602C10.8895 22.2463 10.4704 21.4324 10.0889 20.5942C10.0512 20.4905 10.0201 20.3846 9.99579 20.277C9.92826 20.0507 9.92138 19.8106 9.97584 19.5807Z" fill="#AA7756"/>
<path d="M27.3177 7.78069C27.2068 7.61789 27.1271 7.43592 27.0826 7.24403C27.0471 7.13758 27.0117 7.11319 26.9096 7.20633C26.5903 7.49905 26.2444 7.77404 25.9339 8.06011C25.8903 8.10384 25.8337 8.1324 25.7727 8.14159C25.7116 8.15077 25.6491 8.14009 25.5946 8.11112C24.9293 7.87605 24.5013 7.39039 24.1265 6.83598L23.9269 6.54326C23.9269 6.53217 23.9003 6.52773 23.8715 6.51221C23.6653 6.86703 23.377 7.15976 23.1397 7.4924C22.896 7.78176 22.5789 8.0001 22.2216 8.12443C22.1174 8.17322 22.053 8.09338 21.9998 8.04681C21.6182 7.75248 21.2539 7.43631 20.9087 7.09988C20.8412 7.30111 20.7551 7.49562 20.6515 7.6809C20.6205 7.70751 20.6382 7.78735 20.5717 7.76961C20.5051 7.75186 20.534 7.71195 20.5561 7.67425C20.6623 7.39053 20.7468 7.09919 20.809 6.80272C20.9616 6.91492 21.1008 7.04441 21.2236 7.18859C21.4816 7.44335 21.7565 7.68044 22.0464 7.89823C22.0847 7.93144 22.1322 7.95202 22.1826 7.95718C22.233 7.96234 22.2838 7.95182 22.328 7.92706C22.6353 7.80097 22.9022 7.59313 23.0998 7.32608C23.3681 6.96017 23.6564 6.60535 23.9114 6.20618C24.1323 6.58248 24.3806 6.94197 24.6543 7.28173C24.9198 7.58567 25.2555 7.82015 25.6323 7.96476C25.6743 7.98473 25.7216 7.99098 25.7673 7.98262C25.8131 7.97426 25.8551 7.95172 25.8873 7.91819C26.2451 7.6225 26.5918 7.31277 26.9274 6.989C27.0383 6.88255 27.1203 6.80715 27.1691 7.04888C27.2295 7.27492 27.3036 7.4971 27.3909 7.71416C27.3931 7.77404 27.3665 7.78735 27.3177 7.78069Z" fill="#E8CAB4"/>
<path d="M36.9821 20.9468L37.0065 21.1131C37.1809 20.7458 37.3864 20.3941 37.6208 20.0619C37.7228 19.8755 37.8607 19.7112 38.0266 19.5785C38.0756 19.7975 38.0756 20.0247 38.0266 20.2438C37.9001 20.6998 37.7041 21.1336 37.4456 21.53C37.0974 22.1465 36.8158 22.7963 36.4588 23.4083L36.3368 23.4993C36.5319 22.6166 36.8114 21.7961 36.9821 20.9468Z" fill="#AB754F"/>
<path d="M36.4587 23.3994C36.5591 23.06 36.703 22.7351 36.8867 22.4326C37.2593 21.6963 37.6474 20.9667 38.0266 20.2349C38.0577 20.7494 37.847 21.204 37.6363 21.6453C37.3483 22.253 36.9831 22.821 36.5497 23.3351C36.522 23.3601 36.4915 23.3817 36.4587 23.3994Z" fill="#6D3B1D"/>
<path d="M9.98911 20.277C10.2774 20.8603 10.5635 21.4435 10.854 22.0223C11.0469 22.406 11.2487 22.7852 11.4527 23.1622C11.4727 23.2021 11.4838 23.3529 11.5925 23.2243L11.6922 23.5525L11.6545 23.5724C11.4541 23.3617 11.266 23.1396 11.0913 22.9071C10.624 22.2741 10.2712 21.5641 10.049 20.8093C9.99516 20.6373 9.97483 20.4566 9.98911 20.277Z" fill="#6F3B1D"/>
<path d="M25.293 5.27035C25.5202 5.60608 25.7706 5.92546 26.0425 6.22614C25.894 6.37916 25.7432 6.52774 25.599 6.68298C25.517 6.77168 25.4482 6.79164 25.3883 6.66524C25.3728 6.63641 25.3551 6.61201 25.3373 6.5854C25.0224 6.1574 24.9404 5.72053 25.293 5.27035Z" fill="#96613C"/>
<path d="M23.1175 13.4046C23.082 13.3203 23.1175 13.2804 23.1951 13.2383C23.4488 13.0855 23.674 12.8896 23.8604 12.6595C23.9469 12.5552 23.9912 12.573 24.0822 12.6595C24.2782 12.9142 24.5261 13.1244 24.8095 13.276C24.8606 13.3957 24.7608 13.4245 24.692 13.4268C24.1679 13.4759 23.64 13.4685 23.1175 13.4046Z" fill="#AF7952"/>
<path d="M21.9288 6.21283C22.1403 5.99263 22.3332 5.75527 22.5054 5.50319C22.5586 5.43444 22.6141 5.37013 22.6673 5.30582L22.7227 5.43444C22.9445 5.90015 22.8913 6.20618 22.5453 6.5987C22.4699 6.68519 22.4145 6.68962 22.3347 6.5987C22.2038 6.47229 22.0641 6.3348 21.9288 6.21283Z" fill="#935F3D"/>
<path d="M36.1793 25.0893C35.9145 25.3642 35.6904 25.6756 35.514 26.014C35.5084 26.021 35.5013 26.0266 35.4933 26.0304C35.4852 26.0343 35.4764 26.0363 35.4675 26.0363C35.4585 26.0363 35.4497 26.0343 35.4417 26.0304C35.4336 26.0266 35.4265 26.021 35.4209 26.014C36.0307 24.7012 36.9888 23.8142 38.4524 23.548H38.6742C38.3703 23.67 38.0532 23.7498 37.7538 23.8807C37.4413 24.0108 37.151 24.1889 36.8934 24.4085C36.6583 24.6236 36.3567 24.7943 36.1793 25.0893Z" fill="#F1DBC5"/>
<path d="M12.6414 26.1626L12.5948 26.2491C12.3621 25.7325 12.0349 25.264 11.6302 24.8675C10.9918 24.2249 10.1832 23.7779 9.29944 23.5791L9.41697 23.5458C10.3706 23.6323 11.1135 24.1202 11.7654 24.7832C12.1513 25.1762 12.4498 25.6463 12.6414 26.1626Z" fill="#F1DACA"/>
<path d="M20.545 7.66538C20.5694 7.80731 20.6094 7.66538 20.6404 7.66538C20.5786 7.92467 20.4476 8.1623 20.2612 8.35285C20.1221 8.5491 19.9622 8.72977 19.7844 8.89173C19.587 8.90282 19.4518 8.76311 19.2987 8.66996C18.8308 8.42399 18.4061 8.10341 18.0413 7.72082L17.9659 7.52567C18.1988 7.69864 18.3806 7.82948 18.5558 7.96919C18.8216 8.17794 19.1034 8.36553 19.3985 8.53025C19.7001 8.69879 19.7578 8.68549 20.0239 8.46373C20.29 8.24196 20.3765 7.94702 20.545 7.66538Z" fill="#D1AF96"/>
<path d="M23.1175 13.4046C23.4444 13.3596 23.775 13.3477 24.1044 13.3691C24.2751 13.3691 24.4503 13.3691 24.6233 13.3691C24.6942 13.3691 24.7896 13.4024 24.8096 13.2804C24.8938 13.5022 24.845 13.602 24.6344 13.6042C24.2019 13.6042 23.7695 13.6042 23.337 13.6042C23.1951 13.6042 23.1086 13.5621 23.1175 13.4046Z" fill="#7B4427"/>
<path d="M39.0223 27.6839C38.334 27.3777 37.5554 27.3428 36.8424 27.5863C36.8141 27.5983 36.7879 27.6148 36.7648 27.6351C36.7005 27.6351 36.6162 27.7039 36.6096 27.573L37.2261 27.2426C37.3423 27.3013 37.4731 27.3245 37.6024 27.3096C37.7317 27.2946 37.8537 27.242 37.9534 27.1583C38.0311 27.3069 38.1907 27.2559 38.3083 27.287C38.5972 27.3508 38.8727 27.4649 39.1221 27.624C39.1288 27.7128 39.0756 27.6994 39.0223 27.6839Z" fill="#F7E4D4"/>
<path d="M30.0166 7.58554C29.573 8.07342 29.0164 8.41715 28.4975 8.80746C28.4199 8.86511 28.3356 8.94939 28.2247 8.86512C28.156 8.72762 27.9542 8.69658 27.9409 8.51473C28.0403 8.59808 28.1669 8.64189 28.2966 8.6378C28.4263 8.63371 28.5499 8.582 28.6438 8.49255C29.0452 8.18209 29.4599 7.88714 29.8724 7.5922C29.9057 7.5678 29.9655 7.44362 30.0166 7.58554Z" fill="#D7B196"/>
<path d="M28.5085 13.602C28.9831 13.5554 29.4577 13.5155 29.93 13.46C30 13.4541 30.0704 13.4639 30.1361 13.4889C30.2017 13.5138 30.2609 13.5532 30.3093 13.6042C30.2605 13.6574 30.1962 13.6485 30.1341 13.6485H28.6749C28.6216 13.653 28.5573 13.653 28.5085 13.602Z" fill="#693017"/>
<path d="M36.9577 30.6578C36.4765 30.3584 35.982 30.4604 35.4852 30.6156C35.4431 30.6289 35.381 30.6932 35.3544 30.6023C35.3544 30.5846 35.3987 30.5469 35.4253 30.5181C35.7667 30.3805 36.1331 30.3163 36.5009 30.3296C36.7138 30.3562 36.8978 30.4205 36.9577 30.6578Z" fill="#E3C3A8"/>
<path d="M12.5394 30.5225L12.6392 30.6178C12.4908 30.6286 12.3421 30.602 12.2067 30.5402C12.0263 30.4881 11.837 30.4738 11.6508 30.4982C11.4646 30.5226 11.2854 30.5853 11.1245 30.6822C11.089 30.7043 11.0491 30.7598 11.0292 30.6689C11.3263 30.2941 11.7277 30.3251 12.138 30.3961C12.2745 30.429 12.4086 30.4712 12.5394 30.5225Z" fill="#E3C6AD"/>
<path d="M12.7833 14.642L12.7678 13.7927V13.0897C12.7678 12.8258 12.7856 12.8147 13.0539 12.8879C12.8587 12.8657 12.8033 12.9544 12.81 13.1451C12.8255 13.5621 12.81 13.9768 12.81 14.3937C12.8188 14.4757 12.8432 14.5666 12.7833 14.642Z" fill="#6B3018"/>
<path d="M36.6095 27.573C36.6428 27.6351 36.7093 27.6174 36.7648 27.6351L36.0529 28.0254C36.0108 28.0476 35.9686 28.0698 35.942 28.0055C36.1501 27.8402 36.3737 27.6954 36.6095 27.573Z" fill="#DDBC9F"/>
<path d="M27.3177 7.78069L27.3753 7.72081C27.5306 7.98692 27.6392 8.2863 27.8943 8.48367C27.753 8.41521 27.6283 8.3169 27.5287 8.19552C27.4292 8.07415 27.3572 7.93261 27.3177 7.78069Z" fill="#D7B196"/>
<path d="M35.4254 26.0118H35.5185C35.5473 26.1404 35.4231 26.2336 35.4231 26.3445C35.3522 26.3445 35.4231 26.5662 35.2723 26.4354C35.291 26.2845 35.3433 26.1398 35.4254 26.0118Z" fill="#BB8C70"/>
<path d="M39.0223 27.6839C39.06 27.6839 39.1088 27.6839 39.1221 27.6263C39.251 27.6787 39.3657 27.7608 39.457 27.8658H39.1266C39.1399 27.777 39.0556 27.746 39.0223 27.6839Z" fill="#B7957E"/>
<path d="M16.7573 13.6042L17.467 13.6042C17.2359 13.6763 16.9884 13.6763 16.7573 13.6042Z" fill="#6B3018"/>
<path d="M38.6542 26.9077C38.838 26.8435 39.0381 26.8435 39.2219 26.9077H38.6542Z" fill="#F7E4D4"/>
<path d="M18.0303 13.6042H18.598C18.415 13.6729 18.2133 13.6729 18.0303 13.6042Z" fill="#6B3018"/>
<path d="M33.374 33.2125C33.2358 33.443 33.0488 33.6405 32.8263 33.7913C32.6864 34.0267 32.4944 34.2269 32.2652 34.3767C31.4603 35.0462 30.6104 35.6597 29.7216 36.2129C28.595 36.9536 27.4596 37.6854 26.5326 38.6789C26.0581 39.1845 25.6079 39.7101 25.12 40.2046C24.8415 40.4817 24.5452 40.7402 24.2329 40.9786C23.9912 41.1649 23.9358 41.1627 23.6985 40.9786C23.0832 40.4745 22.5112 39.9196 21.9887 39.3198C21.2694 38.4908 20.4576 37.7468 19.5693 37.1022C18.7332 36.499 17.8417 35.9756 17.0123 35.3613C16.3867 34.91 15.7884 34.4221 15.2205 33.8999C15.1766 33.8551 15.1393 33.8044 15.1096 33.7491C14.9258 33.6138 14.7642 33.4507 14.6306 33.2657C14.4706 33.1802 14.3475 33.039 14.2847 32.8687C14.0341 32.3653 13.7857 31.8597 13.5129 31.3696C13.5039 31.3573 13.4975 31.3433 13.4941 31.3284C13.4907 31.3135 13.4903 31.2981 13.493 31.2831C13.493 31.1678 13.5928 31.1057 13.6526 31.0259C14.1216 30.3553 14.3605 29.5507 14.3334 28.7329C14.3334 24.7633 14.3334 20.7945 14.3334 16.8264C14.298 16.3452 14.3334 15.864 14.3179 15.3849C14.3179 15.2497 14.4022 15.212 14.4665 15.3007C14.6994 15.6289 15.0364 15.5513 15.3536 15.5513C21.1312 15.5513 26.9067 15.5513 32.6799 15.5513C32.9881 15.5513 33.303 15.5867 33.5182 15.2918C33.5326 15.2779 33.5505 15.2682 33.57 15.2635C33.5895 15.2588 33.6099 15.2594 33.629 15.2652V25.8167C33.629 26.7215 33.629 27.6285 33.629 28.5355C33.5971 29.4574 33.8942 30.3606 34.4673 31.0835C34.5117 31.1368 34.5737 31.1833 34.5671 31.2632C34.4712 31.5109 34.3445 31.7456 34.1901 31.9617C34.026 32.2655 33.8796 32.5782 33.7222 32.8865C33.6423 33.0328 33.5647 33.1836 33.374 33.2125Z" fill="#2A1A10"/>
<path d="M33.6224 15.2674C33.5936 15.294 33.5537 15.314 33.5403 15.3472C33.4955 15.4483 33.4187 15.5319 33.3217 15.5852C33.2248 15.6385 33.1131 15.6585 33.0037 15.6422C28.9765 15.6422 24.9493 15.6422 20.922 15.6422C19.0341 15.6422 17.1462 15.6422 15.2582 15.6422C14.9278 15.6422 14.5397 15.7619 14.3933 15.2608L14.3312 15.3073V16.8308C14.2921 16.3314 14.2817 15.8301 14.3002 15.3295C14.3002 15.2364 14.3579 15.2164 14.4399 15.212C14.6129 15.212 14.7836 15.1854 14.9566 15.1721C17.1329 15.1721 19.3083 15.1721 21.4831 15.1721L33.2188 15.1721C33.2898 15.1721 33.3607 15.1721 33.4406 15.1721C33.4783 15.2341 33.5936 15.1654 33.6224 15.2674Z" fill="#6C351B"/>
<path d="M15.103 33.7469C15.4933 34.0751 15.8791 34.4122 16.2783 34.7293C17.121 35.4057 18.0258 35.9934 18.9284 36.5855C20.1961 37.4169 21.3367 38.4275 22.3147 39.5859C22.7723 40.1071 23.2795 40.5824 23.8293 41.0052C23.9358 41.0895 23.9912 41.074 24.0888 41.0052C24.7478 40.526 25.3439 39.9657 25.8629 39.3376C26.8066 38.2443 27.9101 37.3 29.1361 36.5367C30.2179 35.8711 31.255 35.1355 32.2408 34.3346C32.4426 34.1594 32.6355 33.9753 32.8351 33.7957C32.9948 33.8622 32.8351 33.9243 32.8174 33.9487C32.5956 34.1705 32.3561 34.4055 32.1078 34.614C31.2556 35.2868 30.3672 35.9124 29.4466 36.4879C28.344 37.1653 27.3289 37.9756 26.424 38.9007C25.9272 39.4396 25.4615 40.0095 24.916 40.5018C24.6587 40.7236 24.3793 40.9453 24.1221 41.1671C24.0067 41.2713 23.9469 41.2491 23.8316 41.1671C22.8602 40.4131 22.0708 39.475 21.2236 38.5969C20.4718 37.845 19.638 37.18 18.7377 36.6143C17.5837 35.9033 16.4898 35.0994 15.4667 34.2104C15.3225 34.0796 15.1229 33.9798 15.103 33.7469Z" fill="#EACBB2"/>
<path d="M15.2449 35.1529C14.5242 35.1751 13.8079 35.113 13.0916 35.0664C13.0029 35.0664 12.9497 35.042 13.0206 34.9422C13.0916 34.8424 13.1736 34.7205 13.2424 34.5941C13.2424 34.6428 13.2601 34.7049 13.3067 34.7094C13.5992 34.7669 13.8958 34.8018 14.1937 34.8136C14.5796 34.7848 14.9633 34.8269 15.2449 35.1529Z" fill="#915732"/>
<path d="M34.7179 34.5896C34.8221 34.7249 35.0261 34.8801 34.9552 35.0132C34.8842 35.1462 34.6358 35.1174 34.4562 35.113C34.0336 35.1052 33.6108 35.1207 33.1899 35.1595C33.0646 35.1685 32.9388 35.1526 32.8196 35.113C33.17 34.7803 33.6113 34.8114 34.0393 34.8225C34.2182 34.8131 34.3961 34.7901 34.5715 34.7537C34.6115 34.7484 34.6483 34.7289 34.6751 34.6988C34.702 34.6687 34.7172 34.63 34.7179 34.5896Z" fill="#935934"/>
<path d="M33.374 33.2125C33.5645 33.0375 33.7124 32.8214 33.8065 32.5804C34.0202 32.1211 34.2732 31.6811 34.5627 31.2654C34.6514 31.3142 34.6004 31.374 34.5738 31.4251C34.2877 31.9595 34.006 32.4939 33.7155 33.0262C33.6636 33.1048 33.6001 33.1751 33.527 33.2346C33.476 33.2812 33.4139 33.2967 33.374 33.2125Z" fill="#E3C1A6"/>
<path d="M13.4863 31.2809C13.7218 31.6222 13.9252 31.9844 14.094 32.3631C14.234 32.6834 14.4119 32.9857 14.624 33.2635C14.4665 33.2945 14.3845 33.1792 14.329 33.075C14.0363 32.5183 13.7547 31.9662 13.4708 31.3984C13.4486 31.3563 13.4243 31.312 13.4863 31.2809Z" fill="#E0BCA3"/>
<path d="M14.4643 15.1654C14.3711 15.1654 14.2935 15.1654 14.2425 15.0767C14.1915 14.988 14.1782 14.9414 14.3002 14.9303C14.3467 14.9303 14.3911 14.9126 14.4377 14.9015C14.4842 14.8904 14.5796 14.8594 14.6373 14.9192C14.6559 14.945 14.6672 14.9753 14.6699 15.0069C14.6726 15.0385 14.6667 15.0703 14.6528 15.0989C14.6195 15.2053 14.5242 15.1521 14.4643 15.1654Z" fill="#AF7A56"/>
<path d="M33.8996 14.5932C34.0911 14.5637 34.2847 14.5496 34.4784 14.5511V14.8194C34.41 14.7346 34.3206 14.669 34.2191 14.6294C34.1176 14.5897 34.0074 14.5772 33.8996 14.5932Z" fill="#AF7A56"/>
<path d="M22.9091 17.9463C22.7206 17.9951 22.7716 18.1525 22.7716 18.2745V22.3239C22.7716 24.5815 22.7716 26.8368 22.7716 29.0943C22.7716 29.2939 22.8248 29.3471 23.0199 29.3405C23.4635 29.325 23.907 29.3405 24.3505 29.3405C24.6233 29.3405 24.7231 29.2385 24.7231 28.9701V27.6928C24.7075 27.6085 24.7652 27.6218 24.8073 27.6396C24.8758 27.6695 24.9336 27.7193 24.9731 27.7827C25.0127 27.846 25.0322 27.9198 25.0291 27.9944C25.0547 28.4275 25.0368 28.8621 24.9759 29.2917C24.9638 29.4097 24.9096 29.5195 24.8233 29.6009C24.737 29.6823 24.6243 29.73 24.5057 29.7352C24.0334 29.7618 23.561 29.8062 23.0865 29.7907C22.6119 29.7751 22.4212 29.611 22.4212 29.1254C22.4056 28.4778 22.4079 27.8281 22.4057 27.2426C22.348 27.4644 22.3502 27.7815 21.9621 27.8369C21.8823 27.8369 21.8734 27.9168 21.8601 27.9789C21.689 28.62 21.6497 29.2892 21.7448 29.9459C21.7581 30.0235 21.8047 30.1255 21.6627 30.1433C21.5017 29.9717 21.4135 29.7443 21.4166 29.509C21.4166 28.2472 21.4166 26.9831 21.4166 25.7213C21.4166 23.2487 21.4166 20.7782 21.4166 18.3056C21.4011 18.1342 21.4234 17.9616 21.4821 17.7999C21.5407 17.6381 21.6342 17.4913 21.7559 17.3697C21.7928 17.3285 21.8269 17.2848 21.8579 17.2389C22.0003 17.0238 22.2012 16.8538 22.4369 16.7489C22.6726 16.644 22.9333 16.6086 23.1885 16.6468C23.7329 16.6767 24.2785 16.6767 24.8229 16.6468C24.9329 16.6361 25.0438 16.6531 25.1456 16.696C25.2475 16.739 25.337 16.8067 25.4061 16.8929C25.4904 16.9994 25.5791 17.097 25.67 17.1967C25.7984 17.3246 25.8973 17.4789 25.9598 17.649C26.0222 17.8191 26.0467 18.0008 26.0315 18.1814C26.0049 18.5584 26.0426 18.942 26.0204 19.319C25.9966 19.4876 26.0196 19.6595 26.0868 19.816C26.1541 19.9724 26.2631 20.1074 26.4018 20.2061C25.8008 20.5055 25.4194 21.0022 25.0557 21.5366C25.0136 21.3947 25.0979 21.3149 25.1289 21.2018C25.1682 21.0909 25.2 20.9776 25.2243 20.8625C25.2331 20.7444 25.2331 20.6258 25.2243 20.5077C25.5126 20.1151 25.5392 19.6628 25.5281 19.1993C25.5203 18.9631 25.5292 18.7267 25.5547 18.4918C25.5809 18.2953 25.5727 18.0957 25.5303 17.902C25.4749 17.6491 25.3839 17.576 25.1289 17.5538C24.4652 17.4972 23.7985 17.4831 23.133 17.5116C22.3901 17.5383 22.4677 17.5959 22.4434 18.1969C22.4434 18.3455 22.4434 18.4963 22.4434 18.6072C22.4514 18.4764 22.4514 18.3454 22.4434 18.2146C22.4429 18.1388 22.4634 18.0644 22.5025 17.9994C22.5416 17.9345 22.5979 17.8816 22.6651 17.8465C22.7494 17.7999 22.8691 17.7711 22.9091 17.9463Z" fill="#FFFEFD"/>
<path d="M27.3798 29.7108C27.3168 29.5409 27.294 29.3588 27.3132 29.1786C27.3132 25.5151 27.3095 21.8516 27.3021 18.188C27.2993 17.9477 27.3774 17.7133 27.5239 17.5227C28.1737 16.6667 28.1892 16.6556 29.278 16.6601C29.8694 16.6601 30.4608 16.6601 31.0521 16.6601C31.1461 16.6543 31.24 16.6701 31.3269 16.7062C31.4138 16.7423 31.4912 16.7979 31.5533 16.8685C31.8096 17.1328 32.0128 17.4437 32.1521 17.7844C32.2009 18.2058 32.1521 18.6271 32.1743 19.0507C32.1661 19.2615 32.1713 19.4726 32.1898 19.6827C32.199 19.8398 32.2507 19.9915 32.3393 20.1216C32.428 20.2517 32.5503 20.3552 32.6932 20.4212C32.3665 20.4852 32.071 20.658 31.8549 20.9113C31.6709 20.8558 31.693 20.6895 31.693 20.5609V18.0771C31.693 17.6602 31.6642 17.6336 31.2495 17.5671C30.8328 17.5327 30.4144 17.5239 29.9966 17.5405C29.6085 17.5405 29.2226 17.5405 28.8367 17.5405C28.4509 17.5405 28.3577 17.6536 28.3577 18.0261C28.3577 18.6648 28.4243 19.3013 28.4043 19.9422C28.3666 21.1153 28.4287 22.2906 28.4043 23.4638C28.3888 24.0692 28.3843 24.6746 28.3688 25.28C28.3622 25.3352 28.3622 25.3911 28.3688 25.4463C28.4974 25.9497 28.2735 26.4066 28.1825 26.8811C28.1727 26.9371 28.1417 26.9871 28.0961 27.0208C27.6858 27.2737 27.7191 27.7194 27.6525 28.1075C27.5688 28.5459 27.5309 28.9918 27.5394 29.4381C27.5461 29.5467 27.535 29.6798 27.3798 29.7108Z" fill="#FFFEFD"/>
<path d="M15.6197 17.7711C15.8303 17.3672 16.1208 17.0104 16.4735 16.7222C16.5739 16.6573 16.6951 16.6328 16.8128 16.6534C17.569 16.6534 18.3274 16.6534 19.0836 16.6534C19.1603 16.6464 19.2374 16.6618 19.3054 16.6978C19.7179 17.0326 20.1237 17.3741 20.1171 17.9773C20.1171 18.4741 20.1171 18.9708 20.1171 19.4676C20.107 19.7283 20.1595 19.9876 20.2701 20.2238C20.3027 20.2635 20.3205 20.3133 20.3205 20.3646C20.3205 20.416 20.3027 20.4658 20.2701 20.5054C19.9907 20.8625 19.7157 21.2239 19.4252 21.5788C19.4969 21.4124 19.5338 21.2332 19.5338 21.0521C19.5338 20.871 19.4969 20.6917 19.4252 20.5254C19.4065 20.4895 19.3999 20.4486 19.4063 20.4087C19.4127 20.3687 19.4317 20.3319 19.4606 20.3036C19.5519 20.1743 19.5972 20.0182 19.5893 19.8601C19.5649 19.2924 19.6558 18.7269 19.6181 18.1592C19.6151 18.0805 19.6077 18.002 19.5959 17.9241C19.5516 17.6802 19.4651 17.5981 19.2211 17.5782C18.389 17.4972 17.5508 17.5017 16.7197 17.5915C16.5622 17.6114 16.5156 17.6957 16.5289 17.8532C16.5933 18.6872 16.5933 19.525 16.5289 20.3591C16.5268 20.3901 16.5268 20.4212 16.5289 20.4522C16.6332 21.1996 16.4668 21.9491 16.5644 22.6965C16.57 22.7436 16.57 22.7912 16.5644 22.8384C16.4912 23.7099 16.5955 24.5859 16.5112 25.4596C16.5131 25.57 16.4881 25.6793 16.4382 25.7778C16.3884 25.8764 16.3152 25.9613 16.2251 26.0251C16.1729 26.061 16.1297 26.1085 16.0989 26.164C16.0681 26.2194 16.0506 26.2811 16.0477 26.3445C16.0207 26.5491 15.9504 26.7457 15.8415 26.921C15.7993 26.9964 15.7372 27.0874 15.6441 27.0563C15.551 27.0253 15.6064 26.9299 15.6064 26.8634L15.6064 18.0328C15.5876 17.9459 15.5921 17.8556 15.6197 17.7711Z" fill="#FEFEFC"/>
<path d="M30.5044 32.046C30.3368 32.5227 30.0752 32.9609 29.7349 33.3344C29.2138 33.9997 28.5307 34.4632 27.8765 34.9666C26.7211 35.8537 25.4371 36.5189 24.1398 37.1842C24.0837 37.2185 24.0193 37.2367 23.9535 37.2367C23.8878 37.2367 23.8233 37.2185 23.7673 37.1842C22.4488 36.5281 21.1877 35.7626 19.9973 34.8956C19.2655 34.3346 18.5226 33.7868 17.9859 33.0129C17.7717 32.7404 17.6114 32.4295 17.5135 32.097C17.722 31.8752 18.0014 31.8752 18.2698 31.8597C18.3585 31.8597 18.4095 31.9484 18.4405 32.0349C18.8064 32.9996 19.5116 33.6915 20.2945 34.3168C21.3573 35.1313 22.5144 35.8148 23.7406 36.3526C23.7912 36.3814 23.8477 36.3982 23.9058 36.4016C23.9638 36.4051 24.0219 36.3952 24.0755 36.3726C25.4267 35.8206 26.6954 35.0848 27.8455 34.186C28.4584 33.7123 28.9672 33.1174 29.3402 32.4385C29.4083 32.2944 29.4675 32.1463 29.5176 31.995C29.5597 31.8885 29.6307 31.8087 29.7393 31.8309C30.0055 31.8546 30.2649 31.9276 30.5044 32.046Z" fill="#AE7853"/>
<path d="M27.3798 29.7108C27.4146 29.6731 27.4404 29.6279 27.455 29.5787C27.4696 29.5295 27.4727 29.4776 27.464 29.427C27.4108 28.9191 27.5461 28.4246 27.5727 27.9234C27.586 27.7017 27.7279 27.4799 27.7213 27.2404C27.7213 27.1894 27.7967 27.1095 27.8565 27.0874C27.9457 27.0525 28.0222 26.9915 28.076 26.9123C28.1298 26.8331 28.1585 26.7396 28.1582 26.6438C28.2025 26.2979 28.3799 25.9786 28.3178 25.6126C28.2577 25.1791 28.2472 24.7401 28.2868 24.3042C28.3378 23.4372 28.2868 22.5701 28.3178 21.7052C28.3178 21.3814 28.2579 21.0554 28.2846 20.7405C28.3333 20.1484 28.3156 19.5585 28.3112 18.9664C28.3112 18.6138 28.2624 18.2612 28.2712 17.9064C28.2712 17.6092 28.3999 17.4629 28.6926 17.4629C29.5065 17.4629 30.3181 17.4629 31.132 17.4629C31.2406 17.4629 31.3537 17.4961 31.458 17.5094C31.503 17.5105 31.5472 17.5207 31.5881 17.5395C31.629 17.5583 31.6656 17.5852 31.6957 17.6186C31.7258 17.6521 31.7488 17.6913 31.7632 17.7339C31.7776 17.7765 31.7832 17.8216 31.7795 17.8665C31.7795 18.4187 31.7795 18.9753 31.7795 19.523C31.7984 19.8746 31.7984 20.227 31.7795 20.5786C31.7684 20.6332 31.77 20.6896 31.7842 20.7435C31.7984 20.7973 31.8249 20.8472 31.8616 20.8891C31.6642 21.1774 31.4425 21.4546 31.4181 21.836C31.1963 21.4346 30.8681 21.0909 30.8836 20.5764C30.908 19.8379 30.8836 19.095 30.8836 18.3588C30.8836 17.9862 30.8016 17.9153 30.4246 17.9042C29.9921 17.9042 29.5575 17.9042 29.125 17.9042C29.0313 17.8924 28.9366 17.9158 28.8592 17.9699C28.7817 18.024 28.7271 18.1049 28.7059 18.1969C28.5662 18.3455 28.6505 18.5562 28.544 18.738C28.6194 18.6648 28.544 18.5007 28.7015 18.5162V19.4654C28.5551 19.4499 28.5728 19.3368 28.5595 19.2436C28.5958 19.738 28.6054 20.234 28.5884 20.7294C28.5884 20.8204 28.5995 20.8669 28.7015 20.8425V24.5415C28.7015 24.6679 28.7015 24.7921 28.7015 24.9185C28.646 24.9185 28.5862 24.8875 28.5862 24.9984C28.5862 25.5883 28.5862 26.1759 28.5862 26.7725C28.5804 26.8115 28.5879 26.8514 28.6077 26.8856C28.6274 26.9198 28.6581 26.9464 28.6948 26.961C28.7148 27.4976 28.7214 28.0365 28.6948 28.5732C28.615 28.6441 28.6261 28.7395 28.6238 28.8326C28.6412 29.087 28.6263 29.3426 28.5795 29.5933C28.4487 29.6709 28.422 29.5512 28.3821 29.478C28.3193 29.3261 28.2739 29.1677 28.2469 29.0056C28.2313 28.9546 28.2247 28.8859 28.1559 28.8836C28.0872 28.8814 28.0872 28.9435 28.0717 28.9857C28.0215 29.1177 27.9401 29.2357 27.8344 29.3294C27.7653 29.4105 27.7221 29.5105 27.7102 29.6164C27.6983 29.7223 27.7184 29.8293 27.7678 29.9237C27.8011 30.0257 27.8721 30.1167 27.9031 30.2231C27.9231 30.2941 27.9586 30.3828 27.8233 30.3828C27.5965 30.2223 27.4382 29.9825 27.3798 29.7108Z" fill="#FCF4E7"/>
<path d="M28.5995 31.8375C28.3139 32.3191 27.9487 32.7488 27.5195 33.1082C26.5016 34.0241 25.3196 34.6872 24.1132 35.3148C24.0695 35.3403 24.0197 35.3537 23.9691 35.3537C23.9184 35.3537 23.8687 35.3403 23.8249 35.3148C22.6141 34.6938 21.441 34.0174 20.432 33.0971C20.0062 32.7409 19.644 32.315 19.3608 31.8375C19.5711 31.5534 19.8516 31.3288 20.1747 31.1855C20.2421 31.1592 20.3162 31.1556 20.3859 31.1752C20.4555 31.1948 20.5168 31.2366 20.5606 31.2942C20.6317 31.3686 20.6915 31.453 20.738 31.5448C21.4033 32.9153 22.4722 33.8822 23.7961 34.5918C23.8401 34.6238 23.8923 34.6424 23.9465 34.6455C24.0008 34.6487 24.0548 34.6362 24.1021 34.6096C24.8102 34.2259 25.458 33.7402 26.0248 33.1681C26.4264 32.7455 26.7708 32.272 27.0494 31.7599C27.1308 31.5887 27.242 31.4333 27.3776 31.3009C27.4242 31.2458 27.4891 31.2094 27.5604 31.1984C27.6317 31.1874 27.7046 31.2025 27.7657 31.241C28.0614 31.4137 28.3405 31.6134 28.5995 31.8375Z" fill="#AC7651"/>
<path d="M15.6197 17.7711V27.012L15.6751 27.0275C15.7882 26.8057 15.9501 26.6084 15.9501 26.34C15.9416 26.2523 15.9616 26.1641 16.0072 26.0886C16.0527 26.0131 16.1213 25.9543 16.2029 25.9209C16.2692 25.8947 16.3252 25.8477 16.3625 25.7869C16.3997 25.7261 16.4161 25.6548 16.4092 25.5838C16.4092 25.1603 16.4956 24.7367 16.4646 24.3153C16.4302 23.854 16.4302 23.3907 16.4646 22.9293C16.4823 22.6809 16.4247 22.4281 16.4269 22.1775C16.4269 21.8715 16.4846 21.5633 16.4646 21.2594C16.3981 20.1662 16.5333 19.0751 16.4535 17.984C16.4358 17.7489 16.3892 17.5405 16.7063 17.4873C16.7462 17.5959 16.6354 17.6558 16.622 17.7467C16.6087 17.8376 16.6087 17.9419 16.764 17.8953C16.9192 17.8487 17.0301 17.8088 17.0833 18.004C16.9436 18.1148 16.9769 18.2745 16.9769 18.4187L16.9613 21.4457C16.9613 21.5167 16.9613 21.5854 16.948 21.6675C16.9143 21.7075 16.8957 21.7582 16.8957 21.8105C16.8957 21.8629 16.9143 21.9136 16.948 21.9536V22.08C16.9046 22.124 16.8802 22.1833 16.8802 22.2452C16.8802 22.307 16.9046 22.3664 16.948 22.4104C16.9669 22.6947 16.9669 22.9799 16.948 23.2642C16.8966 23.3754 16.8699 23.4965 16.8699 23.619C16.8699 23.7415 16.8966 23.8626 16.948 23.9738C16.9735 24.2104 16.9735 24.4491 16.948 24.6857C16.8877 24.8281 16.8565 24.9812 16.8565 25.1359C16.8565 25.2905 16.8877 25.4436 16.948 25.586C16.9722 25.658 16.9722 25.7359 16.948 25.8078C16.9726 26.0287 16.9778 26.2513 16.9636 26.4731C16.9636 27.267 16.9636 28.0587 16.9636 28.8526C16.9532 28.9378 16.9584 29.0243 16.9791 29.1076C16.9791 29.2229 17.1188 29.2407 17.1343 29.3449C17.1488 29.4025 17.1823 29.4536 17.2294 29.4898C17.2764 29.526 17.3344 29.5453 17.3938 29.5445C17.7953 29.572 18.1987 29.5526 18.5957 29.4868C18.8175 29.4469 18.8885 29.3693 18.8796 29.132C18.9049 28.8207 18.9108 28.5082 18.8973 28.1962C18.9373 28.5067 18.8663 28.8836 18.8752 29.2606C18.8752 29.3094 18.8574 29.3782 18.7731 29.3405C18.8123 28.721 18.816 28.0998 18.7842 27.4799C18.7842 27.3624 18.7842 27.2781 18.9262 27.2581C19.1036 27.2581 19.1479 27.3823 19.1479 27.5087C19.1834 28.107 19.1834 28.7068 19.1479 29.305C19.1512 29.3653 19.1422 29.4256 19.1214 29.4822C19.1006 29.5389 19.0685 29.5907 19.027 29.6345C18.9854 29.6783 18.9354 29.7132 18.88 29.737C18.8245 29.7608 18.7648 29.773 18.7044 29.7729C18.2019 29.8306 17.6945 29.8306 17.192 29.7729C17.009 29.7514 16.8407 29.662 16.7204 29.5224C16.6001 29.3828 16.5365 29.2031 16.5422 29.0189C16.5448 28.7824 16.5307 28.546 16.5001 28.3115C16.4886 27.9689 16.5199 27.6262 16.5932 27.2914C16.5799 27.3647 16.571 27.4388 16.5666 27.5132C16.5659 27.5818 16.5399 27.6477 16.4937 27.6984C16.4475 27.7491 16.3843 27.7811 16.316 27.7881C16.1275 27.8059 16.0676 27.9212 16.0432 28.0853C15.9608 28.5831 15.906 29.085 15.8791 29.5889C15.8896 29.7227 15.9171 29.8546 15.9612 29.9814C15.9812 30.0878 16.0144 30.2164 15.8237 30.1854C15.6571 29.9572 15.5699 29.6807 15.5753 29.3981C15.5753 25.6001 15.5753 21.7998 15.5753 17.9973C15.5753 17.9197 15.5532 17.8354 15.6197 17.7711Z" fill="#FDF8F3"/>
<path d="M21.6494 30.1344C21.6672 30.1122 21.7049 30.0812 21.7004 30.0634C21.5009 29.3715 21.6029 28.6929 21.767 28.0121C21.7736 27.9658 21.7736 27.9187 21.767 27.8724C21.767 27.746 21.767 27.6507 21.9422 27.746C22.0464 27.8015 22.1484 27.7194 22.1972 27.5996C22.2851 27.4143 22.3334 27.2126 22.3391 27.0075C22.3391 26.9565 22.3192 26.8967 22.3968 26.8434C22.4536 26.9839 22.4734 27.1366 22.4544 27.287C22.4367 27.5974 22.4722 27.9079 22.4544 28.2206C22.4357 28.6126 22.4468 29.0056 22.4877 29.3959C22.5121 29.6177 22.7095 29.6887 22.9135 29.702C23.464 29.7208 24.0152 29.703 24.5634 29.6487C24.6564 29.638 24.7422 29.5938 24.8051 29.5245C24.8679 29.4551 24.9034 29.3653 24.9049 29.2717C24.9511 28.8417 24.9674 28.4089 24.9537 27.9766C24.9537 27.817 24.8938 27.6994 24.712 27.6839C24.6832 27.5886 24.6588 27.491 24.6211 27.3978C24.5834 27.3047 24.6211 27.3091 24.6632 27.2692C24.794 27.1739 24.9182 27.0652 25.0446 26.961C25.3285 26.9477 25.5547 27.1827 25.5946 27.542C25.6626 28.0723 25.6975 28.6063 25.6988 29.1409C25.6937 29.243 25.6974 29.3454 25.7099 29.4469C25.7099 29.4913 25.7232 29.5489 25.7853 29.5445C25.8474 29.5401 25.8408 29.4957 25.8496 29.458C25.8662 29.3726 25.8729 29.2855 25.8696 29.1986C25.8696 28.775 25.8696 28.3492 25.8696 27.9256C25.8696 27.817 25.8319 27.6817 25.9849 27.6285C25.9694 28.3359 26.0426 29.0455 25.945 29.7485C25.9153 29.9688 25.8113 30.1722 25.65 30.3251C24.5612 30.3029 23.4745 30.3251 22.3857 30.314C22.2282 30.314 22.0885 30.3295 22.0087 30.487C21.855 30.4099 21.7294 30.2866 21.6494 30.1344Z" fill="#FBEBD8"/>
<path d="M15.8126 30.1854C15.9013 30.1854 15.9434 30.1366 15.8991 30.0435C15.6773 29.5778 15.8392 29.1054 15.8747 28.6375C15.8924 28.3891 15.9545 28.143 15.9878 27.8946C16.0033 27.7682 16.0676 27.7083 16.1896 27.7238C16.4624 27.7571 16.5023 27.5819 16.5156 27.3757C16.5156 27.2537 16.4823 27.1228 16.5799 27.0031C16.6131 27.0283 16.6378 27.063 16.6509 27.1026C16.664 27.1422 16.6647 27.1848 16.6531 27.2249C16.5626 27.7582 16.5461 28.3015 16.6043 28.8393C16.6287 29.4735 16.8394 29.7108 17.4736 29.702C17.8899 29.7197 18.3069 29.7108 18.7221 29.6753C18.7715 29.6726 18.8198 29.6599 18.8642 29.638C18.9086 29.6162 18.9481 29.5856 18.9804 29.5481C19.0126 29.5107 19.0371 29.4671 19.0521 29.42C19.0672 29.3729 19.0726 29.3232 19.0681 29.2739C19.0814 28.6708 19.0681 28.0676 19.0681 27.4621C19.0686 27.4148 19.0549 27.3684 19.0288 27.3289C19.0028 27.2893 18.9654 27.2585 18.9217 27.2404L19.3054 26.9122C19.4089 26.9184 19.5062 26.9638 19.5775 27.0392C19.6488 27.1146 19.6886 27.2143 19.689 27.318C19.7346 27.5825 19.759 27.8502 19.7622 28.1186C19.7622 28.6308 19.7622 29.1431 19.8021 29.6554C19.8154 29.8217 19.8509 29.9437 20.0239 29.9947C20.035 30.0789 19.9618 30.1189 19.9263 30.1787C19.7236 30.2907 19.491 30.3365 19.261 30.3096C18.5048 30.3096 17.7486 30.3096 16.9924 30.3096C16.6694 30.2768 16.3432 30.3115 16.0344 30.4116C15.9391 30.3606 15.8617 30.2816 15.8126 30.1854Z" fill="#FCEEDC"/>
<path d="M27.8255 30.385C27.9386 30.3007 27.8255 30.2297 27.8056 30.1632C27.6951 29.9942 27.6401 29.795 27.6481 29.5933C27.6725 29.4358 27.6858 29.305 27.8521 29.234C27.9453 29.1919 27.9586 29.0877 27.9963 29.0123C28.034 28.9369 28.0229 28.755 28.1692 28.7728C28.2801 28.7883 28.309 28.9147 28.3267 29.0344C28.3483 29.2051 28.3946 29.3717 28.4642 29.529C28.4812 29.5728 28.5135 29.6091 28.5551 29.631C28.5712 29.6173 28.5899 29.607 28.6102 29.6009C28.6304 29.5948 28.6517 29.593 28.6726 29.5955C28.8315 29.6428 28.9971 29.6638 29.1628 29.6576C29.6817 29.6576 30.2028 29.6576 30.7151 29.6399C30.7903 29.6392 30.8633 29.6149 30.9239 29.5703C30.9844 29.5257 31.0293 29.4631 31.0522 29.3915C31.0879 29.2952 31.0978 29.1912 31.081 29.0899C30.9901 28.5089 31.1342 27.9256 31.0522 27.3446C31.0403 27.1783 31.0716 27.0118 31.1431 26.8612C31.1919 26.7414 31.2562 26.6217 31.4092 26.6394C31.4773 26.6434 31.5424 26.669 31.595 26.7125C31.6477 26.7559 31.6851 26.815 31.7019 26.8811C31.766 27.0597 31.799 27.248 31.7995 27.4378C31.7773 28.103 31.8705 28.7683 31.8527 29.4336C31.8527 29.7574 31.8527 29.7574 32.1543 29.6953C32.1468 29.9141 32.062 30.1231 31.9148 30.2852C31.6243 30.3074 31.336 30.3229 31.0455 30.3207C30.1806 30.3207 29.3135 30.3207 28.4487 30.3207C28.269 30.3207 28.0916 30.2896 28.0362 30.5247C27.9297 30.5291 27.892 30.4338 27.8255 30.385Z" fill="#FBEBD7"/>
<path d="M22.909 17.9463C22.7117 17.8199 22.501 17.9463 22.4877 18.1991C22.5024 18.3944 22.4767 18.5907 22.4123 18.7757C22.3276 18.4327 22.3095 18.0766 22.3591 17.7267C22.3591 17.5759 22.481 17.505 22.6562 17.4828C23.5037 17.4196 24.3546 17.4196 25.2021 17.4828C25.2862 17.4827 25.3677 17.5126 25.4318 17.567C25.496 17.6215 25.5388 17.6969 25.5524 17.78C25.6095 18.0557 25.62 18.339 25.5835 18.6182C25.5436 18.9287 25.5835 19.248 25.5635 19.5629C25.5637 19.7986 25.5208 20.0323 25.4371 20.2526C25.4182 20.3132 25.3856 20.3685 25.3417 20.4143C25.2979 20.4601 25.244 20.4951 25.1843 20.5165C25.1215 20.2893 24.9749 20.0944 24.7741 19.971C24.6854 19.9244 24.7142 19.8335 24.7142 19.7492C24.7142 19.2769 24.7142 18.8045 24.7142 18.3322C24.7142 17.9973 24.6144 17.8886 24.2707 17.8886C23.816 17.8747 23.3609 17.8939 22.909 17.9463Z" fill="#FAEDDE"/>
<path d="M17.0855 18.004C17.0493 17.9629 17.0007 17.9348 16.947 17.924C16.8934 17.9132 16.8376 17.9202 16.7884 17.9441C16.7285 17.9707 16.6797 18.106 16.5999 17.9973C16.562 17.9578 16.5377 17.9073 16.5305 17.853C16.5234 17.7988 16.5337 17.7437 16.5599 17.6957C16.6065 17.6247 16.6597 17.556 16.7085 17.4873C17.2333 17.4381 17.7608 17.4233 18.2875 17.4429C18.6223 17.4429 18.9528 17.4673 19.2965 17.4917C19.5604 17.5094 19.6935 17.7135 19.689 18.086C19.6779 18.7313 19.6535 19.3767 19.6513 20.022C19.6513 20.2438 19.4495 20.3347 19.4096 20.5188C19.2873 20.3169 19.1146 20.1503 18.9084 20.0353C18.8175 19.9954 18.8375 19.9023 18.8352 19.8269C18.8242 19.3545 18.8153 18.8799 18.8086 18.4076C18.8086 17.9796 18.7354 17.9086 18.3163 17.9086C18.0258 17.9086 17.7331 17.9086 17.4293 17.9086C17.3077 17.9053 17.188 17.9385 17.0855 18.004Z" fill="#FAECDB"/>
<path d="M32.161 29.6665C32.1341 29.6816 32.1089 29.6995 32.0856 29.7197C32.0324 29.7796 32.0168 29.9038 31.9015 29.8594C31.7862 29.815 31.7729 29.7064 31.7795 29.5999C31.8106 28.9147 31.7041 28.2317 31.7308 27.5464C31.726 27.3222 31.697 27.0991 31.6443 26.8811C31.6353 26.8221 31.6064 26.768 31.5625 26.7277C31.5185 26.6873 31.4621 26.6632 31.4025 26.6594C31.2739 26.6394 31.2451 26.7725 31.2163 26.8634C31.1545 27.0566 31.1311 27.26 31.1475 27.4621C31.1922 27.7828 31.1847 28.1086 31.1253 28.4268C31.0699 28.6641 31.1675 28.8947 31.163 29.132C31.163 29.5334 31.0344 29.6399 30.6375 29.6753C30.1008 29.7219 29.5641 29.6753 29.0297 29.7019C28.8952 29.7176 28.7596 29.6837 28.6483 29.6066C28.7414 29.5068 28.87 29.5245 28.9809 29.5245C29.4244 29.5245 29.879 29.5245 30.3292 29.5245C30.4394 29.5282 30.5496 29.5185 30.6574 29.4957C30.9235 29.4203 30.9657 29.3604 30.9745 29.081C30.9879 28.6708 30.9413 28.2627 30.9502 27.8524C30.9502 28.2694 30.9945 28.6841 30.9701 29.0988C30.9701 29.1786 31.0211 29.2983 30.8748 29.3205C30.9169 28.877 30.8748 28.4534 30.8748 28.021C30.8858 27.5021 30.8881 26.9809 30.8925 26.4686C30.8974 26.2408 30.9641 26.0185 31.0854 25.8255C31.1963 25.6393 31.2761 25.433 31.3848 25.2068C31.4243 25.6241 31.5696 26.0245 31.8071 26.3699C32.0447 26.7153 32.3664 26.9943 32.742 27.1805C32.7317 27.1901 32.7196 27.1976 32.7065 27.2027C32.2053 27.3734 32.2053 27.3734 32.2053 27.9057V29.3981C32.2204 29.49 32.2049 29.5843 32.161 29.6665Z" fill="#FDFAF3"/>
<path d="M25.8563 37.3816L26.7433 36.9824C26.6861 37.1939 26.5644 37.3823 26.3951 37.5213C25.9361 38.0713 25.4571 38.6035 24.9825 39.1402C24.7285 39.3872 24.462 39.6211 24.1842 39.841C24.136 39.8948 24.0687 39.9277 23.9966 39.9327C23.9246 39.9376 23.8534 39.9143 23.7983 39.8676C23.6652 39.77 23.5344 39.6702 23.4102 39.5615C22.5631 38.8231 21.8956 37.9227 21.1926 37.0534C21.185 37.0258 21.1798 36.9976 21.1771 36.9691C21.4792 37.0599 21.7645 37.1992 22.022 37.3816C22.0419 37.4304 22.0929 37.4459 22.1284 37.4814C22.3502 37.6721 22.4478 37.9449 22.6407 38.1467C23.0041 38.5281 23.4087 38.868 23.8471 39.1601C23.8869 39.1933 23.9372 39.2115 23.989 39.2115C24.0409 39.2115 24.0911 39.1933 24.1309 39.1601C24.5991 38.8754 25.0117 38.508 25.3484 38.0757C25.5258 37.8473 25.6766 37.6034 25.8563 37.3816Z" fill="#6A3317"/>
<path d="M26.3197 31.0858C26.1826 31.5803 25.9053 32.0247 25.5214 32.3653C25.2309 32.6691 24.8162 32.7379 24.4636 32.9197C24.3793 32.9641 24.2884 32.9929 24.2086 33.0395C24.1454 33.0806 24.0725 33.1041 23.9973 33.1076C23.922 33.1111 23.8472 33.0945 23.7806 33.0594C23.6035 32.9731 23.4186 32.904 23.2284 32.8532C22.9784 32.781 22.7444 32.6621 22.5387 32.5028C22.1177 32.1539 21.8047 31.6924 21.6361 31.1722C21.8224 31.088 21.8845 31.2698 21.9776 31.3474C22.3264 31.644 22.7336 31.8638 23.1729 31.9928C23.7947 32.1592 24.455 32.1035 25.0402 31.8353C25.4371 31.6787 25.8034 31.4535 26.1224 31.17C26.1778 31.1412 26.2222 31.0591 26.3197 31.0858Z" fill="#AB7450"/>
<path d="M32.3406 32.372C32.3634 32.3686 32.3866 32.3686 32.4094 32.372C32.5225 32.4008 32.6866 32.4052 32.7221 32.5095C32.7575 32.6137 32.6267 32.7312 32.538 32.8089C31.437 33.8761 30.2097 34.8048 28.8833 35.5742C28.5707 35.7516 28.2535 35.9157 27.881 36.1176C28.1016 35.7433 28.3619 35.3939 28.6572 35.0753C28.9948 34.8803 29.3206 34.6656 29.6329 34.4322C30.4002 33.9199 31.1232 33.3477 31.8505 32.7778C31.9598 32.6881 32.0615 32.5894 32.1544 32.4829C32.1965 32.4163 32.2852 32.423 32.3406 32.372Z" fill="#6D3418"/>
<path d="M19.2344 35.0198C19.5293 35.2494 19.7777 35.5332 19.9662 35.8559C19.9928 35.8914 20.0305 35.9446 19.9928 35.9845C19.9551 36.0244 19.8731 36.0089 19.8176 35.9845C19.5182 35.8137 19.2166 35.6452 18.9195 35.4678C17.6641 34.7514 16.5121 33.8673 15.4955 32.8399L15.4777 32.8244C15.3957 32.7312 15.256 32.6403 15.3136 32.5139C15.3521 32.4581 15.4066 32.4153 15.47 32.3911C15.5334 32.367 15.6026 32.3626 15.6684 32.3786C16.4366 33.0679 17.2517 33.7029 18.1078 34.2791C18.4848 34.5246 18.8603 34.7715 19.2344 35.0198Z" fill="#6B3418"/>
<path d="M25.8562 37.3816C25.9028 37.3971 25.9649 37.4193 25.8984 37.4681C25.5546 37.7253 25.4548 38.1622 25.1333 38.4461C24.795 38.7511 24.438 39.0348 24.0644 39.2954C24.0403 39.316 24.0096 39.3274 23.9779 39.3274C23.9462 39.3274 23.9155 39.316 23.8914 39.2954C23.2594 38.8519 22.6096 38.4084 22.2304 37.6876C22.1835 37.6156 22.1301 37.548 22.0707 37.4858C22.1617 37.4304 22.2149 37.5102 22.277 37.5457C22.7444 37.8227 23.2272 38.0729 23.7229 38.2953C23.785 38.3292 23.8541 38.3484 23.9248 38.3515C23.9956 38.3546 24.0661 38.3414 24.1309 38.313C24.6188 38.0779 25.1045 37.8407 25.5879 37.5967C25.63 37.5745 25.6766 37.5568 25.6788 37.4991C25.681 37.4415 25.8052 37.4304 25.8562 37.3816Z" fill="#A9744E"/>
<path d="M30.5044 32.046L29.8103 31.8996C29.7061 31.8775 29.624 31.8686 29.5752 32.0105C29.2715 32.8367 28.7374 33.5586 28.0362 34.0906C26.8377 35.0697 25.495 35.8575 24.0556 36.4258C24.0103 36.4476 23.9606 36.459 23.9103 36.459C23.86 36.459 23.8104 36.4476 23.7651 36.4258C22.8931 36.0372 22.0523 35.582 21.2503 35.0642C20.3056 34.4299 19.3941 33.7558 18.7576 32.7822C18.5922 32.5515 18.4622 32.2974 18.3718 32.0283C18.343 31.9307 18.2964 31.8641 18.1899 31.8952C17.9584 31.9399 17.7313 32.0052 17.5113 32.0903C17.4648 32.0327 17.4049 31.9728 17.5313 31.9395C17.7908 31.8752 18.0502 31.8109 18.3119 31.7533C18.3718 31.7377 18.4427 31.7023 18.4716 31.8198C18.6689 32.6669 19.2167 33.2879 19.831 33.8489C20.8345 34.7264 21.9603 35.4532 23.1729 36.0067C23.1795 36.0055 23.1863 36.0055 23.1929 36.0067C23.7052 36.3925 24.1842 36.2972 24.7297 36.0178C25.9916 35.3747 27.2223 34.6872 28.2779 33.727C28.7943 33.2769 29.1881 32.7031 29.4222 32.0593C29.5353 31.7178 29.5309 31.7156 29.8901 31.8043C30.0809 31.8508 30.2716 31.8974 30.4645 31.9395C30.5466 31.9551 30.551 31.9861 30.5044 32.046Z" fill="#E9CAB2"/>
<path d="M20.0261 30.0013C19.7711 30.0679 19.7533 30.0435 19.7334 29.7796C19.6846 29.1475 19.6912 28.5155 19.6846 27.8813C19.6778 27.7022 19.6601 27.5237 19.6314 27.3468C19.6186 27.2537 19.5824 27.1654 19.5262 27.0902C19.4699 27.0149 19.3955 26.9552 19.3098 26.9166C19.4061 26.7805 19.4685 26.6233 19.4916 26.4582C19.5148 26.2931 19.4981 26.1248 19.4429 25.9675C19.6738 26.1882 19.8771 26.4362 20.0483 26.7059C20.1233 26.7952 20.1741 26.9023 20.1958 27.0168C20.2176 27.1314 20.2095 27.2496 20.1725 27.3601C20.0439 27.7615 20.1281 28.1873 20.1148 28.602C20.1037 28.9236 20.1148 29.2473 20.1148 29.5689C20.0546 29.7087 20.0273 29.8604 20.035 30.0124L20.0261 30.0013Z" fill="#FDF8F3"/>
<path d="M19.2344 35.0198C18.8624 34.8514 18.5106 34.6416 18.1855 34.3945C17.3804 33.8721 16.6161 33.2894 15.8991 32.6514C15.8104 32.5716 15.6774 32.5139 15.6774 32.3698C15.9657 32.2877 16.2539 32.2079 16.54 32.1236C16.6332 32.097 16.693 32.097 16.744 32.2057C17.2877 33.2895 18.1019 34.2145 19.108 34.8912C19.1528 34.9314 19.195 34.9744 19.2344 35.0198Z" fill="#AC7652"/>
<path d="M32.2009 32.5028C31.9191 32.8184 31.5978 33.0964 31.2451 33.33C30.4382 33.9657 29.598 34.5579 28.7281 35.1041C28.6771 35.1351 28.6593 35.1307 28.6571 35.073C29.2905 34.6026 29.8758 34.0708 30.4046 33.4852C30.7353 33.0663 31.0207 32.6136 31.2562 32.1347C31.4709 32.2191 31.6939 32.2807 31.9215 32.3188C32.039 32.3454 32.1632 32.3653 32.2009 32.5028Z" fill="#AB744E"/>
<path d="M28.5995 31.8375L27.8677 31.3585C27.6038 31.1833 27.4973 31.19 27.3199 31.4495C27.0826 31.7932 26.8764 32.1591 26.6435 32.5006C26.055 33.304 25.3134 33.9831 24.4614 34.4987C24.3286 34.6061 24.1636 34.666 23.9928 34.6688C23.822 34.6717 23.6552 34.6172 23.5189 34.5142C22.3036 33.7935 21.3146 32.871 20.6959 31.5847C20.5051 31.1922 20.3011 31.1412 19.9552 31.4029C19.7622 31.5492 19.5693 31.7 19.3764 31.8464C19.2522 31.7577 19.3631 31.7156 19.4163 31.6712C19.5981 31.5226 19.7822 31.3741 19.9729 31.2277C20.0197 31.1864 20.0745 31.155 20.1338 31.1355C20.1931 31.1159 20.2557 31.1086 20.3179 31.114C20.3801 31.1194 20.4406 31.1374 20.4956 31.1668C20.5507 31.1963 20.5992 31.2366 20.6382 31.2854C20.7594 31.4302 20.8595 31.5914 20.9354 31.7644C21.6119 32.9586 22.6213 33.9302 23.8405 34.5608C23.8842 34.5856 23.9342 34.5969 23.9843 34.5933C24.0344 34.5898 24.0823 34.5715 24.1221 34.5408C25.3714 33.867 26.3971 32.8436 27.0738 31.5958C27.1065 31.5327 27.1435 31.4719 27.1846 31.414C27.4264 31.0791 27.6282 31.0458 27.9542 31.2876C28.1515 31.4295 28.3467 31.5781 28.5396 31.7311C28.5773 31.7533 28.6549 31.771 28.5995 31.8375Z" fill="#E8C9B1"/>
<path d="M25.3861 23.701C25.446 23.7166 25.4726 23.7454 25.4083 23.7875C25.344 23.8297 25.2331 23.8895 25.1444 23.9383C24.9116 24.0337 24.6565 24.0071 24.417 24.0847C24.3134 24.126 24.2008 24.1395 24.0903 24.124C23.9799 24.1084 23.8754 24.0643 23.7872 23.996C23.7118 23.9339 23.6209 23.9561 23.5411 23.9272C23.47 23.7264 23.47 23.5072 23.5411 23.3063C23.645 23.0093 23.7866 22.7268 23.9624 22.4658C24.0533 22.3261 24.1309 22.3372 24.2019 22.4658C24.3536 22.7684 24.5477 23.0477 24.7785 23.2952C24.9229 23.502 25.1398 23.6468 25.3861 23.701Z" fill="#A76D47"/>
<path d="M25.9893 27.624C25.925 27.6994 25.9516 27.7904 25.9494 27.8724V29.3139C25.955 29.3692 25.955 29.4249 25.9494 29.4802C25.925 29.5911 25.854 29.702 25.7565 29.702C25.6589 29.702 25.6456 29.5667 25.6279 29.4802C25.6182 29.4066 25.6182 29.332 25.6279 29.2584C25.6338 28.6654 25.599 28.0726 25.5236 27.4843C25.5085 27.3578 25.4541 27.2391 25.3683 27.1448C25.2824 27.0506 25.1693 26.9856 25.0446 26.9588C25.1375 26.8118 25.1878 26.6419 25.1897 26.468C25.1917 26.2941 25.1453 26.1232 25.0557 25.9741C25.387 26.398 25.7401 26.8044 26.1135 27.1916C26.1623 27.2382 26.1712 27.2847 26.1135 27.3313C26.0425 27.4135 25.9991 27.5159 25.9893 27.624Z" fill="#FDF9F0"/>
<path d="M28.0362 30.5069C27.9585 30.2209 27.9585 30.2231 28.3001 30.2231C29.3246 30.2231 30.3469 30.2231 31.3715 30.2231C31.5533 30.2231 31.744 30.1211 31.9148 30.2674C31.8456 30.3728 31.7506 30.4587 31.6388 30.5169C31.527 30.5751 31.4021 30.6038 31.2761 30.6001C30.307 30.6001 29.3379 30.6001 28.3688 30.6001C28.2508 30.6054 28.1342 30.5728 28.0362 30.5069Z" fill="#E6C5AD"/>
<path d="M16.0477 30.4227C16.1896 30.2187 16.4003 30.2275 16.6176 30.2297C17.5047 30.2297 18.3917 30.2297 19.2788 30.2297C19.5005 30.2297 19.7223 30.2009 19.933 30.1854C19.8852 30.3148 19.7977 30.4257 19.6829 30.5022C19.5682 30.5787 19.4321 30.6169 19.2943 30.6112C18.3673 30.6112 17.4396 30.6112 16.5112 30.6112C16.338 30.6111 16.1717 30.5434 16.0477 30.4227Z" fill="#E8C7AE"/>
<path d="M22.022 30.487C21.9555 30.283 22.022 30.2253 22.2438 30.2275C23.1951 30.2408 24.1465 30.2275 25.0978 30.2275C25.2153 30.2458 25.3354 30.236 25.4482 30.1987C25.5879 30.1322 25.5724 30.3207 25.67 30.3207C25.5979 30.4145 25.5042 30.4896 25.3968 30.5394C25.2895 30.5892 25.1717 30.6123 25.0535 30.6068C24.1664 30.6068 23.2993 30.6068 22.4234 30.6068C22.2802 30.6111 22.1394 30.5691 22.022 30.487Z" fill="#E6C5AC"/>
<path d="M19.5582 23.8008C19.2868 24.0247 18.9983 24.2271 18.6955 24.4063C18.619 24.4514 18.534 24.48 18.4458 24.4903C18.3576 24.5006 18.2682 24.4923 18.1834 24.466C18.0986 24.4396 18.0203 24.3959 17.9534 24.3375C17.8866 24.2791 17.8326 24.2073 17.7952 24.1268C17.7276 24.0118 17.6843 23.8843 17.6679 23.7519C17.6515 23.6196 17.6624 23.4853 17.6998 23.3573C17.7158 23.3259 17.7392 23.2987 17.7678 23.2781C17.7965 23.2575 17.8297 23.244 17.8646 23.2388C17.8995 23.2336 17.9352 23.2368 17.9686 23.2482C18.0021 23.2595 18.0323 23.2787 18.0568 23.3041C18.3895 23.5636 18.8308 23.5259 19.1856 23.7476C19.3009 23.8008 19.4495 23.6833 19.5582 23.8008Z" fill="#9A5E39"/>
<path d="M29.4644 23.6944C29.4644 23.5325 29.3978 23.3662 29.4976 23.211C29.6617 22.9759 29.7549 22.6987 29.9411 22.4747C29.9988 22.4037 30.0254 22.2862 30.1452 22.3084C30.2649 22.3306 30.2516 22.4326 30.2893 22.508C30.4859 23.011 30.8576 23.426 31.336 23.6767C31.3848 23.7011 31.4314 23.7343 31.489 23.7055C31.5245 23.7254 31.6265 23.7498 31.5201 23.7831C31.4136 23.8164 31.3737 23.8518 31.2983 23.8829C31.2543 23.8994 31.2071 23.9058 31.1603 23.9016C31.1134 23.8974 31.0681 23.8827 31.0278 23.8585C30.9729 23.8199 30.9075 23.7993 30.8404 23.7993C30.7733 23.7993 30.7079 23.8199 30.653 23.8585C30.5643 23.9139 30.4911 23.9162 30.4312 23.8142C30.4116 23.7746 30.3784 23.7434 30.3377 23.7263C30.297 23.7092 30.2515 23.7074 30.2095 23.721C29.9655 23.7853 29.7172 23.6767 29.4644 23.6944Z" fill="#A86D45"/>
<path d="M29.4644 23.6944C29.525 23.6529 29.5956 23.6283 29.6689 23.6233C29.7422 23.6182 29.8155 23.6328 29.8813 23.6656C29.9788 23.7232 30.0786 23.6656 30.1784 23.6656C30.3425 23.639 30.5199 23.6079 30.5199 23.8629C30.6974 23.7875 30.8415 23.6013 31.0433 23.8097C31.0987 23.8674 31.2141 23.8652 31.3006 23.8918C31.0788 24.0514 30.857 24.2178 30.6353 24.3663C30.0964 24.7167 29.6728 24.3663 29.5154 23.9073C29.4932 23.8377 29.4762 23.7665 29.4644 23.6944Z" fill="#975935"/>
<path d="M22.5387 32.5028C22.9822 32.6691 23.4258 32.8288 23.8538 33.0106C23.89 33.0308 23.9309 33.0414 23.9724 33.0414C24.0139 33.0414 24.0548 33.0308 24.091 33.0106C24.4709 32.8215 24.8602 32.652 25.2575 32.5028C25.3529 32.4607 25.4105 32.3609 25.5214 32.3564C25.1067 32.8643 24.5634 33.2125 24.0378 33.585C24.0139 33.6061 23.9832 33.6177 23.9513 33.6177C23.9195 33.6177 23.8887 33.6061 23.8648 33.585C23.4169 33.2391 22.909 32.9641 22.5387 32.5028Z" fill="#693318"/>
<path d="M19.5582 23.8008C19.2566 23.8851 19.0104 23.6744 18.7377 23.6434C18.4726 23.5999 18.2208 23.4968 18.0014 23.3418C17.8706 23.2642 17.8062 23.2686 17.753 23.4083C17.753 23.4261 17.753 23.4859 17.7109 23.4283C17.6998 23.4105 17.7109 23.3817 17.6998 23.3573C17.6844 23.1932 17.7175 23.0282 17.7952 22.8827C17.9238 22.7497 17.946 22.5612 18.0524 22.4148C18.1965 22.2175 18.2742 22.2064 18.3717 22.4348C18.5568 22.8419 18.8276 23.2043 19.1657 23.497C19.2756 23.6219 19.4283 23.701 19.5937 23.7188C19.6336 23.7188 19.6735 23.7454 19.658 23.7853C19.6424 23.8252 19.5937 23.792 19.5582 23.8008Z" fill="#A9744C"/>
<path d="M30.8748 29.3294C30.9568 29.2629 30.9236 29.1697 30.9258 29.0877C30.9258 28.6708 30.9258 28.2539 30.9413 27.8369C31.0143 28.3152 31.0366 28.7999 31.0078 29.2828C30.9834 29.5046 30.8083 29.6155 30.4933 29.6155C29.8768 29.6155 29.2626 29.6155 28.6483 29.6155H28.5551C28.5551 29.3117 28.5551 29.0078 28.5551 28.7062C28.5548 28.6883 28.5582 28.6705 28.565 28.6539C28.5719 28.6373 28.5821 28.6223 28.595 28.6098C28.6079 28.5974 28.6232 28.5877 28.64 28.5814C28.6568 28.5751 28.6747 28.5723 28.6926 28.5732C28.6926 28.7617 28.7082 28.9502 28.6926 29.1387C28.6771 29.3272 28.7459 29.3405 28.8989 29.3383C29.5619 29.3294 30.2272 29.3316 30.8748 29.3294Z" fill="#FFFEFD"/>
<path d="M26.3198 31.0857C25.8476 31.5614 25.2539 31.8982 24.6033 32.0593C23.5322 32.3476 22.6252 32.026 21.8291 31.2986C21.7736 31.2476 21.7315 31.1722 21.6361 31.1833L21.5341 30.9106C22.226 31.5492 22.9556 32.0704 23.9491 32.0194C24.9071 31.9795 25.6656 31.5115 26.3552 30.895C26.3929 30.9815 26.302 31.0237 26.3198 31.0857Z" fill="#ECCAB3"/>
<path d="M23.5411 23.9272C23.632 23.8607 23.7007 23.8053 23.8116 23.9272C23.9143 24.0025 24.036 24.0476 24.163 24.0574C24.2899 24.0672 24.4171 24.0413 24.5301 23.9827C24.6122 23.9317 24.6654 23.8718 24.7674 23.9583C24.8251 24.0071 24.8983 23.9583 24.9581 23.9073C25.018 23.8563 25.0978 23.8186 25.1444 23.9339C24.921 24.1662 24.6503 24.3477 24.3505 24.4661C24.0023 24.5881 23.683 24.3752 23.5411 23.9272Z" fill="#8A512E"/>
<path d="M18.7798 29.3272C18.8774 29.2673 18.8397 29.1719 18.8419 29.0899C18.8419 28.7506 18.8419 28.4113 18.8419 28.072C18.8419 27.9988 18.8108 27.9168 18.8973 27.8325C18.9766 28.0876 19.0023 28.3564 18.9727 28.622C18.9462 28.8086 18.9328 28.9968 18.9328 29.1853C18.9371 29.2309 18.9322 29.2769 18.9185 29.3207C18.9048 29.3644 18.8826 29.405 18.8531 29.4401C18.8236 29.4752 18.7874 29.504 18.7466 29.525C18.7059 29.546 18.6614 29.5586 18.6157 29.5622C18.194 29.6206 17.7676 29.6369 17.3428 29.611C17.192 29.611 17.0279 29.5512 17.1387 29.3316H17.2297C17.7024 29.3571 18.1762 29.3571 18.6489 29.3316L18.7798 29.3272Z" fill="#FEFEFC"/>
<path d="M25.6788 37.4947C25.7675 37.5878 25.6545 37.5989 25.619 37.6167C25.2242 37.8251 24.8162 38.0136 24.4325 38.2376C24.2877 38.3289 24.1206 38.3789 23.9494 38.382C23.7781 38.3851 23.6093 38.3413 23.4612 38.2554C22.9844 38.0158 22.5342 37.7386 22.0708 37.4814C22.0375 37.457 21.9688 37.4548 22.0153 37.3838C22.4797 37.5612 22.9254 37.784 23.3459 38.0491C23.5154 38.1731 23.719 38.2418 23.929 38.2457C24.1389 38.2497 24.345 38.1888 24.519 38.0713C24.8943 37.8571 25.2815 37.6646 25.6788 37.4947Z" fill="#D3AE94"/>
<path d="M28.6948 26.9587C28.615 27.0009 28.5085 27.1295 28.5085 26.9055V24.8298C28.5061 24.8096 28.5094 24.7891 28.518 24.7707C28.5266 24.7523 28.5403 24.7367 28.5573 24.7256C28.6638 24.7478 28.6216 24.8764 28.6926 24.923L28.6948 26.9587Z" fill="#FFFEFD"/>
<path d="M31.4891 23.7055C31.3737 23.7942 31.2806 23.7055 31.1919 23.6545C30.7628 23.398 30.4288 23.0088 30.2405 22.5457L30.1319 22.3062C29.914 22.5834 29.7225 22.8804 29.5597 23.1932C29.5309 23.2486 29.522 23.2819 29.4976 23.1932C29.6174 22.7297 29.9101 22.3638 30.1784 21.9469C30.3736 22.7652 30.7572 23.3684 31.4891 23.7055Z" fill="#E7CBB8"/>
<path d="M19.5937 23.7077C19.5267 23.7277 19.4554 23.7281 19.3882 23.7089C19.321 23.6896 19.2607 23.6515 19.2144 23.599C18.8311 23.3183 18.5289 22.9411 18.3385 22.5057C18.3097 22.4348 18.2697 22.366 18.2209 22.264C18.1103 22.4184 18.0153 22.5833 17.9371 22.7563C17.9149 22.8207 17.906 22.9094 17.7952 22.8827C17.9042 22.5255 18.068 22.1873 18.2808 21.8804C18.3477 22.2642 18.5005 22.628 18.7279 22.9445C18.9552 23.2609 19.2512 23.5218 19.5937 23.7077Z" fill="#E0C2AD"/>
<path d="M25.3861 23.7011C25.2863 23.7964 25.2109 23.7011 25.14 23.6589C24.672 23.3928 24.4015 22.9515 24.1443 22.5013L24.0777 22.3816L23.5366 23.3063C23.5683 23.0404 23.6642 22.7862 23.816 22.5656C23.9136 22.3971 24.0201 22.233 24.1221 22.0667C24.3705 22.7453 24.7186 23.3507 25.3861 23.7011Z" fill="#E3C8B2"/>
<path d="M28.6948 20.8514C28.6061 20.8869 28.6084 20.9844 28.5396 21.0465V19.1061C28.6239 19.2259 28.5707 19.3811 28.6948 19.4787V20.8514Z" fill="#FFFEFD"/>
<path d="M16.9858 29.0943C16.9702 29.0766 16.9584 29.0558 16.9511 29.0333C16.9439 29.0108 16.9413 28.987 16.9436 28.9635V25.8034C16.9702 26.1546 16.9769 26.507 16.9636 26.859C16.9835 27.6041 16.9813 28.3492 16.9858 29.0943Z" fill="#FCEEDC"/>
<path d="M32.2009 32.5028C32.0372 32.3958 31.85 32.3304 31.6553 32.3121C31.5156 32.2744 31.3427 32.2988 31.2562 32.1347C31.6332 32.1347 31.9769 32.3032 32.3406 32.3698C32.3539 32.4806 32.2364 32.4496 32.2009 32.5028Z" fill="#BE9579"/>
<path d="M16.9525 25.5905C16.7307 25.3687 16.7307 24.8343 16.9525 24.6901C16.9802 24.9896 16.9802 25.291 16.9525 25.5905Z" fill="#FEFEFC"/>
<path d="M32.1965 19.6672C32.1366 19.6007 32.1588 19.5186 32.1565 19.4454V17.7733C32.2075 17.8221 32.1987 17.8887 32.1987 17.9507L32.1965 19.6672Z" fill="#FCF4E7"/>
<path d="M16.948 23.9783C16.9005 23.9322 16.8628 23.877 16.837 23.8161C16.8113 23.7551 16.798 23.6896 16.798 23.6234C16.798 23.5573 16.8113 23.4918 16.837 23.4308C16.8628 23.3699 16.9005 23.3147 16.948 23.2686V23.9783Z" fill="#FEFEFC"/>
<path d="M18.6512 29.3427C18.1802 29.407 17.7028 29.407 17.2319 29.3427C17.7042 29.3405 18.1788 29.3405 18.6512 29.3427Z" fill="#FDF8F3"/>
<path d="M28.6993 18.5318C28.5951 18.5739 28.6061 18.6759 28.5707 18.7535C28.635 18.5695 28.4021 18.31 28.7037 18.1969L28.6993 18.5318Z" fill="#FFFEFD"/>
<path d="M16.948 22.4148C16.7595 22.2574 16.7595 22.2152 16.948 22.0844C16.9702 22.1934 16.9702 22.3058 16.948 22.4148Z" fill="#FEFEFC"/>
<path d="M20.0261 30.0036C19.9884 29.9312 19.9758 29.8484 19.9903 29.7681C20.0047 29.6879 20.0454 29.6147 20.106 29.56C20.1123 29.7119 20.0851 29.8634 20.0261 30.0036Z" fill="#FCEEDC"/>
<path d="M16.9502 21.9425C16.7773 21.8471 16.8327 21.7518 16.9502 21.6564C16.971 21.7506 16.971 21.8482 16.9502 21.9425Z" fill="#FEFEFC"/>
<path d="M28.6261 22.3616C28.5795 22.9027 28.7259 23.4438 28.5374 23.9827V22.3705L28.6261 22.3616Z" fill="#FFFEFD"/>
<path d="M28.5374 21.7429C28.5728 21.7939 28.595 21.8116 28.595 21.8294C28.595 21.8471 28.595 21.9358 28.595 22.0511C28.5528 22.0133 28.5242 21.9626 28.5138 21.9068C28.5034 21.8511 28.5116 21.7934 28.5374 21.7429Z" fill="#FFFEFD"/>
<path d="M28.5928 28.0476C28.493 27.95 28.493 27.8835 28.5418 27.797C28.6216 27.8635 28.5994 27.9367 28.5928 28.0476Z" fill="#FFFEFD"/>
</svg>
