<svg data-made-by="cubiq" width="48" height="48" viewBox="0 0 48 48" fill="none" xmlns="http://www.w3.org/2000/svg">
<rect width="48" height="48" rx="11.2" fill="#242938"/>
<path d="M45.7557 15.6543V18.113C45.7038 19.485 45.6261 20.855 45.2651 22.1871C44.6888 24.3149 43.4504 25.9082 41.4264 26.8494C41.2888 26.9133 41.1931 26.9691 41.3486 27.1206C41.4264 27.2105 41.4845 27.3157 41.5192 27.4294C41.5539 27.543 41.5644 27.6627 41.55 27.7807C41.55 31.6999 41.55 35.6177 41.55 39.5343C41.55 40.5074 41.55 41.4826 41.55 42.4577C41.5563 42.9752 41.4233 43.4849 41.1651 43.9334C40.9895 44.2647 40.7241 44.5398 40.3992 44.7271C40.0743 44.9144 39.7032 45.0063 39.3285 44.9923C37.9645 44.9923 36.6025 44.9923 35.2405 44.9923C26.3505 44.9923 17.4613 44.9923 8.57265 44.9923C8.26356 44.9923 7.95446 44.9763 7.64736 44.9923C6.10389 45.1059 5.30224 43.9453 5.1088 42.8944C5.07111 42.6972 5.05175 42.4969 5.05097 42.2962L5.05097 27.7987C5.05097 27.2004 5.21649 27.0369 5.80676 27.0369C6.39703 27.0369 6.94143 27.0369 7.50777 27.0369C7.74508 27.0369 7.84678 26.995 7.87071 26.7158C7.90185 26.1079 8.10976 25.5222 8.46896 25.0308C8.51852 24.9838 8.54899 24.9201 8.55451 24.852C8.56003 24.784 8.54021 24.7162 8.49887 24.6619C8.2239 24.2209 8.07749 23.7119 8.07611 23.1922C8.07611 22.9648 8.0103 22.8571 7.74906 22.8671C7.43529 22.8888 7.1206 22.8405 6.82779 22.7257C6.53498 22.6108 6.27137 22.4323 6.05603 22.2031C6.01761 22.1583 5.96683 22.1259 5.91006 22.11C5.85329 22.094 5.79307 22.0952 5.73696 22.1133C5.46612 22.1748 5.19173 22.2194 4.91537 22.2469C4.11771 22.3107 3.59923 21.9777 3.32005 21.2339C3.29541 21.1422 3.24874 21.058 3.18409 20.9884C3.11945 20.9189 3.03878 20.8663 2.94913 20.8351C2.75337 20.7591 2.58353 20.6285 2.45981 20.4588C2.33608 20.2891 2.26367 20.0875 2.25118 19.8779C2.23503 19.7687 2.24728 19.6572 2.28675 19.5542C2.32622 19.4512 2.39158 19.36 2.47652 19.2896C2.5794 19.1959 2.68796 19.1087 2.80156 19.0284C3.01585 18.8903 3.18608 18.6937 3.2921 18.4618C3.39813 18.23 3.4355 17.9726 3.39981 17.7202C3.35993 17.106 3.2662 16.4958 3.28216 15.8776C3.31606 14.6313 4.18351 13.8057 5.42986 13.8396C5.64824 13.8449 5.86605 13.8642 6.08195 13.8974C6.12318 13.9109 6.1668 13.9157 6.20997 13.9112C6.25315 13.9068 6.2949 13.8933 6.33253 13.8717C6.37015 13.8501 6.4028 13.8208 6.42834 13.7857C6.45388 13.7506 6.47175 13.7105 6.48078 13.6681C6.61017 13.3001 6.84275 12.9771 7.15075 12.7377C7.45874 12.4983 7.82914 12.3526 8.21769 12.318C8.47095 12.2901 8.43904 12.1864 8.3852 12.0169C7.87603 10.4123 7.36951 8.80699 6.86565 7.20103C6.6782 6.61474 6.70612 6.53897 7.21862 6.17005C7.30441 6.10289 7.38205 6.02593 7.44994 5.94072C8.43107 4.78012 9.5438 3.797 11.0255 3.3204C11.629 3.12081 12.2603 3.01784 12.896 3.01529C20.8407 3.01529 28.7874 3.02925 36.7321 3.00133C38.3542 2.97338 39.9534 3.38696 41.3586 4.19783C43.1812 5.25074 44.1962 6.87997 44.7865 8.83823C45.2531 10.3857 45.4566 11.975 45.6281 13.5724C45.7012 14.2637 45.7437 14.9576 45.7557 15.6543Z" fill="#0C1C20"/>
<path d="M30.7537 40.8344C30.2121 40.8942 29.6664 40.9083 29.1224 40.8763C23.8339 40.8763 18.5448 40.8763 13.2549 40.8763C11.6437 40.8763 10.033 40.8796 8.4231 40.8863C8.22368 40.8863 8.14392 40.8484 8.14591 40.6271C8.14591 37.217 8.14591 33.807 8.14591 30.397C8.14591 30.3572 8.14591 30.3173 8.14591 30.2774C8.15942 30.2693 8.17558 30.2668 8.19089 30.2706C8.2062 30.2743 8.21942 30.2839 8.22767 30.2973C8.28217 30.4262 8.30077 30.5675 8.28151 30.7061V39.5602C8.28151 39.6798 8.26556 39.7975 8.25958 39.9291C8.30744 39.9191 8.25958 39.953 8.25958 39.9291C8.21172 39.9391 8.25958 39.9291 8.25958 39.8992C8.27354 39.8055 8.31342 39.7137 8.41113 39.6998C8.70427 39.6599 8.71624 39.4405 8.6963 39.2311C8.67636 39.0218 8.6963 38.8144 8.6604 38.607C8.63647 38.4454 8.70228 38.3537 8.85982 38.3358C9.01736 38.3178 9.18088 38.3198 9.24668 38.5212C9.40422 39.0038 9.75519 39.1374 10.2019 38.8682C10.2348 38.8384 10.2736 38.8159 10.3159 38.8022C10.3581 38.7885 10.4028 38.7839 10.4469 38.7889C10.491 38.7938 10.5336 38.808 10.5718 38.8306C10.61 38.8532 10.643 38.8837 10.6685 38.9201C10.8141 39.0876 10.9557 39.0636 11.0095 38.8483C11.0933 38.5033 11.3246 38.4175 11.6257 38.4135C11.7738 38.4116 11.9159 38.3547 12.0245 38.254C12.2431 38.0988 12.4761 37.9653 12.7205 37.8552C12.8785 37.7766 13.0254 37.6773 13.1572 37.56C12.8501 37.4962 12.7205 37.2669 12.6587 36.9758C12.5889 36.6467 12.878 36.5111 13.0336 36.3097C13.1014 36.222 13.219 36.2838 13.3068 36.3336C13.4464 36.4114 13.584 36.4992 13.7535 36.4174C13.7894 36.3994 13.8472 36.3994 13.8632 36.4353C13.9688 36.6687 14.3059 36.6726 14.3617 36.9598C14.3856 37.0834 14.5272 37.0854 14.6209 37.1373C14.7605 37.2111 14.8423 37.3367 14.6828 37.4304C14.4275 37.57 14.3278 37.8651 14.0845 37.9948C13.7774 38.1583 13.6019 38.5093 13.233 38.5751C13.1891 38.5751 13.1772 38.6229 13.1632 38.6608C13.1235 38.8154 13.0417 38.9559 12.9269 39.0668C12.8122 39.1777 12.6689 39.2546 12.5131 39.289C12.8222 39.2989 12.8561 39.3348 12.8641 39.6878C12.8641 39.9191 12.8501 40.1624 13.1712 40.2023C13.5939 40.314 13.8671 40.0906 14.1144 39.7935C14.6189 39.1953 15.2092 38.6708 15.7556 38.1104C15.8047 38.061 15.8659 38.0252 15.9331 38.0067C16.0178 37.9949 16.0951 37.9521 16.15 37.8865C16.2049 37.8209 16.2335 37.7372 16.2302 37.6518C16.2451 37.4933 16.2711 37.336 16.308 37.1812C16.3319 37.0615 16.3917 36.9817 16.2462 36.8601C16.1006 36.7385 16.2462 36.541 16.2601 36.3795C16.2639 36.2359 16.2288 36.094 16.1586 35.9687C16.0884 35.8434 15.9857 35.7394 15.8613 35.6676C15.7835 35.6317 15.7496 35.6676 15.7197 35.7254C15.6041 35.9408 15.4625 35.855 15.3747 35.7254C15.1697 35.4705 14.9377 35.2385 14.6828 35.0334C14.5747 34.9304 14.488 34.8071 14.4275 34.6705C14.2281 34.2238 14.3717 33.9446 14.8523 33.8469C14.8956 33.8356 14.9409 33.8347 14.9847 33.8444C15.0284 33.8541 15.0691 33.8741 15.1035 33.9028C15.2313 34.0126 15.3711 34.1076 15.5203 34.1859C15.6858 34.2677 15.636 34.3853 15.5203 34.493C15.354 34.6192 15.1597 34.7033 14.954 34.7383C15.1314 34.9896 15.1534 34.9756 15.3727 34.8261C15.5382 34.7184 15.61 34.497 15.8334 34.4691C16.0567 34.4412 16.0966 34.7244 16.2581 34.7882C16.5333 34.8959 16.5792 35.0793 16.5114 35.3346C16.4985 35.371 16.4987 35.4107 16.5117 35.4471C16.5248 35.4834 16.5501 35.5141 16.5832 35.534C16.6161 35.5491 16.6529 35.5537 16.6885 35.5473C16.7242 35.5409 16.757 35.5237 16.7826 35.4981C16.982 35.3346 17.1415 35.2987 17.2452 35.5998C17.2891 35.7274 17.4646 35.6736 17.5503 35.7633C17.4586 36.1023 17.654 36.3994 17.6979 36.7205C17.7418 37.0416 17.6421 37.4125 17.7976 37.7435C17.8176 37.7874 17.8116 37.8592 17.8475 37.8791C18.2463 38.1224 18.338 38.607 18.7129 38.9041C19.042 39.1613 19.383 39.4106 19.71 39.6679C19.7746 39.7289 19.8233 39.8049 19.8516 39.8892C19.8818 39.9692 19.9368 40.0373 20.0086 40.0836C20.0804 40.1299 20.1652 40.152 20.2504 40.1465C20.3385 40.1594 20.4257 40.1774 20.5117 40.2003C20.624 40.2245 20.7414 40.2082 20.8428 40.1542C20.9443 40.1001 21.0234 40.0119 21.066 39.9052C21.1314 39.7611 21.1542 39.6014 21.1315 39.4448C21.1089 39.2882 21.0419 39.1414 20.9384 39.0218C20.4359 38.5292 19.9054 38.0686 19.4169 37.56C19.0539 37.1792 19.0519 37.0994 19.4368 36.7524C19.6661 36.553 19.8735 36.3197 20.0949 36.1063C20.1834 35.9969 20.3104 35.9255 20.4499 35.9069C20.6485 35.8445 20.8281 35.7328 20.9718 35.5821C21.1155 35.4315 21.2186 35.2468 21.2714 35.0454C21.3484 34.6262 21.3273 34.1948 21.2096 33.7851C21.094 33.4262 20.733 33.2786 20.4379 33.5119C20.3063 33.6136 20.1747 33.7213 20.051 33.833C19.9673 33.9107 19.8516 33.9925 19.8775 34.1301C19.9413 34.5489 19.6781 34.7941 19.4069 35.0295C19.2254 35.185 19.028 35.3166 18.8585 35.4861C18.689 35.6556 18.5813 35.5858 18.4916 35.203C18.3979 35.4024 18.352 35.6157 18.1446 35.6796C17.9372 35.7434 17.7936 35.879 17.5842 35.7633C17.562 35.743 17.5453 35.7172 17.5359 35.6886C17.5265 35.66 17.5246 35.6294 17.5304 35.5998C17.5723 35.4702 17.5304 35.4004 17.4167 35.3246C17.3748 35.2972 17.3411 35.2589 17.3191 35.2139C17.2972 35.1688 17.2879 35.1187 17.2922 35.0688C17.2965 35.0189 17.3142 34.9711 17.3435 34.9304C17.3728 34.8898 17.4126 34.8579 17.4586 34.838C17.5382 34.7991 17.6099 34.7457 17.67 34.6805C17.7258 34.6032 17.8085 34.5496 17.9018 34.53C17.9951 34.5105 18.0924 34.5264 18.1745 34.5748C18.4856 34.6924 18.4537 34.6645 18.6132 34.3754C18.7728 34.0862 19.1018 34.0085 19.2534 33.7193C19.2972 33.6395 19.4249 33.7811 19.5226 33.7791C19.5585 33.6954 19.5226 33.6216 19.5046 33.5458C19.4607 33.2307 19.5046 33.1889 19.8117 33.2347C19.8537 33.2453 19.8975 33.2457 19.9397 33.236C19.9818 33.2262 20.021 33.2067 20.0541 33.1788C20.0872 33.151 20.1133 33.1157 20.13 33.0758C20.1468 33.036 20.1539 32.9927 20.1507 32.9496C20.2401 32.6879 20.3751 32.4442 20.5496 32.2297C20.845 32.1379 21.1614 32.1379 21.4569 32.2297C21.4857 32.2384 21.5121 32.2535 21.5342 32.2739C21.5563 32.2943 21.5735 32.3194 21.5845 32.3473C21.6743 32.6444 21.9016 32.6624 22.1529 32.6425C22.3521 32.6408 22.5494 32.6823 22.7312 32.7641C22.8947 32.8239 23.0263 32.8 23.0682 32.6006C23.0791 32.5312 23.1094 32.4663 23.1557 32.4133C23.2019 32.3604 23.2621 32.3216 23.3294 32.3015C23.3714 32.2933 23.4109 32.275 23.4443 32.2483C23.4778 32.2216 23.5042 32.1871 23.5215 32.1479C23.5387 32.1087 23.5462 32.066 23.5433 32.0232C23.5404 31.9805 23.5273 31.9391 23.5049 31.9026C23.4383 31.7305 23.4119 31.5454 23.4278 31.3615C23.4437 31.1777 23.5015 30.9999 23.5966 30.8417C23.6724 30.7001 23.6923 30.5885 23.5587 30.4748C23.483 30.409 23.4112 30.3252 23.5348 30.2315C23.7372 30.1693 23.9552 30.1821 24.149 30.2674L24.5718 30.5845C24.8928 30.8497 25.182 31.1548 25.527 31.3821C27.0884 32.451 28.7296 32.5507 30.4406 31.763C30.5582 31.7092 30.6759 31.5875 30.8155 31.7291V39.2212C30.8155 39.6579 30.8155 40.0946 30.8155 40.5313C30.8155 40.6251 30.8554 40.7307 30.7696 40.8125C30.65 40.655 30.6998 40.4635 30.6938 40.294C30.6649 39.8477 30.6689 39.3997 30.7058 38.954C30.7164 38.6666 30.7091 38.3789 30.6839 38.0925C30.6739 37.3387 30.7337 36.5849 30.7098 35.8311C30.6859 35.0773 30.6859 34.3395 30.6799 33.5957C30.6799 33.1589 30.7317 32.7242 30.7158 32.3712C30.6898 32.8479 30.6978 33.4102 30.646 33.9666C30.624 34.2158 30.6859 34.4611 30.6839 34.7104C30.6839 35.6317 30.6978 36.555 30.6839 37.4763C30.6839 38.4734 30.626 39.4605 30.6958 40.4536C30.7078 40.631 30.6121 40.7327 30.4545 40.7208C29.9301 40.6789 29.4116 40.8763 28.8871 40.7407C28.7977 40.7297 28.7073 40.7297 28.6179 40.7407C27.3756 40.7407 26.1332 40.7407 24.8888 40.7407C23.818 40.7407 22.7471 40.7926 21.6763 40.8045C20.7131 40.8045 19.7519 40.6909 18.7907 40.7467C17.8295 40.8025 16.8683 40.7208 15.9052 40.7467C15.3328 40.7666 14.7585 40.8165 14.1862 40.7886C12.6128 40.7148 11.0374 40.7367 9.46405 40.7347C9.12743 40.7577 8.78963 40.7577 8.45301 40.7347C8.3533 40.7208 8.25359 40.7487 8.23964 40.5932C8.23964 40.7088 8.29946 40.7467 8.41113 40.7427C8.67835 40.7307 8.94557 40.7427 9.2088 40.7427C10.4512 40.7208 11.6955 40.7088 12.9379 40.7427C13.4962 40.7587 14.0606 40.8025 14.6169 40.7766C15.3787 40.7407 16.1425 40.7208 16.9022 40.7387C17.662 40.7567 18.4078 40.7148 19.1616 40.7387C20.2624 40.7647 21.3552 40.8245 22.4639 40.7906C24.4701 40.7281 26.4762 40.7135 28.4823 40.7467C29.1145 40.7587 29.7446 40.7288 30.3768 40.7467C30.4422 40.7334 30.5097 40.7343 30.5748 40.7495C30.6398 40.7646 30.7008 40.7936 30.7537 40.8344Z" fill="#F3C267"/>
<path d="M36.1977 19.1221C36.6145 18.0552 36.2875 17.1917 35.4759 16.4579C35.3283 16.3243 35.1967 16.1767 35.0531 16.0391C34.5865 15.5944 34.7261 15.4768 35.0112 15.1059C35.5197 14.4378 35.6314 13.5963 35.087 12.9003C34.7998 12.5334 34.6363 12.1744 34.9235 11.7038C34.9721 11.6072 34.9898 11.4979 34.9741 11.3909C34.9584 11.2838 34.9101 11.1842 34.8357 11.1056C34.7292 10.9866 34.5915 10.8998 34.4382 10.8551C34.2849 10.8103 34.1221 10.8094 33.9683 10.8523C33.8825 10.8663 33.8008 10.9141 33.715 10.9341C33.6293 10.954 33.5415 10.9341 33.5316 10.8065C33.4677 10.0646 33.0011 9.77149 32.3091 10.0347C31.6172 10.2979 31.0648 11.1275 31.1406 11.8295C31.1672 12.2303 31.3371 12.6083 31.6192 12.8943C31.7506 13.0309 31.8525 13.1932 31.9183 13.3709C32.0938 13.7698 31.8325 14.0071 31.5793 14.2304C30.9212 14.8187 30.9292 15.7779 31.3619 16.4738C31.5613 16.7969 31.8605 17.0322 32.0499 17.3652C32.2393 17.6983 32.2792 17.8797 31.9861 18.1509C31.8643 18.2524 31.7705 18.3834 31.7136 18.5314C31.6567 18.6794 31.6386 18.8395 31.661 18.9965C31.2821 18.6315 30.8135 18.811 30.3808 18.797C30.1435 18.797 30.2392 19.0742 30.1096 19.1739C29.98 18.9745 30.0537 18.7213 29.968 18.4899C29.6469 17.6344 29.1344 16.9923 28.247 16.6952C28.1972 16.6773 28.1134 16.6952 28.1114 16.6075C28.1094 16.5197 28.1952 16.5137 28.257 16.4878C28.9051 16.2126 29.3817 15.728 29.8364 15.2096C30.1217 14.8821 30.388 14.5385 30.634 14.1806C30.7114 14.0825 30.7679 13.9695 30.7999 13.8487C30.8319 13.7279 30.8387 13.6018 30.82 13.4783C30.8013 13.3547 30.7575 13.2363 30.6912 13.1304C30.6249 13.0245 30.5376 12.9333 30.4346 12.8624C29.9456 12.4918 29.3993 12.2035 28.8174 12.0089C28.4006 11.8614 27.9838 11.7178 27.5551 11.6101C26.4523 11.317 25.519 11.7098 24.6456 12.332C24.183 12.6577 23.7694 13.0478 23.4172 13.4906C23.2936 13.6481 23.1998 13.7259 23.0961 13.4308C22.6475 12.1445 21.8139 11.2013 20.5037 10.7586C19.928 10.5571 19.3176 10.4737 18.709 10.5133C18.1086 10.5481 17.5181 10.6829 16.9621 10.9121C16.6211 11.0597 16.2542 10.97 15.9092 11.0617C15.5609 11.1431 15.2384 11.3104 14.9713 11.5482C14.7041 11.7861 14.5007 12.0871 14.3797 12.4237C14.3019 12.6231 14.2301 12.7248 14.0267 12.5613C13.6418 12.2502 13.1613 12.316 12.7205 12.2801C12.2361 12.2323 11.7479 12.2383 11.2648 12.2981C11.1412 12.314 11.1093 12.2582 11.0774 12.1625C10.7643 11.2472 10.4472 10.3318 10.1421 9.41254C10.0623 9.17324 10.1421 9.10544 10.4392 9.10544C12.8641 9.10544 15.2897 9.10544 17.7159 9.10544C17.8834 9.10544 18.0509 9.0875 18.2164 9.07553C18.3224 9.05454 18.4322 9.06485 18.5324 9.10522C18.6327 9.14559 18.7189 9.21427 18.7808 9.30286C18.9396 9.54251 19.1601 9.7348 19.4192 9.85942C19.6782 9.98403 19.9661 10.0363 20.2525 10.0108C21.2854 9.97888 22.3204 9.98686 23.3534 10.0108C23.5812 10.025 23.8085 9.97679 24.0109 9.87138C24.2133 9.76596 24.3831 9.60732 24.502 9.41254C24.5592 9.31492 24.642 9.23485 24.7415 9.18105C24.841 9.12725 24.9534 9.10179 25.0664 9.10744C28.2969 9.11807 31.5274 9.11807 34.758 9.10744C34.879 9.08911 35.0025 9.11954 35.1011 9.19206C35.1998 9.26458 35.2657 9.37327 35.2844 9.4943C35.7012 10.9899 36.1957 12.4596 36.6644 13.9373C36.8638 14.5794 37.0114 15.2375 37.2347 15.8696C37.482 16.5656 37.6335 17.2915 37.9027 17.9774C37.9865 18.2387 38.0531 18.5052 38.1022 18.7751C37.7605 18.8127 37.4161 18.8193 37.0732 18.795C36.788 18.795 36.5228 18.795 36.3473 19.0762C36.33 19.0981 36.3064 19.1143 36.2797 19.1225C36.253 19.1307 36.2244 19.1305 36.1977 19.1221Z" fill="#492C14"/>
<path d="M32.3769 43.4627C32.2627 43.6439 32.102 43.7911 31.9115 43.8889C31.7211 43.9868 31.5078 44.0318 31.2941 44.0191C29.4063 44.0191 27.5178 44.0191 25.6287 44.0191C19.8137 44.0191 13.9994 44.0191 8.18579 44.0191C7.98638 44.0191 7.76901 44.0191 7.55963 44.0311C6.66425 44.049 6.12384 43.5884 6.00219 42.697C5.97893 42.5191 5.9676 42.3399 5.96829 42.1606C5.96829 37.5301 5.96829 32.8997 5.96829 28.2673C5.96829 27.9522 6.06002 27.8824 6.35316 27.8964C6.79786 27.9203 7.24655 27.8964 7.69324 27.8964C7.79095 27.8964 7.89265 27.8744 7.93852 28.006C8.0629 28.4083 8.24855 28.789 8.4889 29.1347C8.31741 29.1347 8.20175 29.1347 8.09007 29.1347C7.52174 29.1467 7.22461 29.4319 7.21863 30.0042C7.20866 31.0671 7.21863 32.13 7.21863 33.1948L7.21863 40.8065C7.21863 40.8763 7.21863 40.9461 7.21863 41.0059C7.15681 41.0059 7.13687 40.9681 7.11493 40.9202C7.093 40.8723 7.14285 40.7926 7.11493 40.7208C7.11555 40.7344 7.11325 40.748 7.10821 40.7606C7.10316 40.7733 7.09547 40.7847 7.08565 40.7941C7.07584 40.8035 7.06412 40.8108 7.05129 40.8153C7.03846 40.8199 7.0248 40.8216 7.01123 40.8205C6.98879 40.8172 6.96727 40.8093 6.94805 40.7973C6.92882 40.7853 6.91231 40.7694 6.89955 40.7506C6.8868 40.7319 6.87809 40.7107 6.87397 40.6884C6.86985 40.6661 6.87042 40.6431 6.87563 40.6211C6.89267 40.4987 6.89267 40.3745 6.87563 40.2522C6.89276 40.3605 6.89276 40.4709 6.87563 40.5792C6.85968 40.659 6.84373 40.7647 6.90554 40.8085C7.13687 40.972 7.16279 41.2452 7.28643 41.4646C7.48584 41.8196 7.83083 41.9073 8.19776 41.9213C8.64644 41.9372 9.09313 41.9213 9.53982 41.9213C10.3654 41.9332 11.187 41.9851 12.0106 41.9791C12.9837 41.9791 13.9569 41.9253 14.928 41.9312C15.5263 41.9312 16.1245 41.9771 16.7088 41.9611C17.6301 41.9352 18.5514 42.0349 19.4747 41.9372C19.9497 41.8847 20.4294 41.8921 20.9025 41.9592C21.0405 41.9787 21.1801 41.9854 21.3193 41.9791C22.1648 41.9412 23.0084 42.009 23.8519 41.9791C25.4811 41.9153 27.1083 42.003 28.7376 41.9891C29.4914 41.9891 30.2412 41.8614 30.9989 41.9691C31.2442 42.005 31.5294 41.9851 31.6371 41.66C31.661 41.5882 31.7547 41.5204 31.7946 41.5663C31.9721 41.7657 32.3609 41.4586 32.3928 41.7657C32.4307 42.0369 32.6042 42.3121 32.4726 42.6033C32.4726 42.6212 32.4487 42.6471 32.4567 42.6591C32.6162 42.9562 32.4646 43.2095 32.3769 43.4627Z" fill="#E6AE90"/>
<path d="M44.7407 17.2237C44.7147 18.7332 44.7068 20.2448 44.3717 21.7285C44.2082 22.4681 43.9028 23.1691 43.4724 23.7924C43.4185 23.8722 43.3368 23.9918 43.273 23.9918C43.1613 23.9918 43.1633 23.8443 43.1374 23.7585C42.3596 21.194 41.5919 18.6275 40.8162 16.0631C40.1262 13.7817 39.4322 11.5024 38.7343 9.2251C38.4684 8.35166 38.2025 7.47822 37.9366 6.60478C37.917 6.56512 37.9094 6.5206 37.9147 6.47668C37.92 6.43276 37.938 6.39134 37.9665 6.3575C38.6046 5.64958 39.3166 5.10118 40.3455 5.15104C40.7104 5.18083 41.0578 5.31981 41.3426 5.54987C42.3915 6.31961 43.0257 7.38649 43.4724 8.57501C43.978 9.98844 44.3166 11.4561 44.4814 12.9482C44.6633 14.3659 44.7499 15.7943 44.7407 17.2237Z" fill="#BA762A"/>
<path d="M23.4889 30.2734C23.81 30.5087 23.7681 30.76 23.5807 31.0711C23.5107 31.1923 23.4738 31.3299 23.4738 31.4699C23.4738 31.6099 23.5107 31.7475 23.5807 31.8687C23.7063 32.108 23.5966 32.2676 23.3194 32.3732C23.2597 32.3873 23.2069 32.422 23.1704 32.4713C23.1339 32.5206 23.116 32.5812 23.12 32.6425C23.12 32.8877 22.9625 32.9476 22.785 32.8718C22.4754 32.7464 22.1407 32.6958 21.8079 32.7242C21.6643 32.7242 21.5925 32.6684 21.5726 32.5248C21.5466 32.3174 21.409 32.2416 21.2096 32.2416C21.0601 32.2416 20.9125 32.2416 20.7629 32.2416C20.5635 32.2416 20.4279 32.2835 20.4399 32.5228C20.4495 32.5723 20.4418 32.6237 20.4183 32.6683C20.3947 32.7129 20.3566 32.7481 20.3103 32.7681C20.1408 32.8219 20.1627 32.8917 20.2664 32.9914C20.2858 33.0071 20.2988 33.0292 20.3032 33.0538C20.3076 33.0783 20.303 33.1036 20.2903 33.125C20.2345 33.2248 19.8137 33.3404 19.714 33.2686C19.5585 33.157 19.5425 33.2686 19.5525 33.3723C19.5674 33.4995 19.5913 33.6255 19.6243 33.7492C19.6422 33.817 19.6761 33.8868 19.5983 33.9327C19.5206 33.9785 19.4707 33.9187 19.4348 33.8589C19.3989 33.7991 19.3451 33.7133 19.2494 33.7512C19.2126 33.769 19.1821 33.7977 19.1621 33.8333C19.1421 33.869 19.1336 33.9099 19.1377 33.9506C19.1536 34.16 19.0659 34.2358 18.8625 34.2178C18.6591 34.1999 18.6471 34.3235 18.6631 34.4711C18.6631 34.7164 18.5714 34.8001 18.334 34.7104C18.237 34.693 18.1439 34.6586 18.0589 34.6087C18.0292 34.5806 17.99 34.565 17.9492 34.565C17.9084 34.565 17.8691 34.5806 17.8395 34.6087C17.7271 34.7638 17.5739 34.8846 17.3968 34.9577C17.309 34.9916 17.3609 35.1112 17.3968 35.199C17.4586 35.3605 17.5743 35.3585 17.7956 35.2728C17.7222 35.3306 17.6651 35.4067 17.6301 35.4935C17.5951 35.5802 17.5834 35.6746 17.5962 35.7673C17.4127 35.7533 17.1734 35.8431 17.1695 35.5101C17.1695 35.3964 17.0777 35.3984 16.998 35.4502C16.9568 35.4788 16.9199 35.513 16.8883 35.5519C16.8501 35.6029 16.7953 35.6388 16.7333 35.6534C16.6713 35.668 16.6062 35.6603 16.5493 35.6317C16.4077 35.5679 16.4276 35.4323 16.4595 35.3166C16.5313 35.0833 16.5473 34.9058 16.2342 34.8679C16.1305 34.854 16.1165 34.7443 16.0886 34.6685C16.0308 34.501 15.8553 34.4691 15.7875 34.5588C15.6679 34.7224 15.4924 34.8081 15.3727 34.9577C15.3189 35.0235 15.283 35.1571 15.1733 35.0434C15.0636 34.9298 14.8223 34.9417 14.8403 34.7104C14.8403 34.6306 14.94 34.5628 14.9859 34.5967C15.2311 34.7742 15.3149 34.4452 15.5023 34.4472C15.5582 34.4472 15.6001 34.3794 15.5901 34.3116C15.5801 34.2438 15.5343 34.2338 15.4824 34.2298C15.3269 34.2298 15.2371 34.1062 15.1434 34.0085C15.1088 33.96 15.0574 33.926 14.9992 33.9131C14.9411 33.9002 14.8802 33.9093 14.8283 33.9387C14.3756 34.15 14.3019 34.3534 14.603 34.7722C14.8622 35.1332 15.289 35.3366 15.5183 35.7334C15.5642 35.8132 15.6479 35.8152 15.6918 35.6696C15.7357 35.524 15.7855 35.4263 16.0009 35.6177C16.3638 35.9428 16.5174 36.2439 16.2841 36.6926C16.2541 36.7524 16.2841 36.8701 16.3578 36.8581C16.633 36.8162 16.4934 36.9518 16.4536 37.0575C16.3877 37.2632 16.3475 37.4762 16.3339 37.6917C16.306 37.8911 16.2182 38.0506 15.9789 38.0466C15.9271 37.903 16.0727 37.8372 16.1046 37.7256C16.1554 37.3584 16.1554 36.986 16.1046 36.6188C15.8831 36.3337 15.6354 36.07 15.3647 35.8311C15.0896 35.544 14.8104 35.2608 14.5192 34.9896C14.3195 34.8076 14.1939 34.5584 14.1663 34.2896C14.1528 34.2011 14.1206 34.1164 14.0717 34.0413C14.0228 33.9662 13.9584 33.9024 13.8829 33.8543C13.8073 33.8061 13.7224 33.7747 13.6337 33.762C13.545 33.7494 13.4546 33.7559 13.3686 33.7811C13.2698 33.8013 13.1805 33.8539 13.1148 33.9304C13.0491 34.0069 13.0107 34.1031 13.0057 34.2039C12.9897 34.4615 12.9897 34.72 13.0057 34.9776C13.0157 35.0527 13.0411 35.1248 13.0802 35.1897C13.1193 35.2545 13.1713 35.3106 13.233 35.3545C13.7335 35.8072 14.1683 36.3316 14.7007 36.7504C14.7608 36.8026 14.8162 36.86 14.8662 36.9219C14.9043 36.9541 14.9347 36.9945 14.955 37.04C14.9753 37.0856 14.985 37.1352 14.9835 37.185C14.982 37.2349 14.9692 37.2837 14.9461 37.328C14.923 37.3722 14.8903 37.4106 14.8503 37.4404C14.3996 37.917 13.8931 38.3378 13.4284 38.8004L13.1752 39.0537C13.1053 39.1148 13.0482 39.189 13.007 39.2723C12.9659 39.3555 12.9416 39.446 12.9355 39.5386C12.9294 39.6312 12.9416 39.7241 12.9714 39.812C13.0013 39.8999 13.0481 39.981 13.1094 40.0507C13.1572 40.1126 13.223 40.1644 13.227 40.2502C12.9578 40.3439 12.902 40.1245 12.8142 39.961C12.8003 39.9371 12.8142 39.9032 12.8142 39.8733C12.7883 39.3907 12.7883 39.3907 12.3276 39.3428C12.3037 39.3428 12.2798 39.3189 12.2439 39.275C12.5351 39.251 12.8075 39.1212 13.0096 38.9101C13.0794 38.8343 13.1313 38.8084 13.1133 38.6907C13.0954 38.5731 12.9937 38.3039 13.3128 38.4913C13.4284 38.5551 13.4982 38.4774 13.5221 38.3597C13.5361 38.2859 13.5082 38.1902 13.6179 38.1603C13.7846 38.1231 13.9402 38.0473 14.0722 37.9389C14.2042 37.8304 14.3088 37.6925 14.3776 37.5361C14.4028 37.4942 14.4426 37.4629 14.4893 37.4484C14.597 37.4264 14.7426 37.4105 14.7306 37.2829C14.7186 37.1552 14.5571 37.1752 14.4574 37.1493C14.3577 37.1233 14.2141 37.1034 14.2839 36.9239C14.2922 36.9081 14.2965 36.8904 14.2963 36.8725C14.2961 36.8546 14.2914 36.837 14.2827 36.8214C14.274 36.8058 14.2615 36.7925 14.2464 36.7829C14.2313 36.7733 14.214 36.7676 14.1962 36.7664C14.1212 36.7712 14.0472 36.7476 13.9888 36.7003C13.9304 36.653 13.892 36.5855 13.8811 36.5111C13.8691 36.4692 13.8292 36.4294 13.7993 36.4613C13.5899 36.7006 13.4424 36.4613 13.2888 36.3875C13.1692 36.3257 13.0894 36.2339 13.0436 36.4493C13.0436 36.4852 13.0176 36.543 12.9917 36.551C12.7245 36.6308 12.7025 36.8282 12.7704 37.0436C12.8501 37.2888 12.9698 37.5002 13.2888 37.5002C13.1213 37.8492 12.7524 37.8991 12.4812 38.0825C12.3002 38.1619 12.1343 38.2719 11.9906 38.4076C11.851 38.589 11.6576 38.4654 11.4941 38.4973C11.2787 38.5352 11.1391 38.5791 11.1331 38.8283C11.1252 38.9035 11.0944 38.9744 11.0448 39.0315C10.9952 39.0886 10.9293 39.129 10.856 39.1474C10.6964 39.2072 10.6565 39.0457 10.6107 38.948C10.515 38.7685 10.4113 38.8024 10.2836 38.9161C10.2025 38.981 10.1084 39.0277 10.0076 39.0529C9.90681 39.0782 9.80178 39.0815 9.69962 39.0626C9.59746 39.0437 9.50057 39.003 9.41553 38.9433C9.33049 38.8836 9.2593 38.8063 9.20679 38.7167C9.18885 38.6848 9.15495 38.6708 9.15495 38.6209C9.15937 38.5778 9.15167 38.5342 9.1327 38.4952C9.11374 38.4562 9.08427 38.4232 9.0476 38.4C9.01093 38.3768 8.96852 38.3643 8.92513 38.3639C8.88175 38.3634 8.8391 38.3751 8.80198 38.3976C8.73817 38.4295 8.71424 38.4694 8.74216 38.5392C8.84186 38.7805 8.74216 39.0397 8.80796 39.287C8.81815 39.3574 8.81367 39.4292 8.79479 39.4979C8.77592 39.5665 8.74306 39.6305 8.69828 39.6858C8.67435 39.7277 8.61852 39.7995 8.60855 39.7935C8.30942 39.6439 8.36327 39.959 8.20972 40.1205L8.20972 30.2774C8.20972 30.2176 8.23963 30.1717 8.28948 30.1757C8.74016 30.2196 9.20081 30.1139 9.63953 30.2794C9.86088 30.3791 10.0822 30.4788 10.3036 30.5745C10.6326 30.7121 10.9218 30.9235 11.2408 31.083C11.7658 31.3458 12.334 31.5113 12.9179 31.5716C13.1152 31.6012 13.2965 31.6968 13.4324 31.8428C14.4173 32.7595 15.7185 33.2597 17.0638 33.2387C17.4825 33.2387 17.8854 33.1111 18.2982 33.0672C18.5873 33.141 18.7847 32.9894 18.9642 32.794C19.0569 32.7068 19.166 32.639 19.2853 32.5946C19.3485 32.5493 19.4234 32.5229 19.5011 32.5187C19.5788 32.5144 19.6562 32.5325 19.724 32.5707C19.9234 32.6903 20.053 32.5826 20.0371 32.3413C20.0371 32.2137 19.9513 32.0981 19.9673 31.9664C19.972 31.921 19.9923 31.8786 20.0246 31.8463C20.0569 31.814 20.0993 31.7937 20.1447 31.789C20.3222 31.8548 20.396 31.789 20.4259 31.6055C20.4957 31.2067 20.6054 31.1488 20.9883 31.2904C21.3711 31.432 21.8258 31.3802 22.2386 31.4699C22.3842 31.4998 22.438 31.4001 22.3583 31.2705C22.2899 31.1736 22.253 31.058 22.2526 30.9395C22.2526 30.7979 22.1409 30.74 22.0332 30.6842C21.9686 30.6594 21.9019 30.6407 21.8338 30.6284C21.8043 30.6233 21.7761 30.6125 21.7508 30.5965C21.7255 30.5805 21.7037 30.5597 21.6864 30.5352C21.6692 30.5108 21.657 30.4832 21.6504 30.454C21.6439 30.4248 21.6432 30.3946 21.6483 30.3651C21.6683 30.2255 21.7819 30.2036 21.8936 30.1996C22.3503 30.1857 22.8069 30.1996 23.2616 30.1996C23.3025 30.1958 23.3438 30.2003 23.3829 30.213C23.422 30.2257 23.4581 30.2462 23.4889 30.2734Z" fill="#F5C66C"/>
<path d="M36.5646 4.21178C35.9101 4.69644 35.336 5.28126 34.8636 5.9447C34.7659 6.09426 34.6243 6.06036 34.4887 6.06036C31.2103 6.06036 27.9319 6.06036 24.6535 6.06036C20.0523 6.06036 15.4525 6.06036 10.854 6.06036H10.7084C10.7084 6.03444 10.6825 6.00851 10.6885 6.00054C11.3884 5.04932 12.2399 4.30351 13.4145 4.00638C13.4723 3.99538 13.5311 3.98937 13.59 3.98843C13.8172 4.00848 14.046 4.00246 14.272 3.97048C21.1292 3.97048 27.9864 3.97048 34.8437 3.97048C35.3203 3.97048 35.7969 3.97048 36.2735 3.97048C36.443 3.96849 36.5646 4.00638 36.5646 4.21178Z" fill="#F7CF7A"/>
<path d="M34.05 27.9482C35.0331 27.9482 36.0163 27.9622 36.9974 27.9323C38.0284 27.9024 39.0593 27.9761 40.0923 27.9103C40.6168 27.8764 40.553 27.8425 40.5629 28.357C40.6527 32.7302 40.5829 37.1034 40.6028 41.4766C40.6178 41.933 40.6038 42.3899 40.5609 42.8446C40.4712 43.5724 39.9826 44.0411 39.2588 44.0411C37.3404 44.0411 35.42 44.0411 33.5016 44.0411C33.3022 44.0411 33.2065 44.0072 33.358 43.7958C33.455 43.6466 33.5435 43.4922 33.6233 43.3331C33.7727 43.0431 33.8467 42.7201 33.8386 42.3939C33.8546 42.1566 33.8386 41.9173 33.8386 41.68C33.8307 41.6257 33.8404 41.5702 33.8662 41.5218C33.892 41.4734 33.9327 41.4345 33.9822 41.4108C34.029 41.3909 34.0812 41.3883 34.1298 41.4032C34.1783 41.4182 34.22 41.4498 34.2474 41.4925C34.4469 41.7478 34.7041 41.7637 34.9933 41.7637C36.2815 41.7637 37.5697 41.7358 38.8579 41.7797C38.8978 41.7797 38.9277 41.7797 38.8878 41.7797C38.8918 41.7626 38.8918 41.7449 38.8878 41.7278C39.3066 41.3928 39.3405 40.9302 39.3405 40.4396C39.3405 37.1134 39.3405 33.7871 39.3405 30.4688C39.3475 30.33 39.3475 30.1909 39.3405 30.0521C39.2927 29.5077 39.0234 29.2444 38.475 29.2364C37.7292 29.2225 36.9854 29.2364 36.2396 29.2364C35.8627 29.2364 35.4838 29.2544 35.1089 29.2364C34.9173 29.2066 34.7212 29.2413 34.5515 29.3352C34.3818 29.429 34.2482 29.5767 34.1717 29.7549C34.1092 29.8442 34.0639 29.9443 34.0381 30.0501C34.0313 30.0794 34.0148 30.1057 33.9913 30.1245C33.9678 30.1433 33.9386 30.1536 33.9084 30.1538C33.8207 30.1538 33.8426 30.07 33.8426 30.0162C33.8546 29.4319 33.8147 28.8456 33.8666 28.2593C33.8652 28.1955 33.8816 28.1326 33.914 28.0777C33.9464 28.0227 33.9935 27.9779 34.05 27.9482Z" fill="#9F613B"/>
<path d="M10.4811 23.1184L9.17494 24.0895C9.24074 23.5611 9.17494 23.0286 9.20684 22.4942C9.2301 22.3884 9.21448 22.2778 9.16285 22.1826C9.11122 22.0874 9.02702 22.0139 8.92567 21.9757C9.74726 21.7045 9.98456 21.4094 10.0364 20.534C10.0487 20.1968 10.042 19.8593 10.0165 19.5229C10.0169 19.475 10.007 19.4275 9.98749 19.3837C9.96798 19.3399 9.9393 19.3008 9.90338 19.2691C9.86747 19.2373 9.82515 19.2136 9.77929 19.1996C9.73344 19.1856 9.68511 19.1816 9.63758 19.1879C9.59002 19.1838 9.54215 19.1903 9.49739 19.2069C9.45264 19.2235 9.41212 19.2498 9.37874 19.2839C9.34537 19.3181 9.31998 19.3592 9.3044 19.4043C9.28881 19.4494 9.28342 19.4974 9.2886 19.5449C9.2886 19.7941 9.2886 20.0414 9.2886 20.2907C9.29405 20.4975 9.22065 20.6988 9.08327 20.8535C8.9459 21.0083 8.75483 21.1051 8.54877 21.1242C8.21602 21.1725 7.87698 21.1535 7.55169 21.0684C7.45005 21.0399 7.35593 20.9894 7.27597 20.9205C7.19602 20.8516 7.13221 20.7659 7.08905 20.6696C7.03122 20.5639 6.9714 20.4502 6.82582 20.4701C6.68025 20.4901 6.62641 20.5838 6.58852 20.7055C6.56491 20.7816 6.52504 20.8517 6.47168 20.9109C6.41831 20.9702 6.35271 21.0171 6.27942 21.0485C5.78942 21.2957 5.25238 21.4357 4.70404 21.4592C4.5485 21.4592 4.40292 21.4592 4.35107 21.2598C4.38059 21.2197 4.41858 21.1866 4.46235 21.1628C4.50612 21.139 4.5546 21.1252 4.60433 21.1222C5.15073 21.0086 5.60141 20.7074 6.07402 20.4263C6.30844 20.2706 6.47518 20.0319 6.54066 19.7582C6.79263 18.87 6.99238 17.9677 7.1389 17.0562C7.21492 16.5147 7.3857 15.9909 7.64343 15.5087C7.90865 15.0421 8.34138 14.7569 8.71429 14.4059C8.83593 14.2903 9.01341 14.3182 9.17095 14.3182L12.5171 14.3182C12.9419 14.3182 12.9698 14.2883 13.0257 13.8775C13.0536 13.6318 13.0996 13.3885 13.1632 13.1496C13.3806 13.22 13.5768 13.3438 13.7339 13.5096C13.891 13.6754 14.004 13.878 14.0626 14.0988C14.262 14.5874 14.1284 15.0301 13.8632 15.4489C13.7436 15.6338 13.6786 15.8488 13.6757 16.069C13.6902 16.6406 13.4903 17.1969 13.1154 17.6285C12.9211 17.8485 12.7749 18.1068 12.6863 18.3867C12.5977 18.6666 12.5686 18.9619 12.6009 19.2537C12.6338 19.6192 12.6338 19.987 12.6009 20.3525C12.5889 20.4522 12.6009 20.6396 12.4015 20.4901C12.267 20.2472 12.2139 19.9677 12.2499 19.6924C12.2499 19.493 12.2499 19.3095 12.0346 19.2178C11.9472 19.1796 11.8494 19.1725 11.7575 19.198C11.6656 19.2234 11.5853 19.2797 11.53 19.3574C11.4383 19.5947 11.4961 19.842 11.4941 20.0833C11.4941 20.2827 11.4523 20.3744 11.2429 20.2827C10.9779 20.1985 10.6958 20.1834 10.4233 20.2388C10.515 20.2388 10.6067 20.2269 10.6985 20.2388C11.0036 20.2388 11.0973 20.3465 11.1212 20.6496C11.1212 20.7693 11.1352 20.8869 11.1472 21.0066C11.1711 21.2957 11.0714 21.4054 10.7723 21.4054C10.5834 21.3934 10.3937 21.4055 10.2079 21.4413C10.2358 21.4832 10.2657 21.4413 10.2917 21.4413C10.9916 21.3775 10.9916 21.5131 10.852 22.1412C10.8022 22.3646 10.6187 22.4164 10.4253 22.4464C10.206 22.4785 9.98896 22.5237 9.77518 22.582C9.89854 22.5503 10.0238 22.5263 10.1501 22.5102C10.2078 22.5052 10.2658 22.5052 10.3236 22.5102C10.6267 22.5281 10.6626 22.572 10.5968 22.8611C10.5529 22.9489 10.5948 23.0685 10.4811 23.1184Z" fill="#C8D2EB"/>
<path d="M35.9664 8.34766C35.8841 8.26857 35.7858 8.20806 35.6781 8.17022C35.5704 8.13238 35.4559 8.11808 35.3422 8.1283C31.6902 8.1283 28.0383 8.1283 24.3863 8.1283C24.3743 8.11262 24.3636 8.09594 24.3544 8.07845C24.2068 7.50613 23.814 7.39645 23.2756 7.43434C22.6554 7.4802 22.0292 7.45428 21.405 7.43434C21.0887 7.45433 20.7844 7.56357 20.5276 7.74941C20.4736 7.78498 20.429 7.83315 20.3977 7.88978C20.3665 7.94641 20.3495 8.00979 20.3481 8.07446C20.3167 8.31074 20.3295 8.55081 20.386 8.78239C20.396 8.80689 20.4007 8.83322 20.3997 8.85965C20.3988 8.88609 20.3923 8.91202 20.3806 8.93576C20.3689 8.95949 20.3523 8.98048 20.332 8.99735C20.3116 9.01422 20.2879 9.02659 20.2624 9.03365C20.1975 9.05686 20.1286 9.06689 20.0598 9.06316C19.991 9.05944 19.9236 9.04203 19.8615 9.01195C19.7995 8.98187 19.7441 8.93972 19.6986 8.88798C19.6531 8.83624 19.6183 8.77593 19.5963 8.7106C19.3969 8.26191 19.0479 8.11235 18.5434 8.11235C15.624 8.13429 12.7045 8.11235 9.7851 8.11235C9.65548 8.11235 9.52586 8.11235 9.38627 8.11235C8.9655 8.13628 8.7601 8.40948 8.85981 8.81828C8.9296 9.10544 9.01535 9.39061 9.09512 9.67776C9.06331 9.74569 9.01408 9.80399 8.95243 9.84672C8.89078 9.88945 8.81892 9.9151 8.74415 9.92105L7.85874 7.15117C7.81886 7.02354 7.85874 6.96172 7.99634 6.97169C8.04619 6.97169 8.09605 6.97169 8.1459 6.97169L36.5846 6.97169C36.7501 6.97169 36.9395 6.93181 36.9694 7.17111C36.9945 7.22518 37.0035 7.28531 36.9954 7.34435C36.9872 7.40339 36.9623 7.45885 36.9236 7.50413C36.6763 7.76936 36.421 8.03059 36.1498 8.27388C36.1283 8.30107 36.1001 8.32217 36.0679 8.33511C36.0357 8.34805 36.0007 8.35237 35.9664 8.34766Z" fill="#E6B097"/>
<path d="M22.2745 13.9273C22.4327 14.5362 22.4175 15.1772 22.2306 15.7779C22.1836 15.9564 22.0988 16.1227 21.9818 16.2655C21.8648 16.4083 21.7184 16.5243 21.5526 16.6055C21.4957 16.6262 21.4463 16.6634 21.4107 16.7125C21.3752 16.7615 21.3551 16.8201 21.3532 16.8807C21.3193 17.6344 20.8367 18.0771 20.2265 18.3683C19.1257 18.9047 17.9851 18.8987 16.8364 18.486C16.4834 18.3459 16.1742 18.1138 15.9411 17.8139C15.9032 17.77 15.8454 17.7262 15.8713 17.6604C15.8972 17.5946 15.973 17.6185 16.0268 17.6125C16.2601 17.5846 16.5014 17.6763 16.7288 17.5647C16.7851 17.3453 16.8079 17.1188 16.7966 16.8926C16.7966 16.0471 16.7966 15.2016 16.7966 14.3581C16.7966 13.8475 16.8644 13.7837 17.3589 13.7837C18.8412 13.7837 20.3222 13.7837 21.8019 13.7837C21.9794 13.7837 22.1569 13.7658 22.2745 13.9273Z" fill="#F1B641"/>
<path d="M23.8818 29.033C23.7834 28.9962 23.6946 28.9373 23.6224 28.8609C23.5502 28.7846 23.4964 28.6927 23.465 28.5923C23.3857 28.3493 23.2357 28.1355 23.0343 27.9781C22.904 27.8607 22.8074 27.7107 22.7544 27.5435C22.7015 27.3762 22.6942 27.1979 22.7332 27.0269C22.75 26.9561 22.7516 26.8825 22.7378 26.811C22.7241 26.7395 22.6953 26.6717 22.6534 26.6121C22.5083 26.419 22.4259 26.1861 22.4173 25.9446C22.4087 25.7032 22.4745 25.465 22.6056 25.2621C22.7043 25.1031 22.7471 24.9157 22.7272 24.7297C22.7094 24.5505 22.7395 24.3699 22.8145 24.2062C22.8895 24.0426 23.0066 23.9018 23.154 23.7984C23.2955 23.69 23.4039 23.5443 23.467 23.3776C23.5129 23.258 23.5628 23.0865 23.6545 23.0486C24.3185 22.7834 24.7752 22.0714 25.5948 22.1412C25.694 22.1356 25.7892 22.1001 25.868 22.0395C26.0353 21.9396 26.2271 21.8883 26.4219 21.8915C26.6168 21.8947 26.8068 21.9522 26.9708 22.0575C27.0217 22.0944 27.0796 22.1208 27.1408 22.1352C27.2021 22.1496 27.2656 22.1516 27.3277 22.1412C27.4659 22.1188 27.6076 22.1321 27.7392 22.1799C27.8708 22.2277 27.988 22.3085 28.0795 22.4144C28.2133 22.5722 28.3982 22.6781 28.602 22.7136C29.0626 22.7993 29.2501 23.1622 29.3318 23.591C29.5132 23.8423 29.6058 24.1467 29.5951 24.4565C29.5826 24.8529 29.614 25.2495 29.6888 25.639C29.8144 26.1973 29.3398 27.3978 28.9211 27.683C28.8194 27.7508 28.7037 27.9043 28.5761 27.7049C28.5541 27.5215 28.6738 27.3879 28.7396 27.2363C28.8366 27.0622 28.89 26.8672 28.8951 26.668C28.895 26.5925 28.8696 26.5193 28.823 26.46C28.7764 26.4007 28.7112 26.3588 28.6379 26.3409C28.4684 26.2891 28.3767 26.4008 28.3029 26.5244C28.2291 26.648 28.2071 26.8076 28.1374 26.9392C28.0476 27.1087 27.9878 27.3181 27.7385 27.324C27.4175 27.0628 27.0645 26.8275 26.9728 26.3788C27.1024 26.0278 27.2161 25.6709 27.3237 25.3139C27.4175 25.0029 27.6169 24.947 27.8861 25.1285C28.0835 25.2899 28.2411 25.4946 28.3467 25.7267C28.3999 25.7877 28.4749 25.8252 28.5555 25.8312C28.6362 25.8372 28.7159 25.8111 28.7775 25.7586C28.8425 25.7025 28.8841 25.6241 28.8941 25.5388C28.904 25.4535 28.8816 25.3676 28.8313 25.298C28.6453 24.9101 28.3251 24.6027 27.93 24.4325C27.6847 24.3488 27.6627 24.1992 27.7505 23.9679C27.8382 23.7366 28.0356 23.4474 27.7924 23.1702C27.4932 23.0426 27.3935 23.0526 27.2081 23.3098C27.0824 23.4913 26.9708 23.5092 26.7634 23.4434C26.1651 23.26 25.7025 23.3557 25.3535 23.7725C25.1401 24.0277 25.1302 24.0197 24.9547 23.7565C24.7553 23.4634 24.5937 23.4315 24.2527 23.6249C24.0533 23.8502 24.0693 23.9779 24.2787 24.2451C24.4809 24.4478 24.6516 24.6797 24.7852 24.9331C24.7658 25.1303 24.6972 25.3196 24.5858 25.4834C24.4757 25.7157 24.3908 25.959 24.3325 26.2093C24.2516 26.549 24.3078 26.9068 24.4888 27.2054C24.6698 27.504 24.9611 27.7192 25.2997 27.8046C25.517 27.8645 25.6526 27.9562 25.6526 28.2035C25.6435 28.2886 25.6677 28.3739 25.7201 28.4416C25.7725 28.5093 25.8491 28.554 25.9338 28.5664C26.0136 28.568 26.0915 28.5415 26.1538 28.4916C26.2161 28.4417 26.2589 28.3715 26.2748 28.2932C26.3665 28.0519 26.4264 27.8007 26.5101 27.5574C26.562 27.4078 26.5819 27.2144 26.8013 27.1904C27.1057 27.378 27.3322 27.669 27.4394 28.01C27.34 28.1083 27.2681 28.2309 27.231 28.3656C27.1939 28.5004 27.1929 28.6425 27.228 28.7778C27.2118 28.8305 27.1822 28.8781 27.1419 28.9159C27.1017 28.9537 27.0523 28.9803 26.9987 28.9932C26.2758 29.2735 25.4954 29.3727 24.7254 29.2823C24.4362 29.2504 24.175 29.0889 23.8818 29.033Z" fill="#F5DBD5"/>
<path d="M35.9664 8.34766C36.3652 8.10836 36.6005 7.71551 36.9375 7.42037C37.0073 7.36055 36.9674 7.27081 36.9774 7.19703C37.454 8.54309 37.8289 9.91905 38.2577 11.2811C38.7422 12.8225 39.2029 14.372 39.6715 15.9195L41.9548 23.4973C42.0824 23.924 42.1981 24.3547 42.3357 24.7775C42.3667 24.8498 42.3717 24.9306 42.3499 25.0062C42.3281 25.0818 42.2808 25.1476 42.2161 25.1923C42.0129 25.351 41.802 25.4995 41.5839 25.637C41.3965 25.7706 41.3207 25.7227 41.2589 25.5114C41.0335 24.7296 40.7962 23.9519 40.5609 23.1722L39.5778 19.9556C39.046 18.2207 38.5142 16.4851 37.9825 14.7489C37.47 13.0698 36.9595 11.3907 36.439 9.71565C36.3074 9.255 36.2296 8.76842 35.9664 8.34766Z" fill="#A0623C"/>
<path d="M20.1328 31.8209C20.1018 31.8385 20.0756 31.8633 20.0561 31.8931C20.0367 31.9229 20.0247 31.957 20.0211 31.9924C19.8875 32.3294 19.5804 32.4809 19.2992 32.6584L19.0161 32.8399C18.8279 33.003 18.5966 33.1083 18.35 33.143C17.925 33.2315 17.4947 33.2921 17.0618 33.3245C15.6888 33.3472 14.3621 32.8286 13.3686 31.8807C13.2234 31.742 13.0345 31.6581 12.8342 31.6434C11.9043 31.5463 11.0239 31.1765 10.3036 30.5805C11.2527 30.8159 12.2564 30.666 13.0954 30.1637C13.1998 30.112 13.3164 30.0899 13.4324 30.0999C16.7879 30.0999 20.1454 30.0999 23.5049 30.0999C23.7282 30.0999 23.9655 30.068 24.137 30.2694C23.9197 30.2694 23.7023 30.2694 23.485 30.2694C23.4092 30.2694 23.3314 30.2694 23.2536 30.2694C22.7029 30.2162 22.1482 30.2209 21.5985 30.2834C21.4108 30.2997 21.2224 30.305 21.0341 30.2993C20.6971 30.2993 20.6632 30.3233 20.6194 30.6663C20.5856 30.9724 20.4942 31.2695 20.3501 31.5417C20.309 31.6554 20.2329 31.7531 20.1328 31.8209Z" fill="#BF792A"/>
<path d="M32.3769 43.4628C32.2473 43.3531 32.2892 43.2633 32.4068 43.1776C32.5245 43.0918 32.5365 42.9483 32.3829 42.8805C32.2294 42.8127 32.2553 42.7329 32.343 42.6372C32.376 42.6102 32.4025 42.5763 32.4208 42.5379C32.439 42.4994 32.4485 42.4574 32.4485 42.4148C32.4485 42.3723 32.439 42.3302 32.4208 42.2918C32.4025 42.2533 32.376 42.2194 32.343 42.1925C32.2712 42.1187 32.2453 42.0389 32.3191 41.9552C32.3481 41.9279 32.3654 41.8903 32.3673 41.8505C32.3691 41.8107 32.3554 41.7717 32.3291 41.7418C32.2553 41.6381 32.1895 41.7298 32.1297 41.7418C32.0698 41.7538 31.9821 41.8674 31.9302 41.7737C31.7308 41.4646 31.7109 41.6042 31.683 41.8535C31.6551 42.1027 31.3779 42.005 31.2263 42.0668C31.0446 42.1196 30.8516 42.1196 30.6699 42.0668C30.3952 42.0309 30.117 42.0309 29.8424 42.0668C28.3348 42.1327 26.8252 42.1227 25.3156 42.0668C25.1171 42.0435 24.9169 42.0375 24.7174 42.0489C23.9636 42.1566 23.2098 42.0928 22.456 42.0948C21.5307 42.0948 20.6014 42.0329 19.6762 42.0529C19.1916 42.0529 18.701 42.1446 18.2224 42.0888C17.5623 42.013 16.9063 42.1027 16.2442 42.0649C15.1634 42.005 14.0746 42.0649 12.9878 42.0828C12.2719 42.0828 11.554 42.1287 10.8321 42.0668C9.98855 41.9931 9.13305 42.0668 8.28354 42.0349C7.77703 42.021 7.33632 41.8654 7.14887 41.315C7.10101 41.1735 7.05315 41.004 6.86969 40.9521C6.79989 40.9322 6.80189 40.8624 6.80189 40.8025C6.80189 40.5373 6.80189 40.2721 6.82781 40.0049C6.88852 40.0793 6.93272 40.1658 6.95747 40.2587C6.98222 40.3515 6.98697 40.4485 6.97139 40.5433C6.95743 40.635 6.85972 40.7706 6.99532 40.7966C7.13092 40.8225 7.0691 40.6311 7.12693 40.5353C7.20869 40.7048 7.09303 40.8863 7.21268 41.0259C7.20915 41.1478 7.23314 41.2689 7.28286 41.3803C7.33258 41.4916 7.40676 41.5904 7.49987 41.6691C7.59299 41.7478 7.70266 41.8046 7.82072 41.8351C7.93879 41.8657 8.06222 41.8692 8.18184 41.8455C8.42845 41.8335 8.67558 41.8375 8.92167 41.8575C9.177 41.8216 9.43609 41.8216 9.69142 41.8575C10.5449 41.8575 11.3984 41.8395 12.2499 41.8395C15.3595 41.8395 18.4677 41.8395 21.5746 41.8395C21.6524 41.8395 21.7321 41.8515 21.8099 41.8575C22.1046 41.8216 22.4026 41.8216 22.6973 41.8575C23.7482 41.8575 24.8011 41.8375 25.8521 41.8395C27.571 41.8395 29.288 41.8535 31.005 41.8595C31.1932 41.8444 31.3705 41.7651 31.507 41.6347C31.6436 41.5043 31.7311 41.3309 31.7548 41.1436C31.7777 40.8462 31.7777 40.5475 31.7548 40.2502V30.5087V30.0899C31.7448 29.4598 31.5773 29.2624 30.9571 29.1487C30.8534 29.0949 30.8813 29.0191 30.9312 28.9493C31.1596 28.6052 31.4108 28.2768 31.683 27.9662C32.016 27.8665 32.355 27.9303 32.69 27.9323C32.9034 27.9323 32.8416 28.1038 32.8416 28.2194C32.8416 28.9952 32.8416 29.7709 32.8416 30.5446V42.1725C32.8618 42.6469 32.695 43.1102 32.3769 43.4628Z" fill="#E7B393"/>
<path d="M26.1791 21.0265C26.067 21.077 25.9449 21.1008 25.8221 21.0963C25.3654 21.202 24.9148 21.3197 24.4262 21.2419C24.1339 21.211 23.8568 21.096 23.6285 20.9109C23.4411 20.7114 23.2437 20.512 23.0722 20.2967C22.9041 20.1016 22.7959 19.8622 22.7606 19.6071C22.7252 19.3521 22.7641 19.0923 22.8727 18.8589C22.9725 18.9087 22.9725 19.0244 23.0283 19.1022C23.1818 19.3016 23.3733 19.2896 23.483 19.0543C23.5122 19.002 23.5267 18.9427 23.5248 18.8828C23.4889 18.5338 23.6864 18.3404 23.9616 18.1809C24.2906 17.9814 24.2866 17.9814 24.1849 17.6025C24.176 17.574 24.176 17.5434 24.1849 17.5148C24.5166 17.3765 24.8882 17.3679 25.2259 17.4909C25.3814 17.5387 25.3914 17.6404 25.3634 17.7681C25.3013 17.9668 25.2703 18.174 25.2717 18.3823C25.2917 18.5956 25.3894 18.7472 25.6207 18.7472C25.6688 18.753 25.7175 18.7483 25.7636 18.7334C25.8097 18.7186 25.852 18.6939 25.8877 18.6611C25.9233 18.6283 25.9514 18.5882 25.97 18.5435C25.9887 18.4988 25.9974 18.4506 25.9956 18.4022C25.9882 18.2838 26.0073 18.1653 26.0514 18.0552C26.1332 18.2546 26.2967 18.1749 26.4363 18.1609C26.5759 18.147 26.6537 18.115 26.6736 17.9834C26.7055 17.784 26.53 17.7302 26.4164 17.6325C26.5767 17.5295 26.7592 17.466 26.9488 17.447C27.1616 17.4025 27.3816 17.4059 27.5929 17.457L27.9658 17.5706C28.5641 17.9954 28.8094 19.2318 28.2669 19.9995C28.0123 20.3902 27.6491 20.6979 27.222 20.8849C27.0311 20.959 26.8285 20.9981 26.6238 21.0006C26.4751 20.9835 26.3247 20.9922 26.1791 21.0265Z" fill="#EA5556"/>
<path d="M13.1632 13.1576C13.233 13.5564 13.1074 13.9552 13.0037 14.3341C12.9718 14.4498 12.8042 14.4059 12.7045 14.4059C11.5818 14.4059 10.4591 14.4239 9.33641 14.4059C9.16265 14.4014 8.98976 14.4319 8.82805 14.4956C8.66633 14.5593 8.51911 14.655 8.39517 14.7768C7.92867 15.1493 7.58195 15.6507 7.39809 16.2186C7.26525 16.7242 7.16073 17.2368 7.08501 17.7541C6.95142 18.5018 6.77363 19.2409 6.55257 19.9676C6.43492 20.3405 6.12782 20.5379 5.81473 20.7034C5.3481 20.9527 4.88346 21.2259 4.33706 21.2758C4.18551 20.9268 4.21343 20.8769 4.5644 20.7852C4.98528 20.7035 5.38293 20.5298 5.72898 20.2767C5.9255 20.1395 6.08681 19.9578 6.19978 19.7464C6.31275 19.535 6.37419 19.2999 6.37908 19.0603C6.39304 18.3164 6.39902 17.5706 6.39902 16.8268C6.39618 16.3388 6.49393 15.8555 6.68618 15.407C6.86964 14.9802 7.02718 14.5395 7.19868 14.1068C7.46988 13.4248 7.93851 13.0718 8.70427 13.0858C10.0643 13.1117 11.4263 13.0957 12.7863 13.0997C12.9149 13.0796 13.0466 13.0998 13.1632 13.1576Z" fill="#FDFEFE"/>
<path d="M12.3775 20.4981C12.4852 20.5359 12.5131 20.4981 12.5131 20.3864C12.534 20.0124 12.534 19.6376 12.5131 19.2637C12.4756 18.938 12.5108 18.6081 12.6164 18.2977C12.7219 17.9873 12.895 17.7042 13.1233 17.4689C13.4207 17.1193 13.5808 16.6735 13.574 16.2146C13.5755 15.8979 13.6668 15.5881 13.8372 15.3212C13.9526 15.1431 14.0316 14.9439 14.0695 14.7351C14.1075 14.5264 14.1038 14.3121 14.0586 14.1048C14.4056 15.1278 14.8024 16.1388 14.8223 17.2416C14.8223 17.6883 14.8542 18.137 14.8542 18.5837C14.8542 19.0882 14.94 19.5548 15.3767 19.9277C15.1283 19.9789 14.874 19.9956 14.6209 19.9776C14.5212 19.9721 14.422 19.9952 14.3351 20.0444C14.2481 20.0935 14.1771 20.1665 14.1304 20.2548C13.9908 20.532 14.0885 20.7214 14.3916 20.7673C14.4594 20.7792 14.5292 20.7812 14.591 20.7872C14.601 21.0903 14.3338 21.2 14.1722 21.3855C14.0441 21.262 13.893 21.165 13.7274 21.1C13.5618 21.0349 13.385 21.0032 13.2071 21.0066C13.0344 21.011 12.8642 20.9654 12.717 20.8752C12.5698 20.7849 12.4518 20.6539 12.3775 20.4981Z" fill="#AABBD8"/>
<path d="M11.3804 25.2182C11.2767 25.4655 11.3804 25.6888 11.4742 25.9042C11.529 26.0021 11.5505 26.1152 11.5354 26.2263C11.5203 26.3375 11.4694 26.4407 11.3904 26.5204C11.1451 26.8116 11.2129 27.1546 11.3904 27.4676C11.4429 27.5772 11.5297 27.6667 11.6377 27.7225C11.7457 27.7783 11.8689 27.7973 11.9887 27.7767C12.2639 27.7448 12.545 27.4397 12.6368 27.0728C12.7094 26.7433 12.7005 26.401 12.6108 26.0757C12.5849 25.962 12.4912 25.8264 12.6647 25.7367C12.7288 25.6977 12.8033 25.6793 12.8781 25.6839C12.953 25.6885 13.0247 25.716 13.0835 25.7626C13.3799 25.9687 13.5834 26.2832 13.6498 26.6381C13.6198 27.1594 13.4609 27.6651 13.1871 28.1098C12.8063 28.8057 12.1163 29.033 11.4702 29.3541C11.2439 29.4771 10.9916 29.5449 10.7341 29.5518C10.4766 29.5587 10.2211 29.5047 9.98852 29.394C9.695 29.2481 9.45139 29.0184 9.28857 28.7339C9.38629 28.6502 9.48799 28.706 9.60365 28.71C9.78512 28.71 9.88084 28.6681 9.78711 28.4687C9.37831 27.6012 9.53386 26.7677 9.94266 25.9541C10.2039 25.4296 10.6566 25.0846 11.1232 24.7576C11.1548 24.7332 11.1913 24.7158 11.2301 24.7066C11.2689 24.6973 11.3093 24.6963 11.3485 24.7037C11.4223 24.8633 11.3406 25.0467 11.3804 25.2182Z" fill="#C8D1EB"/>
<path d="M32.7897 23.3597C32.1077 22.7854 31.8106 22.0216 31.7189 21.1661C31.7074 21.1502 31.6999 21.1317 31.6969 21.1123C31.657 20.532 31.657 20.532 32.2294 20.532H35.3841C35.783 20.532 35.8767 20.6357 35.783 21.0305C35.6833 21.5081 35.479 21.9576 35.1847 22.3466C34.7747 22.8737 34.2355 23.2859 33.6193 23.5431C33.2643 23.6807 33.039 23.5511 32.7897 23.3597Z" fill="#FEFEFE"/>
<path d="M30.8075 31.7391C30.4925 31.7232 30.2691 31.9505 29.9959 32.0462C28.1693 32.6744 26.5261 32.3872 25.0664 31.1149C24.8829 30.9554 24.6536 30.8358 24.5638 30.5865C24.9946 30.736 25.4532 30.768 25.888 30.8936C26.4742 31.0611 27.0266 30.9056 27.589 30.7939C28.0489 30.7051 28.4826 30.5128 28.8573 30.2315C28.9455 30.1515 29.0593 30.1055 29.1783 30.1019C29.635 30.1019 30.0916 30.1019 30.5503 30.1019C30.7497 30.1019 30.8155 30.1817 30.8135 30.3691C30.8075 30.8258 30.8095 31.2824 30.8075 31.7391Z" fill="#C3762A"/>
<path d="M28.6199 27.6551C28.6359 27.7668 28.6758 27.7767 28.7755 27.7149C29.0458 27.5453 29.245 27.283 29.3358 26.9771L29.5851 26.2193C29.6163 26.1469 29.632 26.0688 29.631 25.99C29.5113 25.3399 29.5432 24.6778 29.4575 24.0257C29.4375 23.8762 29.3139 23.7605 29.3358 23.603C29.8124 23.8522 30.1155 24.2012 30.0557 24.7875C30.0569 24.9084 30.1048 25.0241 30.1893 25.1105C30.5144 25.5911 30.5762 26.0797 30.2332 26.5782C30.1553 26.7184 30.1265 26.8805 30.1514 27.0389C30.1618 27.2067 30.1342 27.3748 30.0707 27.5305C30.0072 27.6862 29.9093 27.8256 29.7845 27.9383C29.6594 28.0503 29.5729 28.1989 29.5372 28.363C29.4236 28.8356 29.0746 29.0909 28.6339 29.2245C28.4592 29.2689 28.3034 29.3682 28.1892 29.5077C28.1079 29.6354 27.9821 29.7285 27.8362 29.7689C27.3197 29.8367 26.8252 30.0919 26.3007 30.0241C25.9019 29.9743 25.521 29.8367 25.1182 29.7968C25.0485 29.7896 24.9839 29.7569 24.9367 29.7051C24.6529 29.3882 24.2872 29.1557 23.8798 29.033C24.2208 29.033 24.518 29.2125 24.855 29.2325C25.6129 29.2765 26.3715 29.1589 27.0804 28.8875C27.1124 28.8733 27.1395 28.8501 27.1583 28.8207C27.1771 28.7912 27.1868 28.7569 27.1861 28.722C27.4294 28.7399 27.6926 28.8456 27.8841 28.5864C27.9332 28.563 27.9877 28.5534 28.0418 28.5587C28.0959 28.5639 28.1475 28.5838 28.1912 28.6163C28.2408 28.6505 28.3018 28.6638 28.3612 28.6533C28.4205 28.6429 28.4733 28.6095 28.5083 28.5604C28.5531 28.513 28.5781 28.4502 28.5781 28.3849C28.5781 28.3197 28.5531 28.2569 28.5083 28.2095C28.4447 28.1469 28.3922 28.0741 28.3527 27.9941C28.3607 27.8206 28.4125 27.675 28.6199 27.6551Z" fill="#B9B7C9"/>
<path d="M33.2723 19.5369C33.033 19.5528 32.8734 19.5628 32.7059 19.5728C32.6719 19.5796 32.6366 19.5733 32.607 19.5552C32.5774 19.5371 32.5558 19.5085 32.5464 19.4751C32.4926 19.3361 32.4258 19.2026 32.347 19.0762C32.3027 19.0192 32.2786 18.949 32.2786 18.8768C32.2786 18.8046 32.3027 18.7344 32.347 18.6774L32.5584 18.3543C32.8714 17.8817 32.8675 17.5248 32.5285 17.0701C32.3869 16.8807 32.2214 16.7072 32.0698 16.5217C31.5055 15.8297 31.5035 15.2275 32.0598 14.5276C32.7658 13.6501 32.7737 13.5604 32.0778 12.663C31.8814 12.4416 31.7642 12.1614 31.7443 11.8661C31.7245 11.5709 31.8032 11.2775 31.9681 11.0318C32.0868 10.8146 32.2329 10.6135 32.4028 10.4336C32.4306 10.3948 32.4665 10.3624 32.5079 10.3388C32.5494 10.3152 32.5955 10.3008 32.643 10.2966C32.6905 10.2924 32.7384 10.2986 32.7834 10.3146C32.8283 10.3307 32.8692 10.3563 32.9034 10.3897C33.0808 10.5492 33.025 10.7008 32.8874 10.8523C32.8017 10.948 32.7239 11.0517 32.6481 11.1554C32.5051 11.3184 32.4262 11.5279 32.4262 11.7447C32.4262 11.9616 32.5051 12.171 32.6481 12.334C32.7159 12.4297 32.7917 12.5234 32.8635 12.6191C33.4119 13.367 33.4039 13.9812 32.8336 14.711C32.7977 14.7569 32.7538 14.7988 32.7159 14.8466C32.2533 15.407 32.2473 15.7001 32.7159 16.2645C33.037 16.6633 33.366 17.0362 33.4617 17.5627C33.4977 17.7279 33.4985 17.8989 33.4642 18.0644C33.4298 18.23 33.3611 18.3866 33.2623 18.5238C33.0449 18.8509 32.8874 19.16 33.2723 19.5369Z" fill="#F8FAFB"/>
<path d="M20.4439 11.6719C21.0726 11.9316 21.5895 12.4047 21.9036 13.008C22.0273 13.2254 21.9475 13.2613 21.7281 13.2613C20.1089 13.2613 18.4916 13.2613 16.8724 13.2613C16.7308 12.7807 17.0718 12.0648 17.4866 11.8095C18.0848 11.4366 18.7229 11.4506 19.377 11.4565C19.7479 11.4665 20.0869 11.6061 20.4439 11.6719Z" fill="#F1B03E"/>
<path d="M25.1521 16.6055C24.6795 16.4778 24.155 16.5795 23.6445 16.745C22.9386 16.9724 22.5258 17.5068 22.1888 18.111C21.9394 18.5764 21.8333 19.1051 21.8837 19.6306C21.8996 19.8699 21.8219 19.9796 21.5846 19.9855C21.4968 19.9855 21.4091 20.0135 21.3193 20.0135C20.2558 20.0135 19.1922 20.0135 18.1287 20.0135C18.017 20.0135 17.8515 20.0593 17.8455 19.8858C17.8395 19.7123 17.9751 19.6725 18.1147 19.6585C18.6731 19.6027 19.2355 19.5728 19.7918 19.483C19.9295 19.4552 20.0634 19.411 20.1907 19.3514C20.8587 19.0742 21.5048 18.7073 21.8797 18.0971C22.1687 17.5883 22.4842 17.0951 22.8249 16.6194C23.081 16.2397 23.2304 15.7983 23.2577 15.3412C23.2602 15.3017 23.2649 15.2624 23.2716 15.2235C23.3594 14.8107 23.4192 14.7748 23.7682 14.9962C24.3265 15.3471 24.9128 15.6522 25.4393 16.0551C25.5022 16.0946 25.5493 16.155 25.5723 16.2257C25.5953 16.2964 25.5926 16.373 25.5649 16.4419C25.5131 16.6035 25.3695 16.6294 25.1521 16.6055Z" fill="#4D2D14"/>
<path d="M11.3745 24.7257C10.519 25.1464 9.92672 25.7985 9.71733 26.7338C9.59569 27.2822 9.53187 27.8505 9.829 28.3849C9.88883 28.4926 10.0085 28.6183 9.91276 28.7379C9.81704 28.8576 9.66947 28.7818 9.54384 28.7818C9.45589 28.7734 9.36902 28.756 9.2846 28.7299C8.6026 27.9582 8.54676 26.5084 9.16295 25.5233C9.59307 24.8902 10.155 24.3576 10.8101 23.9619C11.0833 23.7824 11.3565 23.603 11.6237 23.4155C11.9815 23.169 12.2962 22.8651 12.555 22.5161C12.7106 22.4483 12.7405 22.568 12.7744 22.6677C12.8382 22.8671 12.8761 23.0665 12.9259 23.266C12.9539 23.3958 12.9409 23.5311 12.8888 23.6532C12.8366 23.7754 12.7479 23.8783 12.6348 23.948C12.3018 24.2012 11.9488 24.4226 11.5998 24.6519C11.5691 24.6786 11.5333 24.6989 11.4946 24.7116C11.4559 24.7242 11.4151 24.729 11.3745 24.7257Z" fill="#FBFDFD"/>
<path d="M20.2644 9.04761C20.2963 9.01943 20.3184 8.98177 20.3274 8.94014C20.3363 8.89852 20.3317 8.85512 20.3143 8.81629C20.2066 8.53112 20.2624 8.232 20.2744 7.93686C20.2797 7.8917 20.2964 7.84862 20.3229 7.81166C20.3494 7.77469 20.3849 7.74505 20.4259 7.72548C20.7271 7.55199 21.0102 7.35457 21.3951 7.36454C22.1788 7.38648 22.9645 7.38049 23.7482 7.36454C24.0134 7.36454 24.1929 7.41838 24.2527 7.69757C24.2846 7.84513 24.4521 7.95481 24.3883 8.13429C24.2465 8.17916 24.1162 8.25479 24.007 8.35579C23.8977 8.45679 23.8121 8.58066 23.7562 8.71857C23.7088 8.83232 23.6264 8.92803 23.521 8.99185C23.4156 9.05567 23.2927 9.08428 23.1699 9.07353C22.2067 9.05758 21.2336 9.09946 20.2644 9.04761Z" fill="#C4BEC0"/>
<path d="M34.8058 19.2537C34.7632 19.1831 34.7479 19.0994 34.7626 19.0183C34.7772 18.9372 34.821 18.8642 34.8856 18.813C35.3004 18.4142 35.3004 17.8777 34.8856 17.441C34.5984 17.1399 34.2694 16.8806 33.9842 16.5775C33.364 15.9215 33.3341 15.3651 33.8486 14.6372C33.9435 14.51 34.0301 14.3767 34.1079 14.2384C34.17 14.1299 34.2009 14.0063 34.197 13.8813C34.1931 13.7563 34.1547 13.6349 34.0859 13.5305C33.9962 13.3869 33.8985 13.2493 33.8047 13.1097C33.6348 12.862 33.5438 12.5686 33.5438 12.2682C33.5438 11.9677 33.6348 11.6744 33.8047 11.4266C33.8668 11.325 33.954 11.2412 34.058 11.1833C34.1155 11.1523 34.1818 11.1415 34.2462 11.1527C34.3106 11.164 34.3693 11.1965 34.413 11.2452C34.4555 11.2819 34.4825 11.3335 34.4885 11.3894C34.4944 11.4453 34.4788 11.5014 34.4449 11.5463C34.0301 12.1306 34.2195 12.6471 34.6124 13.1416C34.7209 13.2589 34.7983 13.4015 34.8377 13.5564C34.8729 13.709 34.8759 13.8673 34.8463 14.0212C34.8168 14.175 34.7554 14.321 34.6662 14.4498C34.4907 14.715 34.2674 14.9643 34.2375 15.3053C34.1912 15.468 34.1924 15.6406 34.2408 15.8027C34.2892 15.9648 34.3828 16.1098 34.5107 16.2206C34.7283 16.4498 34.9615 16.6637 35.2086 16.8607C35.8527 17.3732 36.1459 18.4102 35.5257 19.1261C35.5065 19.1602 35.493 19.1972 35.4858 19.2357C35.4519 19.3494 35.4559 19.489 35.3043 19.5349H35.2824H35.2585C34.9454 19.6784 34.9155 19.4112 34.8058 19.2537Z" fill="#F7FAFB"/>
<path d="M18.9543 29.1328C17.4068 29.1328 15.8593 29.1328 14.3119 29.1328C14.1264 29.1328 14.1005 29.0729 14.1962 28.9333C14.3658 28.6782 14.4855 28.3934 14.5492 28.0938C14.5831 27.9323 14.6948 27.8944 14.8383 27.8944C15.2558 27.8944 15.6726 27.8944 16.0887 27.8944C17.5271 27.8944 18.9656 27.8884 20.404 27.8764C20.5117 27.8764 20.6214 27.8884 20.7291 27.8944C20.6912 28.0559 20.5516 28.022 20.4459 28.028C20.1308 28.04 19.8138 28.028 19.4987 28.028C19.1238 28.028 19.1158 28.0419 19.0998 28.4069C19.1258 28.658 19.0751 28.9111 18.9543 29.1328Z" fill="#A76743"/>
<path d="M26.887 14.9443C26.8671 14.8047 26.9648 14.705 27.0107 14.5874C27.1463 14.2424 27.0864 14.0051 26.8312 13.9014C26.5759 13.7977 26.3526 13.9273 26.2329 14.2663C26.1671 14.4438 26.1153 14.6253 26.0654 14.8067C26.0156 14.9882 25.9558 15.0061 25.7882 14.9523C25.2633 14.7689 24.7593 14.5302 24.2847 14.2404C24.0852 14.1247 24.0673 13.9971 24.2627 13.8595C24.4417 13.8575 24.6177 13.9052 24.7712 13.9971C24.7985 14.0147 24.829 14.0263 24.861 14.0314C24.893 14.0365 24.9257 14.0349 24.9571 14.0266C24.9884 14.0184 25.0177 14.0037 25.043 13.9835C25.0683 13.9633 25.0892 13.9381 25.1043 13.9094C25.547 13.2034 26.2529 13.0259 27.0147 12.9562C27.569 12.9043 28.0656 13.1237 28.5741 13.2752C28.9945 13.3852 29.4069 13.5238 29.8085 13.69L29.7546 13.8156C29.4515 14.1108 29.0527 14.2464 28.6838 14.4258C28.1414 14.6891 27.5331 14.7688 26.9808 15.0061C26.9329 15.0241 26.8711 15.0261 26.887 14.9443Z" fill="#ACBF76"/>
<path d="M32.7897 23.3597C33.36 23.7585 33.8147 23.3716 34.2534 23.1044C34.781 22.7803 35.1981 22.3041 35.4499 21.7384C35.614 21.4307 35.7061 21.0898 35.7191 20.7413C35.7191 20.6037 35.6693 20.5419 35.5197 20.5419C34.3232 20.5419 33.1207 20.5419 31.9123 20.5419C31.7507 20.5419 31.7029 20.6117 31.7129 20.7573C31.7228 20.9029 31.7129 21.0165 31.7129 21.1442C31.6973 21.1194 31.6852 21.0925 31.677 21.0644C31.5832 20.4861 31.5852 20.4861 32.1615 20.4861C33.5216 20.4861 34.8816 20.5 36.2396 20.4861C36.5606 20.4861 36.6125 20.5858 36.6045 20.873C36.5646 22.3785 35.8368 23.4155 34.4967 24.0636C34.4054 24.1152 34.3024 24.1422 34.1976 24.1422C34.0928 24.1422 33.9897 24.1152 33.8984 24.0636C33.4968 23.8838 33.1233 23.6467 32.7897 23.3597Z" fill="#D0DCED"/>
<path d="M18.1107 22.6418V26.3828L15.6938 22.6996C15.7134 22.6768 15.7375 22.6582 15.7646 22.6452C15.7917 22.6321 15.8213 22.6249 15.8513 22.6238C16.6042 22.5899 17.3584 22.5959 18.1107 22.6418Z" fill="#8AD3E0"/>
<path d="M5.56149 14.6512C5.61119 14.6495 5.66088 14.6549 5.70906 14.6671C5.84267 14.721 6.08795 14.5734 6.10789 14.8247C6.11211 14.9625 6.06609 15.0971 5.97841 15.2035C5.89072 15.3099 5.76736 15.3808 5.63129 15.403C5.03304 15.4369 4.80571 15.6602 4.80172 16.2784C4.80172 17.0541 4.80172 17.8279 4.80172 18.6036C4.78844 19.084 4.58978 19.5407 4.24734 19.8779C4.13175 20.0034 3.9809 20.091 3.81461 20.1291C3.72891 20.1593 3.63516 20.1574 3.55079 20.1236C3.46643 20.0899 3.39719 20.0266 3.35596 19.9457C3.25027 19.7582 3.3759 19.6485 3.50751 19.5468C3.76755 19.3605 3.97308 19.1081 4.1028 18.8157C4.23253 18.5233 4.28174 18.2015 4.24535 17.8837C4.19749 17.2197 4.15561 16.5536 4.15561 15.8896C4.15761 15.0919 4.75785 14.5734 5.56149 14.6512Z" fill="#F7F9FA"/>
<path d="M21.0641 22.7056C20.4399 23.7186 19.8118 24.7316 19.1896 25.7447C19.0693 25.9637 18.9313 26.1725 18.7768 26.3689V22.6378C19.4089 22.5999 20.0431 22.6099 20.6752 22.6139C20.8108 22.6139 20.9564 22.5899 21.0641 22.7056Z" fill="#88D3DF"/>
<path d="M34.05 27.9482C33.9293 28.1177 33.8682 28.3226 33.8765 28.5305C33.8586 29.053 33.8765 29.5774 33.8765 30.1258C34.0759 30.0481 33.9184 29.7908 34.1098 29.743C34.2554 29.9025 34.2075 30.0999 34.2075 30.2834C34.2075 33.7093 34.2075 37.1333 34.2075 40.5593C34.2075 41.4307 34.3332 41.7418 35.3641 41.7059C36.3951 41.67 37.4102 41.7059 38.4312 41.7059C38.5867 41.7059 38.7542 41.674 38.8858 41.7976C38.8679 41.9312 38.7642 41.8535 38.7103 41.8535C37.4022 41.8535 36.094 41.8535 34.7858 41.8535C34.6825 41.862 34.5787 41.8435 34.4847 41.7998C34.3906 41.7561 34.3096 41.6887 34.2494 41.6042C34.1976 41.5344 34.1377 41.4148 34.0161 41.4666C33.8945 41.5185 33.8785 41.6221 33.8765 41.7398C33.9049 42.145 33.8841 42.5521 33.8147 42.9522C33.7808 43.0898 33.8306 43.2773 33.6312 43.3411C33.8306 42.7429 33.8147 42.1327 33.8147 41.5165V28.2872C33.8067 28.1237 33.7369 27.8944 34.05 27.9482Z" fill="#956B48"/>
<path d="M30.1096 19.1819C30.1096 18.7033 30.1096 18.7033 30.5962 18.7053C30.7956 18.7053 30.995 18.7053 31.1944 18.7053C31.4357 18.6854 31.6351 18.7053 31.669 19.0064C31.6792 19.074 31.6945 19.1406 31.7149 19.2058C31.8525 19.5429 31.8425 19.5628 31.4776 19.5947C30.8115 19.6545 30.5463 19.9935 30.6799 20.6676C30.7557 21.0664 30.7397 21.4951 30.8793 21.892C30.9332 22.0475 30.8015 22.0914 30.6979 22.0914C30.2232 22.0914 29.7466 22.1552 29.278 22.0435C29.0208 21.9837 29.0028 21.9099 29.1823 21.7125C29.8164 20.9946 30.1834 20.173 30.1096 19.1819Z" fill="#6E3D18"/>
<path d="M18.9542 29.1328C18.9762 28.8077 19.0101 28.4807 19.014 28.1536C19.014 27.9741 19.0938 27.9363 19.2494 27.9383C19.6482 27.9383 20.047 27.9383 20.4459 27.9383C20.5416 27.9383 20.6453 27.9702 20.733 27.9044C21.0999 27.9044 21.4848 27.8326 21.8278 27.9223C22.1708 28.012 22.2047 28.4866 22.448 28.7399C22.5497 28.8456 22.6295 28.9692 22.7571 29.1387L18.9542 29.1328Z" fill="#E4AC8F"/>
<path d="M39.5818 25.6888V26.0996C39.526 26.2193 39.4163 26.1894 39.3206 26.1894C36.9276 26.1894 34.5346 26.1894 32.1416 26.1894C31.8905 26.196 31.6464 26.1061 31.4596 25.9381C31.3918 25.8763 31.312 25.8065 31.3519 25.7108C31.3918 25.6151 31.4915 25.6569 31.5673 25.6569C32.9393 25.6569 34.3113 25.6569 35.6832 25.6569C36.8797 25.6569 38.0722 25.6569 39.2608 25.6569C39.3685 25.635 39.4804 25.6461 39.5818 25.6888Z" fill="#F1F2F3"/>
<path d="M19.2574 27.0189C19.6064 26.4426 19.9434 25.8743 20.2924 25.3139C20.8029 24.4864 21.3313 23.6707 21.8338 22.8372C21.9694 22.6099 22.0991 22.4623 22.3842 22.5281C22.483 22.5381 22.5826 22.5381 22.6814 22.5281C22.8389 22.5281 22.8808 22.5839 22.787 22.7275L22.4321 23.242C22.355 23.3442 22.2882 23.4537 22.2327 23.569C21.7242 24.8313 20.6852 25.7168 19.9474 26.8155C19.7659 27.0808 19.5425 27.0907 19.2574 27.0189Z" fill="#75BCCE"/>
<path d="M29.8025 13.696C29.2342 13.6442 28.7217 13.3929 28.1852 13.2334C27.6488 13.0738 27.0705 12.9422 26.4942 13.1057C25.9179 13.2692 25.3655 13.4467 25.1122 14.0609C25.0644 14.1786 24.9966 14.1766 24.9128 14.1387C24.6975 14.047 24.4821 13.9552 24.2667 13.8655C24.7872 13.2222 25.4783 12.7385 26.2609 12.4696C26.6097 12.3494 26.9871 12.3397 27.3417 12.4417C28.1054 12.6523 28.8467 12.9368 29.5552 13.2912C29.7048 13.371 29.8882 13.4507 29.8025 13.696Z" fill="#F7EBAD"/>
<path d="M26.1791 21.0265C26.2668 20.9308 26.3785 20.9687 26.4862 20.9687C27.585 20.9687 28.592 19.9217 28.4923 18.817C28.4743 18.421 28.32 18.0434 28.0556 17.7481C28.0283 17.7272 28.006 17.7003 27.9905 17.6696C27.9749 17.6389 27.9665 17.6051 27.9658 17.5706C28.2625 17.6545 28.5298 17.8195 28.7376 18.0471C28.9455 18.2747 29.0857 18.5559 29.1424 18.8589C29.3817 19.826 29.0347 20.6277 28.3348 21.2977C28.3009 21.334 28.2575 21.36 28.2095 21.3728C28.1615 21.3855 28.1109 21.3843 28.0636 21.3695C27.7106 21.2758 27.3516 21.196 27.0027 21.0863C26.7295 21.0006 26.4523 21.0584 26.1791 21.0265Z" fill="#BB433C"/>
<path d="M14.6828 22.5141C14.8209 22.6074 14.9311 22.7362 15.0019 22.887C15.8354 24.1673 16.667 25.4495 17.4966 26.7338C17.5464 26.8115 17.696 26.9332 17.5683 26.995C17.5377 27.0207 17.5022 27.04 17.4639 27.0517C17.4257 27.0634 17.3855 27.0673 17.3457 27.0632C17.3059 27.0591 17.2673 27.0471 17.2323 27.0279C17.1972 27.0086 17.1664 26.9825 17.1416 26.9511C16.8405 26.5703 16.5254 26.2013 16.2223 25.8204C15.7457 25.2222 15.2771 24.624 14.7985 24.0257C14.7136 23.9424 14.654 23.8368 14.6265 23.7211C14.599 23.6054 14.6047 23.4842 14.6429 23.3716C14.7287 23.1104 14.6748 22.8272 14.6828 22.5141Z" fill="#8CD3DB"/>
<path d="M11.3744 24.7257C11.7733 24.4525 12.1542 24.1693 12.555 23.9061C12.6624 23.8503 12.7505 23.7633 12.8074 23.6565C12.8644 23.5497 12.8876 23.4281 12.874 23.3078C12.9957 22.8422 13.1516 22.3863 13.3407 21.9438C13.7116 22.1153 13.903 22.5879 13.8013 23.1124C13.6498 23.8821 13.1712 24.4225 12.549 24.8533C12.3496 24.9969 12.1502 25.1644 11.851 25.0387C11.6716 24.963 11.514 25.1046 11.3804 25.2382C11.3418 25.2078 11.3104 25.1691 11.2887 25.125C11.2669 25.0809 11.2554 25.0325 11.2548 24.9833C11.2542 24.9342 11.2647 24.8855 11.2854 24.8409C11.3061 24.7963 11.3365 24.7569 11.3744 24.7257Z" fill="#AABADB"/>
<path d="M39.6516 23.8323C39.6676 23.9679 39.6217 24.0118 39.5001 23.9918C38.6456 23.8228 37.7784 23.7261 36.9077 23.7027C36.8119 23.7027 36.6464 23.7027 36.6464 23.577C36.6464 23.4514 36.7681 23.3776 36.8997 23.3617C37.3924 23.3034 37.8648 23.1313 38.2796 22.8591C38.5272 22.6743 38.7545 22.4637 38.9576 22.231C39.0434 22.1412 39.1032 22.0814 39.1571 22.231C39.3513 22.7552 39.5164 23.2898 39.6516 23.8323Z" fill="#7C431D"/>
<path d="M10.4811 23.1184C10.501 23.0027 10.4133 22.8791 10.5329 22.7634C10.6127 22.6837 10.5628 22.5959 10.4432 22.5859C10.3235 22.576 10.2298 22.5859 10.1221 22.5859C10.1939 22.3865 10.3714 22.4962 10.499 22.4723C10.6091 22.4521 10.7228 22.4734 10.8181 22.5321C10.6964 22.4005 10.495 22.5321 10.3594 22.4025C10.7403 22.2768 10.832 22.1353 10.838 21.6906C10.838 21.5609 10.7862 21.5131 10.6625 21.5151C10.4352 21.5151 10.2059 21.4812 9.99249 21.6507C10.0204 21.3875 10.2617 21.2698 10.6107 21.3077C10.6984 21.3077 10.7882 21.3296 10.8759 21.3316C10.9038 21.3347 10.9321 21.3311 10.9582 21.3209C10.9844 21.3107 11.0077 21.2943 11.0261 21.2731C11.0446 21.2519 11.0576 21.2266 11.0641 21.1993C11.0706 21.1719 11.0703 21.1435 11.0634 21.1162C11.0301 20.9186 11.0141 20.7184 11.0155 20.518C10.9995 20.3046 10.83 20.3186 10.6825 20.3186C10.5349 20.3186 10.4292 20.3565 10.3036 20.3684C10.2477 20.3684 10.172 20.3924 10.156 20.3126C10.1401 20.2328 10.2039 20.2129 10.2617 20.1969C10.4473 20.135 10.6433 20.1104 10.8384 20.1248C11.0336 20.1392 11.2239 20.1922 11.3984 20.2807C11.5041 19.9716 11.3326 19.6446 11.5061 19.3614C11.4481 19.8256 11.4575 20.2958 11.534 20.7573C11.5796 21.0243 11.7129 21.2685 11.9129 21.4513C12.0923 21.6108 12.0584 21.7504 11.9488 21.9139C11.7686 22.1889 11.5379 22.4271 11.2688 22.6159C11.0135 22.7913 10.7902 23.0227 10.4811 23.1184Z" fill="#AFBEDE"/>
<path d="M36.1977 19.1221C36.427 18.6694 36.8358 18.6694 37.2566 18.7033C37.5398 18.7272 37.8309 18.6435 38.1081 18.7631C38.2377 19.162 38.3634 19.5608 38.497 19.9596C38.5428 20.0952 38.4651 20.1431 38.3654 20.175C38.2656 20.2069 38.154 20.2249 38.0483 20.2508C37.8967 20.2867 37.7272 20.3804 37.5956 20.3425C37.464 20.3046 37.4979 20.0693 37.4321 19.9437C37.3985 19.8448 37.3354 19.7587 37.2512 19.697C37.167 19.6352 37.0658 19.6009 36.9615 19.5987C36.794 19.5987 36.6284 19.5528 36.4629 19.5488C36.0103 19.5329 36.0003 19.5249 36.1977 19.1221Z" fill="#633715"/>
<path d="M26.887 14.9443C27.8701 14.6432 28.8513 14.3341 29.7486 13.8156C29.2082 14.6133 28.6778 15.411 27.7066 15.7599C27.6134 15.7934 27.5173 15.8181 27.4195 15.8337C26.9947 15.8955 26.9508 15.8716 27.0206 15.4708C27.0645 15.2514 26.8731 15.1338 26.887 14.9443Z" fill="#398054"/>
<path d="M9.98456 29.39C10.1116 29.3994 10.2377 29.4194 10.3615 29.4498C10.86 29.6094 11.2728 29.3701 11.6776 29.1567C11.8471 29.0669 12.0306 29.039 12.1961 28.9473C12.5138 28.7704 12.7906 28.5283 13.0081 28.2368C13.2257 27.9454 13.3791 27.6112 13.4584 27.2562C13.5122 27.0568 13.6578 26.8714 13.6458 26.642C13.941 27.5753 13.5022 28.7578 12.6368 29.3601C11.8371 29.9105 10.6945 29.9264 9.98456 29.39Z" fill="#AABAD9"/>
<path d="M15.7596 21.8481C16.1226 21.4632 16.4237 21.1402 16.7268 20.8211C16.755 20.8 16.7873 20.7849 16.8216 20.7766C16.8559 20.7684 16.8915 20.7672 16.9262 20.7732C17.2533 20.7732 17.5803 20.7832 17.9093 20.7732C18.0609 20.7732 18.1327 20.8231 18.1088 20.9727C18.1078 20.9826 18.1078 20.9926 18.1088 21.0026C18.1367 21.8521 18.1367 21.8501 17.2872 21.8401C16.8225 21.8441 16.3419 21.8481 15.7596 21.8481Z" fill="#C7E7F1"/>
<path d="M19.8357 21.8521C19.5685 21.8521 19.2993 21.8341 19.038 21.8521C18.7768 21.87 18.697 21.7723 18.7329 21.533C18.7359 21.5039 18.7359 21.4745 18.7329 21.4453C18.721 20.7753 18.7329 20.8032 19.4069 20.7613C19.8796 20.7334 20.2505 20.8131 20.4977 21.2558C20.6074 21.4084 20.7331 21.5488 20.8726 21.6746C20.9763 21.7903 20.9444 21.8461 20.7929 21.8441C20.4758 21.8441 20.1587 21.8441 19.8417 21.8441L19.8357 21.8521Z" fill="#C9E8F4"/>
<path d="M15.8254 13.1576C15.7476 14.2264 15.7855 15.2953 15.7755 16.3662C15.7755 16.4798 15.8493 16.6434 15.6419 16.6673C15.4345 16.6912 15.4425 16.5257 15.4286 16.3941L15.0955 14.5854C15.0672 14.2121 15.088 13.8366 15.1574 13.4687C15.168 13.4051 15.1911 13.3443 15.2254 13.2897C15.2597 13.2352 15.3045 13.188 15.3571 13.1509C15.4098 13.1137 15.4694 13.0875 15.5323 13.0736C15.5952 13.0597 15.6603 13.0584 15.7237 13.0698C15.7484 13.0696 15.7724 13.0784 15.7911 13.0945C15.8098 13.1107 15.822 13.1331 15.8254 13.1576Z" fill="#D94E48"/>
<path d="M5.1886 19.6406C5.44784 18.5617 5.29628 17.4689 5.34414 16.3841C5.3581 16.063 5.42191 16.0112 5.71705 16.063C5.84069 16.085 5.88456 16.1289 5.8706 16.2625C5.77089 17.0841 5.83869 17.9096 5.81875 18.7332C5.80679 19.2557 5.62332 19.5209 5.1886 19.6406Z" fill="#A8C2D7"/>
<path d="M21.8079 20.7812C22.2606 20.6157 22.5936 20.8809 22.8548 21.3057C22.884 21.3452 22.916 21.3825 22.9506 21.4174C23.0423 21.539 23.2497 21.6447 23.1839 21.7923C23.1181 21.9398 22.9127 21.8282 22.7691 21.8521C22.2047 21.9518 21.772 21.7165 21.421 21.3057C21.3114 21.1781 21.1817 21.0684 21.0621 20.9507C21.0282 20.9168 20.9803 20.8849 21.0043 20.8271C21.0282 20.7693 21.088 20.7832 21.1319 20.7832C21.3293 20.7792 21.5287 20.7812 21.8079 20.7812Z" fill="#91D2E0"/>
<path d="M8.92567 21.9797C9.2228 21.9398 9.30656 22.0635 9.29858 22.3626C9.25414 22.8277 9.26687 23.2965 9.33647 23.7585C9.37236 23.92 9.1889 23.9579 9.17494 24.0915C8.93764 24.3228 8.9157 24.3248 8.77611 24.0277C8.48098 23.4095 8.55476 22.7574 8.62256 22.1073C8.64649 21.9039 8.814 22.0017 8.92567 21.9797Z" fill="#F9FBFC"/>
<path d="M36.5646 4.21178C36.4869 4.01236 36.3213 4.02632 36.1498 4.02632C28.7462 4.02632 21.3419 4.02632 13.9369 4.02632C13.8213 4.02632 13.6977 4.06421 13.59 3.98245C13.6815 3.95032 13.7798 3.94276 13.8751 3.96051C13.9604 3.93505 14.0502 3.92825 14.1384 3.94057C21.5673 3.94057 28.9942 3.94057 36.4191 3.94057C36.4983 3.93588 36.5778 3.93922 36.6564 3.95054C36.7613 3.91586 36.8745 3.91586 36.9794 3.95054L36.5646 4.21178Z" fill="#EBD295"/>
<path d="M22.2745 13.9273C22.1452 13.8881 22.0108 13.8686 21.8757 13.8695C20.3535 13.8695 18.8319 13.8695 17.3111 13.8695C16.9302 13.8695 16.8903 13.8974 16.8803 14.2863C16.8684 14.7349 16.8803 15.1816 16.8803 15.6283C16.8684 16.2266 16.9302 16.8248 16.8245 17.4111C16.8145 17.4709 16.8245 17.5327 16.7547 17.5627C16.7547 16.4001 16.7547 15.2375 16.7547 14.0749C16.7547 13.8236 16.8903 13.704 17.1535 13.706C18.7489 13.706 20.3561 13.706 21.9575 13.706C22.0851 13.7139 22.2885 13.6601 22.2745 13.9273Z" fill="#DCBD69"/>
<path d="M36.6544 3.94856C36.437 3.94856 36.2197 3.96651 36.0023 3.96651C28.7236 3.96651 21.4463 3.96651 14.1703 3.96651C14.0706 3.96651 13.9709 3.96651 13.8732 3.96651C13.9975 3.93072 14.1277 3.92054 14.256 3.93659C21.3752 3.93659 28.4943 3.93659 35.6135 3.93659C35.9664 3.92463 36.3074 3.94457 36.6544 3.94856Z" fill="#F7CF7A"/>
<path d="M35.9764 6.06236C36.8299 5.08124 37.7452 4.39325 39.0095 4.29953C38.1912 4.68825 37.4698 5.25434 36.8977 5.95667C36.786 6.08629 36.6504 6.06236 36.5148 6.06236C36.3792 6.06236 36.2177 6.06236 35.9764 6.06236Z" fill="#E3B896"/>
<path d="M24.2009 17.5148C24.4601 17.9136 24.4402 17.9794 24.0314 18.2227C23.812 18.3523 23.5807 18.48 23.6126 18.803C23.6345 19.0483 23.5628 19.3036 23.3055 19.3315C23.0483 19.3594 22.9186 19.1121 22.8828 18.8589C22.9291 18.523 23.0823 18.211 23.3197 17.969C23.5571 17.7269 23.866 17.5677 24.2009 17.5148Z" fill="#F6F1F0"/>
<path d="M8.75415 9.94099C8.87181 9.85923 8.98747 9.77747 9.10512 9.6977C9.43615 10.4674 9.66548 11.2731 9.93469 12.0668C9.97059 12.1744 9.94865 12.2562 9.80906 12.2801C9.66947 12.3041 9.52389 12.3539 9.45809 12.1405C9.28858 11.5941 9.10313 11.0517 8.92565 10.5053C8.86383 10.3179 8.81198 10.1284 8.75415 9.94099Z" fill="#A36B47"/>
<path d="M14.1842 21.3855C14.252 21.1362 14.5312 21.0365 14.603 20.7872C15.0517 20.7234 15.5003 20.7713 15.9989 20.7413C15.8941 20.9165 15.7526 21.0669 15.5841 21.182C15.3269 21.3994 15.0576 21.6028 14.7984 21.8162C14.6468 21.9418 14.5312 21.9558 14.4315 21.7544C14.3565 21.6266 14.2739 21.5034 14.1842 21.3855Z" fill="#ECF2F4"/>
<path d="M39.5818 25.6889H31.33C31.6411 25.9979 31.9163 26.1595 32.2952 26.1595C34.5805 26.1595 36.8678 26.1595 39.1531 26.1595C39.3011 26.1845 39.4533 26.1643 39.5898 26.1016C39.528 26.323 39.3425 26.2193 39.2229 26.2193C37.254 26.2273 35.2857 26.2273 33.3182 26.2193C32.7319 26.2193 32.1456 26.1874 31.5593 26.2033C31.2303 26.2033 31.332 25.99 31.3061 25.8245C31.2722 25.6011 31.4197 25.625 31.5633 25.625C34.1677 25.625 36.7714 25.625 39.3744 25.625C39.4462 25.625 39.5379 25.5871 39.5818 25.6889Z" fill="#BFC9CB"/>
<path d="M38.3594 24.6459C37.2406 24.7635 36.1299 24.7855 35.0112 24.7955C35.3821 24.596 35.6653 24.2431 36.1718 24.2969C36.8298 24.3647 37.4919 24.4066 38.144 24.5342C38.2238 24.5482 38.3115 24.5282 38.3594 24.6459Z" fill="#DAEAEF"/>
<path d="M10.5987 4.56675C10.251 4.90411 9.9438 5.28089 9.68341 5.68946C9.50393 6.00454 9.28458 6.13216 8.94358 6.06835C8.85184 6.0504 8.74416 6.09627 8.63049 6.0165C9.09957 5.40198 9.68671 4.88739 10.3574 4.50293C10.4243 4.4622 10.4991 4.43636 10.5768 4.42716C10.7244 4.43514 10.6685 4.50692 10.5987 4.56675Z" fill="#E5BA86"/>
<path d="M31.669 27.9582C31.5214 28.3211 31.2343 28.5903 31.0189 28.9094C30.9731 28.9792 30.8713 29.0291 30.9431 29.1367C30.6984 29.1514 30.4528 29.144 30.2093 29.1148C30.2651 28.8815 30.4526 28.716 30.5503 28.5166L30.5642 28.4906C30.9172 27.8545 30.9172 27.8545 31.669 27.9582Z" fill="#A16947"/>
<path d="M33.346 24.7795C32.6356 24.8046 31.9242 24.7846 31.2163 24.7197C31.1662 24.7157 31.1195 24.6929 31.0855 24.6559C31.0515 24.619 31.0327 24.5705 31.0328 24.5203C31.0129 24.3747 31.1465 24.4046 31.2203 24.3946C31.6191 24.3488 32.006 24.3129 32.3988 24.275C32.508 24.2644 32.6172 24.2942 32.7059 24.3587C32.9173 24.5023 33.1327 24.6399 33.346 24.7795Z" fill="#E7EBEB"/>
<path d="M34.5824 18.0831C34.5953 18.1429 34.5889 18.2052 34.5642 18.261C34.5395 18.3169 34.4977 18.3636 34.4448 18.3942C34.0659 18.6335 34.1078 19.0044 34.1258 19.3674C34.1258 19.4332 34.1936 19.5129 34.1058 19.5488C34.0181 19.5847 33.9742 19.489 33.9343 19.4252C33.8586 19.3095 33.8027 19.1799 33.717 19.0722C33.6312 18.9645 33.6272 18.8848 33.703 18.807C33.9882 18.5139 33.9962 18.1509 33.9902 17.778C33.9902 17.6743 33.9503 17.5347 34.0739 17.4849C34.1976 17.435 34.2574 17.5746 34.3292 17.6464C34.4528 17.7681 34.6263 17.8658 34.5824 18.0831Z" fill="#4E2B14"/>
<path d="M14.6489 25.7387C14.557 25.7482 14.4642 25.7331 14.3801 25.6949C14.296 25.6567 14.2236 25.5968 14.1703 25.5213C14.0681 25.3887 13.9583 25.2622 13.8413 25.1424C13.7276 25.0367 13.7376 24.9729 13.8413 24.8533C14.1264 24.4903 14.1165 24.4864 14.4136 24.8533C14.5512 25.0228 14.6968 25.1823 14.8363 25.3478C14.9161 25.4436 15.0856 25.5293 15.0258 25.6529C14.966 25.7766 14.7905 25.7467 14.6489 25.7387Z" fill="#77441D"/>
<path d="M20.4439 11.6719C20.4155 11.7001 20.3786 11.7181 20.339 11.7231C20.2993 11.7282 20.2591 11.72 20.2245 11.6998C19.5262 11.4564 18.7696 11.4355 18.0589 11.64C17.3908 11.8055 16.8624 12.2941 16.9043 13.1855C16.9043 13.2134 16.8843 13.2413 16.8724 13.2692C16.6849 13.3071 16.7447 13.1635 16.7447 13.0818C16.7349 12.742 16.8363 12.4083 17.0335 12.1315C17.2308 11.8546 17.5131 11.6499 17.8375 11.5483C18.6902 11.2551 19.6228 11.2993 20.4439 11.6719Z" fill="#E2C665"/>
<path d="M30.9311 23.7126C30.7926 23.6838 30.6633 23.6212 30.5548 23.5304C30.4462 23.4396 30.3618 23.3234 30.309 23.1922C30.283 23.0665 30.3708 23.0665 30.4505 23.0665C30.6883 23.0536 30.9267 23.0536 31.1644 23.0665C31.4277 23.0924 31.5493 23.3258 31.6929 23.5072C31.7627 23.597 31.671 23.6428 31.5792 23.6508C31.3639 23.6668 31.1465 23.6927 30.9311 23.7126Z" fill="#7C471F"/>
<path d="M13.3407 21.9338C13.2774 22.415 13.1188 22.8787 12.8741 23.2979C12.8142 23.0984 12.7484 22.8851 12.6966 22.6757C12.6766 22.5879 12.6527 22.5261 12.555 22.5161C12.6298 22.365 12.6964 22.2099 12.7544 22.0515C12.8521 21.7344 12.89 21.7145 13.1891 21.868C13.233 21.894 13.2888 21.9119 13.3407 21.9338Z" fill="#C4D2E8"/>
<path d="M37.3623 22.209C37.4002 21.9538 37.4361 21.7225 37.466 21.4911C37.4859 21.3396 37.5976 21.2917 37.7193 21.2917C37.8728 21.2778 38.0443 21.2259 38.1679 21.3575C38.2916 21.4892 38.2278 21.5988 38.1679 21.7185C38.0024 22.0455 37.6933 22.1293 37.3623 22.209Z" fill="#A98461"/>
<path d="M18.1107 22.6418C18.0237 22.6896 17.9243 22.7097 17.8255 22.6996H15.6938C15.606 22.6039 15.5402 22.5002 15.7476 22.5002C16.4914 22.5002 17.2373 22.5002 17.9831 22.5002C18.0808 22.4942 18.1346 22.5341 18.1107 22.6418Z" fill="#C1D6D9"/>
<path d="M21.0641 22.7056C20.4279 22.7056 19.7918 22.7056 19.1557 22.6936C19.034 22.6936 18.8665 22.893 18.7768 22.6378C18.7429 22.4782 18.8585 22.4842 18.9563 22.4842C19.6343 22.4842 20.3143 22.4842 20.9923 22.4842C21.2097 22.4922 21.2097 22.578 21.0641 22.7056Z" fill="#BDD4D7"/>
<path d="M15.4505 18.3842C15.6863 18.7226 15.9941 19.0046 16.3519 19.2098C16.4157 19.2457 16.4197 19.2996 16.3898 19.3634C16.3702 19.409 16.3367 19.4472 16.2941 19.4727C16.2515 19.4981 16.2019 19.5094 16.1525 19.505C15.9842 19.4985 15.8229 19.4362 15.6939 19.3279C15.565 19.2195 15.4759 19.0714 15.4405 18.9067C15.4053 18.734 15.4087 18.5555 15.4505 18.3842Z" fill="#A2B3CC"/>
<path d="M23.6285 20.9109C23.981 21.0753 24.3611 21.1727 24.7493 21.198C25.0025 21.2393 25.2621 21.2146 25.503 21.1262C25.605 21.0886 25.715 21.0783 25.8221 21.0963C25.4871 21.2838 25.0942 21.2479 24.7473 21.3855C24.6735 21.4154 24.5778 21.4134 24.5239 21.4612C24.2368 21.7125 24.0852 21.529 23.9416 21.2937C23.8539 21.1521 23.6943 21.0744 23.6285 20.9109Z" fill="#CA423D"/>
<path d="M16.3459 11.8713C16.2283 12.1126 16.1465 12.318 16.0288 12.5135C15.977 12.6112 15.4585 12.683 15.3608 12.6152C15.2631 12.5474 15.3329 12.4935 15.3608 12.4417C15.474 12.281 15.6206 12.1468 15.7907 12.0483C15.9608 11.9498 16.1502 11.8895 16.3459 11.8713Z" fill="#D09069"/>
<path d="M15.3528 26.997H14.8463C14.7486 26.997 14.6668 26.985 14.6628 26.8574C14.6589 26.7298 14.7187 26.6999 14.8264 26.7019C15.1255 26.7019 15.4246 26.7019 15.7217 26.7019C15.7604 26.704 15.7982 26.7144 15.8326 26.7323C15.867 26.7501 15.8972 26.7751 15.9212 26.8056C15.959 26.8474 16.0189 26.8853 15.985 26.9551C15.9511 27.0249 15.8992 26.995 15.8514 26.995C15.6819 26.995 15.5144 26.995 15.3448 26.995L15.3528 26.997Z" fill="#6F3E1B"/>
<path d="M26.4164 17.6324C26.6477 17.6045 26.7454 17.7501 26.7654 17.9415C26.7853 18.133 26.6377 18.2267 26.4423 18.2327C26.2808 18.2327 26.0554 18.3942 26.0435 18.0552C26.0275 17.788 26.195 17.6843 26.4164 17.6324Z" fill="#E77575"/>
<path d="M15.8254 13.1576C15.7694 13.1287 15.7074 13.1136 15.6444 13.1133C15.5814 13.1131 15.5192 13.1278 15.463 13.1562C15.4068 13.1846 15.3581 13.2259 15.3209 13.2768C15.2837 13.3276 15.2591 13.3865 15.2491 13.4487C15.1833 13.8256 15.1454 14.2065 15.0955 14.5854C14.9579 14.1221 14.9579 13.6288 15.0955 13.1655C15.1334 13.012 15.267 12.9322 15.3847 13.006C15.5023 13.0798 15.7576 12.8983 15.8254 13.1576Z" fill="#DA6F71"/>
<path d="M34.2315 15.3093C34.0859 15.0141 34.3312 14.8327 34.4588 14.6352C34.6742 14.3022 34.9015 13.9871 34.8317 13.5604C34.8814 13.6725 34.9071 13.7937 34.9071 13.9163C34.9071 14.039 34.8814 14.1602 34.8317 14.2723C34.6824 14.6449 34.4802 14.9942 34.2315 15.3093Z" fill="#C5CED0"/>
<path d="M9.64352 30.2794C9.22076 30.2475 8.796 30.3073 8.37524 30.2295C8.34656 30.2212 8.31608 30.2212 8.28743 30.2297C8.25879 30.2382 8.23319 30.2547 8.21371 30.2774H8.15987C8.14591 30.2016 8.15987 30.1119 8.23764 30.1139C8.68433 30.1139 9.139 30.0002 9.57372 30.1956C9.60364 30.2076 9.61959 30.2475 9.64352 30.2794Z" fill="#AE803B"/>
<path d="M21.3333 27.009C21.2216 26.9691 21.0162 27.0548 21.0242 26.9292C21.0362 26.7477 21.2356 26.6979 21.423 26.6959C21.5547 26.6959 21.7162 26.6959 21.6942 26.8754C21.6564 27.1067 21.445 26.9491 21.3333 27.009Z" fill="#6E421F"/>
<path d="M7.81688 21.9977C7.52972 22.1412 6.86766 21.9578 6.76795 21.7384C6.76795 21.7145 6.752 21.6666 6.76795 21.6587C6.78391 21.6507 6.84573 21.6208 6.87165 21.6327C7.02321 21.7045 7.16679 21.7982 7.32233 21.8601C7.47787 21.9219 7.62744 21.9458 7.81688 21.9977Z" fill="#7D8E9A"/>
<path d="M10.5987 4.56674C10.5987 4.52686 10.6745 4.45108 10.5509 4.47102C10.487 4.47102 10.4232 4.49296 10.3514 4.50293C10.6008 4.34955 10.8689 4.22891 11.1491 4.14398C10.9916 4.31578 10.8053 4.45883 10.5987 4.56674Z" fill="#BCA893"/>
<path d="M34.8058 19.2537C34.9733 19.3235 35.0052 19.6027 35.2525 19.5448C34.8875 19.6366 34.8536 19.6146 34.8058 19.2537Z" fill="#A3AFAC"/>
<path d="M22.6793 41.8455H21.7919C22.0861 41.8016 22.3852 41.8016 22.6793 41.8455Z" fill="#E6AE90"/>
<path d="M9.67345 41.8455H8.9057C9.15974 41.8016 9.41942 41.8016 9.67345 41.8455Z" fill="#E6AE90"/>
<path d="M35.2983 19.5389L35.4798 19.2397C35.5117 19.3953 35.6872 19.6366 35.2983 19.5389Z" fill="#A3AFAC"/>
<path d="M27.591 17.457C27.3756 17.457 27.1622 17.457 26.9468 17.447C27.0482 17.4008 27.1586 17.3778 27.27 17.3795C27.3814 17.3812 27.491 17.4077 27.591 17.457Z" fill="#BB433C"/>
<path d="M20.4359 35.9268C20.057 36.2758 19.6781 36.6268 19.2953 36.9738C19.1198 37.1333 19.1876 37.2569 19.3312 37.3925C19.8895 37.917 20.4419 38.4455 20.9963 38.9739C21.0725 39.037 21.1337 39.1162 21.1754 39.2059C21.2171 39.2956 21.2384 39.3935 21.2376 39.4924C21.2376 40.1744 20.9045 40.4157 20.2624 40.1983C20.083 40.2342 19.9992 40.0827 19.9434 39.979C19.7439 39.6061 19.4169 39.3628 19.1178 39.0916C18.719 38.7386 18.3779 38.3497 18.009 37.9768C17.7797 37.7455 17.7518 36.6328 17.9691 36.3935C18.3606 35.9603 18.7767 35.5502 19.2155 35.1651C19.3272 35.0674 19.4349 34.9657 19.5505 34.8719C19.6454 34.8004 19.721 34.7065 19.7708 34.5987C19.8205 34.4908 19.8428 34.3723 19.8357 34.2537C19.8416 34.0931 19.9054 33.94 20.0154 33.8227C20.1253 33.7054 20.274 33.6319 20.4339 33.6156C20.5956 33.5933 20.7603 33.6232 20.9038 33.7011C21.0473 33.7789 21.1621 33.9006 21.2316 34.0483C21.2899 34.2584 21.3088 34.4775 21.2874 34.6944C21.3333 35.3286 20.8926 35.6317 20.4359 35.9268Z" fill="#0C1D20"/>
<path d="M13.233 40.2482C12.7783 39.9052 12.7305 39.3807 13.1373 38.9819C13.6478 38.4813 14.1743 37.9988 14.6927 37.5062C15.0238 37.1911 15.0218 37.1632 14.6927 36.8581L13.2031 35.4442C12.9259 35.179 12.7923 34.3016 12.9877 33.9746C13.0529 33.8614 13.1532 33.7727 13.2735 33.722C13.3937 33.6712 13.5273 33.6612 13.6538 33.6934C13.9389 33.7452 14.2281 33.8629 14.2361 34.1939C14.2361 34.5927 14.4475 34.842 14.7107 35.1012C15.1953 35.5838 15.7337 36.0126 16.1644 36.547C16.1894 36.9608 16.1894 37.3756 16.1644 37.7894L15.965 38.0426C15.3149 38.6668 14.6489 39.275 14.0586 39.959C13.9688 40.0878 13.8407 40.185 13.6925 40.2369C13.5443 40.2888 13.3836 40.2927 13.233 40.2482Z" fill="#0E1E21"/>
<path d="M30.7536 40.8345C23.3447 40.8345 15.9371 40.8345 8.53078 40.8345C8.18778 40.8345 8.18579 40.8345 8.24761 40.3678C8.29347 40.5373 8.22168 40.6849 8.49887 40.6769C9.89478 40.639 11.2907 40.657 12.6866 40.657C12.8638 40.6258 13.0463 40.6591 13.2011 40.7507C13.2264 40.7667 13.2549 40.7767 13.2846 40.7802C13.3143 40.7836 13.3443 40.7804 13.3726 40.7706C13.6657 40.6051 13.9469 40.7347 14.24 40.7706C14.4841 40.8309 14.742 40.7967 14.9619 40.6749C15.0361 40.6446 15.1184 40.6403 15.1952 40.663C15.6062 40.7178 16.0226 40.7178 16.4336 40.663C16.8397 40.6421 17.2469 40.6581 17.6501 40.7108C18.1785 40.7706 18.705 40.649 19.2454 40.643C19.7479 40.643 20.2265 40.7806 20.7211 40.7766C21.3432 40.7766 21.9654 40.7766 22.5856 40.7766C22.9725 40.7766 23.3533 40.6789 23.7342 40.6789C24.1151 40.6789 24.5199 40.6789 24.9128 40.665C26.0454 40.643 27.1781 40.653 28.3028 40.665C28.574 40.665 28.8532 40.6091 29.1145 40.7687C29.1602 40.7894 29.2098 40.8001 29.26 40.8001C29.3102 40.8001 29.3599 40.7894 29.4056 40.7687C29.7247 40.5952 30.0637 40.6669 30.4027 40.663C30.626 40.663 30.642 40.5972 30.622 40.3798C30.5443 39.9117 30.5443 39.434 30.622 38.9659C30.6898 38.6848 30.5822 38.4155 30.5861 38.1404C30.5981 37.3726 30.6699 36.6009 30.626 35.8371C30.5941 35.2967 30.6021 34.7523 30.5463 34.2099C30.5114 33.7854 30.5335 33.3582 30.6121 32.9396C30.6619 32.6524 30.5522 32.3413 30.7596 32.0223V40.8165L30.7536 40.8345Z" fill="#F5C66C"/>
<path d="M20.4359 35.9268C20.4942 35.8484 20.5611 35.7769 20.6354 35.7135C21.1578 35.3725 21.2715 34.8779 21.2077 34.2956C21.1991 34.138 21.1338 33.9888 21.0238 33.8756C20.9139 33.7623 20.7667 33.6927 20.6094 33.6794C20.2744 33.6415 19.9175 33.839 19.9175 34.16C19.9175 34.6625 19.5904 34.9158 19.2853 35.207C18.9264 35.548 18.5674 35.8929 18.2065 36.2339C17.9592 36.4693 17.9412 36.7365 17.9113 37.0835C17.8316 38.0127 18.5295 38.3876 19.038 38.8782C19.4244 39.2338 19.7793 39.6221 20.0989 40.0388C20.1467 40.0981 20.2032 40.1498 20.2664 40.1923C20.0112 40.2502 19.8955 40.0847 19.8098 39.8932C19.7869 39.8338 19.7502 39.7807 19.7027 39.7384C19.6552 39.6961 19.5982 39.6657 19.5366 39.6499C19.389 39.6001 19.2713 39.3847 19.0839 39.3329C18.8964 39.281 18.8446 38.9899 18.7728 38.9779C18.6566 38.9457 18.5501 38.8851 18.4631 38.8015C18.3761 38.718 18.3112 38.6141 18.2743 38.4993C18.1307 38.2062 17.8375 38.0446 17.7339 37.7156C17.6798 37.4533 17.6571 37.1856 17.6661 36.9179C17.6441 36.6746 17.6661 36.4354 17.4527 36.2539C17.3749 36.1881 17.4527 36.1023 17.4866 36.0405C17.5531 35.9669 17.5888 35.8705 17.5863 35.7713C17.9313 35.6836 18.3401 35.6855 18.3839 35.187C18.3839 35.1272 18.4338 35.0474 18.5275 35.0753C18.6213 35.1033 18.5893 35.1671 18.5913 35.2249C18.5933 35.2827 18.5913 35.3445 18.5913 35.4024C18.6033 35.53 18.697 35.5759 18.7648 35.4821C18.9981 35.1631 19.375 35.0135 19.6223 34.7144C19.6777 34.6646 19.7208 34.6027 19.7485 34.5335C19.7761 34.4644 19.7876 34.3898 19.7819 34.3156C19.7586 34.1799 19.7827 34.0405 19.8503 33.9206C19.9179 33.8007 20.0247 33.7078 20.1528 33.6575C20.2405 33.6136 20.2864 33.488 20.3721 33.4262C20.6174 33.2507 20.8826 33.3384 21.1419 33.3963C21.1698 33.3963 21.1957 33.4501 21.2077 33.484C21.4054 34.0615 21.4427 34.6818 21.3154 35.2787C21.2655 35.5101 21.0142 35.6776 20.8029 35.8112C20.7071 35.883 20.6354 36.1661 20.4359 35.9268Z" fill="#F5C66C"/>
<path d="M12.1701 39.62C11.8759 39.6518 11.579 39.6518 11.2847 39.62C11.4662 39.4206 11.863 39.3987 12.1701 39.62Z" fill="#F5C66C"/>
<path d="M15.5842 35.1631C15.7118 35.2468 16.0029 35.1631 15.983 35.3186C15.971 35.518 15.7237 35.2628 15.5842 35.3784C15.5665 35.3915 15.5457 35.3997 15.5239 35.4022C15.5021 35.4048 15.48 35.4015 15.4598 35.3929C15.4396 35.3842 15.4221 35.3704 15.4089 35.3528C15.3957 35.3352 15.3874 35.3145 15.3847 35.2927C15.3648 35.1491 15.4904 35.183 15.5842 35.1631Z" fill="#F5C66C"/>
<path d="M20.1328 31.8209C20.3888 31.394 20.5348 30.9102 20.5576 30.413C20.5576 30.3093 20.6034 30.2275 20.7091 30.2295C21.5586 30.2475 22.4101 30.1697 23.2577 30.2754C22.8309 30.2754 22.4042 30.2754 21.9754 30.2754C21.8717 30.2754 21.7082 30.2116 21.7082 30.409C21.7082 30.5566 21.8278 30.5785 21.9435 30.5685C22.0971 30.5546 22.1649 30.6802 22.2705 30.746C22.4121 30.8318 22.3942 30.9055 22.3204 31.0312C22.2765 31.105 22.3862 31.1628 22.4381 31.2186C22.4899 31.2745 22.5717 31.3822 22.5059 31.4819C22.4794 31.5252 22.4386 31.5579 22.3905 31.5743C22.3424 31.5907 22.2901 31.5898 22.2426 31.5716C22.0606 31.4977 21.8646 31.4643 21.6683 31.4739C21.3499 31.4749 21.0342 31.4139 20.739 31.2944C20.5875 31.2465 20.4997 31.3502 20.5057 31.5158C20.5233 31.6002 20.517 31.6879 20.4878 31.769C20.3801 32.0003 20.2804 32.0303 20.1328 31.8209Z" fill="#F3C267"/>
<path d="M19.2993 32.6584L20.0132 31.9924C20.0431 32.1918 20.2006 32.3772 20.057 32.6106C19.9633 32.7641 19.8397 32.79 19.7559 32.6963C19.6143 32.5089 19.4568 32.6185 19.2993 32.6584Z" fill="#F3C267"/>
<path d="M18.3441 33.135C18.5674 33.0333 18.7888 32.9356 19.0101 32.8319C18.8406 33.0393 18.6551 33.2288 18.3441 33.135Z" fill="#F3C267"/>
<path d="M16.1644 37.7894V36.547C16.241 36.9576 16.241 37.3788 16.1644 37.7894Z" fill="#F3C267"/>
<path d="M38.8779 41.7916C37.5657 41.7916 36.2536 41.7757 34.9434 41.8076C34.8311 41.8076 34.7199 41.7853 34.6163 41.742C34.5127 41.6986 34.4187 41.6351 34.3399 41.5552C34.261 41.4752 34.1988 41.3803 34.157 41.2761C34.1151 41.1719 34.0943 41.0604 34.0959 40.9481C34.1099 38.9101 34.0959 36.8741 34.0959 34.838V29.741C34.2694 29.2983 34.4768 29.1427 34.9454 29.1427C36.108 29.1427 37.2706 29.1427 38.4332 29.1427C39.0873 29.1427 39.4024 29.4678 39.4024 30.1398V35.8949C39.4024 37.5162 39.4024 39.1354 39.4024 40.7547C39.4203 41.2153 39.3046 41.5743 38.8779 41.7916Z" fill="#0E1C1E"/>
<path d="M12.2698 16.6872C12.3368 16.6874 12.403 16.7012 12.4645 16.7276C12.5259 16.754 12.5814 16.7926 12.6276 16.8411C12.6738 16.8895 12.7098 16.9468 12.7333 17.0094C12.7568 17.0721 12.7674 17.1389 12.7644 17.2057C12.7717 17.2779 12.7634 17.3507 12.74 17.4194C12.7167 17.488 12.6788 17.5508 12.6289 17.6035C12.5791 17.6561 12.5185 17.6974 12.4512 17.7246C12.384 17.7517 12.3117 17.764 12.2393 17.7607C12.1668 17.7574 12.096 17.7384 12.0315 17.7053C11.967 17.6721 11.9105 17.6254 11.8657 17.5683C11.8209 17.5113 11.7889 17.4453 11.772 17.3748C11.755 17.3043 11.7534 17.231 11.7673 17.1598C11.7759 17.0322 11.8325 16.9124 11.9257 16.8248C12.0189 16.7371 12.1419 16.688 12.2698 16.6872Z" fill="#13242B"/>
<path d="M9.09118 17.6843C9.0244 17.6848 8.95817 17.6722 8.89627 17.6471C8.83438 17.6221 8.77802 17.585 8.73043 17.5382C8.68284 17.4913 8.64495 17.4356 8.61891 17.3741C8.59287 17.3126 8.5792 17.2466 8.57868 17.1798C8.57842 17.1154 8.59085 17.0515 8.61526 16.9919C8.63967 16.9323 8.67558 16.8781 8.72095 16.8323C8.76632 16.7866 8.82025 16.7502 8.87967 16.7253C8.93909 16.7004 9.00283 16.6875 9.06725 16.6872C9.20142 16.6897 9.32961 16.7432 9.4256 16.837C9.5216 16.9308 9.57816 17.0577 9.58373 17.1918C9.58218 17.3219 9.52979 17.4463 9.43775 17.5383C9.34571 17.6304 9.22133 17.6828 9.09118 17.6843Z" fill="#142429"/>
<path d="M10.3594 22.3965C10.6316 22.3706 10.9035 22.4497 11.1192 22.6178C10.7403 22.6378 10.4292 22.3965 10.1221 22.5799C9.96059 22.6119 9.79707 22.6458 9.62756 22.6797C9.73126 22.4703 9.84293 22.4224 10.3594 22.3965Z" fill="#90A2C2"/>
<path d="M24.2009 23.583C24.5997 23.2859 24.8809 23.3836 25.1321 23.9519C25.4572 23.4275 25.9298 23.1662 26.5161 23.3038C26.8591 23.3836 27.1143 23.4414 27.3317 23.0885C27.4414 22.919 27.6727 22.9868 27.8362 23.1204C27.8462 23.4354 27.6966 23.7186 27.6049 23.9978C27.5132 24.277 27.6647 24.4385 27.9658 24.3827C28.3922 24.5544 28.7349 24.8857 28.921 25.306C28.9741 25.3861 28.9964 25.4826 28.984 25.5779C28.9715 25.6731 28.9251 25.7607 28.8532 25.8244C28.7795 25.893 28.6818 25.9299 28.5812 25.9273C28.4805 25.9247 28.3849 25.8828 28.3148 25.8105C28.3308 25.5094 28.1254 25.296 27.9798 25.0766C27.7584 24.7436 27.3516 24.8114 27.1961 25.1783C27.1106 25.3709 27.0438 25.5712 26.9967 25.7766C26.9368 26.0637 26.7973 26.1495 26.556 26.1036C26.4024 25.966 26.2608 25.8165 26.1053 25.6789C25.9876 25.5752 25.858 25.4456 25.9398 25.2501C26.3964 25.2402 26.5998 24.9709 26.6716 24.5542C26.6712 24.5139 26.683 24.4744 26.7054 24.441C26.7278 24.4075 26.7598 24.3816 26.7973 24.3667C26.8491 24.3906 26.873 24.4245 26.8351 24.4804C26.8499 24.4692 26.8613 24.4542 26.868 24.4369C26.8747 24.4196 26.8764 24.4009 26.873 24.3827C26.873 24.1593 26.6936 23.8682 26.5659 23.8542C26.1013 23.8024 25.8201 23.928 25.7045 24.253C25.6227 24.4844 25.529 24.6838 25.2239 24.602C24.9298 24.3659 24.6623 24.0985 24.4262 23.8044C24.3624 23.7186 24.2766 23.6568 24.2009 23.583Z" fill="#51516F"/>
<path d="M25.9338 25.2621C26.0395 25.6151 26.4064 25.7467 26.5899 26.0358C26.6816 26.2193 26.9329 26.2213 27.0206 26.4087C27.1682 26.7717 27.4992 26.989 27.7265 27.2882C28.0248 27.4402 28.2594 27.6932 28.3886 28.0021C28.5481 28.1436 28.7515 28.2792 28.6199 28.5345C28.5222 28.722 28.3826 28.8476 28.1533 28.6801C28.1198 28.6515 28.0806 28.6306 28.0382 28.6185C27.9959 28.6065 27.9515 28.6037 27.908 28.6103C27.8601 28.6541 27.7624 28.7239 27.7644 28.6103C27.7644 28.3211 27.5451 28.1895 27.4095 27.9981C27.2998 27.681 27.0106 27.5095 26.8112 27.2503C26.642 27.1451 26.4933 27.0099 26.3725 26.8514C26.234 26.7217 26.1085 26.5787 25.9976 26.4247C25.7783 26.1674 25.5589 25.9102 25.3276 25.6649C25.0962 25.4196 24.831 25.2362 24.7293 24.9051C24.5299 24.6459 24.3086 24.3887 24.1032 24.1254C24.0626 24.0883 24.0319 24.0418 24.0137 23.9899C23.9955 23.9381 23.9904 23.8825 23.9989 23.8282C24.0074 23.7739 24.0292 23.7226 24.0623 23.6787C24.0955 23.6349 24.139 23.6 24.1889 23.577C24.4382 23.4674 24.4123 23.7306 24.5179 23.8163C24.7617 24.0454 24.9927 24.2878 25.2099 24.5422C25.3296 24.6678 25.5429 24.598 25.6466 24.7536C25.6526 24.9829 25.9438 25.0447 25.9338 25.2621Z" fill="#183639"/>
<path d="M24.7413 24.9111L25.3974 25.639C25.3376 25.9281 25.1521 26.1854 25.18 26.4985C25.1767 26.6079 25.2014 26.7164 25.2518 26.8135C25.4512 27.1047 25.7005 27.0947 25.874 26.7916C25.9458 26.664 25.9498 26.5025 26.0734 26.3928L26.4224 26.8116C26.558 27.0369 26.4364 27.2363 26.3406 27.4258C26.2458 27.5876 26.2053 27.7756 26.225 27.9622C26.2609 28.2374 26.0993 28.4507 25.9418 28.6581C25.8814 28.6554 25.8224 28.639 25.7693 28.6102C25.7162 28.5814 25.6703 28.5408 25.6352 28.4916C25.6 28.4425 25.5765 28.386 25.5664 28.3264C25.5563 28.2668 25.5599 28.2056 25.5769 28.1476C25.5948 27.9801 25.539 27.9363 25.3775 27.9063C25.1966 27.8741 25.0239 27.8066 24.8693 27.7075C24.7146 27.6084 24.5811 27.4798 24.4762 27.329C24.3714 27.1782 24.2973 27.0082 24.2583 26.8287C24.2192 26.6492 24.216 26.4638 24.2488 26.2831C24.3221 25.8834 24.4659 25.4998 24.6735 25.1504C24.7253 25.0819 24.7495 24.9966 24.7413 24.9111Z" fill="#4D536C"/>
<path d="M28.3886 28.0021L27.7245 27.2961C27.9658 27.2622 27.9977 27.0409 28.0875 26.8774C28.1363 26.7689 28.177 26.6569 28.2091 26.5423C28.2789 26.3429 28.3926 26.2013 28.6239 26.2552C28.679 26.2594 28.7327 26.2751 28.7815 26.3012C28.8302 26.3272 28.873 26.3632 28.9071 26.4067C28.9413 26.4502 28.966 26.5003 28.9797 26.5539C28.9934 26.6074 28.9959 26.6633 28.9868 26.7178C28.9232 27.0501 28.7988 27.3679 28.6199 27.6551C28.5182 27.7488 28.3886 27.8286 28.3886 28.0021Z" fill="#4E5166"/>
<path d="M27.0206 26.4167C26.8212 26.3549 26.6398 26.2751 26.5899 26.0438C26.887 26.1535 26.915 25.8843 26.9349 25.7407C26.997 25.4712 27.0879 25.2091 27.2061 24.959C27.2899 24.7217 27.5272 24.7596 27.6927 24.8054C27.8921 24.8673 28.0915 24.947 28.1513 25.2162C28.1852 25.3997 28.4524 25.4994 28.3647 25.7407C28.352 25.7665 28.3351 25.7901 28.3148 25.8105C28.1394 25.6669 28.1294 25.4117 27.9419 25.2681C27.6209 25.0108 27.4793 25.0368 27.3716 25.4236C27.287 25.7652 27.1695 26.0978 27.0206 26.4167Z" fill="#414654"/>
<path d="M25.9338 28.6641C25.8999 28.5225 26.0156 28.4388 26.0634 28.3291C26.1038 28.2674 26.1309 28.1979 26.1429 28.1251C26.1549 28.0523 26.1516 27.9778 26.1332 27.9063C26.11 27.8394 26.1042 27.7677 26.1164 27.6979C26.1286 27.6281 26.1584 27.5626 26.203 27.5075C26.3499 27.3052 26.4243 27.0593 26.4144 26.8096C26.5959 26.9133 26.6816 27.1067 26.8132 27.2483C26.6537 27.2164 26.6676 27.3599 26.6417 27.4357C26.5301 27.7428 26.4423 28.0559 26.3326 28.363C26.2748 28.5584 26.1671 28.702 25.9338 28.6641Z" fill="#434854"/>
<path d="M27.4115 28.0041C27.6468 28.1257 27.8622 28.2553 27.8103 28.5844C27.7964 28.6641 27.8781 28.6003 27.914 28.6103C27.7146 28.9174 27.5251 28.9493 27.1921 28.7259C27.0286 28.4129 27.1383 28.1835 27.4115 28.0041Z" fill="#414D5C"/>
<path d="M27.9658 24.3827C27.9778 24.4265 28.0217 24.4944 27.9658 24.5063C27.8975 24.511 27.829 24.5015 27.7645 24.4785C27.7 24.4556 27.6409 24.4195 27.5909 24.3727C27.544 24.3351 27.5111 24.2828 27.4973 24.2242C27.4836 24.1657 27.4899 24.1042 27.5151 24.0497C27.6149 23.7545 27.7744 23.4773 27.7684 23.1523C27.7684 23.1523 27.8183 23.1323 27.8462 23.1204C27.9136 23.1533 27.9662 23.2102 27.9939 23.2799C28.0216 23.3496 28.0222 23.4271 27.9957 23.4973C27.9611 23.6803 27.9041 23.8585 27.8262 24.0277C27.7046 24.2351 27.7724 24.3248 27.9658 24.3827Z" fill="#494857"/>
<path d="M31.8744 40.5553C32.1855 40.7547 32.0738 41.0618 32.1356 41.3111C32.1414 41.3301 32.1397 41.3507 32.1308 41.3685C32.1219 41.3863 32.1065 41.4 32.0877 41.4068C32.0782 41.4102 32.0681 41.4115 32.058 41.4108C32.0479 41.4101 32.038 41.4073 32.029 41.4027C32.0201 41.398 32.0122 41.3915 32.0058 41.3836C31.9994 41.3758 31.9947 41.3667 31.992 41.3569C31.9043 41.1037 31.7886 40.8544 31.8744 40.5553Z" fill="#E6AE90"/>
<path d="M17.7598 12.6132C17.8994 12.2582 18.019 12.1864 18.3161 12.2742C18.4079 12.3001 18.4757 12.34 18.4737 12.4536C18.476 12.4758 18.4735 12.4982 18.4664 12.5193C18.4592 12.5404 18.4475 12.5597 18.4321 12.5758C18.4168 12.5919 18.3981 12.6045 18.3774 12.6127C18.3566 12.6209 18.3344 12.6244 18.3121 12.6231C18.1288 12.6517 17.9419 12.6484 17.7598 12.6132Z" fill="#3C391C"/>
<path d="M35.1169 35.5001C35.1169 33.821 35.1169 32.1399 35.1169 30.4609C35.1169 30.1817 35.1986 30.0919 35.4718 30.1119C36.3333 30.1737 37.1988 30.1119 38.0642 30.1119C38.3295 30.1119 38.4192 30.1877 38.4172 30.4688C38.4092 33.7991 38.4092 37.128 38.4172 40.4556C38.4172 40.8544 38.4172 40.8544 38.0303 40.8544C37.1669 40.8544 36.3014 40.8544 35.4379 40.8544C35.1907 40.8544 35.1169 40.7906 35.1189 40.5393C35.1288 38.8602 35.1189 37.1812 35.1189 35.5021L35.1169 35.5001Z" fill="#BD762A"/>
<path d="M25.9338 25.2621C25.8477 25.1554 25.753 25.0561 25.6506 24.965C25.5629 24.8952 25.5708 24.8453 25.6347 24.7655C25.6462 24.6385 25.6832 24.5151 25.7435 24.4028C25.8038 24.2904 25.8862 24.1913 25.9856 24.1115C26.1099 24.0243 26.2608 23.9836 26.4121 23.9964C26.5633 24.0091 26.7053 24.0746 26.8132 24.1813C26.8237 24.1915 26.8321 24.2037 26.8379 24.2173C26.8436 24.2308 26.8466 24.2453 26.8466 24.26C26.8466 24.2747 26.8436 24.2893 26.8379 24.3028C26.8321 24.3163 26.8237 24.3286 26.8132 24.3388L26.7015 24.6718C26.528 25.2481 26.528 25.2481 25.9338 25.2621Z" fill="#EEDBDC"/>
<path d="M26.8212 24.3568C26.7732 24.2797 26.7074 24.2154 26.6293 24.1692C26.5512 24.123 26.4631 24.0964 26.3725 24.0915C26.2819 24.0866 26.1915 24.1036 26.1088 24.1411C26.0262 24.1786 25.9538 24.2355 25.8979 24.3069C25.7902 24.4565 25.7782 24.6559 25.6347 24.7835C25.505 24.6918 25.2837 24.7616 25.2219 24.5482C25.2667 24.5623 25.3143 24.5659 25.3608 24.5587C25.4073 24.5515 25.4515 24.5338 25.49 24.5068C25.5286 24.4798 25.5604 24.4444 25.583 24.4031C25.6057 24.3619 25.6186 24.316 25.6207 24.269C25.6362 24.1839 25.6714 24.1036 25.7233 24.0344C25.7752 23.9651 25.8425 23.9089 25.9198 23.8702C26.1571 23.6987 26.4303 23.8502 26.6836 23.7665C26.7992 23.7286 26.9468 24.3328 26.8471 24.5183L26.8212 24.3568Z" fill="#46495A"/>
<path d="M26.0654 26.3988C26.0764 26.5398 26.0392 26.6805 25.9597 26.7976C25.866 26.9751 25.7723 27.1685 25.519 27.1127C25.405 27.0937 25.3009 27.0363 25.2239 26.9499C25.147 26.8636 25.102 26.7535 25.0963 26.6381C25.0638 26.2802 25.1694 25.9235 25.3914 25.641L26.0654 26.3988Z" fill="#F0DDDA"/>
</svg>
