<svg width="48" height="48" viewBox="0 0 48 48" fill="none" xmlns="http://www.w3.org/2000/svg">
<rect width="47.5514" height="47.5514" rx="11.2" fill="#242938"/>
<path d="M45.3281 15.5079V17.9438C45.2767 19.3029 45.1997 20.6601 44.8421 21.9797C44.2712 24.0876 43.0444 25.6661 41.0392 26.5985C40.9029 26.6617 40.8081 26.717 40.9622 26.8672C41.0392 26.9562 41.0968 27.0604 41.1312 27.173C41.1655 27.2856 41.1759 27.4042 41.1617 27.5211C41.1617 31.4036 41.1617 35.2849 41.1617 39.1648C41.1617 40.1288 41.1617 41.0949 41.1617 42.0609C41.1679 42.5736 41.0362 43.0785 40.7804 43.5228C40.6065 43.851 40.3435 44.1235 40.0217 44.3091C39.6998 44.4946 39.3322 44.5857 38.961 44.5718C37.6097 44.5718 36.2605 44.5718 34.9112 44.5718C26.1043 44.5718 17.2981 44.5718 8.49256 44.5718C8.18636 44.5718 7.88015 44.556 7.57592 44.5718C6.04687 44.6844 5.25271 43.5346 5.06109 42.4935C5.02375 42.2982 5.00457 42.0998 5.0038 41.9009L5.0038 27.5389C5.0038 26.9462 5.16777 26.7842 5.75252 26.7842C6.33727 26.7842 6.87659 26.7842 7.43764 26.7842C7.67272 26.7842 7.77348 26.7427 7.79718 26.4661C7.82803 25.8639 8.034 25.2837 8.38984 24.7968C8.43894 24.7503 8.46912 24.6872 8.47459 24.6198C8.48006 24.5523 8.46043 24.4852 8.41947 24.4314C8.14707 23.9945 8.00203 23.4902 8.00066 22.9754C8.00066 22.7502 7.93547 22.6435 7.67668 22.6534C7.36583 22.6749 7.05409 22.6271 6.76401 22.5133C6.47394 22.3995 6.21279 22.2227 5.99946 21.9956C5.9614 21.9512 5.9111 21.9191 5.85486 21.9033C5.79862 21.8875 5.73896 21.8887 5.68338 21.9067C5.41507 21.9676 5.14324 22.0118 4.86946 22.039C4.07926 22.1022 3.56562 21.7723 3.28905 21.0354C3.26465 20.9446 3.21841 20.8612 3.15437 20.7923C3.09032 20.7234 3.01042 20.6713 2.9216 20.6403C2.72767 20.5651 2.55942 20.4357 2.43685 20.2676C2.31428 20.0995 2.24255 19.8998 2.23017 19.6921C2.21417 19.584 2.22631 19.4735 2.26541 19.3715C2.30451 19.2694 2.36926 19.1791 2.4534 19.1093C2.55533 19.0165 2.66287 18.9301 2.77541 18.8505C2.9877 18.7137 3.15633 18.5189 3.26137 18.2893C3.3664 18.0596 3.40343 17.8046 3.36807 17.5546C3.32856 16.9461 3.23571 16.3416 3.25151 15.7292C3.2851 14.4945 4.14445 13.6766 5.37915 13.7102C5.59548 13.7155 5.81126 13.7346 6.02514 13.7675C6.06599 13.7809 6.1092 13.7856 6.15197 13.7812C6.19474 13.7768 6.23611 13.7635 6.27338 13.7421C6.31065 13.7206 6.34299 13.6916 6.36829 13.6568C6.3936 13.6221 6.4113 13.5824 6.42025 13.5403C6.54843 13.1758 6.77883 12.8558 7.08395 12.6186C7.38907 12.3815 7.756 12.2372 8.14092 12.2029C8.39181 12.1752 8.36021 12.0725 8.30687 11.9046C7.80245 10.315 7.30067 8.72467 6.80152 7.13372C6.61582 6.55292 6.64348 6.47785 7.15119 6.11238C7.23618 6.04585 7.31309 5.96961 7.38035 5.8852C8.3523 4.73544 9.45464 3.76151 10.9225 3.28936C11.5204 3.09164 12.1457 2.98963 12.7755 2.98711C20.646 2.98711 28.5184 3.00094 36.3889 2.97328C37.9958 2.94558 39.58 3.3553 40.9721 4.15859C42.7777 5.20167 43.7832 6.81567 44.368 8.75562C44.8303 10.2886 45.0318 11.8631 45.2017 13.4455C45.2741 14.1304 45.3162 14.8178 45.3281 15.5079Z" fill="#0C1C20"/>
<path d="M30.4663 40.4528C29.9297 40.5121 29.3892 40.5259 28.8503 40.4943C23.6112 40.4943 18.3715 40.4943 13.1311 40.4943C11.5349 40.4943 9.9393 40.4976 8.3444 40.5042C8.14685 40.5042 8.06783 40.4666 8.0698 40.2474C8.0698 36.8692 8.0698 33.4911 8.0698 30.113C8.0698 30.0734 8.0698 30.0339 8.0698 29.9944C8.08318 29.9864 8.0992 29.984 8.11436 29.9877C8.12953 29.9914 8.14262 30.0009 8.1508 30.0142C8.20479 30.1419 8.22322 30.2818 8.20414 30.4192L8.20414 39.1905C8.20414 39.309 8.18833 39.4256 8.18241 39.5559C8.22982 39.5461 8.18241 39.5796 8.18241 39.5559C8.135 39.5658 8.18241 39.5559 8.18241 39.5263C8.19624 39.4335 8.23575 39.3426 8.33255 39.3288C8.62295 39.2892 8.6348 39.0719 8.61505 38.8645C8.59529 38.6571 8.61505 38.4516 8.57949 38.2462C8.55578 38.0861 8.62097 37.9953 8.77704 37.9775C8.9331 37.9597 9.0951 37.9617 9.16029 38.1612C9.31636 38.6393 9.66405 38.7717 10.1066 38.505C10.1391 38.4754 10.1776 38.4531 10.2195 38.4395C10.2613 38.426 10.3056 38.4215 10.3493 38.4263C10.393 38.4312 10.4352 38.4453 10.473 38.4677C10.5109 38.4901 10.5435 38.5203 10.5688 38.5563C10.713 38.7223 10.8533 38.6986 10.9066 38.4852C10.9896 38.1434 11.2188 38.0585 11.5171 38.0545C11.6638 38.0526 11.8046 37.9963 11.9122 37.8965C12.1287 37.7428 12.3596 37.6105 12.6016 37.5014C12.7582 37.4235 12.9036 37.3252 13.0343 37.209C12.7301 37.1458 12.6016 36.9186 12.5404 36.6302C12.4713 36.3042 12.7577 36.1699 12.9118 35.9704C12.979 35.8834 13.0955 35.9447 13.1824 35.9941C13.3207 36.0711 13.457 36.158 13.625 36.077C13.6605 36.0593 13.7178 36.0593 13.7336 36.0948C13.8383 36.326 14.1722 36.3299 14.2275 36.6144C14.2512 36.7369 14.3915 36.7388 14.4843 36.7902C14.6226 36.8633 14.7036 36.9878 14.5456 37.0806C14.2927 37.2189 14.1939 37.5113 13.9529 37.6397C13.6487 37.8017 13.4748 38.1494 13.1094 38.2146C13.0659 38.2146 13.054 38.262 13.0402 38.2995C13.0008 38.4526 12.9198 38.5918 12.8061 38.7017C12.6925 38.8115 12.5506 38.8877 12.3962 38.9218C12.7024 38.9317 12.736 38.9672 12.7439 39.3169C12.7439 39.5461 12.7301 39.7871 13.0481 39.8266C13.4669 39.9372 13.7376 39.716 13.9825 39.4216C14.4823 38.8289 15.0671 38.3094 15.6084 37.7543C15.657 37.7052 15.7176 37.6698 15.7842 37.6515C15.8681 37.6398 15.9447 37.5974 15.9991 37.5324C16.0535 37.4674 16.0818 37.3846 16.0786 37.2999C16.0933 37.1429 16.1191 36.9871 16.1556 36.8337C16.1793 36.7151 16.2386 36.6361 16.0944 36.5156C15.9501 36.3951 16.0944 36.1995 16.1082 36.0395C16.1119 35.8973 16.0772 35.7567 16.0076 35.6325C15.9381 35.5084 15.8363 35.4053 15.7131 35.3343C15.636 35.2987 15.6025 35.3343 15.5728 35.3915C15.4582 35.6049 15.318 35.52 15.2311 35.3915C15.0279 35.139 14.7981 34.9092 14.5456 34.706C14.4385 34.6039 14.3526 34.4818 14.2927 34.3465C14.0951 33.904 14.2374 33.6274 14.7135 33.5306C14.7564 33.5193 14.8013 33.5185 14.8446 33.5281C14.8879 33.5377 14.9283 33.5575 14.9624 33.5859C15.0889 33.6948 15.2275 33.7889 15.3753 33.8664C15.5392 33.9474 15.4899 34.064 15.3753 34.1707C15.2105 34.2957 15.0181 34.379 14.8142 34.4137C14.99 34.6626 15.0118 34.6487 15.2291 34.5006C15.3931 34.3939 15.4642 34.1746 15.6854 34.147C15.9067 34.1193 15.9462 34.3998 16.1062 34.463C16.3788 34.5697 16.4243 34.7515 16.3571 35.0043C16.3444 35.0404 16.3445 35.0798 16.3574 35.1158C16.3704 35.1518 16.3954 35.1822 16.4282 35.2019C16.4608 35.2168 16.4973 35.2214 16.5326 35.2151C16.5679 35.2087 16.6004 35.1917 16.6258 35.1663C16.8233 35.0043 16.9814 34.9688 17.0841 35.2671C17.1276 35.3935 17.3014 35.3402 17.3863 35.4291C17.2955 35.7649 17.4891 36.0593 17.5325 36.3773C17.576 36.6954 17.4772 37.0628 17.6313 37.3908C17.6511 37.4342 17.6451 37.5053 17.6807 37.5251C18.0758 37.7661 18.1667 38.2462 18.5381 38.5405C18.864 38.7954 19.2019 39.0423 19.5258 39.2971C19.5899 39.3576 19.638 39.4329 19.6661 39.5164C19.696 39.5956 19.7505 39.6631 19.8216 39.709C19.8927 39.7549 19.9767 39.7767 20.0612 39.7713C20.1484 39.7841 20.2348 39.8019 20.32 39.8246C20.4313 39.8486 20.5476 39.8324 20.6481 39.7789C20.7486 39.7254 20.8269 39.638 20.8692 39.5322C20.934 39.3895 20.9565 39.2313 20.9341 39.0761C20.9117 38.921 20.8453 38.7756 20.7428 38.6571C20.2449 38.1691 19.7194 37.7128 19.2354 37.209C18.8759 36.8317 18.8739 36.7527 19.2552 36.4089C19.4824 36.2114 19.6878 35.9802 19.9071 35.7689C19.9948 35.6605 20.1206 35.5898 20.2588 35.5713C20.4555 35.5095 20.6334 35.3988 20.7758 35.2496C20.9181 35.1003 21.0203 34.9174 21.0727 34.7179C21.1489 34.3026 21.128 33.8752 21.0114 33.4694C20.8968 33.1138 20.5393 32.9676 20.2469 33.1987C20.1165 33.2995 19.9861 33.4061 19.8637 33.5168C19.7807 33.5938 19.6661 33.6748 19.6918 33.8111C19.755 34.226 19.4942 34.469 19.2256 34.7021C19.0458 34.8562 18.8502 34.9866 18.6823 35.1545C18.5144 35.3224 18.4077 35.2533 18.3188 34.874C18.2259 35.0715 18.1805 35.2829 17.9751 35.3461C17.7696 35.4093 17.6274 35.5437 17.4199 35.4291C17.3979 35.4089 17.3814 35.3834 17.372 35.3551C17.3627 35.3267 17.3608 35.2964 17.3666 35.2671C17.4081 35.1387 17.3666 35.0695 17.254 34.9945C17.2124 34.9673 17.179 34.9294 17.1573 34.8848C17.1356 34.8402 17.1264 34.7905 17.1306 34.741C17.1349 34.6916 17.1524 34.6442 17.1815 34.604C17.2105 34.5637 17.2499 34.5321 17.2955 34.5124C17.3744 34.4739 17.4454 34.4209 17.5049 34.3564C17.5602 34.2798 17.6421 34.2267 17.7345 34.2073C17.827 34.1879 17.9233 34.2038 18.0047 34.2517C18.3129 34.3682 18.2813 34.3406 18.4393 34.0541C18.5973 33.7677 18.9233 33.6906 19.0734 33.4042C19.1169 33.3251 19.2433 33.4654 19.3401 33.4634C19.3757 33.3805 19.3401 33.3074 19.3224 33.2323C19.2789 32.9202 19.3224 32.8787 19.6266 32.9241C19.6681 32.9346 19.7116 32.935 19.7533 32.9254C19.7951 32.9157 19.834 32.8963 19.8667 32.8687C19.8995 32.8412 19.9253 32.8062 19.9419 32.7667C19.9586 32.7272 19.9656 32.6843 19.9624 32.6416C20.0509 32.3824 20.1847 32.141 20.3575 31.9285C20.6503 31.8375 20.9637 31.8375 21.2564 31.9285C21.2849 31.9371 21.3111 31.9521 21.333 31.9723C21.3548 31.9924 21.3719 32.0173 21.3828 32.045C21.4717 32.3394 21.6969 32.3571 21.9458 32.3374C22.1433 32.3358 22.3387 32.3769 22.5187 32.4579C22.6807 32.5172 22.8111 32.4935 22.8526 32.2959C22.8634 32.2271 22.8935 32.1629 22.9393 32.1104C22.9851 32.058 23.0447 32.0196 23.1114 31.9996C23.153 31.9915 23.1921 31.9734 23.2252 31.9469C23.2584 31.9204 23.2846 31.8863 23.3017 31.8475C23.3188 31.8087 23.3262 31.7663 23.3233 31.724C23.3205 31.6816 23.3074 31.6406 23.2852 31.6045C23.2193 31.434 23.1932 31.2506 23.2089 31.0685C23.2247 30.8863 23.2819 30.7102 23.3761 30.5535C23.4512 30.4132 23.4709 30.3026 23.3386 30.19C23.2635 30.1248 23.1924 30.0418 23.3149 29.949C23.5154 29.8874 23.7314 29.9 23.9233 29.9845L24.3422 30.2987C24.6602 30.5614 24.9467 30.8637 25.2884 31.0889C26.8353 32.1477 28.4611 32.2465 30.1561 31.4662C30.2727 31.4128 30.3892 31.2923 30.5275 31.4326V38.8546C30.5275 39.2873 30.5275 39.7199 30.5275 40.1525C30.5275 40.2454 30.567 40.3501 30.4821 40.4311C30.3635 40.275 30.4129 40.0854 30.407 39.9175C30.3784 39.4752 30.3823 39.0315 30.4188 38.5899C30.4294 38.3053 30.4221 38.0202 30.3971 37.7365C30.3872 36.9897 30.4465 36.243 30.4228 35.4962C30.3991 34.7495 30.3991 34.0186 30.3932 33.2817C30.3932 32.8491 30.4445 32.4184 30.4287 32.0687C30.403 32.5409 30.4109 33.098 30.3596 33.6491C30.3379 33.8961 30.3991 34.1391 30.3971 34.386C30.3971 35.2987 30.4109 36.2134 30.3971 37.126C30.3971 38.1138 30.3398 39.0917 30.409 40.0755C30.4208 40.2513 30.326 40.3521 30.1699 40.3402C29.6504 40.2987 29.1367 40.4943 28.6172 40.36C28.5286 40.3491 28.439 40.3491 28.3505 40.36C27.1197 40.36 25.889 40.36 24.6563 40.36C23.5954 40.36 22.5346 40.4113 21.4737 40.4232C20.5195 40.4232 19.5673 40.3106 18.6151 40.3659C17.6629 40.4212 16.7107 40.3402 15.7565 40.3659C15.1896 40.3857 14.6206 40.435 14.0536 40.4074C12.495 40.3343 10.9343 40.356 9.37562 40.354C9.04214 40.3768 8.70751 40.3768 8.37403 40.354C8.27526 40.3402 8.17648 40.3679 8.16265 40.2138C8.16265 40.3284 8.22192 40.3659 8.33255 40.3619C8.59727 40.3501 8.86199 40.3619 9.12275 40.3619C10.3535 40.3402 11.5862 40.3284 12.817 40.3619C13.3701 40.3778 13.9292 40.4212 14.4804 40.3955C15.235 40.36 15.9916 40.3402 16.7443 40.358C17.497 40.3758 18.2358 40.3343 18.9826 40.358C20.0731 40.3837 21.1556 40.4429 22.254 40.4094C24.2414 40.3475 26.2288 40.333 28.2161 40.3659C28.8424 40.3778 29.4666 40.3481 30.0929 40.3659C30.1577 40.3527 30.2246 40.3536 30.2891 40.3686C30.3535 40.3836 30.4139 40.4124 30.4663 40.4528Z" fill="#F3C267"/>
<path d="M35.8594 18.9434C36.2723 17.8865 35.9483 17.0311 35.1443 16.3041C34.9981 16.1717 34.8677 16.0255 34.7255 15.8892C34.2632 15.4487 34.4015 15.3321 34.684 14.9647C35.1878 14.3029 35.2984 13.4692 34.7591 12.7798C34.4746 12.4163 34.3126 12.0607 34.5971 11.5944C34.6452 11.4987 34.6627 11.3904 34.6472 11.2844C34.6316 11.1783 34.5838 11.0797 34.5101 11.0018C34.4046 10.8839 34.2682 10.798 34.1163 10.7536C33.9644 10.7093 33.8032 10.7083 33.6508 10.7509C33.5658 10.7647 33.4849 10.8121 33.3999 10.8319C33.315 10.8516 33.228 10.8319 33.2182 10.7055C33.1549 9.97056 32.6927 9.68016 32.0072 9.94093C31.3217 10.2017 30.7744 11.0235 30.8495 11.7189C30.8759 12.116 31.0442 12.4904 31.3236 12.7738C31.4539 12.9091 31.5548 13.0699 31.62 13.246C31.7938 13.6411 31.535 13.8762 31.2841 14.0974C30.6322 14.6802 30.6401 15.6304 31.0688 16.3199C31.2663 16.6399 31.5627 16.873 31.7503 17.2029C31.938 17.5329 31.9775 17.7126 31.6871 17.9813C31.5665 18.0818 31.4735 18.2116 31.4172 18.3582C31.3608 18.5048 31.3429 18.6634 31.3651 18.8189C30.9898 18.4574 30.5255 18.6352 30.0968 18.6214C29.8618 18.6214 29.9566 18.896 29.8282 18.9947C29.6998 18.7972 29.7729 18.5463 29.6879 18.3171C29.3698 17.4696 28.8621 16.8335 27.983 16.5392C27.9336 16.5214 27.8507 16.5392 27.8487 16.4522C27.8467 16.3653 27.9317 16.3594 27.9929 16.3337C28.635 16.0611 29.1071 15.581 29.5575 15.0674C29.8401 14.743 30.104 14.4026 30.3477 14.048C30.4244 13.9508 30.4803 13.839 30.512 13.7193C30.5437 13.5996 30.5505 13.4747 30.532 13.3523C30.5135 13.2299 30.47 13.1126 30.4044 13.0077C30.3387 12.9027 30.2522 12.8124 30.1502 12.7422C29.6657 12.3751 29.1245 12.0895 28.548 11.8967C28.1351 11.7505 27.7223 11.6083 27.2975 11.5016C26.2051 11.2112 25.2805 11.6004 24.4152 12.2167C23.957 12.5394 23.5472 12.9259 23.1983 13.3645C23.0758 13.5206 22.983 13.5976 22.8803 13.3052C22.4358 12.031 21.61 11.0966 20.3121 10.658C19.7418 10.4585 19.1371 10.3758 18.5341 10.4151C17.9393 10.4495 17.3544 10.583 16.8036 10.8102C16.4658 10.9563 16.1023 10.8674 15.7605 10.9583C15.4154 11.0389 15.096 11.2046 14.8313 11.4403C14.5667 11.676 14.3652 11.9741 14.2453 12.3076C14.1682 12.5052 14.0971 12.6059 13.8956 12.4439C13.5143 12.1357 13.0382 12.2009 12.6016 12.1654C12.1218 12.1179 11.6381 12.1239 11.1595 12.1831C11.037 12.199 11.0054 12.1436 10.9738 12.0488C10.6637 11.142 10.3496 10.2353 10.0473 9.32457C9.96828 9.08751 10.0473 9.02034 10.3417 9.02034C12.7439 9.02034 15.1468 9.02034 17.5503 9.02034C17.7163 9.02034 17.8822 9.00256 18.0462 8.99071C18.1512 8.96991 18.2599 8.98013 18.3592 9.02012C18.4585 9.06012 18.544 9.12815 18.6052 9.21592C18.7625 9.45332 18.981 9.64382 19.2377 9.76727C19.4943 9.89072 19.7795 9.94253 20.0632 9.91723C21.0865 9.88562 22.1118 9.89352 23.1351 9.91723C23.3607 9.9313 23.586 9.88355 23.7865 9.77912C23.987 9.67468 24.1552 9.51753 24.273 9.32457C24.3296 9.22786 24.4117 9.14854 24.5103 9.09524C24.6088 9.04195 24.7202 9.01672 24.8321 9.02232C28.0324 9.03285 31.2328 9.03285 34.4331 9.02232C34.5531 9.00416 34.6753 9.03431 34.7731 9.10615C34.8708 9.17799 34.9361 9.28566 34.9546 9.40557C35.3675 10.8872 35.8575 12.3432 36.3217 13.807C36.5193 14.4431 36.6654 15.0951 36.8867 15.7213C37.1317 16.4108 37.2818 17.1298 37.5485 17.8094C37.6315 18.0682 37.6975 18.3322 37.746 18.5996C37.4075 18.6368 37.0664 18.6434 36.7267 18.6194C36.4442 18.6194 36.1814 18.6194 36.0076 18.8979C35.9904 18.9197 35.9671 18.9356 35.9406 18.9438C35.9141 18.9519 35.8858 18.9517 35.8594 18.9434Z" fill="#492C14"/>
<path d="M32.0743 43.0566C31.9612 43.236 31.802 43.3818 31.6133 43.4788C31.4246 43.5757 31.2134 43.6203 31.0016 43.6077C29.1315 43.6077 27.2607 43.6077 25.3892 43.6077C19.6286 43.6077 13.8686 43.6077 8.10931 43.6077C7.91176 43.6077 7.69643 43.6077 7.489 43.6196C6.60199 43.6374 6.06663 43.181 5.94612 42.298C5.92307 42.1218 5.91185 41.9442 5.91254 41.7665C5.91254 37.1794 5.91254 32.5922 5.91254 28.0031C5.91254 27.691 6.00341 27.6218 6.29381 27.6357C6.73435 27.6594 7.17884 27.6357 7.62136 27.6357C7.71816 27.6357 7.81891 27.6139 7.86435 27.7443C7.98757 28.1428 8.17148 28.52 8.40959 28.8625C8.2397 28.8625 8.12512 28.8625 8.01449 28.8625C7.45146 28.8743 7.15711 29.1568 7.15119 29.7238C7.14131 30.7767 7.15119 31.8297 7.15119 32.8846L7.15119 40.4252C7.15119 40.4943 7.15119 40.5635 7.15119 40.6227C7.08994 40.6227 7.07019 40.5852 7.04846 40.5378C7.02673 40.4904 7.07612 40.4113 7.04846 40.3402C7.04907 40.3537 7.0468 40.3671 7.0418 40.3797C7.03679 40.3922 7.02918 40.4035 7.01946 40.4129C7.00973 40.4222 6.99813 40.4294 6.98541 40.4339C6.9727 40.4384 6.95917 40.4401 6.94573 40.439C6.9235 40.4358 6.90218 40.4279 6.88313 40.416C6.86409 40.4041 6.84773 40.3884 6.83509 40.3698C6.82246 40.3512 6.81383 40.3302 6.80975 40.3081C6.80567 40.286 6.80623 40.2633 6.8114 40.2414C6.82827 40.1202 6.82827 39.9972 6.8114 39.876C6.82837 39.9833 6.82837 40.0926 6.8114 40.2C6.79559 40.279 6.77979 40.3837 6.84103 40.4271C7.07019 40.5891 7.09587 40.8598 7.21835 41.0771C7.41591 41.4287 7.75767 41.5157 8.12117 41.5295C8.56566 41.5453 9.00817 41.5295 9.45069 41.5295C10.2686 41.5413 11.0825 41.5927 11.8984 41.5868C12.8624 41.5868 13.8265 41.5334 14.7885 41.5394C15.3812 41.5394 15.9739 41.5848 16.5527 41.569C17.4654 41.5433 18.3781 41.6421 19.2927 41.5453C19.7633 41.4933 20.2385 41.5006 20.7072 41.567C20.8439 41.5864 20.9821 41.593 21.1201 41.5868C21.9577 41.5492 22.7933 41.6164 23.629 41.5868C25.243 41.5236 26.855 41.6105 28.469 41.5967C29.2158 41.5967 29.9585 41.4702 30.7092 41.5769C30.9522 41.6125 31.2347 41.5927 31.3414 41.2707C31.3651 41.1996 31.458 41.1324 31.4975 41.1778C31.6733 41.3754 32.0585 41.0712 32.0901 41.3754C32.1277 41.6441 32.2995 41.9167 32.1692 42.2051C32.1692 42.2229 32.1454 42.2486 32.1533 42.2604C32.3114 42.5548 32.1613 42.8057 32.0743 43.0566Z" fill="#E6AE90"/>
<path d="M44.3225 17.0627C44.2969 18.5582 44.289 20.0556 43.9571 21.5254C43.7951 22.2581 43.4925 22.9525 43.0661 23.57C43.0128 23.6491 42.9318 23.7676 42.8686 23.7676C42.7579 23.7676 42.7599 23.6214 42.7342 23.5365C41.9638 20.9959 41.2032 18.4534 40.4347 15.9129C39.7512 13.6529 39.0637 11.3949 38.3723 9.13888C38.1089 8.2736 37.8455 7.40832 37.5821 6.54305C37.5626 6.50376 37.5551 6.45966 37.5604 6.41614C37.5656 6.37263 37.5835 6.3316 37.6117 6.29808C38.2439 5.59677 38.9491 5.0535 39.9685 5.10289C40.33 5.13241 40.6742 5.27009 40.9563 5.498C41.9954 6.26055 42.6236 7.31745 43.0661 8.49486C43.567 9.89508 43.9025 11.3491 44.0657 12.8272C44.2459 14.2317 44.3317 15.6467 44.3225 17.0627Z" fill="#BA762A"/>
<path d="M23.2694 29.9905C23.5875 30.2236 23.546 30.4725 23.3603 30.7807C23.291 30.9008 23.2545 31.0371 23.2545 31.1758C23.2545 31.3145 23.291 31.4508 23.3603 31.5709C23.4848 31.808 23.3761 31.966 23.1015 32.0707C23.0424 32.0846 22.9901 32.119 22.9539 32.1679C22.9177 32.2167 22.9 32.2768 22.904 32.3374C22.904 32.5804 22.7479 32.6397 22.5721 32.5646C22.2654 32.4403 21.9338 32.3903 21.6041 32.4184C21.4618 32.4184 21.3907 32.3631 21.371 32.2208C21.3453 32.0154 21.209 31.9403 21.0114 31.9403C20.8633 31.9403 20.7171 31.9403 20.5689 31.9403C20.3714 31.9403 20.237 31.9818 20.2489 32.2189C20.2584 32.2679 20.2508 32.3188 20.2275 32.363C20.2041 32.4072 20.1664 32.4421 20.1205 32.4619C19.9526 32.5152 19.9743 32.5843 20.077 32.6831C20.0962 32.6986 20.1092 32.7206 20.1135 32.7449C20.1179 32.7692 20.1133 32.7942 20.1007 32.8155C20.0454 32.9142 19.6286 33.0288 19.5298 32.9577C19.3757 32.8471 19.3599 32.9577 19.3698 33.0604C19.3845 33.1864 19.4083 33.3112 19.4409 33.4338C19.4587 33.501 19.4923 33.5701 19.4152 33.6156C19.3382 33.661 19.2888 33.6017 19.2532 33.5425C19.2177 33.4832 19.1643 33.3983 19.0695 33.4358C19.033 33.4534 19.0029 33.4818 18.9831 33.5171C18.9633 33.5525 18.9548 33.593 18.9589 33.6333C18.9747 33.8408 18.8877 33.9158 18.6862 33.8981C18.4847 33.8803 18.4729 34.0028 18.4887 34.1489C18.4887 34.3919 18.3978 34.4749 18.1627 34.386C18.0666 34.3688 17.9743 34.3347 17.8901 34.2853C17.8608 34.2575 17.8219 34.242 17.7815 34.242C17.741 34.242 17.7022 34.2575 17.6728 34.2853C17.5615 34.4389 17.4097 34.5586 17.2342 34.631C17.1473 34.6646 17.1987 34.7831 17.2342 34.87C17.2955 35.03 17.4101 35.0281 17.6293 34.9431C17.5566 35.0005 17.5 35.0758 17.4654 35.1618C17.4307 35.2477 17.4191 35.3412 17.4318 35.433C17.25 35.4192 17.013 35.5081 17.009 35.1782C17.009 35.0656 16.9182 35.0676 16.8391 35.1189C16.7984 35.1472 16.7618 35.1811 16.7305 35.2197C16.6927 35.2702 16.6383 35.3058 16.5769 35.3202C16.5155 35.3347 16.451 35.327 16.3946 35.2987C16.2544 35.2355 16.2741 35.1011 16.3057 34.9866C16.3769 34.7554 16.3927 34.5796 16.0825 34.5421C15.9798 34.5282 15.966 34.4196 15.9383 34.3445C15.881 34.1786 15.7072 34.147 15.64 34.2359C15.5215 34.3979 15.3476 34.4828 15.2291 34.631C15.1757 34.6962 15.1402 34.8285 15.0315 34.7159C14.9229 34.6033 14.6838 34.6152 14.7016 34.386C14.7016 34.307 14.8004 34.2398 14.8458 34.2734C15.0888 34.4492 15.1718 34.1233 15.3575 34.1252C15.4128 34.1252 15.4543 34.0581 15.4444 33.9909C15.4345 33.9237 15.3891 33.9139 15.3377 33.9099C15.1836 33.9099 15.0948 33.7874 15.0019 33.6906C14.9676 33.6426 14.9167 33.609 14.8591 33.5962C14.8015 33.5834 14.7412 33.5924 14.6898 33.6215C14.2413 33.8309 14.1682 34.0324 14.4665 34.4473C14.7234 34.8048 15.1461 35.0063 15.3733 35.3995C15.4187 35.4785 15.5017 35.4804 15.5452 35.3362C15.5886 35.192 15.638 35.0952 15.8514 35.2849C16.2109 35.6069 16.363 35.9052 16.1319 36.3497C16.1023 36.4089 16.1319 36.5255 16.205 36.5136C16.4776 36.4722 16.3393 36.6065 16.2998 36.7112C16.2346 36.9149 16.1948 37.1259 16.1813 37.3394C16.1536 37.537 16.0667 37.695 15.8296 37.6911C15.7783 37.5488 15.9225 37.4836 15.9541 37.373C16.0045 37.0093 16.0045 36.6403 15.9541 36.2766C15.7347 35.9942 15.4893 35.7329 15.2212 35.4963C14.9486 35.2118 14.672 34.9313 14.3836 34.6626C14.1857 34.4823 14.0612 34.2354 14.0339 33.9692C14.0206 33.8814 13.9886 33.7975 13.9402 33.7231C13.8918 33.6488 13.828 33.5856 13.7532 33.5379C13.6783 33.4902 13.5941 33.459 13.5063 33.4465C13.4184 33.434 13.3289 33.4405 13.2437 33.4654C13.1458 33.4855 13.0573 33.5375 12.9922 33.6133C12.9272 33.6891 12.8891 33.7844 12.8841 33.8842C12.8683 34.1395 12.8683 34.3955 12.8841 34.6507C12.8941 34.7251 12.9192 34.7966 12.958 34.8608C12.9967 34.925 13.0482 34.9806 13.1094 35.0241C13.6052 35.4725 14.0359 35.9921 14.5633 36.407C14.6229 36.4586 14.6778 36.5155 14.7273 36.5769C14.7651 36.6087 14.7951 36.6487 14.8152 36.6939C14.8354 36.739 14.845 36.7881 14.8435 36.8375C14.842 36.8869 14.8293 36.9353 14.8065 36.9791C14.7836 37.0229 14.7511 37.061 14.7115 37.0905C14.265 37.5626 13.7633 37.9795 13.303 38.4378L13.0521 38.6887C12.9829 38.7492 12.9263 38.8228 12.8855 38.9052C12.8448 38.9877 12.8207 39.0773 12.8146 39.169C12.8086 39.2608 12.8207 39.3528 12.8502 39.4399C12.8798 39.527 12.9262 39.6073 12.9869 39.6764C13.0343 39.7377 13.0995 39.7891 13.1034 39.874C12.8367 39.9668 12.7814 39.7495 12.6945 39.5875C12.6807 39.5638 12.6945 39.5303 12.6945 39.5006C12.6688 39.0226 12.6688 39.0226 12.2125 38.9751C12.1888 38.9751 12.1651 38.9514 12.1295 38.908C12.418 38.8842 12.6879 38.7556 12.8881 38.5465C12.9572 38.4714 13.0086 38.4457 12.9908 38.3291C12.973 38.2126 12.8723 37.9459 13.1884 38.1316C13.303 38.1948 13.3721 38.1178 13.3958 38.0012C13.4096 37.9281 13.382 37.8333 13.4906 37.8037C13.6558 37.7669 13.81 37.6917 13.9407 37.5843C14.0715 37.4769 14.1751 37.3402 14.2433 37.1853C14.2683 37.1438 14.3076 37.1128 14.3539 37.0984C14.4606 37.0767 14.6048 37.0609 14.593 36.9344C14.5811 36.808 14.4211 36.8278 14.3223 36.8021C14.2235 36.7764 14.0813 36.7566 14.1505 36.5788C14.1587 36.5631 14.1629 36.5456 14.1627 36.5279C14.1625 36.5102 14.1579 36.4928 14.1492 36.4773C14.1406 36.4618 14.1282 36.4487 14.1133 36.4392C14.0983 36.4297 14.0812 36.424 14.0635 36.4228C13.9893 36.4275 13.9159 36.4041 13.8581 36.3573C13.8002 36.3104 13.7622 36.2435 13.7514 36.1699C13.7395 36.1284 13.7 36.0889 13.6704 36.1205C13.463 36.3576 13.3168 36.1205 13.1647 36.0474C13.0461 35.9862 12.9671 35.8953 12.9217 36.1087C12.9217 36.1442 12.896 36.2015 12.8703 36.2094C12.6056 36.2884 12.5839 36.484 12.651 36.6974C12.7301 36.9404 12.8486 37.1498 13.1647 37.1498C12.9987 37.4955 12.6333 37.5449 12.3646 37.7266C12.1853 37.8053 12.0209 37.9142 11.8786 38.0486C11.7403 38.2284 11.5487 38.1059 11.3867 38.1375C11.1733 38.1751 11.0351 38.2185 11.0291 38.4655C11.0213 38.5399 10.9907 38.6102 10.9416 38.6667C10.8925 38.7233 10.8272 38.7633 10.7545 38.7815C10.5965 38.8408 10.557 38.6808 10.5115 38.584C10.4167 38.4062 10.314 38.4398 10.1876 38.5524C10.1072 38.6167 10.0139 38.6629 9.91409 38.688C9.81426 38.713 9.7102 38.7163 9.609 38.6975C9.50779 38.6788 9.41181 38.6385 9.32757 38.5794C9.24332 38.5202 9.1728 38.4436 9.12078 38.3548C9.103 38.3232 9.06942 38.3094 9.06942 38.26C9.0738 38.2172 9.06617 38.1741 9.04738 38.1354C9.0286 38.0968 8.9994 38.0641 8.96308 38.0411C8.92675 38.0181 8.88474 38.0057 8.84175 38.0053C8.79877 38.0049 8.75652 38.0165 8.71975 38.0387C8.65653 38.0704 8.63283 38.1099 8.66049 38.179C8.75926 38.418 8.66049 38.6749 8.72568 38.9198C8.73577 38.9896 8.73133 39.0607 8.71263 39.1287C8.69393 39.1967 8.66138 39.2601 8.61702 39.3149C8.59332 39.3564 8.538 39.4275 8.52813 39.4216C8.2318 39.2734 8.28514 39.5856 8.13302 39.7456L8.13302 29.9944C8.13302 29.9352 8.16266 29.8897 8.21204 29.8937C8.65851 29.9371 9.11486 29.8324 9.54947 29.9964C9.76875 30.0952 9.98803 30.194 10.2073 30.2888C10.5333 30.4251 10.8197 30.6345 11.1358 30.7925C11.6559 31.0529 12.2187 31.2168 12.7972 31.2765C12.9926 31.3059 13.1723 31.4006 13.3069 31.5452C14.2825 32.4533 15.5716 32.9488 16.9043 32.9281C17.3192 32.9281 17.7182 32.8016 18.1272 32.7582C18.4136 32.8313 18.6092 32.6811 18.787 32.4875C18.8788 32.4012 18.9869 32.334 19.1051 32.29C19.1677 32.2451 19.2419 32.219 19.3189 32.2148C19.3959 32.2106 19.4725 32.2284 19.5397 32.2663C19.7372 32.3848 19.8656 32.2781 19.8498 32.0391C19.8498 31.9127 19.7649 31.7981 19.7807 31.6677C19.7854 31.6227 19.8055 31.5807 19.8375 31.5487C19.8695 31.5167 19.9115 31.4966 19.9565 31.4919C20.1323 31.5571 20.2054 31.4919 20.2351 31.3101C20.3042 30.915 20.4128 30.8577 20.7921 30.998C21.1714 31.1383 21.6219 31.0869 22.0308 31.1758C22.175 31.2054 22.2283 31.1066 22.1493 30.9782C22.0816 30.8822 22.0451 30.7678 22.0446 30.6503C22.0446 30.51 21.934 30.4528 21.8273 30.3974C21.7633 30.3729 21.6972 30.3544 21.6298 30.3421C21.6006 30.3371 21.5726 30.3264 21.5476 30.3105C21.5225 30.2947 21.5008 30.2741 21.4838 30.2499C21.4667 30.2256 21.4546 30.1983 21.4481 30.1694C21.4416 30.1405 21.4409 30.1105 21.446 30.0814C21.4658 29.9431 21.5784 29.9213 21.689 29.9174C22.1414 29.9036 22.5938 29.9174 23.0442 29.9174C23.0848 29.9136 23.1257 29.9181 23.1644 29.9306C23.2031 29.9432 23.2389 29.9636 23.2694 29.9905Z" fill="#F5C66C"/>
<path d="M36.2229 4.17241C35.5745 4.65255 35.0058 5.2319 34.5378 5.88914C34.441 6.0373 34.3007 6.00372 34.1664 6.00372C30.9187 6.00372 27.6709 6.00372 24.4231 6.00372C19.865 6.00372 15.3081 6.00372 10.7526 6.00372H10.6083C10.6083 5.97804 10.5827 5.95236 10.5886 5.94445C11.282 5.00213 12.1255 4.26329 13.2891 3.96894C13.3465 3.95803 13.4046 3.95209 13.463 3.95116C13.6881 3.97102 13.9148 3.96505 14.1386 3.93338C20.9317 3.93338 27.7249 3.93338 34.518 3.93338C34.9902 3.93338 35.4623 3.93338 35.9345 3.93338C36.1024 3.9314 36.2229 3.96894 36.2229 4.17241Z" fill="#F7CF7A"/>
<path d="M33.7318 27.687C34.7057 27.687 35.6796 27.7008 36.6516 27.6712C37.6729 27.6416 38.6943 27.7147 39.7176 27.6495C40.2372 27.6159 40.174 27.5823 40.1838 28.092C40.2727 32.4243 40.2036 36.7566 40.2233 41.0889C40.2382 41.5411 40.2243 41.9937 40.1819 42.4441C40.093 43.1652 39.609 43.6295 38.8918 43.6295C36.9914 43.6295 35.089 43.6295 33.1885 43.6295C32.991 43.6295 32.8961 43.5959 33.0463 43.3865C33.1423 43.2387 33.23 43.0857 33.309 42.9281C33.457 42.6408 33.5304 42.3208 33.5224 41.9977C33.5382 41.7626 33.5224 41.5255 33.5224 41.2904C33.5145 41.2366 33.5241 41.1817 33.5497 41.1337C33.5753 41.0857 33.6156 41.0472 33.6646 41.0237C33.7109 41.0041 33.7627 41.0015 33.8108 41.0163C33.8589 41.0311 33.9001 41.0624 33.9274 41.1047C34.1249 41.3576 34.3798 41.3734 34.6662 41.3734C35.9424 41.3734 37.2186 41.3458 38.4948 41.3892C38.5343 41.3892 38.5639 41.3892 38.5244 41.3892C38.5283 41.3723 38.5283 41.3548 38.5244 41.3379C38.9393 41.006 38.9728 40.5476 38.9728 40.0617C38.9728 36.7665 38.9728 33.4713 38.9728 30.1841C38.9797 30.0465 38.9797 29.9087 38.9728 29.7712C38.9254 29.2319 38.6587 28.9711 38.1155 28.9632C37.3766 28.9494 36.6398 28.9632 35.9009 28.9632C35.5275 28.9632 35.1522 28.981 34.7808 28.9632C34.591 28.9336 34.3967 28.968 34.2286 29.061C34.0605 29.154 33.9281 29.3003 33.8523 29.4768C33.7904 29.5653 33.7456 29.6644 33.7199 29.7692C33.7133 29.7983 33.6969 29.8243 33.6736 29.8429C33.6503 29.8616 33.6214 29.8718 33.5915 29.8719C33.5046 29.8719 33.5263 29.789 33.5263 29.7356C33.5382 29.1568 33.4987 28.576 33.55 27.9952C33.5487 27.932 33.565 27.8697 33.5971 27.8152C33.6292 27.7608 33.6758 27.7164 33.7318 27.687Z" fill="#9F613B"/>
<path d="M10.3831 22.9023L9.08917 23.8644C9.15437 23.3409 9.08917 22.8134 9.12078 22.284C9.14382 22.1792 9.12835 22.0696 9.0772 21.9753C9.02605 21.8809 8.94264 21.8082 8.84223 21.7703C9.65615 21.5017 9.89124 21.2093 9.9426 20.342C9.95476 20.0081 9.94817 19.6737 9.92284 19.3405C9.92325 19.293 9.91346 19.2459 9.89414 19.2025C9.87481 19.1592 9.84639 19.1204 9.81081 19.089C9.77523 19.0575 9.73331 19.034 9.68788 19.0202C9.64246 19.0063 9.59458 19.0023 9.54749 19.0086C9.50038 19.0045 9.45295 19.0109 9.40861 19.0274C9.36428 19.0438 9.32414 19.0699 9.29108 19.1037C9.25802 19.1375 9.23287 19.1782 9.21742 19.2229C9.20198 19.2676 9.19664 19.3152 9.20178 19.3622C9.20178 19.6091 9.20178 19.8541 9.20178 20.101C9.20717 20.306 9.13446 20.5053 8.99837 20.6586C8.86228 20.812 8.67299 20.9078 8.46886 20.9268C8.13922 20.9746 7.80335 20.9558 7.4811 20.8715C7.38041 20.8433 7.28716 20.7932 7.20796 20.725C7.12876 20.6567 7.06554 20.5718 7.02278 20.4764C6.96549 20.3717 6.90623 20.2591 6.76201 20.2788C6.6178 20.2986 6.56446 20.3914 6.52693 20.5119C6.50354 20.5874 6.46405 20.6568 6.41118 20.7155C6.35831 20.7742 6.29332 20.8206 6.22072 20.8517C5.7353 21.0967 5.20328 21.2354 4.66006 21.2587C4.50597 21.2587 4.36176 21.2587 4.31039 21.0611C4.33963 21.0214 4.37727 20.9885 4.42063 20.965C4.464 20.9414 4.51202 20.9277 4.56129 20.9248C5.10258 20.8122 5.54904 20.5139 6.01724 20.2354C6.24947 20.0812 6.41465 19.8447 6.47951 19.5736C6.72913 18.6936 6.92702 17.7998 7.07217 16.8967C7.14748 16.3604 7.31666 15.8414 7.57198 15.3637C7.83472 14.9015 8.26341 14.619 8.63283 14.2713C8.75334 14.1567 8.92916 14.1844 9.08522 14.1844L12.4001 14.1844C12.8209 14.1844 12.8486 14.1547 12.9039 13.7478C12.9316 13.5044 12.9771 13.2634 13.0402 13.0267C13.2555 13.0964 13.4499 13.2191 13.6055 13.3833C13.7612 13.5476 13.8731 13.7483 13.9312 13.967C14.1287 14.451 13.9964 14.8896 13.7336 15.3045C13.6151 15.4877 13.5508 15.7007 13.5479 15.9189C13.5623 16.4851 13.3643 17.0361 12.9928 17.4637C12.8003 17.6817 12.6555 17.9376 12.5678 18.2149C12.48 18.4921 12.4511 18.7847 12.4831 19.0738C12.5157 19.4359 12.5157 19.8002 12.4831 20.1623C12.4713 20.261 12.4831 20.4467 12.2856 20.2986C12.1523 20.058 12.0997 19.7811 12.1354 19.5084C12.1354 19.3108 12.1354 19.1291 11.9221 19.0382C11.8356 19.0003 11.7386 18.9934 11.6476 19.0185C11.5566 19.0437 11.477 19.0995 11.4223 19.1765C11.3314 19.4116 11.3887 19.6565 11.3867 19.8956C11.3867 20.0931 11.3452 20.184 11.1378 20.0931C10.8753 20.0098 10.5958 19.9948 10.3258 20.0497C10.4167 20.0497 10.5076 20.0378 10.5985 20.0497C10.9007 20.0497 10.9936 20.1563 11.0173 20.4566C11.0173 20.5752 11.0311 20.6917 11.043 20.8102C11.0667 21.0967 10.9679 21.2053 10.6716 21.2053C10.4845 21.1935 10.2966 21.2054 10.1125 21.2409C10.1402 21.2824 10.1698 21.2409 10.1955 21.2409C10.8889 21.1777 10.8889 21.312 10.7506 21.9343C10.7012 22.1556 10.5194 22.2069 10.3278 22.2366C10.1106 22.2684 9.89559 22.3132 9.68381 22.3709C9.80602 22.3396 9.93006 22.3158 10.0552 22.2998C10.1124 22.2948 10.1699 22.2948 10.2271 22.2998C10.5274 22.3176 10.5629 22.361 10.4977 22.6475C10.4543 22.7344 10.4957 22.8529 10.3831 22.9023Z" fill="#C8D2EB"/>
<path d="M35.6303 8.26964C35.5487 8.19129 35.4514 8.13134 35.3447 8.09385C35.238 8.05637 35.1245 8.04221 35.0119 8.05233C31.3941 8.05233 27.7763 8.05233 24.1584 8.05233C24.1465 8.03679 24.1359 8.02027 24.1268 8.00294C23.9806 7.43597 23.5915 7.32732 23.0581 7.36485C22.4437 7.41029 21.8234 7.38461 21.205 7.36485C20.8916 7.38465 20.5902 7.49288 20.3358 7.67698C20.2823 7.71221 20.2381 7.75994 20.2071 7.81603C20.1762 7.87213 20.1593 7.93492 20.158 7.99899C20.1268 8.23306 20.1396 8.47089 20.1955 8.7003C20.2054 8.72457 20.21 8.75066 20.2091 8.77685C20.2082 8.80303 20.2017 8.82873 20.1901 8.85224C20.1786 8.87575 20.1622 8.89654 20.142 8.91326C20.1218 8.92997 20.0983 8.94222 20.0731 8.94922C20.0088 8.97221 19.9405 8.98215 19.8723 8.97845C19.8042 8.97476 19.7374 8.95752 19.676 8.92772C19.6145 8.89792 19.5596 8.85617 19.5145 8.80491C19.4694 8.75365 19.435 8.69391 19.4132 8.62918C19.2157 8.18469 18.87 8.03653 18.3702 8.03653C15.478 8.05826 12.5858 8.03653 9.69368 8.03653C9.56527 8.03653 9.43686 8.03653 9.29857 8.03653C8.88174 8.06023 8.67826 8.33088 8.77704 8.73586C8.84618 9.02033 8.93113 9.30284 9.01015 9.58731C8.97863 9.65461 8.92986 9.71235 8.86879 9.75469C8.80772 9.79702 8.73653 9.82243 8.66246 9.82832L7.78532 7.08432C7.74581 6.95789 7.78532 6.89665 7.92164 6.90653C7.97102 6.90653 8.02041 6.90653 8.0698 6.90653L36.2427 6.90653C36.4066 6.90653 36.5943 6.86702 36.6239 7.10408C36.6488 7.15765 36.6577 7.21722 36.6496 7.2757C36.6416 7.33419 36.6169 7.38913 36.5785 7.43399C36.3335 7.69674 36.0807 7.95553 35.812 8.19654C35.7907 8.22348 35.7627 8.24439 35.7308 8.2572C35.699 8.27002 35.6643 8.27431 35.6303 8.26964Z" fill="#E6B097"/>
<path d="M22.0664 13.7971C22.2231 14.4003 22.208 15.0353 22.0229 15.6304C21.9763 15.8073 21.8922 15.972 21.7763 16.1135C21.6604 16.255 21.5154 16.3698 21.3512 16.4503C21.2948 16.4708 21.2459 16.5077 21.2106 16.5563C21.1754 16.6049 21.1556 16.6629 21.1537 16.7229C21.1201 17.4696 20.642 17.9082 20.0375 18.1966C18.947 18.728 17.817 18.7221 16.6791 18.3132C16.3293 18.1744 16.023 17.9445 15.7921 17.6474C15.7546 17.604 15.6973 17.5605 15.723 17.4953C15.7486 17.4301 15.8237 17.4538 15.8771 17.4479C16.1082 17.4202 16.3472 17.5111 16.5724 17.4005C16.6282 17.1832 16.6509 16.9588 16.6396 16.7347C16.6396 15.8971 16.6396 15.0595 16.6396 14.2239C16.6396 13.7181 16.7068 13.6549 17.1967 13.6549C18.6652 13.6549 20.1323 13.6549 21.5982 13.6549C21.774 13.6549 21.9498 13.6371 22.0664 13.7971Z" fill="#F1B641"/>
<path d="M23.6586 28.7617C23.5611 28.7252 23.4732 28.6669 23.4016 28.5912C23.3301 28.5155 23.2768 28.4245 23.2457 28.3251C23.1671 28.0844 23.0186 27.8726 22.819 27.7167C22.6899 27.6004 22.5942 27.4517 22.5418 27.286C22.4893 27.1204 22.4821 26.9437 22.5207 26.7743C22.5374 26.7041 22.539 26.6312 22.5253 26.5604C22.5117 26.4896 22.4832 26.4224 22.4417 26.3634C22.2979 26.1721 22.2163 25.9413 22.2078 25.7022C22.1993 25.463 22.2644 25.227 22.3943 25.026C22.4921 24.8685 22.5345 24.6829 22.5148 24.4985C22.4971 24.3211 22.527 24.1421 22.6013 23.98C22.6755 23.8179 22.7916 23.6784 22.9376 23.576C23.0777 23.4686 23.1852 23.3242 23.2477 23.1591C23.2932 23.0406 23.3425 22.8707 23.4334 22.8332C24.0913 22.5704 24.5437 21.8652 25.3556 21.9343C25.4539 21.9287 25.5482 21.8936 25.6262 21.8336C25.792 21.7346 25.982 21.6838 26.175 21.6869C26.368 21.6901 26.5563 21.747 26.7187 21.8513C26.7692 21.8879 26.8265 21.9141 26.8872 21.9283C26.9479 21.9426 27.0108 21.9446 27.0723 21.9343C27.2092 21.912 27.3496 21.9252 27.48 21.9726C27.6103 22.02 27.7264 22.1 27.8171 22.205C27.9496 22.3613 28.1328 22.4662 28.3347 22.5013C28.791 22.5862 28.9767 22.9458 29.0577 23.3705C29.2374 23.6194 29.3291 23.9211 29.3185 24.2279C29.3061 24.6206 29.3372 25.0135 29.4113 25.3994C29.5358 25.9525 29.0656 27.1418 28.6508 27.4243C28.55 27.4914 28.4354 27.6436 28.309 27.446C28.2873 27.2643 28.4058 27.1319 28.471 26.9818C28.5671 26.8093 28.62 26.6161 28.6251 26.4187C28.625 26.344 28.5998 26.2715 28.5536 26.2127C28.5074 26.154 28.4428 26.1124 28.3702 26.0948C28.2023 26.0434 28.1114 26.154 28.0384 26.2765C27.9653 26.399 27.9435 26.557 27.8744 26.6874C27.7855 26.8553 27.7262 27.0628 27.4793 27.0687C27.1612 26.8099 26.8116 26.5768 26.7207 26.1323C26.8491 25.7846 26.9617 25.431 27.0684 25.0774C27.1612 24.7692 27.3588 24.7139 27.6255 24.8936C27.8211 25.0535 27.9772 25.2563 28.0818 25.4863C28.1344 25.5467 28.2088 25.5839 28.2887 25.5898C28.3686 25.5957 28.4476 25.5699 28.5085 25.5179C28.5729 25.4623 28.6141 25.3846 28.624 25.3001C28.6339 25.2156 28.6117 25.1305 28.5619 25.0616C28.3776 24.6773 28.0604 24.3727 27.6689 24.2042C27.4259 24.1212 27.4042 23.973 27.4911 23.7439C27.5781 23.5147 27.7736 23.2283 27.5326 22.9537C27.2363 22.8272 27.1375 22.8371 26.9538 23.092C26.8293 23.2717 26.7187 23.2895 26.5133 23.2243C25.9206 23.0426 25.4623 23.1374 25.1166 23.5503C24.9052 23.8031 24.8953 23.7952 24.7215 23.5345C24.5239 23.2441 24.3639 23.2125 24.0261 23.4041C23.8285 23.6273 23.8443 23.7538 24.0518 24.0185C24.2521 24.2193 24.4212 24.4491 24.5535 24.7C24.5343 24.8954 24.4664 25.0829 24.356 25.2453C24.2469 25.4753 24.1628 25.7164 24.1051 25.9644C24.025 26.3009 24.0806 26.6554 24.2599 26.9511C24.4393 27.2469 24.7278 27.4602 25.0632 27.5448C25.2786 27.604 25.4129 27.6949 25.4129 27.9399C25.4038 28.0242 25.4278 28.1088 25.4797 28.1758C25.5316 28.2428 25.6075 28.2871 25.6914 28.2994C25.7705 28.301 25.8477 28.2748 25.9094 28.2253C25.9711 28.1759 26.0135 28.1063 26.0292 28.0288C26.1201 27.7897 26.1794 27.5408 26.2624 27.2998C26.3137 27.1517 26.3335 26.96 26.5508 26.9363C26.8523 27.1221 27.0768 27.4104 27.183 27.7483C27.0845 27.8456 27.0133 27.9671 26.9765 28.1005C26.9398 28.234 26.9388 28.3748 26.9735 28.5088C26.9575 28.5611 26.9281 28.6083 26.8883 28.6457C26.8484 28.6831 26.7995 28.7095 26.7464 28.7222C26.0303 28.9999 25.2571 29.0982 24.4943 29.0086C24.2078 28.977 23.949 28.817 23.6586 28.7617Z" fill="#F5DBD5"/>
<path d="M35.6303 8.26964C36.0254 8.03258 36.2585 7.6434 36.5923 7.35103C36.6615 7.29176 36.622 7.20286 36.6319 7.12977C37.104 8.46324 37.4754 9.82635 37.9001 11.1756C38.3802 12.7027 38.8365 14.2377 39.3008 15.7707L41.5628 23.2777C41.6892 23.7004 41.8038 24.1271 41.9401 24.5459C41.9708 24.6176 41.9757 24.6976 41.9541 24.7725C41.9325 24.8474 41.8857 24.9125 41.8215 24.9568C41.6203 25.1141 41.4113 25.2612 41.1953 25.3974C41.0096 25.5297 40.9345 25.4823 40.8733 25.2729C40.6501 24.4985 40.415 23.7281 40.1819 22.9556L39.2079 19.7691C38.6811 18.0504 38.1543 16.3311 37.6275 14.6111C37.1198 12.9477 36.6141 11.2843 36.0985 9.62485C35.9681 9.1685 35.891 8.68648 35.6303 8.26964Z" fill="#A0623C"/>
<path d="M19.9446 31.5235C19.914 31.5409 19.888 31.5655 19.8687 31.595C19.8495 31.6246 19.8376 31.6583 19.834 31.6934C19.7017 32.0272 19.3974 32.1774 19.1189 32.3532L18.8384 32.533C18.6519 32.6945 18.4228 32.7988 18.1785 32.8332C17.7575 32.9209 17.3312 32.9809 16.9023 33.013C15.5422 33.0356 14.2279 32.5218 13.2437 31.5827C13.0998 31.4453 12.9127 31.3622 12.7142 31.3477C11.7931 31.2515 10.9209 30.8851 10.2073 30.2947C11.1476 30.5278 12.1419 30.3794 12.973 29.8818C13.0764 29.8306 13.1919 29.8087 13.3069 29.8186C16.631 29.8186 19.9572 29.8186 23.2852 29.8186C23.5065 29.8186 23.7416 29.787 23.9115 29.9865C23.6962 29.9865 23.4808 29.9865 23.2655 29.9865C23.1904 29.9865 23.1134 29.9865 23.0363 29.9865C22.4908 29.9338 21.9412 29.9385 21.3967 30.0004C21.2108 30.0165 21.0241 30.0218 20.8376 30.0162C20.5037 30.0162 20.4701 30.0399 20.4267 30.3797C20.3932 30.683 20.3027 30.9772 20.16 31.2469C20.1192 31.3595 20.0438 31.4563 19.9446 31.5235Z" fill="#BF792A"/>
<path d="M32.0743 43.0565C31.9459 42.9479 31.9874 42.859 32.104 42.774C32.2205 42.6891 32.2324 42.5469 32.0803 42.4797C31.9281 42.4125 31.9538 42.3335 32.0407 42.2387C32.0734 42.212 32.0997 42.1784 32.1178 42.1403C32.1358 42.1022 32.1452 42.0606 32.1452 42.0184C32.1452 41.9763 32.1358 41.9346 32.1178 41.8965C32.0997 41.8584 32.0734 41.8248 32.0407 41.7981C31.9696 41.725 31.9439 41.646 32.017 41.5631C32.0458 41.536 32.0629 41.4988 32.0648 41.4594C32.0666 41.4199 32.053 41.3813 32.0269 41.3517C31.9538 41.2489 31.8886 41.3398 31.8294 41.3517C31.7701 41.3635 31.6832 41.4761 31.6318 41.3833C31.4343 41.0771 31.4145 41.2154 31.3869 41.4623C31.3592 41.7092 31.0846 41.6124 30.9345 41.6737C30.7545 41.726 30.5633 41.726 30.3833 41.6737C30.1112 41.6381 29.8356 41.6381 29.5634 41.6737C28.07 41.7389 26.5745 41.729 25.079 41.6737C24.8824 41.6506 24.6841 41.6447 24.4864 41.6559C23.7396 41.7626 22.9929 41.6994 22.2461 41.7013C21.3295 41.7013 20.4089 41.6401 19.4923 41.6599C19.0122 41.6599 18.5262 41.7507 18.0521 41.6954C17.3982 41.6203 16.7483 41.7092 16.0924 41.6717C15.0217 41.6124 13.943 41.6717 12.8664 41.6895C12.1572 41.6895 11.446 41.7349 10.7308 41.6737C9.89518 41.6006 9.04768 41.6737 8.20611 41.6421C7.70433 41.6282 7.26774 41.4742 7.08204 40.9289C7.03463 40.7887 6.98722 40.6207 6.80547 40.5694C6.73633 40.5496 6.7383 40.4805 6.7383 40.4212C6.7383 40.1585 6.7383 39.8957 6.76398 39.631C6.82413 39.7048 6.86791 39.7905 6.89243 39.8824C6.91695 39.9744 6.92165 40.0705 6.90622 40.1644C6.89239 40.2553 6.79559 40.3896 6.92993 40.4153C7.06426 40.441 7.00302 40.2513 7.06031 40.1565C7.14131 40.3244 7.02673 40.5042 7.14526 40.6425C7.14176 40.7632 7.16553 40.8832 7.21478 40.9935C7.26404 41.1039 7.33752 41.2016 7.42977 41.2797C7.52202 41.3577 7.63066 41.4139 7.74762 41.4441C7.86458 41.4744 7.98686 41.4779 8.10536 41.4544C8.34967 41.4426 8.59448 41.4465 8.83828 41.4663C9.09122 41.4307 9.34789 41.4307 9.60083 41.4663C10.4464 41.4663 11.2919 41.4485 12.1354 41.4485C15.2159 41.4485 18.2951 41.4485 21.3729 41.4485C21.45 41.4485 21.529 41.4603 21.6061 41.4663C21.898 41.4307 22.1932 41.4307 22.4852 41.4663C23.5263 41.4663 24.5693 41.4465 25.6104 41.4485C27.3133 41.4485 29.0143 41.4623 30.7152 41.4682C30.9016 41.4534 31.0773 41.3747 31.2126 41.2456C31.3478 41.1164 31.4345 40.9446 31.458 40.759C31.4807 40.4644 31.4807 40.1686 31.458 39.874V30.2236V29.8087C31.4481 29.1845 31.2822 28.9889 30.6678 28.8763C30.565 28.8229 30.5927 28.7479 30.6421 28.6787C30.8684 28.3379 31.1172 28.0125 31.3869 27.7048C31.7168 27.606 32.0526 27.6692 32.3845 27.6712C32.5959 27.6712 32.5346 27.8411 32.5346 27.9557C32.5346 28.7242 32.5346 29.4926 32.5346 30.2591V41.7784C32.5547 42.2483 32.3894 42.7073 32.0743 43.0565Z" fill="#E7B393"/>
<path d="M25.9344 20.83C25.8234 20.88 25.7024 20.9036 25.5808 20.8991C25.1284 21.0038 24.6819 21.1204 24.1979 21.0434C23.9084 21.0128 23.6339 20.8989 23.4077 20.7154C23.222 20.5179 23.0265 20.3203 22.8566 20.107C22.6901 19.9137 22.5829 19.6765 22.5479 19.4239C22.5128 19.1713 22.5514 18.9139 22.659 18.6826C22.7578 18.732 22.7578 18.8466 22.8131 18.9236C22.9652 19.1212 23.1549 19.1093 23.2635 18.8762C23.2925 18.8244 23.3068 18.7657 23.305 18.7063C23.2694 18.3606 23.465 18.169 23.7376 18.0109C24.0636 17.8134 24.0596 17.8134 23.9589 17.438C23.9501 17.4097 23.9501 17.3794 23.9589 17.3511C24.2875 17.2141 24.6556 17.2056 24.9901 17.3274C25.1442 17.3748 25.1541 17.4756 25.1264 17.602C25.0648 17.7989 25.0342 18.0042 25.0356 18.2105C25.0553 18.4218 25.1521 18.572 25.3813 18.572C25.4289 18.5777 25.4772 18.5731 25.5229 18.5584C25.5685 18.5436 25.6104 18.5192 25.6457 18.4867C25.681 18.4542 25.7089 18.4145 25.7273 18.3702C25.7458 18.3259 25.7544 18.2782 25.7527 18.2302C25.7453 18.113 25.7642 17.9955 25.808 17.8865C25.889 18.084 26.051 18.005 26.1893 17.9912C26.3275 17.9774 26.4046 17.9457 26.4243 17.8154C26.456 17.6178 26.2821 17.5645 26.1695 17.4677C26.3284 17.3657 26.5091 17.3027 26.697 17.2839C26.9078 17.2398 27.1257 17.2432 27.3351 17.2938L27.7045 17.4064C28.2971 17.8272 28.5401 19.052 28.0028 19.8126C27.7506 20.1996 27.3908 20.5045 26.9676 20.6897C26.7785 20.7631 26.5778 20.8019 26.375 20.8043C26.2277 20.7874 26.0787 20.796 25.9344 20.83Z" fill="#EA5556"/>
<path d="M13.0402 13.0346C13.1093 13.4297 12.9849 13.8248 12.8822 14.2002C12.8506 14.3147 12.6846 14.2713 12.5858 14.2713C11.4736 14.2713 10.3614 14.2891 9.24919 14.2713C9.07705 14.2668 8.90577 14.297 8.74557 14.3601C8.58537 14.4232 8.43953 14.518 8.31674 14.6387C7.8546 15.0077 7.51112 15.5044 7.32898 16.067C7.19738 16.5679 7.09384 17.0757 7.01883 17.5882C6.88649 18.3289 6.71036 19.0611 6.49136 19.781C6.37481 20.1504 6.07058 20.346 5.76042 20.51C5.29815 20.7569 4.83785 21.0275 4.29656 21.0769C4.14642 20.7312 4.17408 20.6818 4.52177 20.591C4.93872 20.51 5.33266 20.338 5.67547 20.0872C5.87015 19.9513 6.02995 19.7712 6.14187 19.5618C6.25379 19.3524 6.31465 19.1195 6.31949 18.8821C6.33332 18.1453 6.33925 17.4064 6.33925 16.6696C6.33643 16.1861 6.43327 15.7073 6.62372 15.263C6.80547 14.8402 6.96154 14.4036 7.13143 13.9749C7.4001 13.2993 7.86435 12.9497 8.62295 12.9635C9.97025 12.9892 11.3195 12.9734 12.6668 12.9773C12.7942 12.9574 12.9247 12.9774 13.0402 13.0346Z" fill="#FDFEFE"/>
<path d="M12.2619 20.3065C12.3685 20.344 12.3962 20.3065 12.3962 20.1958C12.4169 19.8254 12.4169 19.4541 12.3962 19.0836C12.359 18.761 12.3939 18.4341 12.4985 18.1267C12.603 17.8192 12.7746 17.5388 13.0007 17.3057C13.2953 16.9593 13.4539 16.5177 13.4472 16.0631C13.4487 15.7493 13.5391 15.4425 13.7079 15.178C13.8222 15.0016 13.9004 14.8043 13.9381 14.5974C13.9757 14.3906 13.972 14.1784 13.9272 13.973C14.271 14.9864 14.6641 15.988 14.6838 17.0804C14.6838 17.523 14.7154 17.9675 14.7154 18.41C14.7154 18.9098 14.8004 19.3721 15.233 19.7415C14.9869 19.7921 14.735 19.8088 14.4843 19.7909C14.3855 19.7854 14.2873 19.8084 14.2011 19.857C14.115 19.9057 14.0446 19.978 13.9983 20.0655C13.86 20.3401 13.9568 20.5277 14.2571 20.5732C14.3243 20.585 14.3934 20.587 14.4547 20.5929C14.4646 20.8932 14.1998 21.0019 14.0398 21.1856C13.9129 21.0633 13.7632 20.9672 13.5991 20.9028C13.435 20.8383 13.2599 20.8069 13.0837 20.8102C12.9127 20.8147 12.744 20.7695 12.5982 20.68C12.4523 20.5906 12.3355 20.4609 12.2619 20.3065Z" fill="#AABBD8"/>
<path d="M11.2741 24.9825C11.1714 25.2275 11.2741 25.4488 11.3669 25.6621C11.4213 25.7591 11.4426 25.8711 11.4276 25.9812C11.4127 26.0914 11.3622 26.1936 11.284 26.2725C11.041 26.561 11.1082 26.9008 11.284 27.2109C11.336 27.3195 11.422 27.4082 11.5289 27.4634C11.6359 27.5187 11.758 27.5375 11.8766 27.5171C12.1493 27.4855 12.4278 27.1833 12.5187 26.8198C12.5906 26.4933 12.5818 26.1543 12.493 25.832C12.4673 25.7194 12.3745 25.5851 12.5463 25.4962C12.6098 25.4575 12.6836 25.4393 12.7578 25.4439C12.832 25.4485 12.903 25.4757 12.9612 25.5219C13.2549 25.726 13.4564 26.0375 13.5222 26.3891C13.4926 26.9055 13.3351 27.4065 13.0639 27.847C12.6866 28.5365 12.0031 28.7617 11.363 29.0798C11.1388 29.2016 10.8889 29.2687 10.6338 29.2756C10.3787 29.2825 10.1256 29.2289 9.89519 29.1193C9.6044 28.9748 9.36307 28.7472 9.20178 28.4654C9.29858 28.3824 9.39933 28.4377 9.51391 28.4417C9.69368 28.4417 9.78851 28.4002 9.69566 28.2026C9.29068 27.3433 9.44477 26.5175 9.84975 25.7115C10.1085 25.1919 10.557 24.8502 11.0193 24.5262C11.0506 24.5021 11.0867 24.4848 11.1252 24.4756C11.1636 24.4665 11.2036 24.4655 11.2425 24.4729C11.3156 24.6309 11.2346 24.8126 11.2741 24.9825Z" fill="#C8D1EB"/>
<path d="M32.4833 23.1414C31.8076 22.5724 31.5133 21.8158 31.4224 20.9683C31.411 20.9525 31.4036 20.9342 31.4007 20.9149C31.3612 20.3401 31.3612 20.3401 31.9281 20.3401H35.0534C35.4485 20.3401 35.5414 20.4428 35.4485 20.834C35.3498 21.307 35.1474 21.7524 34.8559 22.1378C34.4497 22.6599 33.9155 23.0682 33.3051 23.3231C32.9534 23.4594 32.7302 23.331 32.4833 23.1414Z" fill="#FEFEFE"/>
<path d="M30.5196 31.4425C30.2075 31.4267 29.9862 31.6519 29.7156 31.7467C27.906 32.369 26.2782 32.0845 24.8321 30.8241C24.6503 30.6661 24.4231 30.5476 24.3343 30.3006C24.761 30.4488 25.2153 30.4804 25.646 30.6049C26.2268 30.7708 26.774 30.6167 27.3311 30.5061C27.7868 30.4181 28.2164 30.2276 28.5875 29.949C28.6749 29.8697 28.7877 29.8242 28.9056 29.8206C29.358 29.8206 29.8104 29.8206 30.2648 29.8206C30.4623 29.8206 30.5275 29.8996 30.5255 30.0853C30.5196 30.5377 30.5216 30.9901 30.5196 31.4425Z" fill="#C3762A"/>
<path d="M28.3525 27.3966C28.3683 27.5072 28.4078 27.5171 28.5066 27.4559C28.7743 27.2878 28.9717 27.028 29.0617 26.7249L29.3086 25.9742C29.3396 25.9026 29.3551 25.8251 29.354 25.7471C29.2355 25.103 29.2671 24.4472 29.1822 23.8012C29.1624 23.653 29.0399 23.5384 29.0617 23.3824C29.5338 23.6293 29.8341 23.975 29.7748 24.5558C29.776 24.6756 29.8234 24.7902 29.9072 24.8759C30.2292 25.352 30.2904 25.836 29.9507 26.3298C29.8735 26.4686 29.8449 26.6293 29.8697 26.7862C29.8799 26.9525 29.8526 27.1189 29.7897 27.2732C29.7267 27.4274 29.6298 27.5655 29.5062 27.6771C29.3823 27.7881 29.2965 27.9354 29.2612 28.0979C29.1486 28.5661 28.8029 28.819 28.3663 28.9513C28.1932 28.9954 28.0389 29.0937 27.9258 29.2319C27.8452 29.3584 27.7206 29.4506 27.5761 29.4907C27.0644 29.5578 26.5745 29.8107 26.0549 29.7435C25.6598 29.6941 25.2825 29.5578 24.8835 29.5183C24.8144 29.5112 24.7504 29.4788 24.7037 29.4274C24.4225 29.1136 24.0602 28.8832 23.6567 28.7617C23.9945 28.7617 24.2888 28.9395 24.6227 28.9593C25.3735 29.0029 26.125 28.8864 26.8274 28.6175C26.859 28.6035 26.8858 28.5805 26.9045 28.5513C26.9231 28.5221 26.9327 28.4881 26.9321 28.4535C27.1731 28.4713 27.4338 28.576 27.6235 28.3192C27.6721 28.296 27.7261 28.2865 27.7797 28.2917C27.8333 28.297 27.8845 28.3167 27.9277 28.3488C27.9769 28.3827 28.0373 28.3959 28.0961 28.3855C28.1549 28.3752 28.2072 28.3421 28.2418 28.2935C28.2863 28.2465 28.3111 28.1843 28.3111 28.1197C28.3111 28.055 28.2863 27.9928 28.2418 27.9458C28.1789 27.8838 28.1268 27.8117 28.0877 27.7325C28.0956 27.5606 28.147 27.4164 28.3525 27.3966Z" fill="#B9B7C9"/>
<path d="M32.9613 19.3543C32.7243 19.3701 32.5662 19.38 32.4003 19.3898C32.3666 19.3966 32.3316 19.3904 32.3023 19.3724C32.273 19.3545 32.2515 19.3261 32.2422 19.293C32.1889 19.1554 32.1228 19.0231 32.0447 18.8979C32.0008 18.8414 31.977 18.7719 31.977 18.7004C31.977 18.6288 32.0008 18.5593 32.0447 18.5028L32.2541 18.1828C32.5643 17.7146 32.5603 17.361 32.2245 16.9106C32.0842 16.7229 31.9202 16.551 31.7701 16.3673C31.211 15.6818 31.2091 15.0852 31.7602 14.3918C32.4596 13.5225 32.4675 13.4337 31.778 12.5447C31.5835 12.3254 31.4673 12.0477 31.4477 11.7552C31.428 11.4628 31.506 11.1721 31.6693 10.9287C31.7869 10.7135 31.9316 10.5143 32.1 10.336C32.1275 10.2976 32.1631 10.2656 32.2041 10.2422C32.2452 10.2187 32.2909 10.2045 32.3379 10.2004C32.385 10.1962 32.4325 10.2023 32.477 10.2182C32.5215 10.2342 32.5621 10.2595 32.5959 10.2926C32.7717 10.4506 32.7164 10.6008 32.5801 10.7509C32.4951 10.8457 32.4181 10.9484 32.343 11.0512C32.2013 11.2126 32.1232 11.4201 32.1232 11.6349C32.1232 11.8498 32.2013 12.0572 32.343 12.2187C32.4102 12.3135 32.4852 12.4064 32.5564 12.5012C33.0996 13.242 33.0917 13.8505 32.5267 14.5735C32.4912 14.619 32.4477 14.6604 32.4102 14.7079C31.9518 15.263 31.9459 15.5534 32.4102 16.1125C32.7282 16.5076 33.0542 16.877 33.149 17.3985C33.1847 17.5622 33.1855 17.7316 33.1515 17.8956C33.1174 18.0597 33.0493 18.2147 32.9515 18.3507C32.7361 18.6747 32.5801 18.9809 32.9613 19.3543Z" fill="#F8FAFB"/>
<path d="M20.2528 11.5628C20.8756 11.8201 21.3877 12.2888 21.6989 12.8864C21.8214 13.1018 21.7424 13.1373 21.5251 13.1373C19.9209 13.1373 18.3188 13.1373 16.7147 13.1373C16.5744 12.6612 16.9122 11.952 17.3231 11.6991C17.9158 11.3297 18.548 11.3436 19.1959 11.3495C19.5634 11.3594 19.8992 11.4976 20.2528 11.5628Z" fill="#F1B03E"/>
<path d="M24.917 16.4503C24.4488 16.3238 23.9293 16.4246 23.4235 16.5886C22.7242 16.8138 22.3153 17.3432 21.9814 17.9418C21.7344 18.4028 21.6292 18.9265 21.6792 19.4471C21.695 19.6842 21.6179 19.7928 21.3828 19.7988C21.2959 19.7988 21.209 19.8264 21.1201 19.8264C20.0665 19.8264 19.0129 19.8264 17.9592 19.8264C17.8486 19.8264 17.6847 19.8719 17.6787 19.7C17.6728 19.5281 17.8071 19.4886 17.9454 19.4748C18.4986 19.4195 19.0557 19.3898 19.6068 19.3009C19.7432 19.2733 19.8759 19.2296 20.0019 19.1706C20.6637 18.896 21.3038 18.5325 21.6752 17.928C21.9615 17.4239 22.274 16.9353 22.6116 16.4641C22.8652 16.088 23.0133 15.6506 23.0403 15.1978C23.0428 15.1587 23.0474 15.1198 23.0541 15.0812C23.141 14.6723 23.2003 14.6367 23.546 14.856C24.0992 15.2037 24.68 15.506 25.2015 15.905C25.2639 15.9442 25.3105 16.004 25.3333 16.0741C25.356 16.1441 25.3534 16.2199 25.326 16.2883C25.2746 16.4483 25.1324 16.474 24.917 16.4503Z" fill="#4D2D14"/>
<path d="M11.2682 24.4946C10.4207 24.9114 9.83394 25.5574 9.62651 26.4839C9.506 27.0272 9.44279 27.5902 9.73714 28.1197C9.79641 28.2263 9.91494 28.3508 9.82011 28.4693C9.72529 28.5879 9.5791 28.5128 9.45464 28.5128C9.36751 28.5045 9.28146 28.4872 9.19782 28.4614C8.5222 27.6969 8.46688 26.2607 9.07732 25.2848C9.50342 24.6576 10.0601 24.13 10.7091 23.738C10.9797 23.5602 11.2504 23.3824 11.5151 23.1967C11.8695 22.9524 12.1812 22.6514 12.4377 22.3057C12.5918 22.2385 12.6214 22.3571 12.655 22.4559C12.7182 22.6534 12.7557 22.851 12.8051 23.0485C12.8328 23.1771 12.8199 23.3112 12.7683 23.4322C12.7166 23.5532 12.6287 23.6552 12.5167 23.7241C12.1868 23.975 11.8371 24.1943 11.4914 24.4215C11.461 24.448 11.4255 24.4681 11.3872 24.4806C11.3488 24.4932 11.3084 24.4979 11.2682 24.4946Z" fill="#FBFDFD"/>
<path d="M20.075 8.96306C20.1067 8.93514 20.1285 8.89784 20.1374 8.8566C20.1463 8.81537 20.1417 8.77237 20.1244 8.7339C20.0177 8.4514 20.0731 8.15508 20.0849 7.8627C20.0902 7.81795 20.1068 7.77528 20.133 7.73866C20.1593 7.70204 20.1944 7.67267 20.235 7.65329C20.5334 7.48142 20.8139 7.28585 21.1952 7.29573C21.9715 7.31746 22.7499 7.31153 23.5263 7.29573C23.789 7.29573 23.9668 7.34906 24.0261 7.62564C24.0577 7.77183 24.2236 7.88048 24.1604 8.05828C24.0199 8.10273 23.8909 8.17766 23.7826 8.27771C23.6744 8.37777 23.5895 8.50048 23.5342 8.6371C23.4872 8.74979 23.4056 8.8446 23.3012 8.90783C23.1968 8.97105 23.075 8.99939 22.9534 8.98875C21.9992 8.97294 21.0351 9.01443 20.075 8.96306Z" fill="#C4BEC0"/>
<path d="M34.4805 19.0737C34.4384 19.0038 34.4231 18.9209 34.4377 18.8405C34.4522 18.7602 34.4955 18.6879 34.5595 18.6372C34.9704 18.2421 34.9704 17.7106 34.5595 17.278C34.2751 16.9797 33.9491 16.7229 33.6666 16.4226C33.0522 15.7727 33.0226 15.2215 33.5323 14.5004C33.6262 14.3743 33.712 14.2424 33.7891 14.1053C33.8507 13.9978 33.8813 13.8754 33.8774 13.7516C33.8736 13.6278 33.8355 13.5075 33.7674 13.404C33.6785 13.2618 33.5817 13.1255 33.4888 12.9872C33.3205 12.7418 33.2303 12.4511 33.2303 12.1535C33.2303 11.8559 33.3205 11.5653 33.4888 11.3198C33.5503 11.2192 33.6367 11.1362 33.7397 11.0788C33.7967 11.0481 33.8623 11.0374 33.9261 11.0485C33.9899 11.0596 34.0481 11.0919 34.0913 11.1401C34.1335 11.1765 34.1603 11.2276 34.1661 11.283C34.172 11.3384 34.1566 11.3939 34.1229 11.4384C33.712 12.0172 33.8997 12.5289 34.2889 13.0188C34.3964 13.135 34.4731 13.2763 34.5121 13.4297C34.547 13.5809 34.5499 13.7377 34.5207 13.8902C34.4914 14.0426 34.4306 14.1872 34.3422 14.3147C34.1684 14.5775 33.9471 14.8244 33.9175 15.1622C33.8717 15.3235 33.8728 15.4944 33.9208 15.655C33.9687 15.8156 34.0615 15.9592 34.1881 16.069C34.4037 16.2961 34.6347 16.508 34.8796 16.7031C35.5177 17.2108 35.8081 18.2381 35.1937 18.9473C35.1746 18.9811 35.1613 19.0178 35.1542 19.056C35.1206 19.1686 35.1245 19.3069 34.9744 19.3523H34.9527H34.929C34.6188 19.4945 34.5892 19.2298 34.4805 19.0737Z" fill="#F7FAFB"/>
<path d="M18.7771 28.8605C17.2441 28.8605 15.7111 28.8605 14.1781 28.8605C13.9944 28.8605 13.9687 28.8012 14.0635 28.6629C14.2315 28.4102 14.3501 28.128 14.4132 27.8312C14.4468 27.6712 14.5574 27.6337 14.6996 27.6337C15.1132 27.6337 15.5261 27.6337 15.9383 27.6337C17.3633 27.6337 18.7883 27.6277 20.2133 27.6159C20.32 27.6159 20.4287 27.6277 20.5353 27.6337C20.4978 27.7937 20.3595 27.7601 20.2548 27.766C19.9427 27.7779 19.6286 27.766 19.3164 27.766C18.945 27.766 18.9371 27.7799 18.9213 28.1414C18.9471 28.3901 18.8968 28.6409 18.7771 28.8605Z" fill="#A76743"/>
<path d="M26.6357 14.8047C26.616 14.6664 26.7128 14.5676 26.7582 14.451C26.8925 14.1093 26.8333 13.8742 26.5804 13.7715C26.3275 13.6687 26.1063 13.7971 25.9878 14.133C25.9226 14.3088 25.8712 14.4886 25.8218 14.6684C25.7724 14.8481 25.7132 14.8659 25.5472 14.8126C25.0271 14.6308 24.5278 14.3944 24.0577 14.1073C23.8601 13.9927 23.8423 13.8663 24.0359 13.73C24.2132 13.728 24.3876 13.7752 24.5397 13.8663C24.5667 13.8837 24.597 13.8953 24.6287 13.9003C24.6604 13.9053 24.6928 13.9037 24.7238 13.8955C24.7548 13.8873 24.7838 13.8728 24.8089 13.8528C24.834 13.8328 24.8547 13.8078 24.8696 13.7794C25.3082 13.08 26.0075 12.9042 26.7622 12.8351C27.3114 12.7837 27.8033 13.001 28.307 13.1512C28.7235 13.2601 29.1321 13.3974 29.5299 13.5621L29.4765 13.6865C29.1762 13.9789 28.7811 14.1132 28.4157 14.291C27.8783 14.5518 27.2758 14.6308 26.7286 14.8659C26.6812 14.8837 26.6199 14.8857 26.6357 14.8047Z" fill="#ACBF76"/>
<path d="M32.4833 23.1413C33.0483 23.5365 33.4987 23.1532 33.9333 22.8885C34.4559 22.5674 34.8692 22.0956 35.1186 21.5353C35.2812 21.2305 35.3724 20.8927 35.3853 20.5475C35.3853 20.4112 35.3359 20.3499 35.1878 20.3499C34.0024 20.3499 32.8112 20.3499 31.614 20.3499C31.454 20.3499 31.4066 20.4191 31.4165 20.5633C31.4264 20.7075 31.4165 20.8201 31.4165 20.9465C31.401 20.922 31.3891 20.8954 31.3809 20.8675C31.2881 20.2946 31.2901 20.2946 31.861 20.2946C33.2083 20.2946 34.5556 20.3085 35.9009 20.2946C36.219 20.2946 36.2703 20.3934 36.2624 20.6779C36.2229 22.1694 35.5019 23.1967 34.1743 23.8387C34.0839 23.8898 33.9818 23.9166 33.878 23.9166C33.7741 23.9166 33.6721 23.8898 33.5817 23.8387C33.1837 23.6606 32.8137 23.4257 32.4833 23.1413Z" fill="#D0DCED"/>
<path d="M17.9415 22.4302V26.1362L15.5471 22.4875C15.5665 22.4648 15.5904 22.4465 15.6173 22.4335C15.6442 22.4206 15.6734 22.4134 15.7032 22.4124C16.4491 22.3788 17.1962 22.3847 17.9415 22.4302Z" fill="#8AD3E0"/>
<path d="M5.50953 14.5143C5.55876 14.5126 5.60798 14.5179 5.65572 14.5301C5.78808 14.5834 6.03106 14.4372 6.05082 14.6861C6.055 14.8226 6.00941 14.956 5.92254 15.0614C5.83568 15.1668 5.71347 15.237 5.57867 15.259C4.98601 15.2926 4.76081 15.5139 4.75686 16.1263C4.75686 16.8948 4.75686 17.6613 4.75686 18.4297C4.7437 18.9057 4.54689 19.358 4.20766 19.6921C4.09315 19.8164 3.94371 19.9032 3.77897 19.941C3.69407 19.9709 3.6012 19.969 3.51762 19.9355C3.43405 19.9021 3.36545 19.8395 3.3246 19.7593C3.2199 19.5736 3.34436 19.4649 3.47474 19.3642C3.73236 19.1796 3.93596 18.9295 4.06447 18.6399C4.19298 18.3502 4.24174 18.0314 4.20569 17.7166C4.15827 17.0587 4.11679 16.3989 4.11679 15.7411C4.11876 14.9508 4.71339 14.4372 5.50953 14.5143Z" fill="#F7F9FA"/>
<path d="M20.8672 22.4934C20.2489 23.4969 19.6266 24.5005 19.0102 25.5041C18.8911 25.721 18.7543 25.9278 18.6013 26.1224V22.4262C19.2275 22.3887 19.8557 22.3986 20.482 22.4025C20.6163 22.4025 20.7605 22.3788 20.8672 22.4934Z" fill="#88D3DF"/>
<path d="M33.7318 27.687C33.6122 27.855 33.5517 28.0579 33.5599 28.2639C33.5421 28.7815 33.5599 29.301 33.5599 29.8443C33.7575 29.7673 33.6014 29.5124 33.7911 29.465C33.9353 29.623 33.8879 29.8186 33.8879 30.0004C33.8879 33.3943 33.8879 36.7863 33.8879 40.1802C33.8879 41.0435 34.0123 41.3517 35.0337 41.3161C36.055 41.2806 37.0605 41.3161 38.072 41.3161C38.2261 41.3161 38.392 41.2845 38.5224 41.407C38.5046 41.5394 38.4019 41.4623 38.3486 41.4623C37.0526 41.4623 35.7567 41.4623 34.4608 41.4623C34.3584 41.4708 34.2556 41.4524 34.1624 41.4091C34.0692 41.3658 33.9889 41.2991 33.9293 41.2154C33.878 41.1462 33.8187 41.0277 33.6982 41.0791C33.5777 41.1304 33.5619 41.2332 33.5599 41.3497C33.588 41.7511 33.5674 42.1544 33.4987 42.5508C33.4651 42.6872 33.5145 42.8728 33.3169 42.9361C33.5145 42.3434 33.4987 41.7389 33.4987 41.1285V28.0229C33.4908 27.8609 33.4216 27.6337 33.7318 27.687Z" fill="#956B48"/>
<path d="M29.8282 19.0026C29.8282 18.5285 29.8282 18.5285 30.3102 18.5305C30.5078 18.5305 30.7053 18.5305 30.9029 18.5305C31.1419 18.5107 31.3394 18.5305 31.373 18.8288C31.3831 18.8957 31.3983 18.9618 31.4185 19.0264C31.5548 19.3602 31.5449 19.38 31.1834 19.4116C30.5236 19.4708 30.2608 19.8067 30.3932 20.4744C30.4682 20.8695 30.4524 21.2942 30.5907 21.6874C30.6441 21.8415 30.5137 21.8849 30.411 21.8849C29.9408 21.8849 29.4686 21.9481 29.0044 21.8375C28.7495 21.7782 28.7318 21.7052 28.9096 21.5096C29.5378 20.7984 29.9013 19.9845 29.8282 19.0026Z" fill="#6E3D18"/>
<path d="M18.7771 28.8605C18.7988 28.5385 18.8324 28.2145 18.8364 27.8905C18.8364 27.7127 18.9154 27.6752 19.0695 27.6771C19.4646 27.6771 19.8597 27.6771 20.2548 27.6771C20.3496 27.6771 20.4524 27.7088 20.5393 27.6436C20.9028 27.6436 21.284 27.5724 21.6238 27.6613C21.9636 27.7502 21.9972 28.2204 22.2382 28.4713C22.339 28.576 22.418 28.6985 22.5444 28.8664L18.7771 28.8605Z" fill="#E4AC8F"/>
<path d="M39.2119 25.4488V25.8557C39.1566 25.9742 39.0479 25.9446 38.9531 25.9446C36.5825 25.9446 34.2118 25.9446 31.8412 25.9446C31.5925 25.9512 31.3506 25.8621 31.1656 25.6957C31.0984 25.6345 31.0194 25.5653 31.0589 25.4705C31.0984 25.3757 31.1972 25.4172 31.2723 25.4172C32.6314 25.4172 33.9906 25.4172 35.3497 25.4172C36.5351 25.4172 37.7164 25.4172 38.8938 25.4172C39.0006 25.3954 39.1115 25.4064 39.2119 25.4488Z" fill="#F1F2F3"/>
<path d="M19.0774 26.7664C19.4231 26.1955 19.757 25.6325 20.1027 25.0774C20.6084 24.2575 21.1319 23.4495 21.6298 22.6238C21.7641 22.3986 21.8925 22.2524 22.175 22.3176C22.2729 22.3274 22.3715 22.3274 22.4694 22.3176C22.6254 22.3176 22.6669 22.3729 22.5741 22.5151L22.2224 23.0248C22.1461 23.126 22.0799 23.2346 22.0249 23.3488C21.5211 24.5993 20.4919 25.4764 19.7609 26.5649C19.5811 26.8277 19.3599 26.8375 19.0774 26.7664Z" fill="#75BCCE"/>
<path d="M29.5239 13.568C28.9609 13.5166 28.4532 13.2677 27.9218 13.1097C27.3904 12.9516 26.8175 12.8212 26.2466 12.9832C25.6756 13.1452 25.1284 13.3211 24.8775 13.9295C24.8301 14.0461 24.7629 14.0441 24.68 14.0066C24.4666 13.9157 24.2533 13.8248 24.0399 13.7359C24.5555 13.0986 25.2401 12.6194 26.0154 12.3531C26.361 12.234 26.7349 12.2243 27.0862 12.3254C27.8427 12.534 28.5771 12.8159 29.279 13.167C29.4271 13.246 29.6089 13.325 29.5239 13.568Z" fill="#F7EBAD"/>
<path d="M25.9344 20.83C26.0213 20.7352 26.132 20.7727 26.2386 20.7727C27.3272 20.7727 28.3248 19.7356 28.226 18.6411C28.2082 18.2488 28.0554 17.8748 27.7934 17.5822C27.7663 17.5615 27.7443 17.5349 27.7289 17.5045C27.7135 17.474 27.7052 17.4405 27.7045 17.4064C27.9983 17.4895 28.2631 17.653 28.4691 17.8785C28.675 18.104 28.8139 18.3825 28.87 18.6826C29.1071 19.6407 28.7634 20.4349 28.07 21.0987C28.0364 21.1347 27.9934 21.1604 27.9459 21.173C27.8983 21.1856 27.8482 21.1845 27.8013 21.1698C27.4516 21.0769 27.096 20.9979 26.7503 20.8893C26.4797 20.8043 26.2051 20.8616 25.9344 20.83Z" fill="#BB433C"/>
<path d="M14.5455 22.3037C14.6823 22.3961 14.7915 22.5237 14.8616 22.6731C15.6874 23.9414 16.5112 25.2117 17.333 26.4839C17.3824 26.561 17.5306 26.6815 17.4041 26.7427C17.3737 26.7682 17.3386 26.7872 17.3007 26.7989C17.2628 26.8105 17.223 26.8144 17.1836 26.8103C17.1441 26.8063 17.1059 26.7943 17.0712 26.7753C17.0365 26.7562 17.0059 26.7303 16.9814 26.6993C16.6831 26.3219 16.3709 25.9565 16.0706 25.5791C15.5985 24.9865 15.1343 24.3938 14.6601 23.8012C14.5761 23.7186 14.5171 23.614 14.4898 23.4994C14.4625 23.3847 14.4682 23.2648 14.506 23.1532C14.591 22.8944 14.5376 22.6139 14.5455 22.3037Z" fill="#8CD3DB"/>
<path d="M11.2682 24.4946C11.6633 24.2239 12.0406 23.9434 12.4377 23.6826C12.5441 23.6274 12.6313 23.5412 12.6878 23.4354C12.7442 23.3296 12.7672 23.2092 12.7538 23.09C12.8742 22.6288 13.0288 22.1771 13.216 21.7387C13.5835 21.9086 13.7731 22.3768 13.6724 22.8964C13.5222 23.6589 13.0481 24.1943 12.4317 24.621C12.2342 24.7633 12.0366 24.9292 11.7403 24.8047C11.5625 24.7297 11.4065 24.8699 11.2741 25.0023C11.2358 24.9722 11.2047 24.9339 11.1832 24.8902C11.1617 24.8465 11.1502 24.7986 11.1496 24.7499C11.1491 24.7012 11.1594 24.6529 11.1799 24.6088C11.2004 24.5646 11.2306 24.5256 11.2682 24.4946Z" fill="#AABADB"/>
<path d="M39.281 23.6096C39.2968 23.7439 39.2514 23.7874 39.1309 23.7676C38.2844 23.6002 37.4253 23.5044 36.5627 23.4811C36.4679 23.4811 36.3039 23.4811 36.3039 23.3567C36.3039 23.2322 36.4244 23.1591 36.5548 23.1433C37.0429 23.0856 37.5109 22.9152 37.9219 22.6455C38.1671 22.4624 38.3923 22.2538 38.5935 22.0232C38.6785 21.9343 38.7378 21.875 38.7911 22.0232C38.9835 22.5426 39.1471 23.0721 39.281 23.6096Z" fill="#7C431D"/>
<path d="M10.3831 22.9023C10.4029 22.7877 10.316 22.6653 10.4345 22.5507C10.5135 22.4717 10.4641 22.3847 10.3456 22.3749C10.2271 22.365 10.1342 22.3749 10.0275 22.3749C10.0987 22.1773 10.2745 22.286 10.4009 22.2622C10.51 22.2422 10.6226 22.2634 10.717 22.3215C10.5965 22.1911 10.397 22.3215 10.2626 22.1931C10.64 22.0686 10.7308 21.9284 10.7368 21.4878C10.7368 21.3594 10.6854 21.312 10.5629 21.314C10.3377 21.314 10.1105 21.2804 9.89913 21.4483C9.92679 21.1876 10.1658 21.071 10.5115 21.1085C10.5985 21.1085 10.6874 21.1303 10.7743 21.1322C10.8019 21.1354 10.8299 21.1317 10.8558 21.1216C10.8818 21.1115 10.9048 21.0953 10.9231 21.0743C10.9414 21.0533 10.9543 21.0282 10.9607 21.0011C10.9671 20.9741 10.9669 20.9458 10.96 20.9189C10.9271 20.7231 10.9112 20.5248 10.9126 20.3262C10.8968 20.1149 10.7288 20.1287 10.5827 20.1287C10.4365 20.1287 10.3318 20.1662 10.2073 20.1781C10.152 20.1781 10.0769 20.2018 10.0611 20.1228C10.0453 20.0437 10.1085 20.024 10.1658 20.0082C10.3497 19.9468 10.5439 19.9225 10.7372 19.9367C10.9305 19.951 11.119 20.0035 11.2919 20.0911C11.3966 19.7849 11.2267 19.461 11.3986 19.1804C11.3411 19.6403 11.3504 20.1061 11.4262 20.5633C11.4714 20.8278 11.6035 21.0697 11.8016 21.2508C11.9794 21.4088 11.9458 21.5471 11.8371 21.7091C11.6587 21.9815 11.4301 22.2175 11.1635 22.4045C10.9106 22.5783 10.6893 22.8075 10.3831 22.9023Z" fill="#AFBEDE"/>
<path d="M35.8594 18.9434C36.0866 18.4949 36.4916 18.4949 36.9084 18.5285C37.1889 18.5522 37.4774 18.4692 37.752 18.5878C37.8804 18.9829 38.0048 19.378 38.1372 19.7731C38.1826 19.9074 38.1056 19.9548 38.0068 19.9864C37.908 20.0181 37.7974 20.0358 37.6927 20.0615C37.5426 20.0971 37.3746 20.1899 37.2443 20.1524C37.1139 20.1149 37.1475 19.8817 37.0823 19.7573C37.049 19.6594 36.9865 19.574 36.9031 19.5129C36.8196 19.4517 36.7194 19.4177 36.616 19.4155C36.4501 19.4155 36.2861 19.3701 36.1222 19.3661C35.6737 19.3503 35.6638 19.3424 35.8594 18.9434Z" fill="#633715"/>
<path d="M26.6357 14.8047C27.6097 14.5064 28.5816 14.2002 29.4706 13.6865C28.9352 14.4767 28.4097 15.2669 27.4477 15.6127C27.3553 15.6458 27.2601 15.6703 27.1632 15.6857C26.7424 15.747 26.6989 15.7233 26.7681 15.3262C26.8116 15.1089 26.6219 14.9923 26.6357 14.8047Z" fill="#398054"/>
<path d="M9.89123 29.1153C10.0171 29.1246 10.142 29.1445 10.2646 29.1746C10.7585 29.3326 11.1674 29.0956 11.5684 28.8842C11.7364 28.7953 11.9181 28.7676 12.0821 28.6768C12.3969 28.5015 12.671 28.2616 12.8866 27.9729C13.1021 27.6842 13.2541 27.3531 13.3326 27.0015C13.3859 26.804 13.5301 26.6202 13.5183 26.393C13.8107 27.3176 13.376 28.4891 12.5187 29.0857C11.7265 29.6309 10.5945 29.6467 9.89123 29.1153Z" fill="#AABAD9"/>
<path d="M15.6123 21.6439C15.9719 21.2626 16.2702 20.9426 16.5705 20.6265C16.5984 20.6056 16.6304 20.5906 16.6643 20.5824C16.6983 20.5743 16.7336 20.5732 16.768 20.5791C17.092 20.5791 17.416 20.589 17.7419 20.5791C17.8921 20.5791 17.9632 20.6285 17.9395 20.7767C17.9385 20.7865 17.9385 20.7964 17.9395 20.8063C17.9671 21.6479 17.9671 21.6459 17.1256 21.636C16.6653 21.64 16.1892 21.6439 15.6123 21.6439Z" fill="#C7E7F1"/>
<path d="M19.6503 21.6479C19.3856 21.6479 19.1189 21.6301 18.8601 21.6479C18.6013 21.6656 18.5223 21.5688 18.5578 21.3318C18.5608 21.3029 18.5608 21.2738 18.5578 21.2449C18.546 20.5811 18.5578 20.6087 19.2256 20.5673C19.6938 20.5396 20.0612 20.6186 20.3062 21.0572C20.4148 21.2083 20.5393 21.3474 20.6776 21.472C20.7803 21.5866 20.7487 21.6419 20.5985 21.64C20.2844 21.64 19.9703 21.64 19.6562 21.64L19.6503 21.6479Z" fill="#C9E8F4"/>
<path d="M15.6775 13.0346C15.6005 14.0935 15.638 15.1524 15.6281 16.2132C15.6281 16.3258 15.7012 16.4878 15.4958 16.5115C15.2903 16.5352 15.2982 16.3713 15.2844 16.2409L14.9545 14.4491C14.9264 14.0792 14.947 13.7073 15.0157 13.3428C15.0262 13.2798 15.0491 13.2196 15.0831 13.1655C15.1171 13.1115 15.1615 13.0647 15.2137 13.0279C15.2658 12.9912 15.3248 12.9652 15.3872 12.9514C15.4495 12.9376 15.5139 12.9364 15.5768 12.9477C15.6013 12.9475 15.625 12.9561 15.6435 12.9721C15.6621 12.9881 15.6742 13.0104 15.6775 13.0346Z" fill="#D94E48"/>
<path d="M5.14011 19.457C5.39692 18.3883 5.24678 17.3057 5.2942 16.231C5.30803 15.9129 5.37124 15.8616 5.66362 15.9129C5.7861 15.9347 5.82956 15.9781 5.81573 16.1105C5.71696 16.9244 5.78413 17.7423 5.76437 18.5582C5.75252 19.0757 5.57077 19.3385 5.14011 19.457Z" fill="#A8C2D7"/>
<path d="M21.6041 20.587C22.0525 20.423 22.3824 20.6858 22.6412 21.1066C22.6701 21.1457 22.7018 21.1827 22.7361 21.2172C22.8269 21.3377 23.0324 21.4424 22.9672 21.5886C22.902 21.7348 22.6985 21.6242 22.5563 21.6479C21.9972 21.7466 21.5685 21.5135 21.2208 21.1066C21.1122 20.9801 20.9838 20.8715 20.8652 20.7549C20.8317 20.7213 20.7842 20.6897 20.8079 20.6324C20.8317 20.5752 20.8909 20.589 20.9344 20.589C21.13 20.585 21.3275 20.587 21.6041 20.587Z" fill="#91D2E0"/>
<path d="M8.84223 21.7743C9.13658 21.7348 9.21955 21.8573 9.21165 22.1536C9.16763 22.6144 9.18024 23.0788 9.24919 23.5365C9.28475 23.6965 9.103 23.734 9.08917 23.8664C8.85408 24.0955 8.83235 24.0975 8.69407 23.8032C8.40169 23.1907 8.47478 22.5447 8.54195 21.9007C8.56566 21.6992 8.7316 21.796 8.84223 21.7743Z" fill="#F9FBFC"/>
<path d="M36.2229 4.17242C36.1459 3.97487 35.9819 3.9887 35.812 3.9887C28.4776 3.9887 21.1425 3.9887 13.8067 3.9887C13.6921 3.9887 13.5697 4.02623 13.463 3.94524C13.5536 3.91341 13.651 3.90592 13.7455 3.92351C13.83 3.89828 13.9189 3.89155 14.0062 3.90375C21.3657 3.90375 28.7232 3.90375 36.0787 3.90375C36.1572 3.89911 36.236 3.90242 36.3138 3.91363C36.4177 3.87927 36.5299 3.87927 36.6338 3.91363L36.2229 4.17242Z" fill="#EBD295"/>
<path d="M22.0663 13.7971C21.9383 13.7583 21.8051 13.739 21.6712 13.7399C20.1633 13.7399 18.6559 13.7399 17.1493 13.7399C16.772 13.7399 16.7324 13.7675 16.7226 14.1527C16.7107 14.5972 16.7226 15.0397 16.7226 15.4823C16.7107 16.0749 16.772 16.6676 16.6673 17.2484C16.6574 17.3076 16.6673 17.3689 16.5981 17.3985C16.5981 16.2468 16.5981 15.0951 16.5981 13.9433C16.5981 13.6944 16.7324 13.5759 16.9932 13.5779C18.5736 13.5779 20.1659 13.5779 21.7522 13.5779C21.8787 13.5858 22.0802 13.5324 22.0663 13.7971Z" fill="#DCBD69"/>
<path d="M36.3118 3.91165C36.0965 3.91165 35.8812 3.92943 35.6658 3.92943C28.4552 3.92943 21.2459 3.92943 14.0378 3.92943C13.9391 3.92943 13.8403 3.92943 13.7435 3.92943C13.8666 3.89397 13.9957 3.88389 14.1228 3.89979C21.1754 3.89979 28.228 3.89979 35.2806 3.89979C35.6303 3.88794 35.9681 3.9077 36.3118 3.91165Z" fill="#F7CF7A"/>
<path d="M35.6401 6.00571C36.4857 5.03375 37.3924 4.3522 38.6449 4.25935C37.8343 4.64444 37.1196 5.20523 36.5528 5.901C36.4422 6.02941 36.3079 6.00571 36.1735 6.00571C36.0392 6.00571 35.8792 6.00571 35.6401 6.00571Z" fill="#E3B896"/>
<path d="M23.9747 17.3511C24.2315 17.7462 24.2118 17.8114 23.8068 18.0524C23.5895 18.1808 23.3603 18.3073 23.3919 18.6273C23.4137 18.8703 23.3425 19.1231 23.0877 19.1508C22.8329 19.1785 22.7045 18.9335 22.6689 18.6826C22.7148 18.3499 22.8666 18.0408 23.1017 17.801C23.3369 17.5612 23.643 17.4035 23.9747 17.3511Z" fill="#F6F1F0"/>
<path d="M8.67234 9.84809C8.7889 9.76709 8.90348 9.6861 9.02003 9.60708C9.34797 10.3696 9.57515 11.1677 9.84185 11.954C9.87741 12.0607 9.85568 12.1417 9.71739 12.1654C9.5791 12.1891 9.43489 12.2385 9.3697 12.0271C9.20178 11.4858 9.01806 10.9485 8.84224 10.4072C8.78099 10.2215 8.72963 10.0338 8.67234 9.84809Z" fill="#A36B47"/>
<path d="M14.0517 21.1856C14.1188 20.9386 14.3954 20.8399 14.4665 20.5929C14.911 20.5297 15.3555 20.5771 15.8494 20.5475C15.7456 20.721 15.6054 20.87 15.4385 20.9841C15.1836 21.1994 14.9169 21.4009 14.6601 21.6123C14.51 21.7368 14.3954 21.7506 14.2966 21.5511C14.2224 21.4244 14.1406 21.3024 14.0517 21.1856Z" fill="#ECF2F4"/>
<path d="M39.2119 25.4488H31.0372C31.3454 25.755 31.618 25.915 31.9933 25.915C34.2573 25.915 36.5232 25.915 38.7871 25.915C38.9338 25.9398 39.0846 25.9198 39.2198 25.8577C39.1585 26.077 38.9748 25.9743 38.8563 25.9743C36.9058 25.9822 34.956 25.9822 33.0068 25.9743C32.426 25.9743 31.8452 25.9426 31.2644 25.9585C30.9384 25.9585 31.0392 25.7471 31.0135 25.5831C30.9799 25.3618 31.1261 25.3855 31.2683 25.3855C33.8483 25.3855 36.4277 25.3855 39.0064 25.3855C39.0775 25.3855 39.1684 25.348 39.2119 25.4488Z" fill="#BFC9CB"/>
<path d="M38.0009 24.4156C36.8926 24.5321 35.7923 24.5538 34.684 24.5637C35.0514 24.3662 35.332 24.0165 35.8337 24.0698C36.4857 24.137 37.1415 24.1785 37.7875 24.3049C37.8665 24.3188 37.9535 24.299 38.0009 24.4156Z" fill="#DAEAEF"/>
<path d="M10.4997 4.52406C10.1552 4.85827 9.85089 5.23153 9.59293 5.63628C9.41514 5.94841 9.19783 6.07484 8.86001 6.01163C8.76914 5.99385 8.66246 6.03929 8.54986 5.96027C9.01455 5.35149 9.59621 4.8417 10.2607 4.46084C10.3269 4.42049 10.401 4.39489 10.478 4.38578C10.6242 4.39368 10.5688 4.4648 10.4997 4.52406Z" fill="#E5BA86"/>
<path d="M31.373 27.6969C31.2268 28.0564 30.9424 28.3231 30.729 28.6392C30.6836 28.7084 30.5828 28.7578 30.6539 28.8644C30.4114 28.8789 30.1681 28.8717 29.9269 28.8427C29.9823 28.6116 30.168 28.4476 30.2648 28.25L30.2786 28.2244C30.6283 27.5942 30.6283 27.5942 31.373 27.6969Z" fill="#A16947"/>
<path d="M33.0344 24.5479C32.3306 24.5727 31.6259 24.553 30.9246 24.4887C30.875 24.4847 30.8287 24.4621 30.795 24.4255C30.7613 24.3889 30.7427 24.3409 30.7428 24.2911C30.7231 24.1469 30.8554 24.1765 30.9285 24.1667C31.3236 24.1212 31.7069 24.0857 32.0961 24.0481C32.2042 24.0377 32.3124 24.0672 32.4003 24.1311C32.6097 24.2733 32.8231 24.4096 33.0344 24.5479Z" fill="#E7EBEB"/>
<path d="M34.2593 17.9141C34.272 17.9733 34.2657 18.035 34.2412 18.0904C34.2167 18.1458 34.1753 18.1919 34.1229 18.2223C33.7476 18.4594 33.7891 18.8268 33.8069 19.1864C33.8069 19.2516 33.874 19.3306 33.7871 19.3661C33.7002 19.4017 33.6567 19.3069 33.6172 19.2437C33.5421 19.1291 33.4868 19.0007 33.4019 18.894C33.3169 18.7873 33.313 18.7083 33.3881 18.6312C33.6706 18.3408 33.6785 17.9813 33.6725 17.6119C33.6725 17.5092 33.633 17.3709 33.7555 17.3215C33.878 17.2721 33.9372 17.4104 34.0084 17.4815C34.1308 17.602 34.3027 17.6988 34.2593 17.9141Z" fill="#4E2B14"/>
<path d="M14.512 25.4981C14.4209 25.5076 14.329 25.4926 14.2457 25.4547C14.1624 25.4169 14.0907 25.3576 14.0378 25.2828C13.9367 25.1514 13.8278 25.0261 13.7119 24.9075C13.5993 24.8028 13.6092 24.7395 13.7119 24.621C13.9944 24.2615 13.9845 24.2575 14.2789 24.621C14.4152 24.7889 14.5594 24.947 14.6977 25.1109C14.7767 25.2058 14.9446 25.2907 14.8853 25.4132C14.8261 25.5357 14.6522 25.506 14.512 25.4981Z" fill="#77441D"/>
<path d="M20.2528 11.5628C20.2247 11.5907 20.1882 11.6086 20.1489 11.6136C20.1096 11.6186 20.0697 11.6105 20.0355 11.5905C19.3437 11.3493 18.5942 11.3286 17.8901 11.5312C17.2283 11.6952 16.7048 12.1792 16.7463 13.0623C16.7463 13.0899 16.7265 13.1176 16.7147 13.1452C16.529 13.1828 16.5882 13.0405 16.5882 12.9595C16.5784 12.6229 16.6789 12.2923 16.8743 12.0181C17.0698 11.7439 17.3495 11.541 17.6708 11.4404C18.5155 11.1499 19.4394 11.1937 20.2528 11.5628Z" fill="#E2C665"/>
<path d="M30.6421 23.491C30.5048 23.4625 30.3768 23.4005 30.2692 23.3105C30.1617 23.2206 30.0781 23.1055 30.0257 22.9754C30 22.851 30.087 22.851 30.166 22.851C30.4015 22.8381 30.6376 22.8381 30.8732 22.851C31.134 22.8766 31.2545 23.1078 31.3967 23.2875C31.4659 23.3764 31.375 23.4219 31.2841 23.4298C31.0708 23.4456 30.8554 23.4713 30.6421 23.491Z" fill="#7C471F"/>
<path d="M13.216 21.7289C13.1533 22.2055 12.9962 22.6649 12.7538 23.0801C12.6945 22.8826 12.6293 22.6712 12.5779 22.4637C12.5582 22.3768 12.5345 22.3156 12.4377 22.3057C12.5118 22.156 12.5777 22.0023 12.6352 21.8454C12.732 21.5313 12.7696 21.5115 13.0659 21.6637C13.1094 21.6893 13.1647 21.7071 13.216 21.7289Z" fill="#C4D2E8"/>
<path d="M37.0131 22.0015C37.0507 21.7486 37.0862 21.5195 37.1159 21.2903C37.1356 21.1402 37.2462 21.0927 37.3667 21.0927C37.5189 21.0789 37.6888 21.0275 37.8112 21.1579C37.9337 21.2883 37.8705 21.397 37.8112 21.5155C37.6473 21.8395 37.3411 21.9225 37.0131 22.0015Z" fill="#A98461"/>
<path d="M17.9415 22.4302C17.8553 22.4775 17.7568 22.4975 17.659 22.4875H15.5471C15.4602 22.3926 15.395 22.2899 15.6005 22.2899C16.3374 22.2899 17.0762 22.2899 17.815 22.2899C17.9118 22.284 17.9652 22.3235 17.9415 22.4302Z" fill="#C1D6D9"/>
<path d="M20.8672 22.4934C20.237 22.4934 19.6068 22.4934 18.9766 22.4815C18.8561 22.4815 18.6902 22.6791 18.6013 22.4262C18.5677 22.2682 18.6823 22.2741 18.7791 22.2741C19.4508 22.2741 20.1244 22.2741 20.7961 22.2741C21.0114 22.282 21.0114 22.3669 20.8672 22.4934Z" fill="#BDD4D7"/>
<path d="M15.3061 18.2124C15.5397 18.5477 15.8447 18.827 16.1991 19.0303C16.2623 19.0659 16.2662 19.1192 16.2366 19.1824C16.2172 19.2276 16.184 19.2655 16.1418 19.2907C16.0996 19.3159 16.0505 19.3271 16.0015 19.3227C15.8348 19.3163 15.675 19.2546 15.5473 19.1472C15.4196 19.0399 15.3312 18.8931 15.2963 18.73C15.2614 18.5589 15.2647 18.3821 15.3061 18.2124Z" fill="#A2B3CC"/>
<path d="M23.4077 20.7154C23.7569 20.8783 24.1334 20.9748 24.518 20.9999C24.7689 21.0408 25.0261 21.0163 25.2647 20.9288C25.3657 20.8915 25.4747 20.8813 25.5808 20.8991C25.2489 21.0848 24.8597 21.0493 24.516 21.1856C24.4429 21.2152 24.3481 21.2133 24.2947 21.2607C24.0103 21.5096 23.8601 21.3278 23.7179 21.0947C23.631 20.9545 23.4729 20.8774 23.4077 20.7154Z" fill="#CA423D"/>
<path d="M16.1931 11.7604C16.0766 11.9994 15.9956 12.2029 15.879 12.3965C15.8277 12.4933 15.314 12.5644 15.2172 12.4973C15.1204 12.4301 15.1896 12.3767 15.2172 12.3254C15.3293 12.1662 15.4746 12.0332 15.6431 11.9357C15.8116 11.8382 15.9993 11.7783 16.1931 11.7604Z" fill="#D09069"/>
<path d="M15.2093 26.7447H14.7075C14.6107 26.7447 14.5297 26.7328 14.5258 26.6064C14.5218 26.48 14.5811 26.4503 14.6878 26.4523C14.9841 26.4523 15.2804 26.4523 15.5748 26.4523C15.6131 26.4545 15.6506 26.4647 15.6846 26.4824C15.7187 26.5001 15.7486 26.5249 15.7724 26.5551C15.8099 26.5965 15.8692 26.6341 15.8356 26.7032C15.802 26.7724 15.7506 26.7427 15.7032 26.7427C15.5353 26.7427 15.3693 26.7427 15.2014 26.7427L15.2093 26.7447Z" fill="#6F3E1B"/>
<path d="M26.1695 17.4677C26.3987 17.44 26.4955 17.5842 26.5152 17.7739C26.535 17.9635 26.3888 18.0564 26.1952 18.0623C26.0352 18.0623 25.8119 18.2223 25.8001 17.8865C25.7843 17.6217 25.9502 17.519 26.1695 17.4677Z" fill="#E77575"/>
<path d="M15.6775 13.0346C15.622 13.006 15.5606 12.991 15.4982 12.9908C15.4358 12.9905 15.3742 13.0051 15.3185 13.0332C15.2628 13.0614 15.2146 13.1023 15.1777 13.1527C15.1409 13.203 15.1165 13.2614 15.1066 13.323C15.0414 13.6964 15.0039 14.0737 14.9545 14.4491C14.8181 13.9901 14.8181 13.5014 14.9545 13.0425C14.992 12.8904 15.1244 12.8114 15.2409 12.8845C15.3575 12.9575 15.6104 12.7778 15.6775 13.0346Z" fill="#DA6F71"/>
<path d="M33.9116 15.1662C33.7673 14.8738 34.0103 14.694 34.1368 14.4985C34.3501 14.1685 34.5753 13.8564 34.5062 13.4337C34.5555 13.5447 34.5809 13.6648 34.5809 13.7863C34.5809 13.9078 34.5555 14.0279 34.5062 14.1389C34.3582 14.5081 34.158 14.854 33.9116 15.1662Z" fill="#C5CED0"/>
<path d="M9.55341 29.9964C9.1346 29.9648 8.71382 30.0241 8.29698 29.947C8.26858 29.9387 8.23838 29.9388 8.21 29.9472C8.18162 29.9556 8.15627 29.972 8.13697 29.9944H8.08363C8.0698 29.9194 8.08363 29.8305 8.16067 29.8324C8.60319 29.8324 9.05361 29.7198 9.48427 29.9134C9.5139 29.9253 9.52971 29.9648 9.55341 29.9964Z" fill="#AE803B"/>
<path d="M21.1339 26.7565C21.0233 26.717 20.8198 26.802 20.8277 26.6775C20.8396 26.4978 21.0371 26.4484 21.2228 26.4464C21.3532 26.4464 21.5132 26.4464 21.4915 26.6242C21.4539 26.8533 21.2445 26.6973 21.1339 26.7565Z" fill="#6E421F"/>
<path d="M7.74384 21.7921C7.45937 21.9343 6.80349 21.7526 6.70472 21.5353C6.70472 21.5115 6.68891 21.4641 6.70472 21.4562C6.72052 21.4483 6.78176 21.4187 6.80744 21.4305C6.95758 21.5017 7.09982 21.5945 7.25391 21.6558C7.408 21.717 7.55617 21.7407 7.74384 21.7921Z" fill="#7D8E9A"/>
<path d="M10.4997 4.52406C10.4997 4.48455 10.5748 4.40948 10.4523 4.42924C10.3891 4.42924 10.3258 4.45097 10.2547 4.46085C10.5018 4.3089 10.7674 4.18939 11.0449 4.10525C10.8889 4.27544 10.7044 4.41716 10.4997 4.52406Z" fill="#BCA893"/>
<path d="M34.4805 19.0738C34.6465 19.1429 34.6781 19.4195 34.923 19.3622C34.5615 19.4531 34.5279 19.4313 34.4805 19.0738Z" fill="#A3AFAC"/>
<path d="M22.4674 41.4544H21.5883C21.8797 41.4109 22.176 41.4109 22.4674 41.4544Z" fill="#E6AE90"/>
<path d="M9.58305 41.4544H8.82247C9.07413 41.4109 9.33139 41.4109 9.58305 41.4544Z" fill="#E6AE90"/>
<path d="M34.9685 19.3563L35.1482 19.0599C35.1798 19.214 35.3537 19.4531 34.9685 19.3563Z" fill="#A3AFAC"/>
<path d="M27.3331 17.2938C27.1197 17.2938 26.9083 17.2938 26.695 17.2839C26.7954 17.2382 26.9048 17.2154 27.0152 17.2171C27.1255 17.2188 27.2341 17.245 27.3331 17.2938Z" fill="#BB433C"/>
<path d="M20.2449 35.5911C19.8696 35.9368 19.4942 36.2845 19.1149 36.6282C18.9411 36.7863 19.0083 36.9087 19.1505 37.0431C19.7036 37.5626 20.2509 38.0862 20.8 38.6097C20.8755 38.6722 20.9362 38.7507 20.9775 38.8395C21.0188 38.9284 21.0399 39.0253 21.0391 39.1233C21.0391 39.7989 20.7092 40.038 20.0731 39.8226C19.8953 39.8582 19.8123 39.7081 19.757 39.6053C19.5594 39.2359 19.2354 38.9949 18.9391 38.7262C18.544 38.3766 18.2062 37.9913 17.8407 37.6219C17.6135 37.3928 17.5859 36.2904 17.8012 36.0533C18.189 35.6242 18.6012 35.2179 19.0359 34.8364C19.1465 34.7396 19.2532 34.6389 19.3678 34.546C19.4618 34.4752 19.5367 34.3822 19.586 34.2753C19.6353 34.1685 19.6574 34.0511 19.6503 33.9336C19.6562 33.7745 19.7194 33.6228 19.8283 33.5066C19.9372 33.3904 20.0845 33.3176 20.243 33.3015C20.4032 33.2793 20.5662 33.309 20.7084 33.3861C20.8506 33.4633 20.9643 33.5838 21.0332 33.7301C21.0909 33.9383 21.1097 34.1553 21.0885 34.3702C21.1339 34.9984 20.6973 35.2987 20.2449 35.5911Z" fill="#0C1D20"/>
<path d="M13.1094 39.872C12.6589 39.5322 12.6115 39.0127 13.0145 38.6176C13.5203 38.1217 14.0418 37.6436 14.5554 37.1557C14.8834 36.8435 14.8814 36.8159 14.5554 36.5136L13.0797 35.113C12.8051 34.8503 12.6728 33.981 12.8664 33.657C12.9309 33.545 13.0303 33.4571 13.1494 33.4068C13.2686 33.3565 13.4009 33.3466 13.5262 33.3785C13.8087 33.4299 14.0951 33.5464 14.103 33.8743C14.103 34.2694 14.3124 34.5164 14.5732 34.7732C15.0533 35.2513 15.5867 35.676 16.0134 36.2055C16.0381 36.6153 16.0381 37.0263 16.0134 37.4362L15.8158 37.6871C15.1718 38.3054 14.512 38.908 13.9272 39.5856C13.8382 39.7131 13.7113 39.8094 13.5645 39.8609C13.4177 39.9123 13.2585 39.9162 13.1094 39.872Z" fill="#0E1E21"/>
<path d="M30.4663 40.4528C23.1265 40.4528 15.7882 40.4528 8.45108 40.4528C8.11129 40.4528 8.10931 40.4528 8.17055 39.9905C8.21599 40.1585 8.14487 40.3047 8.41947 40.2968C9.80233 40.2592 11.1852 40.277 12.5681 40.277C12.7436 40.2461 12.9244 40.2791 13.0777 40.3698C13.1028 40.3857 13.131 40.3956 13.1604 40.3991C13.1898 40.4025 13.2196 40.3993 13.2476 40.3896C13.538 40.2256 13.8166 40.354 14.107 40.3896C14.3488 40.4493 14.6042 40.4154 14.8221 40.2948C14.8956 40.2647 14.9771 40.2605 15.0533 40.2829C15.4604 40.3373 15.8729 40.3373 16.2801 40.2829C16.6824 40.2622 17.0857 40.2781 17.4851 40.3303C18.0086 40.3896 18.5302 40.2691 19.0655 40.2632C19.5634 40.2632 20.0375 40.3995 20.5274 40.3955C21.1438 40.3955 21.7601 40.3955 22.3745 40.3955C22.7578 40.3955 23.1351 40.2987 23.5124 40.2987C23.8898 40.2987 24.2908 40.2987 24.68 40.2849C25.8021 40.2632 26.9242 40.273 28.0383 40.2849C28.307 40.2849 28.5836 40.2296 28.8424 40.3876C28.8877 40.4081 28.9369 40.4188 28.9866 40.4188C29.0363 40.4188 29.0855 40.4081 29.1308 40.3876C29.4469 40.2158 29.7827 40.2869 30.1186 40.2829C30.3398 40.2829 30.3556 40.2177 30.3359 40.0024C30.2588 39.5387 30.2588 39.0655 30.3359 38.6018C30.403 38.3232 30.2964 38.0565 30.3003 37.7839C30.3122 37.0233 30.3833 36.2588 30.3398 35.5022C30.3082 34.9668 30.3161 34.4275 30.2608 33.8901C30.2263 33.4696 30.2482 33.0464 30.326 32.6317C30.3754 32.3473 30.2667 32.0391 30.4722 31.723V40.435L30.4663 40.4528Z" fill="#F5C66C"/>
<path d="M20.2449 35.5911C20.3026 35.5134 20.3689 35.4425 20.4425 35.3797C20.9601 35.0419 21.0727 34.552 21.0095 33.9751C21.0009 33.819 20.9363 33.6712 20.8273 33.559C20.7184 33.4468 20.5726 33.3778 20.4168 33.3647C20.0849 33.3271 19.7313 33.5227 19.7313 33.8408C19.7313 34.3386 19.4073 34.5895 19.1051 34.8779C18.7495 35.2157 18.3939 35.5575 18.0363 35.8953C17.7913 36.1284 17.7736 36.3931 17.7439 36.7369C17.6649 37.6575 18.3563 38.0289 18.8601 38.5149C19.2428 38.8672 19.5944 39.2519 19.9111 39.6646C19.9584 39.7233 20.0144 39.7746 20.077 39.8167C19.8241 39.874 19.7096 39.71 19.6246 39.5204C19.602 39.4615 19.5656 39.4089 19.5186 39.367C19.4715 39.3251 19.415 39.295 19.354 39.2794C19.2078 39.23 19.0912 39.0166 18.9055 38.9653C18.7198 38.9139 18.6685 38.6255 18.5973 38.6136C18.4822 38.5817 18.3768 38.5217 18.2905 38.4389C18.2043 38.3562 18.14 38.2533 18.1035 38.1395C17.9612 37.8491 17.6708 37.6891 17.5681 37.3631C17.5146 37.1033 17.492 36.838 17.5009 36.5729C17.4792 36.3319 17.5009 36.0948 17.2896 35.9151C17.2125 35.8499 17.2896 35.7649 17.3231 35.7037C17.389 35.6307 17.4244 35.5353 17.4219 35.437C17.7637 35.3501 18.1687 35.352 18.2121 34.8582C18.2121 34.7989 18.2615 34.7199 18.3544 34.7475C18.4472 34.7752 18.4156 34.8384 18.4176 34.8957C18.4195 34.953 18.4176 35.0142 18.4176 35.0715C18.4294 35.198 18.5223 35.2434 18.5894 35.1505C18.8206 34.8345 19.194 34.6863 19.4389 34.39C19.4937 34.3406 19.5365 34.2793 19.5639 34.2108C19.5913 34.1423 19.6026 34.0684 19.597 33.9949C19.5739 33.8605 19.5978 33.7223 19.6648 33.6036C19.7317 33.4848 19.8375 33.3928 19.9644 33.3429C20.0513 33.2995 20.0968 33.175 20.1817 33.1138C20.4247 32.9399 20.6874 33.0269 20.9443 33.0841C20.9719 33.0841 20.9976 33.1375 21.0095 33.1711C21.2054 33.7431 21.2422 34.3577 21.1161 34.949C21.0667 35.1782 20.8178 35.3441 20.6084 35.4765C20.5136 35.5476 20.4425 35.8281 20.2449 35.5911Z" fill="#F5C66C"/>
<path d="M12.0564 39.2497C11.7649 39.2813 11.4708 39.2813 11.1793 39.2497C11.359 39.0522 11.7522 39.0305 12.0564 39.2497Z" fill="#F5C66C"/>
<path d="M15.4385 34.8344C15.5649 34.9174 15.8533 34.8344 15.8336 34.9885C15.8217 35.1861 15.5768 34.9332 15.4385 35.0478C15.421 35.0607 15.4004 35.0689 15.3788 35.0714C15.3572 35.0739 15.3353 35.0707 15.3153 35.0621C15.2953 35.0535 15.2779 35.0398 15.2649 35.0224C15.2518 35.005 15.2436 34.9845 15.2409 34.9629C15.2212 34.8206 15.3456 34.8542 15.4385 34.8344Z" fill="#F5C66C"/>
<path d="M19.9446 31.5235C20.1982 31.1006 20.3428 30.6214 20.3654 30.1288C20.3654 30.026 20.4109 29.9451 20.5156 29.947C21.3571 29.9648 22.2007 29.8878 23.0403 29.9925C22.6175 29.9925 22.1948 29.9925 21.77 29.9925C21.6673 29.9925 21.5053 29.9292 21.5053 30.1248C21.5053 30.271 21.6238 30.2927 21.7384 30.2829C21.8905 30.269 21.9577 30.3935 22.0624 30.4587C22.2027 30.5436 22.1849 30.6167 22.1118 30.7412C22.0683 30.8143 22.177 30.8716 22.2283 30.9269C22.2797 30.9822 22.3607 31.0889 22.2955 31.1877C22.2693 31.2306 22.2288 31.263 22.1812 31.2793C22.1336 31.2955 22.0818 31.2945 22.0347 31.2765C21.8544 31.2033 21.6602 31.1703 21.4658 31.1797C21.1503 31.1807 20.8376 31.1203 20.5452 31.002C20.3951 30.9545 20.3081 31.0573 20.3141 31.2212C20.3314 31.3049 20.3253 31.3917 20.2963 31.4721C20.1896 31.7013 20.0908 31.7309 19.9446 31.5235Z" fill="#F3C267"/>
<path d="M19.1189 32.3532L19.8261 31.6934C19.8557 31.8909 20.0118 32.0747 19.8696 32.3058C19.7767 32.4579 19.6542 32.4836 19.5713 32.3907C19.431 32.205 19.2749 32.3137 19.1189 32.3532Z" fill="#F3C267"/>
<path d="M18.1726 32.8254C18.3939 32.7246 18.6131 32.6278 18.8324 32.5251C18.6645 32.7305 18.4808 32.9182 18.1726 32.8254Z" fill="#F3C267"/>
<path d="M16.0134 37.4362V36.2055C16.0892 36.6122 16.0892 37.0295 16.0134 37.4362Z" fill="#F3C267"/>
<path d="M38.5145 41.4011C37.2146 41.4011 35.9147 41.3853 34.6168 41.4169C34.5056 41.4169 34.3954 41.3948 34.2928 41.3518C34.1901 41.3089 34.097 41.246 34.0189 41.1668C33.9408 41.0876 33.8792 40.9936 33.8377 40.8904C33.7962 40.7871 33.7757 40.6767 33.7772 40.5654C33.7911 38.5464 33.7772 36.5294 33.7772 34.5124V29.463C33.9491 29.0244 34.1546 28.8704 34.6188 28.8704C35.7705 28.8704 36.9223 28.8704 38.074 28.8704C38.722 28.8704 39.0341 29.1924 39.0341 29.8581V35.5595C39.0341 37.1656 39.0341 38.7697 39.0341 40.3738C39.0519 40.8301 38.9373 41.1857 38.5145 41.4011Z" fill="#0E1C1E"/>
<path d="M12.1552 16.5313C12.2215 16.5315 12.2871 16.5451 12.348 16.5713C12.4089 16.5974 12.4639 16.6357 12.5096 16.6837C12.5554 16.7316 12.591 16.7884 12.6143 16.8504C12.6375 16.9125 12.648 16.9787 12.6451 17.0449C12.6524 17.1164 12.6441 17.1886 12.621 17.2566C12.5978 17.3245 12.5603 17.3868 12.5109 17.4389C12.4615 17.4911 12.4015 17.532 12.3349 17.5589C12.2683 17.5858 12.1967 17.598 12.1249 17.5947C12.0531 17.5914 11.9829 17.5727 11.9191 17.5398C11.8552 17.5069 11.7992 17.4606 11.7548 17.4041C11.7104 17.3477 11.6788 17.2823 11.6619 17.2124C11.6451 17.1426 11.6436 17.07 11.6574 16.9995C11.6658 16.873 11.7219 16.7544 11.8142 16.6675C11.9066 16.5807 12.0284 16.532 12.1552 16.5313Z" fill="#13242B"/>
<path d="M9.0062 17.519C8.94004 17.5195 8.87443 17.507 8.81312 17.4822C8.7518 17.4574 8.69597 17.4207 8.64883 17.3743C8.60168 17.3279 8.56414 17.2726 8.53834 17.2117C8.51255 17.1508 8.49901 17.0854 8.49849 17.0192C8.49823 16.9554 8.51054 16.8922 8.53473 16.8331C8.55891 16.774 8.59449 16.7203 8.63943 16.675C8.68437 16.6297 8.7378 16.5937 8.79667 16.569C8.85553 16.5444 8.91867 16.5315 8.98249 16.5313C9.11541 16.5337 9.2424 16.5867 9.3375 16.6796C9.4326 16.7725 9.48863 16.8982 9.49415 17.0311C9.49261 17.16 9.44071 17.2832 9.34953 17.3744C9.25835 17.4656 9.13513 17.5175 9.0062 17.519Z" fill="#142429"/>
<path d="M10.2626 22.1872C10.5323 22.1615 10.8016 22.2399 11.0153 22.4065C10.6399 22.4262 10.3318 22.1872 10.0275 22.3689C9.86752 22.4005 9.70553 22.4341 9.53761 22.4677C9.64034 22.2603 9.75097 22.2129 10.2626 22.1872Z" fill="#90A2C2"/>
<path d="M23.9747 23.3626C24.3698 23.0683 24.6484 23.1651 24.8973 23.7281C25.2193 23.2085 25.6875 22.9497 26.2683 23.086C26.6081 23.1651 26.8609 23.2223 27.0763 22.8727C27.1849 22.7048 27.4141 22.7719 27.5761 22.9043C27.586 23.2164 27.4378 23.4969 27.3469 23.7735C27.256 24.0501 27.4062 24.2101 27.7045 24.1548C28.1269 24.325 28.4663 24.6531 28.6508 25.0695C28.7033 25.1488 28.7254 25.2445 28.7131 25.3388C28.7008 25.4332 28.6548 25.5199 28.5836 25.5831C28.5105 25.651 28.4138 25.6876 28.3141 25.685C28.2144 25.6824 28.1196 25.6409 28.0502 25.5693C28.066 25.271 27.8625 25.0596 27.7183 24.8423C27.499 24.5124 27.096 24.5795 26.9419 24.943C26.8573 25.1338 26.7911 25.3323 26.7444 25.5357C26.6851 25.8202 26.5468 25.9051 26.3078 25.8597C26.1557 25.7234 26.0154 25.5752 25.8613 25.4389C25.7448 25.3362 25.6164 25.2077 25.6974 25.0141C26.1498 25.0043 26.3513 24.7376 26.4224 24.3247C26.4219 24.2848 26.4336 24.2457 26.4558 24.2125C26.478 24.1794 26.5098 24.1538 26.5468 24.139C26.5982 24.1627 26.6219 24.1963 26.5844 24.2516C26.599 24.2405 26.6102 24.2256 26.6169 24.2085C26.6235 24.1914 26.6252 24.1728 26.6219 24.1548C26.6219 23.9335 26.4441 23.6451 26.3177 23.6313C25.8574 23.5799 25.5788 23.7044 25.4642 24.0264C25.3832 24.2555 25.2904 24.4531 24.9881 24.3721C24.6968 24.1382 24.4318 23.8733 24.1979 23.5819C24.1347 23.4969 24.0498 23.4357 23.9747 23.3626Z" fill="#51516F"/>
<path d="M25.6914 25.026C25.7961 25.3757 26.1596 25.506 26.3414 25.7925C26.4323 25.9742 26.6812 25.9762 26.7681 26.1619C26.9143 26.5215 27.2422 26.7368 27.4674 27.0331C27.7629 27.1838 27.9953 27.4344 28.1233 27.7404C28.2813 27.8806 28.4828 28.015 28.3525 28.2678C28.2557 28.4535 28.1174 28.578 27.8902 28.412C27.857 28.3838 27.8181 28.363 27.7762 28.3511C27.7343 28.3391 27.6903 28.3363 27.6472 28.3429C27.5998 28.3864 27.503 28.4555 27.505 28.3429C27.505 28.0564 27.2876 27.9261 27.1533 27.7364C27.0447 27.4223 26.7582 27.2524 26.5607 26.9956C26.393 26.8914 26.2457 26.7575 26.126 26.6005C25.9889 26.4719 25.8645 26.3303 25.7546 26.1777C25.5373 25.9229 25.32 25.668 25.0909 25.4251C24.8617 25.1821 24.599 25.0003 24.4982 24.6724C24.3007 24.4156 24.0814 24.1607 23.8779 23.9C23.8377 23.8632 23.8073 23.8171 23.7892 23.7657C23.7712 23.7143 23.7662 23.6593 23.7746 23.6055C23.783 23.5517 23.8046 23.5009 23.8374 23.4574C23.8703 23.414 23.9134 23.3794 23.9629 23.3567C24.2098 23.248 24.1841 23.5088 24.2888 23.5937C24.5303 23.8207 24.7592 24.0608 24.9743 24.3128C25.0928 24.4373 25.3042 24.3681 25.407 24.5222C25.4129 24.7494 25.7013 24.8107 25.6914 25.026Z" fill="#183639"/>
<path d="M24.5101 24.6783L25.16 25.3994C25.1007 25.6858 24.917 25.9407 24.9447 26.2508C24.9414 26.3592 24.9659 26.4667 25.0158 26.5629C25.2133 26.8514 25.4603 26.8415 25.6322 26.5412C25.7033 26.4148 25.7072 26.2548 25.8297 26.1461L26.1754 26.561C26.3098 26.7842 26.1893 26.9818 26.0944 27.1694C26.0005 27.3298 25.9604 27.516 25.9799 27.7008C26.0154 27.9735 25.8554 28.1849 25.6993 28.3903C25.6395 28.3876 25.5811 28.3714 25.5285 28.3428C25.4758 28.3142 25.4304 28.2741 25.3956 28.2254C25.3607 28.1766 25.3374 28.1207 25.3274 28.0616C25.3174 28.0026 25.321 27.942 25.3378 27.8846C25.3556 27.7186 25.3003 27.6752 25.1403 27.6455C24.9611 27.6136 24.7901 27.5467 24.6368 27.4485C24.4836 27.3504 24.3513 27.223 24.2474 27.0736C24.1436 26.9242 24.0702 26.7558 24.0315 26.578C23.9929 26.4002 23.9897 26.2165 24.0221 26.0375C24.0948 25.6415 24.2373 25.2615 24.4429 24.9154C24.4942 24.8475 24.5181 24.7629 24.5101 24.6783Z" fill="#4D536C"/>
<path d="M28.1233 27.7404L27.4654 27.041C27.7045 27.0074 27.7361 26.7882 27.825 26.6262C27.8734 26.5187 27.9136 26.4077 27.9455 26.2943C28.0146 26.0967 28.1272 25.9565 28.3564 26.0098C28.411 26.014 28.4642 26.0295 28.5125 26.0553C28.5608 26.0812 28.6032 26.1168 28.637 26.1599C28.6708 26.203 28.6953 26.2526 28.7089 26.3057C28.7225 26.3588 28.7249 26.4141 28.7159 26.4681C28.6528 26.7973 28.5296 27.1121 28.3525 27.3966C28.2517 27.4895 28.1233 27.5685 28.1233 27.7404Z" fill="#4E5166"/>
<path d="M26.7681 26.1698C26.5705 26.1086 26.3908 26.0296 26.3414 25.8004C26.6357 25.909 26.6634 25.6424 26.6831 25.5001C26.7447 25.2331 26.8347 24.9735 26.9518 24.7257C27.0348 24.4906 27.2699 24.5282 27.4338 24.5736C27.6314 24.6348 27.8289 24.7139 27.8882 24.9806C27.9218 25.1623 28.1865 25.2611 28.0996 25.5001C28.087 25.5257 28.0703 25.549 28.0502 25.5693C27.8764 25.427 27.8665 25.1742 27.6808 25.0319C27.3627 24.7771 27.2225 24.8028 27.1158 25.186C27.032 25.5244 26.9155 25.8539 26.7681 26.1698Z" fill="#414654"/>
<path d="M25.6914 28.3962C25.6578 28.256 25.7724 28.173 25.8198 28.0643C25.8599 28.0032 25.8867 27.9343 25.8986 27.8622C25.9105 27.7901 25.9072 27.7163 25.889 27.6455C25.866 27.5792 25.8603 27.5082 25.8723 27.439C25.8844 27.3699 25.914 27.305 25.9581 27.2504C26.1036 27.05 26.1774 26.8065 26.1675 26.559C26.3473 26.6617 26.4322 26.8534 26.5626 26.9936C26.4046 26.962 26.4184 27.1042 26.3927 27.1793C26.2821 27.4835 26.1952 27.7937 26.0865 28.0979C26.0292 28.2915 25.9226 28.4338 25.6914 28.3962Z" fill="#434854"/>
<path d="M27.1553 27.7423C27.3884 27.8628 27.6018 27.9912 27.5504 28.3172C27.5366 28.3962 27.6176 28.333 27.6531 28.3429C27.4556 28.6471 27.2679 28.6787 26.938 28.4575C26.776 28.1473 26.8846 27.9201 27.1553 27.7423Z" fill="#414D5C"/>
<path d="M27.7045 24.1548C27.7163 24.1983 27.7598 24.2654 27.7045 24.2773C27.6368 24.2819 27.5689 24.2725 27.505 24.2498C27.4411 24.227 27.3826 24.1913 27.3331 24.1449C27.2866 24.1076 27.254 24.0558 27.2404 23.9978C27.2268 23.9398 27.233 23.8789 27.258 23.8249C27.3568 23.5325 27.5148 23.2579 27.5089 22.9359C27.5089 22.9359 27.5583 22.9161 27.586 22.9043C27.6527 22.9369 27.7049 22.9932 27.7323 23.0623C27.7597 23.1314 27.7604 23.2082 27.7341 23.2777C27.6998 23.459 27.6434 23.6355 27.5662 23.8032C27.4457 24.0086 27.5129 24.0975 27.7045 24.1548Z" fill="#494857"/>
<path d="M31.5765 40.1763C31.8847 40.3738 31.774 40.678 31.8353 40.925C31.841 40.9438 31.8393 40.9642 31.8305 40.9818C31.8217 40.9995 31.8064 41.0131 31.7879 41.0198C31.7784 41.0231 31.7684 41.0245 31.7584 41.0238C31.7484 41.0231 31.7386 41.0204 31.7297 41.0157C31.7208 41.0111 31.713 41.0047 31.7067 40.9969C31.7004 40.9891 31.6957 40.9801 31.6931 40.9704C31.6061 40.7195 31.4915 40.4726 31.5765 40.1763Z" fill="#E6AE90"/>
<path d="M17.5938 12.4953C17.7321 12.1436 17.8506 12.0725 18.145 12.1594C18.2358 12.1851 18.303 12.2246 18.301 12.3372C18.3033 12.3592 18.3009 12.3814 18.2938 12.4023C18.2867 12.4232 18.2751 12.4423 18.2599 12.4582C18.2447 12.4742 18.2261 12.4867 18.2056 12.4948C18.1851 12.5029 18.163 12.5064 18.141 12.5052C17.9594 12.5335 17.7743 12.5301 17.5938 12.4953Z" fill="#3C391C"/>
<path d="M34.7887 35.1683C34.7887 33.5049 34.7887 31.8395 34.7887 30.1762C34.7887 29.8996 34.8697 29.8107 35.1403 29.8304C35.9938 29.8917 36.8511 29.8304 37.7085 29.8304C37.9713 29.8304 38.0602 29.9055 38.0582 30.1841C38.0503 33.4832 38.0503 36.781 38.0582 40.0775C38.0582 40.4726 38.0582 40.4726 37.6749 40.4726C36.8195 40.4726 35.9622 40.4726 35.1068 40.4726C34.8618 40.4726 34.7887 40.4093 34.7907 40.1604C34.8005 38.497 34.7907 36.8337 34.7907 35.1703L34.7887 35.1683Z" fill="#BD762A"/>
<path d="M25.6914 25.026C25.6061 24.9204 25.5123 24.8219 25.4109 24.7316C25.324 24.6625 25.3319 24.6131 25.3951 24.5341C25.4066 24.4083 25.4432 24.286 25.503 24.1747C25.5627 24.0634 25.6443 23.9652 25.7428 23.8861C25.8659 23.7998 26.0154 23.7595 26.1652 23.7721C26.3151 23.7848 26.4557 23.8496 26.5626 23.9553C26.5731 23.9654 26.5814 23.9775 26.5871 23.9909C26.5928 24.0043 26.5957 24.0187 26.5957 24.0333C26.5957 24.0479 26.5928 24.0623 26.5871 24.0757C26.5814 24.0891 26.5731 24.1012 26.5626 24.1113L26.452 24.4412C26.2801 25.0122 26.2801 25.0122 25.6914 25.026Z" fill="#EEDBDC"/>
<path d="M26.5705 24.1291C26.523 24.0528 26.4578 23.9891 26.3805 23.9433C26.3031 23.8976 26.2158 23.8712 26.1261 23.8663C26.0363 23.8615 25.9467 23.8783 25.8648 23.9155C25.783 23.9526 25.7113 24.009 25.6559 24.0797C25.5492 24.2279 25.5373 24.4254 25.3951 24.5519C25.2667 24.461 25.0474 24.5301 24.9862 24.3188C25.0306 24.3327 25.0777 24.3363 25.1238 24.3292C25.1698 24.3221 25.2136 24.3045 25.2518 24.2778C25.29 24.251 25.3215 24.2159 25.344 24.1751C25.3664 24.1342 25.3792 24.0888 25.3813 24.0422C25.3967 23.9579 25.4315 23.8783 25.4829 23.8097C25.5343 23.7412 25.601 23.6855 25.6776 23.6471C25.9127 23.4772 26.1833 23.6273 26.4342 23.5444C26.5488 23.5068 26.695 24.1054 26.5962 24.2891L26.5705 24.1291Z" fill="#46495A"/>
<path d="M25.8218 26.152C25.8327 26.2918 25.7958 26.4311 25.7171 26.5471C25.6243 26.723 25.5314 26.9146 25.2805 26.8593C25.1675 26.8405 25.0644 26.7836 24.9882 26.6981C24.912 26.6125 24.8674 26.5035 24.8617 26.3891C24.8296 26.0346 24.9342 25.6812 25.1541 25.4013L25.8218 26.152Z" fill="#F0DDDA"/>
</svg>
