<svg width="49" height="48" viewBox="0 0 49 48" fill="none" xmlns="http://www.w3.org/2000/svg">
<rect x="0.654205" width="47.5514" height="47.5514" rx="11.2" fill="#FBEBD7"/>
<path d="M11.9911 27.3659C11.3321 26.9639 10.6334 26.6607 10.0139 26.2059C9.28933 25.6689 8.71079 24.9589 8.3311 24.1408C8.13338 23.7256 7.96422 23.2972 7.72695 22.9018C7.64347 22.7612 7.67203 22.7172 7.8368 22.7194C8.77707 22.737 9.72394 22.6404 10.6576 22.871L9.86234 22.447C9.37543 22.2022 8.95871 21.8377 8.65128 21.3878C8.34386 20.9378 8.15582 20.417 8.10481 19.8745C8.03971 19.6094 8.01381 19.3363 8.02793 19.0638C8.20368 19.0177 8.27617 19.1648 8.37284 19.2571C8.66828 19.5699 9.03014 19.8124 9.43174 19.9667C9.54379 19.9272 9.47569 19.8349 9.48887 19.7668C9.48447 19.7083 9.48447 19.6496 9.48887 19.591C9.50654 19.3979 9.49543 19.2032 9.45591 19.0133C9.4202 18.895 9.4017 18.7721 9.40099 18.6486C9.40099 18.508 9.4669 18.4289 9.62068 18.475C10.02 18.6921 10.351 19.0162 10.5763 19.4109C10.5628 19.6261 10.5746 19.8421 10.6115 20.0546C10.6115 20.6917 10.8795 21.2497 11.1695 21.7945C11.4176 22.285 11.7391 22.7346 12.123 23.1281C12.123 23.0885 12.0922 23.038 12.0746 22.9809C11.8835 22.2888 11.6902 21.599 11.5056 20.9048C11.4572 19.9312 11.1131 18.9954 10.5192 18.2224C10.3379 17.9577 10.1287 17.7131 9.89529 17.493C9.78946 17.3952 9.71332 17.2696 9.6756 17.1305C9.64924 16.7241 9.70197 16.3177 9.64704 15.9134C9.62288 15.7838 9.6075 15.6498 9.58992 15.518C9.5774 15.4766 9.5774 15.4324 9.5899 15.3909C9.60241 15.3495 9.62687 15.3127 9.66022 15.2851C9.7481 15.2302 9.82499 15.2851 9.8931 15.3356C10.5608 15.8036 11.1358 16.3913 11.5891 17.069C11.6001 17.0888 11.6067 17.1129 11.633 17.1195C11.5847 16.1617 11.398 15.2522 10.7279 14.503C10.5082 14.2614 10.5412 14.1405 10.7806 14.0021C10.8437 14.0074 10.9022 14.0374 10.9432 14.0856C11.1439 14.3136 11.3247 14.5584 11.4837 14.8172C11.5155 14.8667 11.5302 14.9254 11.5254 14.9841C11.5254 14.4151 11.6089 13.844 11.4265 13.2859C11.3611 13.1108 11.2832 12.9404 11.1937 12.7763C11.1071 12.6262 10.9799 12.5035 10.8269 12.4223C10.6738 12.3411 10.5009 12.3046 10.3281 12.3171C10.2421 12.3222 10.1588 12.3495 10.0864 12.3962C9.86673 12.561 9.86673 12.7565 10.126 12.8905C10.2907 12.9542 10.416 13.0509 10.4116 13.2464C10.4086 13.3374 10.3786 13.4255 10.3254 13.4995C10.2722 13.5734 10.1982 13.6298 10.1128 13.6616C9.72174 13.8483 9.22084 13.6067 9.01433 13.1629C8.72215 12.5038 9.17471 11.7108 9.76128 11.5152C9.8773 11.4692 9.99941 11.4403 10.1238 11.4296C10.2819 11.4296 10.4401 11.4296 10.5961 11.4296C11.0076 11.4988 11.3837 11.7047 11.6638 12.0139C11.663 11.5623 11.6901 11.1111 11.7451 10.6628C11.8089 10.4024 11.901 10.1497 12.0197 9.90929C12.1407 9.68354 12.2963 9.47819 12.481 9.30075C12.6562 9.14558 12.8652 9.0334 13.0914 8.97315C13.3175 8.91289 13.5546 8.90621 13.7838 8.95364C13.8296 8.96571 13.8743 8.98113 13.9178 8.99978C14.0323 9.05682 14.1375 9.13089 14.2298 9.21947C14.2921 9.27581 14.3467 9.34007 14.3924 9.4106C14.7087 9.94005 14.2869 10.6387 13.4433 10.6848C13.585 10.8361 13.7685 10.9416 13.9705 10.988C14.2591 11.0545 14.5534 11.0927 14.8493 11.1022C15.9663 11.1292 17.0829 11.0357 18.1798 10.8232C18.5115 10.7573 18.5357 10.7331 18.4478 10.408C18.1073 9.14038 17.7536 7.87716 17.4197 6.60735C17.3758 6.3569 17.312 6.14161 17.0199 6.04275C16.915 5.9972 16.8232 5.92607 16.753 5.83587C16.6828 5.74567 16.6363 5.63929 16.6178 5.52647C16.5779 5.30808 16.6136 5.08262 16.7189 4.88717C16.7694 4.81021 16.8352 4.74442 16.9122 4.69385C17.1048 4.5872 17.3282 4.54997 17.5449 4.5884C18.026 4.75097 18.2194 5.07611 18.1073 5.55943C18.0896 5.61037 18.0912 5.66606 18.1118 5.7159C18.1325 5.76573 18.1708 5.80622 18.2194 5.82965C18.8037 6.18994 19.4101 6.51069 20.0011 6.86C20.1351 6.93908 20.1592 6.85999 20.1834 6.74795C20.2691 6.36789 20.3328 5.98343 20.4272 5.60337C20.4463 5.56952 20.4581 5.53209 20.462 5.49345C20.4658 5.4548 20.4616 5.41578 20.4497 5.37884C20.4377 5.34189 20.4182 5.30783 20.3924 5.27879C20.3666 5.24975 20.3351 5.22637 20.2998 5.21012C20.2002 5.14613 20.1233 5.05233 20.0801 4.9421C20.0071 4.80122 19.9793 4.64123 20.0005 4.48396C20.0217 4.32669 20.091 4.1798 20.1988 4.06333C20.2856 3.95087 20.4047 3.86766 20.5402 3.82486C20.6757 3.78205 20.821 3.78171 20.9567 3.82387C21.1071 3.85477 21.2442 3.93125 21.3496 4.04288C21.4549 4.15452 21.5233 4.2959 21.5455 4.44779C21.5757 4.61848 21.5446 4.79437 21.4576 4.94429C21.4378 4.96899 21.4237 4.99766 21.416 5.02834C21.4084 5.05902 21.4074 5.091 21.4133 5.12208C21.4191 5.15315 21.4316 5.1826 21.4498 5.20842C21.4681 5.23423 21.4917 5.25579 21.5191 5.27163C21.8377 5.51329 22.0881 5.82745 22.3979 6.08009C22.5143 6.19433 22.6395 6.29978 22.7516 6.41622C22.8636 6.53266 22.9251 6.49531 22.9954 6.38766C23.0924 6.23733 23.1755 6.0785 23.2437 5.91313C23.2586 5.86519 23.2627 5.81457 23.2559 5.76484C23.2491 5.7151 23.2314 5.66748 23.2041 5.62533C23.1274 5.50753 23.0786 5.37379 23.0613 5.23428C23.0808 5.11852 23.1309 5.01007 23.2063 4.92013C23.426 4.58181 23.6457 4.24128 23.883 3.90955C23.9111 3.88104 23.9328 3.84685 23.9466 3.80928C23.9604 3.77171 23.9661 3.73161 23.9632 3.69168C23.9603 3.65175 23.9489 3.6129 23.9297 3.57773C23.9106 3.54256 23.8842 3.51188 23.8522 3.48775C23.7788 3.41341 23.7215 3.32474 23.6839 3.22727C23.6462 3.1298 23.6291 3.02562 23.6336 2.92123C23.638 2.81684 23.6639 2.71449 23.7097 2.62057C23.7555 2.52665 23.8201 2.44317 23.8996 2.37535C23.9791 2.30753 24.0717 2.25682 24.1716 2.22639C24.2716 2.19597 24.3767 2.18647 24.4805 2.1985C24.5843 2.21053 24.6845 2.24382 24.7748 2.29631C24.8652 2.34879 24.9437 2.41933 25.0056 2.50354C25.1052 2.64063 25.1565 2.80695 25.1513 2.97636C25.1462 3.14576 25.0849 3.30865 24.977 3.43941C24.7815 3.68327 24.7793 3.68547 24.9551 3.9469C25.155 4.24568 25.3461 4.54665 25.5592 4.83665C25.6503 4.93434 25.7146 5.0539 25.746 5.18376C25.7343 5.33116 25.6792 5.47181 25.5878 5.58799C25.545 5.65733 25.5224 5.73719 25.5224 5.81866C25.5224 5.90013 25.545 5.98 25.5878 6.04934C25.6625 6.18555 25.724 6.32834 25.8075 6.46455C25.8909 6.60076 25.9459 6.59856 26.0425 6.4975C26.1765 6.3591 26.3171 6.22509 26.449 6.08229C26.6862 5.84283 26.9169 5.59897 27.1629 5.37049C27.2396 5.31815 27.2934 5.23857 27.3134 5.14796C27.3334 5.05734 27.3181 4.96251 27.2706 4.88278C27.1899 4.70963 27.176 4.5128 27.2315 4.33002C27.287 4.14724 27.408 3.99137 27.5713 3.89229C27.7347 3.79321 27.9288 3.7579 28.1165 3.79311C28.3043 3.82832 28.4724 3.93159 28.5887 4.08311C28.7062 4.22283 28.7692 4.40036 28.766 4.5829C28.7627 4.76544 28.6935 4.94063 28.5712 5.07611C28.3075 5.31996 28.3229 5.55723 28.4064 5.84942C28.4899 6.14161 28.5602 6.43819 28.6261 6.72818C28.6568 6.85999 28.714 6.89295 28.8458 6.82484C29.4192 6.5041 29.9948 6.18774 30.555 5.84942C30.6208 5.81553 30.6726 5.75948 30.7011 5.69115C30.7297 5.62281 30.7331 5.5466 30.711 5.47595C30.6729 5.29817 30.7005 5.11264 30.7885 4.95356C30.8765 4.79449 31.0191 4.6726 31.1899 4.61036C31.3445 4.5479 31.5158 4.53998 31.6755 4.5879C31.8353 4.63583 31.9739 4.73673 32.0686 4.87399C32.1806 5.02784 32.2314 5.21784 32.2111 5.40705C32.1908 5.59627 32.1009 5.77117 31.9588 5.89775C31.9495 5.90966 31.9384 5.92004 31.9258 5.92851C31.5787 6.09327 31.504 6.42281 31.414 6.74795C31.08 7.95405 30.7549 9.16455 30.4276 10.3684C30.3309 10.7112 30.3507 10.7331 30.6978 10.8078C31.8937 11.0497 33.1145 11.1464 34.3336 11.0956C34.7561 11.0876 35.1626 10.9322 35.4826 10.6562C35.3187 10.6827 35.1508 10.6699 34.9927 10.6189C34.8049 10.5603 34.6422 10.4403 34.5306 10.2781C34.4191 10.116 34.3652 9.92115 34.3776 9.72476C34.399 9.52525 34.4881 9.33909 34.6299 9.19722C34.7718 9.05534 34.958 8.96628 35.1575 8.94485C35.3755 8.91464 35.5975 8.93347 35.8073 8.99998C36.0171 9.0665 36.2094 9.17901 36.3702 9.32931C36.4382 9.39741 36.5007 9.47088 36.5569 9.549C36.8276 9.90239 37.0106 10.315 37.0908 10.7529C37.18 11.1743 37.211 11.606 37.183 12.0359C37.9541 11.3505 38.6528 11.234 39.3492 11.6646C39.4211 11.7048 39.4834 11.7603 39.5315 11.8272C39.5667 11.8689 39.604 11.9107 39.637 11.9568C39.7111 12.0645 39.7758 12.1785 39.8303 12.2973C39.8561 12.3615 39.8767 12.4276 39.8918 12.4951C39.8918 12.5434 39.8918 12.5917 39.905 12.64C39.9101 12.7393 39.9042 12.8387 39.8874 12.9366C39.8449 13.0965 39.7701 13.246 39.6677 13.376C39.5808 13.5027 39.4597 13.6021 39.3186 13.6627C39.1774 13.7234 39.022 13.7428 38.8702 13.7187C38.7723 13.7047 38.681 13.6609 38.6087 13.5934C38.5364 13.5258 38.4866 13.4377 38.466 13.3409C38.4392 13.2577 38.4449 13.1675 38.482 13.0884C38.5191 13.0092 38.5848 12.9472 38.6659 12.9147C38.7846 12.8707 38.9493 12.8927 38.9537 12.695C38.9551 12.616 38.9302 12.5388 38.8828 12.4756C38.8355 12.4123 38.7685 12.3666 38.6923 12.3457C38.5813 12.2959 38.4589 12.2768 38.338 12.2903C38.2171 12.3038 38.102 12.3495 38.0047 12.4226C37.6048 12.6818 37.4554 13.0816 37.361 13.521L37.3456 13.6133C37.3135 14.0255 37.304 14.4391 37.317 14.8523C37.473 14.6744 37.5653 14.5074 37.6927 14.369C37.8201 14.2306 37.93 14.0768 38.1321 14.0549C38.3166 14.1515 38.3078 14.2921 38.1848 14.4173C37.4445 15.1885 37.2445 16.1485 37.216 17.1679C37.5342 16.5936 37.9681 16.0917 38.4902 15.6937C38.6305 15.5725 38.7771 15.4588 38.9296 15.3532C39.1317 15.228 39.2174 15.2675 39.2283 15.5026C39.2448 15.7129 39.2382 15.9243 39.2086 16.1331C39.1807 16.4641 39.1705 16.7963 39.1778 17.1283C39.1771 17.1539 39.1719 17.1792 39.1624 17.203C38.9428 17.5084 38.6659 17.7764 38.4309 18.0818C37.8255 18.8515 37.4453 19.7739 37.3324 20.7466C37.1962 21.5353 36.9348 22.2845 36.7436 23.0644C36.7421 23.0678 36.7412 23.0715 36.7412 23.0753C36.7412 23.0791 36.7421 23.0829 36.7436 23.0863C36.7436 23.0863 36.759 23.0863 36.7678 23.0863C37.3592 22.3879 37.8186 21.5876 38.1233 20.7247C38.2138 20.4996 38.2529 20.2571 38.2375 20.0151C38.2609 19.8072 38.2668 19.5978 38.2551 19.3889C38.485 19.0232 38.803 18.7211 39.18 18.5102C39.3184 18.4267 39.3997 18.4816 39.3997 18.6552C39.4173 18.8749 39.347 19.0726 39.3602 19.2857C39.3602 19.4417 39.3602 19.5976 39.3602 19.7536C39.3602 19.9579 39.3931 19.9733 39.5799 19.8788C39.9198 19.6856 40.2361 19.4534 40.5223 19.1868C40.5619 19.1485 40.6037 19.1126 40.6475 19.0792C40.7003 19.044 40.7574 19.0067 40.8211 19.0396C40.8481 19.0568 40.8693 19.0817 40.8818 19.1111C40.8944 19.1405 40.8977 19.173 40.8914 19.2044C40.7969 20.6544 40.3246 21.8802 38.9032 22.5415C38.7956 22.5898 38.7011 22.6601 38.5803 22.7194C39.387 22.6315 40.1995 22.6079 41.01 22.6491C41.2297 22.6491 41.2846 22.7919 41.1638 22.9677C40.9775 23.2758 40.8195 23.6 40.6915 23.9365C40.4352 24.5428 40.0771 25.1009 39.6326 25.5864C39.5451 25.6736 39.4629 25.7661 39.3865 25.8632C38.8304 26.3369 38.2117 26.7317 37.5477 27.0364C37.35 27.1594 37.1391 27.256 36.9348 27.3659C36.7045 27.4959 36.4842 27.6427 36.2757 27.8053C36.1505 27.8975 36.0209 27.9854 35.9022 28.0865C35.8551 28.1215 35.8191 28.1693 35.7984 28.2242C35.7778 28.2792 35.7734 28.3389 35.7858 28.3962C35.8122 28.5259 35.8715 28.5676 36.0055 28.4995C37.0512 27.9723 38.1887 27.6516 39.3558 27.5548C39.3711 27.5548 39.3865 27.5548 39.4019 27.5548C39.4905 27.5305 39.585 27.5391 39.6677 27.579C39.563 27.5366 39.4629 27.4836 39.369 27.4208C39.0954 27.2475 38.7899 27.131 38.4704 27.0781C38.3628 27.0517 38.2288 27.0517 38.2222 26.8892C38.4023 26.6299 38.6857 26.6277 38.9581 26.5948C39.1251 26.5948 39.2921 26.5948 39.459 26.5948C40.1005 26.6944 40.6978 26.9827 41.1748 27.423C41.3683 27.5916 41.5503 27.7729 41.7196 27.9656C41.8104 28.0405 41.8706 28.146 41.8888 28.2622C41.8888 28.3457 42.0316 28.3918 41.9657 28.4819C41.8998 28.572 41.779 28.5412 41.6867 28.5193C40.1488 28.1809 38.6506 28.3611 37.1457 28.7939C37.2471 28.8584 37.3622 28.8982 37.4818 28.9103C38.1408 29.0952 38.7182 29.4969 39.1207 30.0505C39.1756 30.1274 39.2811 30.2131 39.213 30.3163C39.1772 30.3625 39.1312 30.3998 39.0786 30.4254C39.026 30.4509 38.9682 30.464 38.9098 30.4635C38.801 30.4656 38.6938 30.4374 38.6 30.3822C38.443 30.2946 38.2754 30.2274 38.1013 30.1823C38.2884 30.4125 38.4601 30.6546 38.6154 30.9073C38.8352 31.2583 38.9514 31.6642 38.9505 32.0783C38.9495 32.4924 38.8316 32.8979 38.6102 33.2479C38.3888 33.5978 38.073 33.8781 37.6992 34.0564C37.3255 34.2346 36.9089 34.3036 36.4976 34.2554C36.3636 34.2554 36.3372 34.2927 36.3394 34.407C36.3394 34.6113 36.3284 34.8156 36.3394 35.0177C36.3543 35.1364 36.3307 35.2568 36.2722 35.3611C36.2137 35.4655 36.1233 35.5484 36.0143 35.5977C35.241 36.0524 34.4764 36.5226 33.7141 36.9949C31.6884 38.2312 29.7808 39.6513 28.0153 41.2371C26.749 42.3687 25.6406 43.6655 24.72 45.0927C24.5135 45.42 24.3355 45.4464 24.1598 45.1608C22.8658 43.0628 21.1259 41.3821 19.2277 39.8443C17.2661 38.2851 15.1776 36.8926 12.9841 35.6812C12.648 35.49 12.4854 35.2791 12.5228 34.8947C12.5426 34.6948 12.5843 34.4377 12.4854 34.3037C12.3866 34.1697 12.1208 34.273 11.9296 34.2642C11.0091 34.2224 10.1413 33.3854 10.0161 32.4385C9.95562 32.0673 9.98057 31.6872 10.0891 31.3271C10.1976 30.9669 10.3867 30.6363 10.6422 30.3603C10.6884 30.3119 10.7279 30.257 10.7916 30.1757C10.6228 30.217 10.4598 30.279 10.3061 30.3603C10.2227 30.4033 10.1369 30.4415 10.0491 30.4745C9.97386 30.4972 9.89336 30.4951 9.8194 30.4686C9.74545 30.4421 9.68195 30.3926 9.63825 30.3273C9.54818 30.2241 9.6778 30.1428 9.73053 30.0725C10.1219 29.5213 10.684 29.1144 11.3299 28.9147C11.4485 28.8752 11.5671 28.8422 11.7165 28.7983C11.3083 28.6561 10.8864 28.5567 10.4577 28.5017C9.62051 28.3393 8.76365 28.3038 7.91588 28.3962C7.63029 28.4358 7.34908 28.4951 7.06348 28.539C7.00636 28.539 6.93387 28.561 6.89212 28.4973C6.85038 28.4336 6.90311 28.3765 6.93826 28.3303C7.53582 27.5526 8.23224 26.9089 9.22524 26.6827C9.46677 26.6144 9.7206 26.6014 9.96783 26.6448C10.2151 26.6882 10.4493 26.7867 10.6532 26.9331C10.1983 27.0085 9.76298 27.1735 9.37243 27.4186C9.29334 27.5812 9.42296 27.5702 9.50864 27.5702C9.76558 27.5766 10.0218 27.6008 10.2754 27.6427C11.1334 27.7625 11.9656 28.0238 12.7381 28.416C12.8304 28.4621 12.9336 28.5588 13.0259 28.416C13.1182 28.2732 13.0259 28.1831 12.9292 28.0975C12.8516 28.0454 12.7782 27.9873 12.7095 27.9239C12.5705 27.7596 12.4002 27.6244 12.2086 27.5263C12.1258 27.4884 12.0518 27.4338 11.9911 27.3659Z" fill="#2B1A10"/>
<path d="M12.7469 27.8844C12.8567 27.9678 12.9666 28.0469 13.0786 28.1348C13.1108 28.1568 13.1354 28.1883 13.1488 28.225C13.1622 28.2616 13.1638 28.3015 13.1533 28.3391C13.0962 28.594 12.9995 28.6445 12.7623 28.5149C11.9701 28.0995 11.1113 27.8259 10.2248 27.7064C9.88871 27.6537 9.54819 27.6449 9.20108 27.6163C9.20626 27.5699 9.2261 27.5264 9.2577 27.492C9.2893 27.4577 9.33103 27.4342 9.37683 27.4252C9.4669 27.4977 9.5372 27.4252 9.6097 27.3901C10.1477 27.1587 10.7444 27.1011 11.3167 27.2253C11.5012 27.2736 11.677 27.3505 11.8571 27.4142C12.1848 27.5034 12.4886 27.664 12.7469 27.8844Z" fill="#915836"/>
<path d="M39.6787 29.108C40.1071 29.108 40.3905 29.2684 40.5004 29.5474C40.5465 29.6426 40.5552 29.7517 40.5247 29.8531C40.4942 29.9544 40.4267 30.0405 40.3356 30.0944C40.1598 30.2021 40.0104 30.1581 39.8501 29.945C39.6968 29.7184 39.511 29.5156 39.2987 29.3431C39.1844 29.2596 39.1954 29.1981 39.3316 29.1695C39.4678 29.141 39.6062 29.1234 39.6787 29.108Z" fill="#2E1D11"/>
<path d="M8.3311 29.7473C8.32195 29.6492 8.34263 29.5505 8.39045 29.4643C8.43827 29.378 8.511 29.3082 8.59912 29.264C8.74363 29.1785 8.90546 29.1264 9.07273 29.1116C9.23999 29.0967 9.40846 29.1196 9.56576 29.1783C9.59652 29.1783 9.64705 29.1783 9.65364 29.2376C9.66023 29.297 9.62068 29.3079 9.58773 29.3233C9.3236 29.4755 9.10803 29.6995 8.96601 29.9692C8.92867 30.0385 8.86808 30.0923 8.79494 30.1212C8.72179 30.1502 8.64077 30.1523 8.56617 30.1274C8.48612 30.1056 8.41733 30.0543 8.37369 29.9837C8.33005 29.9132 8.31483 29.8287 8.3311 29.7473Z" fill="#2D1D11"/>
<path d="M40.5443 31.3445C40.5456 31.4095 40.5335 31.4741 40.5086 31.5343C40.4838 31.5944 40.4468 31.6487 40.4 31.6939C40.3532 31.7391 40.2975 31.7741 40.2365 31.7968C40.1756 31.8194 40.1106 31.8292 40.0456 31.8256C39.9875 31.8236 39.9304 31.8101 39.8775 31.7859C39.8247 31.7617 39.7772 31.7272 39.7377 31.6845C39.6983 31.6418 39.6677 31.5917 39.6478 31.5371C39.6278 31.4825 39.6189 31.4245 39.6216 31.3664C39.6147 31.3025 39.6219 31.2378 39.6427 31.177C39.6635 31.1161 39.6974 31.0606 39.7421 31.0143C39.7867 30.968 39.8409 30.932 39.901 30.909C39.961 30.8859 40.0254 30.8764 40.0895 30.8809C40.1506 30.8787 40.2115 30.8892 40.2682 30.9118C40.325 30.9345 40.3764 30.9687 40.4192 31.0123C40.462 31.0559 40.4953 31.108 40.5168 31.1652C40.5383 31.2224 40.5477 31.2834 40.5443 31.3445Z" fill="#2D1D11"/>
<path d="M9.23183 31.3642C9.23067 31.4245 9.21766 31.484 9.19352 31.5393C9.16938 31.5946 9.13459 31.6445 9.09113 31.6863C9.04768 31.7282 8.99641 31.761 8.94026 31.783C8.88412 31.805 8.82418 31.8158 8.76388 31.8146C8.70359 31.8135 8.64411 31.8004 8.58885 31.7763C8.53358 31.7522 8.48361 31.7174 8.44179 31.6739C8.39997 31.6305 8.36712 31.5792 8.34511 31.5231C8.32311 31.4669 8.31237 31.407 8.31352 31.3467C8.31294 31.2861 8.32431 31.226 8.34696 31.1698C8.36961 31.1136 8.40311 31.0624 8.44554 31.0192C8.48797 30.9759 8.5385 30.9414 8.59426 30.9177C8.65001 30.894 8.7099 30.8815 8.77048 30.8809C8.83389 30.8774 8.8973 30.8877 8.95636 30.9111C9.01541 30.9344 9.0687 30.9703 9.11255 31.0163C9.1564 31.0622 9.18977 31.1171 9.21036 31.1772C9.23095 31.2372 9.23827 31.3011 9.23183 31.3642Z" fill="#2C1C11"/>
<path d="M12.7469 27.8844C12.454 27.7262 12.1574 27.5695 11.8571 27.4142C11.9011 27.3944 11.9582 27.4274 11.9911 27.3747C12.2842 27.4738 12.5452 27.6498 12.7469 27.8844Z" fill="#C69E84"/>
<path d="M13.1269 31.3994C12.7557 30.8831 12.0285 30.5206 11.0926 30.9029C11.2336 30.7103 11.3974 30.5355 11.5803 30.3822C11.7055 30.3603 11.7868 30.2548 11.9055 30.2131C12.2184 30.1142 12.5549 30.118 12.8655 30.224C12.9336 30.2438 12.9995 30.3229 13.0852 30.2372C13.1114 30.2307 13.1358 30.2185 13.1567 30.2014C13.1776 30.1843 13.1945 30.1628 13.206 30.1384C13.6985 29.4485 13.9718 28.6263 13.9903 27.7789C13.9771 24.9229 13.9793 22.0669 13.9771 19.2C13.9771 17.6226 13.9771 16.0452 13.9881 14.4657C14.1155 14.5755 14.0123 14.7161 14.0474 14.8216C14.0508 14.7769 14.0508 14.7322 14.0474 14.6875C14.0584 14.5096 14.1529 14.4107 14.3177 14.4679C14.6688 14.5394 15.0279 14.563 15.3854 14.5382C15.7061 14.5382 15.7259 14.5755 15.5809 14.8633C15.5598 14.9295 15.5295 14.9924 15.4908 15.05C15.3649 15.131 15.2161 15.1687 15.0668 15.1577C14.9657 15.1577 14.8932 15.1906 14.8954 15.2961C14.8694 15.7613 14.8819 16.2279 14.9328 16.6911C14.9533 16.83 14.9607 16.9705 14.9548 17.1107L14.9548 28.3545C14.9885 29.2866 14.6938 30.201 14.1221 30.938C14.0927 30.9742 14.0755 31.0189 14.0732 31.0655C14.0708 31.1121 14.0833 31.1583 14.109 31.1973C14.377 31.6564 14.5747 32.1507 14.8295 32.6165C14.8902 32.7532 15.0023 32.8605 15.1415 32.9153C15.3231 33.0639 15.4894 33.2302 15.638 33.4118C15.8072 33.7369 16.1125 33.9236 16.3762 34.1521C17.2619 34.8959 18.2026 35.5716 19.1904 36.1733C20.3308 36.9005 21.3707 37.7743 22.2836 38.7722C22.5956 39.1105 22.89 39.4642 23.2217 39.7828C23.5534 40.1013 23.9313 40.4199 24.2938 40.7252C24.3883 40.8065 24.452 40.756 24.5135 40.7033C25.0525 40.2891 25.5518 39.8257 26.0052 39.3192C26.8418 38.3264 27.8015 37.4442 28.8612 36.6939C29.8871 35.9953 30.946 35.345 31.9368 34.5981C32.3128 34.3157 32.6729 34.0128 33.0155 33.6908C33.0836 33.6271 33.1561 33.5633 33.1451 33.4535C33.3428 33.2733 33.501 33.0493 33.7163 32.8801C33.8745 32.8801 33.9514 32.7703 34.0129 32.6604C34.2633 32.1749 34.4984 31.6828 34.7862 31.2148C34.8389 31.127 34.8807 31.0325 34.7862 30.938C34.153 30.1494 33.8261 29.1586 33.8657 28.148C33.8811 24.1935 33.8657 20.2172 33.8657 16.2495C33.8657 15.9134 33.8657 15.5773 33.8767 15.2434C33.8767 15.1511 33.7581 15.1291 33.7515 15.0412C33.7361 15.0105 33.835 15.0061 33.7734 14.9775C33.7119 14.949 33.6658 14.9578 33.6262 14.9182C33.5362 14.8303 33.4395 14.7315 33.4637 14.5997C33.4878 14.4679 33.624 14.4744 33.7295 14.4701C33.7986 14.4588 33.8663 14.4404 33.9316 14.4151C34.0221 14.398 34.1144 14.3928 34.2062 14.3998C34.3724 14.3837 34.5396 14.419 34.6852 14.5008C34.7577 14.5513 34.7159 14.4503 34.7401 14.4261C34.7468 14.3933 34.7646 14.3638 34.7906 14.3426C34.8895 14.4041 34.8345 14.5008 34.8345 14.5777C34.8345 18.825 34.8345 23.0724 34.8345 27.3197C34.8345 28.1194 34.9268 28.8949 35.331 29.6023C35.4541 29.822 35.5991 30.0219 35.7353 30.2306C35.8363 30.3163 35.9264 30.2306 36.0143 30.2043C36.2085 30.1504 36.4083 30.1195 36.6096 30.112C36.7295 30.1016 36.8502 30.1195 36.962 30.1641C37.0738 30.2088 37.1735 30.2789 37.2533 30.369C37.4605 30.5159 37.6354 30.7035 37.7674 30.9205C37.1215 30.6612 36.5393 30.6744 36.0099 31.116C35.6891 31.5158 35.331 31.8893 35.1641 32.3968C34.9707 32.9724 34.8587 33.5436 35.0652 34.1389C35.0801 34.1834 35.0854 34.2306 35.0806 34.2773C35.0542 34.4355 34.9334 34.4838 34.7994 34.519C34.5539 34.5701 34.3025 34.5864 34.0524 34.5673C33.7611 34.5627 33.4755 34.6487 33.2352 34.8134C31.838 35.8569 30.3485 36.7686 28.949 37.8078C27.7835 38.6654 26.7094 39.6409 25.7438 40.7187C25.3392 41.1418 24.9627 41.5909 24.6167 42.0632C24.4717 42.2828 24.3707 42.2653 24.2213 42.0632C23.6445 41.2767 23.0005 40.5416 22.2968 39.8663C21.3375 38.9468 20.3141 38.0967 19.2343 37.3222C18.0656 36.4874 16.8397 35.7317 15.6973 34.8595C15.5641 34.7448 15.4081 34.6597 15.2396 34.6097C15.0711 34.5597 14.8939 34.546 14.7197 34.5695C14.4485 34.5646 14.1784 34.533 13.9134 34.4751C13.8658 34.4722 13.8213 34.4509 13.7892 34.4155C13.7572 34.3802 13.7403 34.3338 13.7421 34.2861C13.9465 33.6766 13.9255 33.014 13.6828 32.4188C13.5802 32.1567 13.4435 31.9092 13.2763 31.6828C13.215 31.5949 13.1648 31.4997 13.1269 31.3994Z" fill="#AC7550"/>
<path d="M35.0476 34.2663C34.6786 33.0866 35.0476 32.1002 35.8583 31.2346C35.8996 31.1774 35.9593 31.1363 36.0275 31.1182C36.0275 31.1336 36.0121 31.1511 36.0275 31.1621C36.1395 31.5883 35.933 31.9288 35.7507 32.2891C35.6397 32.5637 35.5801 32.8564 35.5749 33.1525C35.5302 33.6256 35.5141 34.101 35.5266 34.5761C35.5307 34.6592 35.5097 34.7417 35.4661 34.8127C35.4226 34.8836 35.3587 34.9398 35.2827 34.9738C34.7049 35.2615 34.1513 35.5977 33.6043 35.9404C32.9584 36.3446 32.3213 36.7642 31.6798 37.1772C30.8999 37.6781 30.1529 38.2252 29.417 38.7854C28.7403 39.2995 28.0988 39.8531 27.4661 40.4221C26.985 40.8615 26.4995 41.2833 26.0579 41.7578C25.5438 42.3114 25.032 42.8562 24.5552 43.4538C24.4564 43.5746 24.408 43.5549 24.3246 43.4538C23.682 42.6479 22.9894 41.8834 22.2507 41.1646C21.2938 40.2505 20.2876 39.3895 19.2365 38.5855C18.3182 37.8868 17.3692 37.2322 16.4025 36.6082C15.7435 36.182 15.0844 35.7471 14.388 35.3802C14.1331 35.2462 13.8871 35.099 13.6256 34.9803C13.3093 34.8353 13.3796 34.541 13.3664 34.2883C13.3741 33.7892 13.341 33.2903 13.2675 32.7966C13.2204 32.5371 13.1383 32.2851 13.0237 32.0475C12.9714 31.9761 12.9458 31.8886 12.9515 31.8002C12.9571 31.7119 12.9935 31.6284 13.0544 31.5642C13.0892 31.513 13.1172 31.4576 13.1379 31.3994C13.7684 31.9596 14.2364 33.4096 13.797 34.2707C13.7662 34.3015 13.7772 34.341 13.7706 34.3784C13.7091 34.6838 13.7113 34.7035 14.0365 34.7013C14.5044 34.7013 14.9679 34.7519 15.4337 34.7541C15.5505 34.7497 15.6666 34.7738 15.772 34.8244C16.5256 35.3494 17.2725 35.8899 18.0392 36.3995C18.8894 36.9641 19.7242 37.5529 20.5195 38.1944C21.9546 39.3107 23.2284 40.62 24.3048 42.0851C24.408 42.2323 24.4696 42.1752 24.5421 42.0697C25.2474 41.1055 26.049 40.2156 26.9345 39.4137C27.8095 38.5886 28.7491 37.8349 29.7443 37.1597C30.8845 36.3688 32.0533 35.6218 33.1671 34.7892C33.6458 34.738 34.1269 34.7131 34.6083 34.7145H34.7027C34.8499 34.7145 35.0301 34.7585 35.1289 34.6486C35.2278 34.5388 35.0411 34.396 35.0476 34.2663Z" fill="#673017"/>
<path d="M24.4827 11.7481H24.296C24.0066 11.843 23.7042 11.8927 23.3997 11.8953C21.9146 12.0337 20.447 12.2951 18.9685 12.4885C18.0172 12.6137 17.066 12.7301 16.1125 12.7762C15.3788 12.8136 14.6428 12.7521 13.9156 12.8443C13.8209 12.8528 13.7263 12.8262 13.6498 12.7697H13.6015C13.3444 12.7367 13.3466 12.7367 13.3422 12.9893C13.3378 13.242 13.3576 13.4287 13.3312 13.6638C13.1621 13.6814 13.1665 13.5474 13.1555 13.4441C13.139 13.2724 13.139 13.0995 13.1555 12.9278C13.1636 12.8488 13.1468 12.7693 13.1074 12.7003C13.068 12.6313 13.008 12.5765 12.9358 12.5434C12.7864 12.4533 12.7161 12.4731 12.6678 12.6444C12.6432 12.7673 12.6351 12.8929 12.6436 13.0179C12.6436 13.1651 12.6436 13.3145 12.6436 13.4573C12.6436 13.5474 12.6436 13.6462 12.547 13.6989C12.481 13.677 12.5008 13.6221 12.5008 13.5803V12.3149C12.4964 12.2916 12.4969 12.2677 12.5022 12.2447C12.5075 12.2216 12.5175 12.1999 12.5316 12.1809C12.8332 12.1436 13.1372 12.1281 13.4411 12.1347C14.3462 12.1347 15.2535 12.1633 16.1565 12.1018C16.8002 12.0601 17.4439 11.9898 18.0832 11.8975C19.8407 11.647 21.5982 11.401 23.3557 11.2582C24.5099 11.1991 25.6671 11.2425 26.8136 11.3878C28.1494 11.5174 29.4741 11.7415 30.8054 11.9107C31.7413 12.0315 32.6816 12.104 33.6262 12.1304C34.4479 12.1567 35.2673 12.1304 36.089 12.1501C36.1812 12.1501 36.2779 12.126 36.3614 12.1919V12.807C36.234 13.0003 36.1988 13.0113 36.0934 12.8378C35.9879 12.6642 35.9396 12.7125 35.8627 12.8378C35.8319 12.9006 35.7927 12.959 35.7463 13.0113C35.6869 13.0662 35.632 13.1519 35.5266 13.0838C35.509 12.7521 35.509 12.7521 35.1926 12.7609C35.1496 12.7951 35.0993 12.819 35.0457 12.8308C34.992 12.8426 34.9363 12.842 34.8829 12.829C34.5806 12.7909 34.2755 12.7792 33.9712 12.7938C32.5264 12.779 31.0845 12.6615 29.6564 12.4423C28.4965 12.2951 27.3453 12.0666 26.1765 11.9744C25.7877 11.9436 25.401 11.8777 25.0122 11.847C24.831 11.8478 24.6514 11.8142 24.4827 11.7481Z" fill="#AE7853"/>
<path d="M15.471 15.0259C15.4513 14.8699 15.471 14.7315 15.6402 14.6656C15.5853 14.5711 15.5084 14.6085 15.4447 14.6041C15.0602 14.5755 14.6692 14.6612 14.2891 14.5228C14.1661 14.4767 14.0694 14.547 14.0694 14.7051C14.0719 14.8057 14.0668 14.9063 14.054 15.0061C13.9815 14.8326 14.0716 14.637 13.9859 14.4657C13.9859 14.4173 13.9442 14.3602 14.0211 14.3317C14.2725 14.3825 14.5294 14.4017 14.7856 14.3888C18.74 14.3448 22.712 14.3756 26.6774 14.369C28.8106 14.369 30.9438 14.369 33.077 14.369C33.2967 14.369 33.5296 14.4042 33.7559 14.3954C33.7871 14.3918 33.8187 14.3957 33.8482 14.4068C33.8776 14.4178 33.9039 14.4358 33.925 14.4591C33.9078 14.4846 33.884 14.505 33.8562 14.5181C33.8284 14.5313 33.7975 14.5367 33.7669 14.5338C33.6768 14.5338 33.5098 14.481 33.5472 14.626C33.5845 14.771 33.6263 14.927 33.8284 14.9116C33.8437 14.9116 33.8569 14.9007 33.8723 14.8985C33.925 14.8985 33.9953 14.8699 34.0085 14.9402C34.0217 15.0105 33.9382 15.0193 33.8833 15.0259C33.8518 15.0281 33.8203 15.0281 33.7888 15.0259C33.7538 15.0572 33.7127 15.0809 33.6681 15.0956C33.6235 15.1104 33.5764 15.1158 33.5296 15.1116C33.4197 15.1116 33.3099 15.1116 33.2 15.1116C28.0857 15.1116 22.9705 15.1116 17.8547 15.1116C17.1956 15.1116 16.5256 15.1116 15.8621 15.1116C15.7171 15.1116 15.5765 15.1335 15.471 15.0259Z" fill="#AF7A56"/>
<path d="M12.514 12.2072V13.6506H12.5601C12.5601 13.365 12.5601 13.0772 12.5601 12.7916C12.5561 12.6821 12.5819 12.5735 12.6348 12.4775C12.7205 12.3237 12.7842 12.3435 12.9424 12.4269C13.2741 12.6005 13.2104 12.8663 13.2236 13.1519C13.2236 13.3211 13.1401 13.5122 13.3049 13.6594C13.3485 13.9378 13.3537 14.221 13.3203 14.5008L13.3203 23.1127C13.3228 23.2447 13.3177 23.3767 13.3049 23.5081C13.0022 22.7591 12.7712 21.983 12.6151 21.1904C12.5141 20.5652 12.47 19.932 12.4833 19.2988C12.4833 16.9555 12.4833 14.6121 12.4833 12.2688C12.4833 12.2182 12.4525 12.1589 12.5162 12.1216C12.5218 12.1273 12.5263 12.134 12.5292 12.1415C12.5322 12.1489 12.5336 12.1569 12.5334 12.1649C12.5332 12.1729 12.5314 12.1808 12.528 12.188C12.5247 12.1953 12.5199 12.2019 12.514 12.2072Z" fill="#AB734B"/>
<path d="M35.52 13.0992C35.6803 13.0684 35.7397 12.9366 35.799 12.8114C35.8429 12.7235 35.8934 12.6422 36.0011 12.6422C36.1087 12.6422 36.1065 12.7411 36.1285 12.8114C36.1966 13.0311 36.2757 12.8487 36.3482 12.8114C36.3482 14.5953 36.3482 16.377 36.3482 18.1608C36.3482 19.0198 36.3768 19.881 36.2999 20.7378C36.2076 21.5782 36.0068 22.4031 35.7023 23.1918C35.6584 23.317 35.6056 23.4378 35.5573 23.563C35.4958 23.5433 35.52 23.4993 35.52 23.4686C35.52 20.0517 35.52 16.634 35.52 13.2156V13.0992Z" fill="#AA734E"/>
<path d="M24.4827 11.7481C25.0539 11.7481 25.6141 11.8623 26.1787 11.9085C26.9784 11.9722 27.7715 12.0864 28.5624 12.2138C29.4148 12.3522 30.2716 12.4445 31.1284 12.5566C31.4974 12.6071 31.8687 12.6554 32.24 12.673C32.9188 12.7059 33.5977 12.7103 34.2765 12.7301C34.5797 12.7411 34.8829 12.7609 35.186 12.7762C35.186 12.8597 35.1179 12.8905 35.063 12.9322C34.8411 13.076 34.6297 13.2353 34.4303 13.409C34.4007 13.4354 34.3658 13.4552 34.3279 13.4669C34.29 13.4787 34.25 13.4821 34.2106 13.4771H31.66C31.2874 13.3959 30.9092 13.3431 30.5286 13.3189C29.8146 13.2398 29.1094 13.1102 28.402 12.985C27.7891 12.8751 27.1739 12.7828 26.5368 12.6115C26.7192 12.8444 26.9191 13.0091 27.0905 13.2003C27.1586 13.2771 27.2706 13.343 27.2025 13.4771C26.7917 13.5056 26.4358 13.5232 26.1634 13.064C25.8909 12.6049 25.3747 12.4203 24.9551 12.1238C24.7826 12.0187 24.6239 11.8925 24.4827 11.7481Z" fill="#693017"/>
<path d="M13.641 12.7697C14.1705 12.7257 14.7021 12.7323 15.2316 12.7235C16.3531 12.7082 17.4724 12.6179 18.5818 12.4533C19.7967 12.271 21.0116 12.0864 22.2309 11.9436C22.9141 11.8324 23.604 11.7671 24.296 11.7481C24.108 11.9572 23.885 12.1319 23.6369 12.2644C23.1464 12.5523 22.7238 12.9427 22.3979 13.409C22.3846 13.4378 22.3641 13.4627 22.3383 13.4812C22.3125 13.4997 22.2823 13.5112 22.2507 13.5144C21.9609 13.5284 21.6704 13.5159 21.3829 13.4771C21.7554 13.2234 22.0892 12.917 22.3737 12.5675C22.0763 12.6065 21.7825 12.6689 21.4949 12.7543C20.1768 13.0113 18.8696 13.2552 17.5405 13.4024C17.4252 13.4123 17.3115 13.4367 17.2022 13.4749C16.3915 13.4968 15.5809 13.5386 14.7702 13.5254C14.6377 13.534 14.5067 13.4924 14.4033 13.409C14.1573 13.1915 13.8343 13.0596 13.641 12.7697Z" fill="#6B3018"/>
<path d="M26.3567 8.87015L25.7965 9.259C25.6647 9.259 25.6141 9.15135 25.5482 9.07007C25.2033 8.63069 24.8364 8.22426 24.5157 7.7739C24.4168 7.63769 24.3355 7.62451 24.2301 7.7739C23.9379 8.17813 23.5996 8.54501 23.3162 8.95583C23.2217 9.08984 23.136 9.25461 22.9339 9.2634L22.2748 8.82402C22.1208 8.75018 21.981 8.64978 21.8618 8.52743C21.8069 8.4835 21.763 8.42857 21.7102 8.38244C21.3697 8.06608 21.3675 8.06389 21.0512 8.38244C20.8912 8.54167 20.7092 8.67707 20.5107 8.78447C20.4316 8.83061 20.3504 8.88992 20.2515 8.82621C20.2515 8.64387 20.4053 8.53842 20.5151 8.44395C20.7468 8.19757 20.9314 7.91093 21.06 7.59814C21.1193 7.43557 21.194 7.28179 21.2511 7.11922C21.3082 6.95665 21.3631 6.95445 21.4884 7.0621C21.7476 7.28179 21.9936 7.52345 22.2529 7.74973C22.3426 7.84488 22.4624 7.90621 22.592 7.92342C22.7216 7.94062 22.8532 7.91265 22.9647 7.8442C23.3711 7.64428 23.571 7.26861 23.8544 6.96543C23.9546 6.84519 24.0463 6.7182 24.129 6.58537C24.2872 6.36568 24.3597 6.36568 24.5223 6.58537C24.7136 6.87877 24.9289 7.15579 25.166 7.4136C25.4176 7.64762 25.7113 7.83175 26.0315 7.95624C26.0805 7.98029 26.1359 7.98772 26.1894 7.97742C26.2429 7.96711 26.2916 7.93962 26.3281 7.89912C26.6269 7.64867 26.9169 7.38504 27.2179 7.13679C27.42 6.96983 27.4727 6.97862 27.5606 7.22028C27.6135 7.37513 27.6766 7.52632 27.7495 7.67284C27.8484 7.96321 28.0369 8.21473 28.2878 8.39123L28.3339 8.42198C28.4042 8.56039 28.6239 8.57357 28.6305 8.76909C28.5646 8.88553 28.4635 8.85917 28.3625 8.83939C28.0745 8.75587 27.823 8.5779 27.6485 8.3341C27.3936 8.04851 27.3409 8.04411 27.0355 8.28577C26.8908 8.40532 26.7536 8.53372 26.6247 8.67023C26.5521 8.75673 26.4603 8.82516 26.3567 8.87015Z" fill="#AE7651"/>
<path d="M29.5971 10.0499C29.5471 10.2853 29.4818 10.5172 29.4016 10.7441C29.3774 10.8693 29.261 10.854 29.1709 10.8474C28.714 10.8166 28.257 10.7881 27.8001 10.7463C27.3892 10.7112 26.9828 10.6409 26.572 10.6167C25.8031 10.5728 25.0342 10.5222 24.2631 10.5266C23.3997 10.5266 22.5407 10.6035 21.6795 10.6892C21.2247 10.7331 20.7678 10.7793 20.3086 10.8012C20.0762 10.8126 19.8444 10.836 19.6144 10.8715C19.4958 10.8913 19.4518 10.8584 19.3947 10.7551C19.2849 10.52 19.2673 10.2586 19.175 10.0191C19.1267 9.8983 19.2365 9.91368 19.3134 9.91368C19.4321 10.0125 19.5639 9.91368 19.6891 9.93565C19.9198 10.085 20.1746 10.0301 20.4251 10.0257C20.6755 10.0213 20.9721 10.0257 21.2445 9.98618C22.3558 9.86832 23.473 9.81623 24.5904 9.8302C25.4252 9.8302 26.26 9.89172 27.0949 9.92906C27.4903 9.94664 27.8879 9.99058 28.2834 10.0345C28.4469 10.0515 28.6121 10.0389 28.7711 9.99717C29.0451 9.92729 29.3342 9.94574 29.5971 10.0499Z" fill="#693019"/>
<path d="M38.8856 25.1141C38.4594 25.3996 38.0288 25.6765 37.6114 25.9708C37.0056 26.3834 36.4387 26.8504 35.9176 27.3659C35.8914 27.3946 35.8636 27.4218 35.8341 27.4472C35.7704 27.4977 35.7067 27.5922 35.6144 27.5592C35.5222 27.5262 35.5661 27.423 35.5529 27.3395C35.4721 26.9593 35.4841 26.5651 35.5881 26.1905C35.6891 26.1905 35.6408 26.0653 35.7199 26.0521C35.8913 25.9928 36.0077 25.8105 36.2164 25.8324C36.2284 25.8319 36.24 25.8279 36.2498 25.8209C36.2595 25.8139 36.267 25.8041 36.2713 25.7929C36.3372 25.5732 36.5393 25.4634 36.6821 25.303C36.7173 25.2634 36.7349 25.1953 36.7942 25.1953C36.9986 25.1709 37.2002 25.1268 37.3961 25.0635C37.7059 25.0042 38.0201 24.8856 38.354 24.9581C38.4836 24.9866 38.6132 25.0877 38.7692 24.991C38.8395 24.9493 38.8659 25.0569 38.8856 25.1141Z" fill="#91532E"/>
<path d="M22.9339 9.25901C23.3118 8.94705 23.5271 8.49888 23.8544 8.14518C23.9854 8.00154 24.1051 7.84803 24.2125 7.68602C24.3224 7.52565 24.4168 7.52345 24.5223 7.68602C24.832 8.13639 25.2055 8.53622 25.5372 8.96901C25.6185 9.07227 25.7108 9.16893 25.7965 9.26779C25.7152 9.34029 25.6141 9.38862 25.5614 9.48748C25.5186 9.52716 25.4671 9.55619 25.411 9.57222C25.3549 9.58826 25.2958 9.59084 25.2385 9.57975C24.72 9.57975 24.1993 9.56438 23.6809 9.57975C23.6238 9.59223 23.5645 9.59055 23.5082 9.57485C23.4519 9.55915 23.4003 9.52991 23.3579 9.48968C23.2085 9.41938 23.0152 9.44574 22.9339 9.25901Z" fill="#693216"/>
<path d="M12.514 12.2072L12.503 12.1128C13.0347 12.1018 13.5663 12.071 14.098 12.0864C15.8648 12.1031 17.6296 11.9597 19.3705 11.658C20.9981 11.3949 22.6399 11.2291 24.2872 11.1615C25.1395 11.1656 25.9907 11.2235 26.8356 11.3351C28.5931 11.502 30.3309 11.8338 32.0884 11.9941C33.211 12.0996 34.338 12.0798 35.4651 12.0842C35.7067 12.0842 35.9484 12.0842 36.1922 12.0842C36.2603 12.0842 36.3636 12.0513 36.3504 12.1875C35.1377 12.1875 33.9338 12.2204 32.7167 12.1413C31.5634 12.0622 30.4166 11.9216 29.2742 11.7481C28.1318 11.5745 26.9345 11.4647 25.7591 11.3351C24.2213 11.1637 22.7054 11.3636 21.1852 11.5262C19.5397 11.6998 17.914 12.0227 16.2619 12.1326C15.0163 12.2336 13.764 12.1963 12.514 12.2072Z" fill="#F3D5BC"/>
<path d="M26.3567 8.87015C26.6045 8.58984 26.8757 8.33114 27.1673 8.09684C27.2926 7.99359 27.4925 8.05291 27.6265 8.21548C27.8462 8.46812 28.0417 8.72296 28.3932 8.79546C28.4288 8.8084 28.4666 8.81391 28.5044 8.81164C28.5422 8.80937 28.5791 8.79938 28.6129 8.78228C29.1692 8.46269 29.6906 8.08569 30.1683 7.65746C30.2364 7.60034 30.2738 7.49929 30.388 7.51466C30.2167 8.06389 30.0365 8.61312 29.8805 9.16234C29.8212 9.38203 29.696 9.38203 29.5356 9.34029C29.0699 9.25461 28.6041 9.15575 28.1362 9.08765C27.5474 9.00197 26.9521 8.94045 26.3567 8.87015Z" fill="#8A4E2A"/>
<path d="M10.4885 24.5099C9.95461 24.143 9.37244 23.8508 8.81442 23.3807C9.2538 23.3324 9.60531 23.2291 9.98318 23.3236C10.0974 23.4114 10.2468 23.3939 10.3742 23.44C10.981 23.6363 11.54 23.9574 12.0152 24.3826C12.4904 24.8079 12.8714 25.328 13.1335 25.9093C13.1395 25.9232 13.1425 25.9382 13.1425 25.9533C13.1425 25.9684 13.1395 25.9833 13.1335 25.9972C13.0303 26.0785 12.96 26.0192 12.8985 25.9401C12.7688 25.7753 12.6326 25.6127 12.4876 25.459C12.2596 25.2184 11.9921 25.0185 11.6968 24.868C11.6836 24.868 11.6638 24.8482 11.6528 24.8526C11.2903 25.0196 11.1278 24.6483 10.8663 24.545C10.7345 24.4901 10.6071 24.5824 10.4885 24.5099Z" fill="#A8724E"/>
<path d="M10.4885 24.5099C10.6686 24.4396 10.8158 24.3715 11.0025 24.5714C11.1036 24.6813 11.3782 24.6219 11.3892 24.8922C11.5825 24.7318 11.9208 24.8504 12.1625 25.0613C12.4742 25.3294 12.755 25.6315 12.9995 25.9621C13.0215 25.9928 13.0852 25.9884 13.1313 26.0016C13.1577 25.9796 13.1313 25.9247 13.1775 25.9159C13.2779 26.1016 13.3251 26.3115 13.3137 26.5223C13.3436 26.6204 13.3436 26.7251 13.3137 26.8232C13.2657 26.7554 13.1945 26.7074 13.1136 26.6884C13.0326 26.6693 12.9475 26.6806 12.8743 26.72C12.8326 26.742 12.7798 26.72 12.7513 26.6695C12.4547 26.2674 12.0241 26.0236 11.6199 25.7599C11.1464 25.4667 10.6216 25.2662 10.0732 25.169L9.80962 25.0218C10.1434 24.9137 10.4937 24.8654 10.8444 24.879C10.7763 24.6857 10.5719 24.6571 10.4885 24.5099Z" fill="#9A5D36"/>
<path d="M20.2537 8.82401C20.6304 8.69017 20.9602 8.44975 21.2028 8.13198C21.295 8.03092 21.3631 8.02433 21.4576 8.09683C21.7485 8.31848 22.0224 8.56155 22.277 8.82401C21.9483 8.91661 21.6113 8.97694 21.2709 9.00415C20.5907 9.08449 19.9158 9.20479 19.2497 9.36444C19.1223 9.3952 19.041 9.39081 18.9971 9.2546C18.8323 8.72734 18.6412 8.20887 18.5269 7.66843C18.5687 7.63987 18.5994 7.66843 18.628 7.6926C19.0921 8.12409 19.6168 8.48529 20.1856 8.76469C20.2126 8.77888 20.2359 8.79919 20.2537 8.82401Z" fill="#8E512D"/>
<path d="M17.1978 13.4749C17.345 13.2815 17.5757 13.3189 17.769 13.2969C18.4632 13.2134 19.1574 13.1212 19.8451 12.9915C20.4617 12.8744 21.079 12.7535 21.6971 12.6291C21.9409 12.5807 22.1826 12.5148 22.4242 12.4599C22.4527 12.4498 22.4837 12.4498 22.5121 12.4599C22.5429 12.4797 22.5319 12.517 22.5121 12.5412C22.2236 12.8874 21.8878 13.1914 21.5147 13.4441C21.4709 13.4596 21.425 13.4685 21.3785 13.4705H19.0849C18.8991 13.5056 18.7084 13.5056 18.5225 13.4705H17.9579C17.7249 13.5056 17.4879 13.5056 17.2549 13.4705L17.1978 13.4749Z" fill="#834829"/>
<path d="M39.4151 27.6053C39.0416 27.6669 38.6681 27.7174 38.2991 27.7921C37.4874 27.9415 36.7039 28.2165 35.9769 28.6071C35.8429 28.6818 35.7924 28.6752 35.7397 28.5061C35.6994 28.417 35.6937 28.3161 35.7238 28.2231C35.7539 28.1301 35.8175 28.0516 35.9022 28.003C36.0209 27.9173 36.1395 27.8294 36.2603 27.7437C36.5635 27.6471 36.8008 27.4296 37.082 27.3044C37.4381 27.1582 37.8208 27.0882 38.2056 27.0988C38.5904 27.1094 38.9687 27.2004 39.3162 27.3659C39.3865 27.434 39.4766 27.4889 39.4151 27.6053Z" fill="#915532"/>
<path d="M29.5971 10.0499C29.1913 10.0433 28.7855 10.0631 28.3822 10.1092C28.1105 10.1185 27.8385 10.0971 27.5716 10.0455C27.1717 9.98399 26.7697 9.98838 26.3677 9.96641C25.3703 9.91369 24.3729 9.88513 23.3755 9.91369C22.8263 9.93126 22.2771 9.95103 21.7322 10.0103C21.2379 10.0631 20.7436 10.096 20.2493 10.1224C20.0869 10.1019 19.923 10.0945 19.7594 10.1004C19.7484 10.0323 19.8275 10.0455 19.8209 10.0389C19.7748 9.9774 19.6979 10.0389 19.6408 9.99717C19.6605 9.89831 19.7418 9.91588 19.8077 9.90929C21.1667 9.72034 22.5355 9.61031 23.9072 9.57976C25.0143 9.56357 26.1216 9.60464 27.2245 9.70278C27.9824 9.77528 28.7359 9.87854 29.4917 9.96861C29.5307 9.96859 29.5687 9.98175 29.5993 10.006C29.603 10.0205 29.6023 10.0358 29.5971 10.0499Z" fill="#925A38"/>
<path d="M33.9184 14.4569C32.8002 14.402 31.682 14.4283 30.566 14.4261C25.7943 14.4261 21.0241 14.4261 16.2553 14.4261C15.5743 14.4261 14.8955 14.4635 14.2166 14.4261C14.1375 14.4261 14.0321 14.4657 14.0145 14.3317C15.6256 14.3317 17.2366 14.3317 18.8477 14.3317L34.4457 14.3317C34.5643 14.3317 34.6808 14.3317 34.7972 14.3426V14.4217C34.7115 14.5096 34.6149 14.4569 34.5182 14.4481C34.4203 14.429 34.3192 14.4343 34.2238 14.4635L33.9184 14.4569Z" fill="#F1D1B7"/>
<path d="M27.2069 13.4705C27.1827 13.3255 27.0509 13.2618 26.963 13.1673C26.7449 12.972 26.5516 12.7506 26.3875 12.5082C26.551 12.5081 26.7127 12.5426 26.862 12.6093C27.6573 12.7916 28.4657 12.8993 29.2654 13.0596C30.0145 13.209 30.7769 13.2354 31.526 13.3826C31.5875 13.3826 31.6534 13.3826 31.6644 13.4727H30.6802C30.1529 13.3804 29.6279 13.4727 29.1006 13.4727C29.0325 13.4727 28.9622 13.5034 28.8963 13.4727L27.2069 13.4705Z" fill="#864B29"/>
<path d="M38.7516 23.3258C39.191 23.2137 39.6304 23.3258 40.1115 23.3785C39.5908 23.8333 38.9889 24.0859 38.466 24.455C38.2793 24.4726 38.1013 24.422 37.908 24.455C37.5499 24.4923 37.2665 24.7252 36.9172 24.7713C36.8271 24.7713 36.7744 24.8878 36.6975 24.9405C36.6206 24.9932 36.513 25.0394 36.4778 24.8878C36.4807 24.837 36.4943 24.7875 36.5178 24.7424C36.5413 24.6973 36.5741 24.6578 36.614 24.6264C37.2006 24.0705 37.8377 23.5938 38.6462 23.4049C38.7231 23.3873 38.8043 23.4049 38.8659 23.3653C38.8558 23.3705 38.8448 23.3736 38.8335 23.3744C38.8223 23.3752 38.8109 23.3737 38.8003 23.37C38.7896 23.3663 38.7798 23.3605 38.7714 23.3529C38.763 23.3453 38.7563 23.3361 38.7516 23.3258Z" fill="#AD7750"/>
<path d="M10.0732 25.169C10.2051 25.0855 10.3171 25.169 10.4423 25.1931C10.8685 25.2612 11.22 25.5029 11.6111 25.6523C11.7737 25.716 11.8879 25.9137 12.0505 25.9643C12.3141 26.0455 12.4701 26.274 12.6392 26.4278C12.6994 26.5066 12.7818 26.5655 12.8758 26.5968C12.9698 26.6281 13.0711 26.6305 13.1665 26.6036C13.2763 26.575 13.2368 26.72 13.3137 26.7749V26.5289C13.4257 26.8606 13.3378 27.1879 13.2895 27.5175C13.2697 27.6581 13.1577 27.5394 13.116 27.5043C12.8699 27.3022 12.6326 27.0891 12.3932 26.8782C11.8802 26.4377 11.3401 26.0298 10.7763 25.6567C10.5412 25.4919 10.3083 25.3272 10.0732 25.169Z" fill="#824421"/>
<path d="M36.4954 24.8548C36.5196 24.9185 36.5635 24.9954 36.6206 24.9163C36.8008 24.6659 37.1061 24.6791 37.339 24.5516C37.607 24.4045 37.8948 24.422 38.1651 24.332C38.3254 24.2836 38.3496 24.4616 38.466 24.4484C38.2969 24.5802 38.1277 24.7142 37.9168 24.8878C38.2795 24.8669 38.6433 24.9017 38.9955 24.991C39.0087 25.0767 38.9186 25.0723 38.8856 25.1184C38.778 24.9647 38.6857 25.1184 38.5869 25.1338C38.5407 25.147 38.4836 25.2019 38.455 25.1184C38.455 25.1009 38.4946 25.0679 38.521 25.0372C38.2244 25.0372 37.9234 24.9778 37.6422 25.0965C37.4906 25.1602 37.2885 25.0965 37.1786 25.2722C37.1501 25.3228 37.0776 25.2481 37.0556 25.2722C36.9655 25.3381 36.7524 25.1338 36.7546 25.4106C36.7546 25.4743 36.669 25.4656 36.6228 25.4875C36.5685 25.5068 36.5198 25.5394 36.4814 25.5824C36.443 25.6254 36.4161 25.6774 36.4031 25.7336C36.368 25.894 36.2823 26.006 36.0912 25.9203C36.0472 25.9005 36.0011 25.9203 35.9923 25.9489C35.9616 26.0851 35.8341 26.0675 35.7463 26.1136C35.6694 25.9884 35.7924 25.894 35.799 25.7819C35.9188 25.5115 36.074 25.2581 36.2603 25.0284C36.3219 24.9493 36.3658 24.8329 36.4954 24.8548Z" fill="#A16540"/>
<path d="M29.5993 10.0103C28.8985 9.98838 28.2021 9.88512 27.5035 9.81482C26.0664 9.6706 24.6211 9.6251 23.1778 9.67861C22.0068 9.72036 20.8469 9.86755 19.6803 9.97739C19.6658 9.98296 19.6524 9.99116 19.6408 10.0016C19.5298 10.0137 19.4178 10.0137 19.3068 10.0016C19.1794 9.973 19.3288 9.94664 19.32 9.91368C19.9286 9.83459 20.5371 9.75111 21.1478 9.67202C21.8816 9.57756 22.6176 9.52263 23.3579 9.48089H25.5548C26.8268 9.57975 28.0944 9.70058 29.3511 9.90929C29.4346 9.92247 29.5158 9.95103 29.5993 9.9708C29.6009 9.97348 29.6017 9.9765 29.6017 9.97959C29.6017 9.98267 29.6009 9.9857 29.5993 9.98838C29.5993 9.98838 29.6059 10.0103 29.5993 10.0103Z" fill="#EDCEB2"/>
<path d="M12.2965 32.3287C12.5557 32.5967 12.6239 32.9109 12.4942 33.1437C12.4046 33.2778 12.2724 33.3778 12.1189 33.4277C11.9655 33.4775 11.7998 33.4742 11.6484 33.4184C11.4727 33.3761 11.3117 33.2872 11.1822 33.1612C11.0527 33.0352 10.9595 32.8766 10.9125 32.7022C10.8614 32.5459 10.8597 32.3777 10.9077 32.2205C10.9556 32.0632 11.0509 31.9246 11.1805 31.8234C11.3423 31.6878 11.545 31.6104 11.7561 31.6037C11.8418 31.6037 11.9121 31.6037 11.9274 31.7092C11.9428 31.8146 11.8945 31.8564 11.7956 31.8871C11.4529 31.9948 11.3123 32.2101 11.376 32.5066C11.3865 32.6212 11.4401 32.7274 11.5261 32.8038C11.612 32.8802 11.7239 32.9209 11.8388 32.9179C11.9538 32.9148 12.0632 32.8681 12.145 32.7872C12.2267 32.7063 12.2746 32.5974 12.2789 32.4825C12.2855 32.4363 12.2899 32.399 12.2965 32.3287Z" fill="#A97351"/>
<path d="M36.5305 32.3199C36.5371 32.448 36.5732 32.5728 36.636 32.6846C36.686 32.7655 36.7603 32.8286 36.8483 32.8649C36.9362 32.9011 37.0334 32.9088 37.1259 32.8867C37.2231 32.8688 37.312 32.82 37.3793 32.7476C37.4466 32.6752 37.4887 32.583 37.4994 32.4847C37.5213 32.3769 37.5087 32.265 37.4633 32.1648C37.418 32.0646 37.3422 31.9813 37.2467 31.9267C37.1857 31.891 37.1199 31.8643 37.0512 31.8476C36.9655 31.8256 36.9172 31.7882 36.926 31.6872C36.9348 31.5861 37.0204 31.5861 37.0973 31.5861C37.2564 31.5837 37.4132 31.6246 37.5509 31.7043C37.6885 31.784 37.802 31.8996 37.8791 32.0388C37.9563 32.1779 37.9942 32.3354 37.9888 32.4944C37.9834 32.6534 37.935 32.808 37.8487 32.9416C37.7448 33.1207 37.589 33.2638 37.4018 33.3521C37.2146 33.4404 37.005 33.4697 36.8008 33.4359C36.6908 33.4251 36.5867 33.381 36.5023 33.3096C36.418 33.2382 36.3573 33.1428 36.3284 33.0361C36.286 32.9102 36.2827 32.7745 36.3187 32.6467C36.3548 32.5189 36.4286 32.405 36.5305 32.3199Z" fill="#A97551"/>
<path d="M10.5368 19.3977C10.6444 19.4285 10.6862 19.5251 10.7565 19.602C11.0406 19.9593 11.2831 20.3477 11.4793 20.7598C11.4958 20.8116 11.5311 20.8555 11.5781 20.8828L12.1449 23.0072C12.1845 23.1039 12.1449 23.1325 12.0658 23.0819C11.9852 23.0198 11.9217 22.9381 11.8813 22.8447C11.4419 22.0384 11.0267 21.2321 10.6488 20.4017C10.6115 20.299 10.5806 20.1941 10.5566 20.0875C10.4897 19.8633 10.4828 19.6254 10.5368 19.3977Z" fill="#AA7756"/>
<path d="M27.7166 7.708C27.6067 7.54671 27.5278 7.36645 27.4837 7.17635C27.4486 7.0709 27.4134 7.04673 27.3123 7.139C26.996 7.42899 26.6533 7.70141 26.3457 7.98481C26.3025 8.02813 26.2465 8.05642 26.186 8.06552C26.1255 8.07462 26.0636 8.06404 26.0096 8.03534C25.3505 7.80247 24.9265 7.32134 24.5552 6.77212L24.3575 6.48213C24.3575 6.47114 24.3311 6.46675 24.3026 6.45137C24.0983 6.80288 23.8127 7.09287 23.5776 7.4224C23.3362 7.70906 23.022 7.92535 22.6681 8.04852C22.5648 8.09685 22.5011 8.01776 22.4484 7.97163C22.0703 7.68005 21.7094 7.36684 21.3675 7.03355C21.3006 7.2329 21.2153 7.42559 21.1127 7.60914C21.0819 7.6355 21.0995 7.71459 21.0336 7.69702C20.9677 7.67944 20.9963 7.6399 21.0182 7.60255C21.1234 7.32148 21.2071 7.03286 21.2687 6.73917C21.4199 6.85032 21.5577 6.9786 21.6795 7.12143C21.9351 7.37381 22.2074 7.60868 22.4945 7.82444C22.5324 7.85733 22.5796 7.87773 22.6295 7.88284C22.6795 7.88795 22.7298 7.87753 22.7735 7.85299C23.078 7.72809 23.3424 7.52219 23.5381 7.25764C23.8039 6.89515 24.0895 6.54364 24.3421 6.1482C24.5609 6.52098 24.8069 6.87712 25.0781 7.2137C25.3411 7.5148 25.6737 7.74708 26.0469 7.89035C26.0886 7.91013 26.1354 7.91632 26.1807 7.90804C26.226 7.89976 26.2676 7.87743 26.2996 7.84421C26.654 7.55129 26.9975 7.24445 27.3299 6.92371C27.4398 6.81825 27.5211 6.74356 27.5694 6.98302C27.6292 7.20696 27.7026 7.42705 27.7891 7.64209C27.7913 7.70141 27.7649 7.71459 27.7166 7.708Z" fill="#E8CAB4"/>
<path d="M37.2907 20.751L37.3149 20.9158C37.4876 20.5519 37.6912 20.2035 37.9234 19.8744C38.0244 19.6898 38.161 19.527 38.3254 19.3955C38.374 19.6125 38.374 19.8376 38.3254 20.0546C38.2001 20.5063 38.0059 20.9361 37.7498 21.3288C37.4049 21.9395 37.1259 22.5832 36.7722 23.1896L36.6514 23.2796C36.8447 22.4053 37.1215 21.5924 37.2907 20.751Z" fill="#AB754F"/>
<path d="M36.7722 23.1808C36.8717 22.8446 37.0142 22.5226 37.1962 22.2229C37.5653 21.4936 37.9498 20.7708 38.3254 20.0458C38.3562 20.5555 38.1475 21.0059 37.9388 21.443C37.6535 22.0451 37.2917 22.6077 36.8623 23.1171C36.8349 23.1418 36.8046 23.1632 36.7722 23.1808Z" fill="#6D3B1D"/>
<path d="M10.55 20.0875C10.8356 20.6653 11.119 21.2431 11.4068 21.8165C11.5979 22.1966 11.7978 22.5722 11.9999 22.9457C12.0197 22.9853 12.0307 23.1346 12.1383 23.0072L12.2372 23.3324L12.1998 23.3521C12.0013 23.1434 11.815 22.9233 11.6418 22.6931C11.1789 22.0659 10.8294 21.3626 10.6093 20.6148C10.556 20.4445 10.5358 20.2655 10.55 20.0875Z" fill="#6F3B1D"/>
<path d="M25.7108 5.22109C25.9359 5.55369 26.184 5.87009 26.4534 6.16796C26.3062 6.31955 26.1568 6.46674 26.014 6.62052C25.9327 6.7084 25.8646 6.72817 25.8053 6.60295C25.7899 6.57439 25.7723 6.55022 25.7547 6.52386C25.4428 6.09986 25.3615 5.66707 25.7108 5.22109Z" fill="#96613C"/>
<path d="M23.5556 13.2793C23.5205 13.1959 23.5556 13.1563 23.6325 13.1146C23.8839 12.9632 24.1069 12.7692 24.2916 12.5412C24.3773 12.4379 24.4212 12.4555 24.5113 12.5412C24.7055 12.7936 24.9511 13.0017 25.2319 13.1519C25.2824 13.2705 25.1835 13.2991 25.1154 13.3013C24.5962 13.35 24.0733 13.3426 23.5556 13.2793Z" fill="#AF7952"/>
<path d="M22.3781 6.15477C22.5876 5.93663 22.7787 5.70149 22.9493 5.45176C23.002 5.38366 23.0569 5.31995 23.1097 5.25624L23.1646 5.38366C23.3843 5.84501 23.3316 6.14818 22.9888 6.53703C22.9141 6.62271 22.8592 6.62711 22.7801 6.53703C22.6505 6.41181 22.5121 6.2756 22.3781 6.15477Z" fill="#935F3D"/>
<path d="M36.4954 24.8548C36.233 25.1271 36.0111 25.4356 35.8363 25.7709C35.8308 25.7778 35.8237 25.7834 35.8158 25.7872C35.8078 25.791 35.799 25.793 35.7902 25.793C35.7814 25.793 35.7726 25.791 35.7646 25.7872C35.7567 25.7834 35.7496 25.7778 35.7441 25.7709C36.3482 24.4704 37.2973 23.5916 38.7472 23.328H38.9669C38.6659 23.4488 38.3518 23.5279 38.0552 23.6575C37.7456 23.7864 37.458 23.9628 37.2028 24.1804C36.9699 24.3935 36.6712 24.5626 36.4954 24.8548Z" fill="#F1DBC5"/>
<path d="M13.1775 25.9181L13.1313 26.0038C12.9008 25.4921 12.5767 25.0279 12.1757 24.6351C11.5433 23.9985 10.7422 23.5557 9.86674 23.3587L9.98317 23.3258C10.9278 23.4115 11.6638 23.8948 12.3097 24.5516C12.692 24.9409 12.9877 25.4066 13.1775 25.9181Z" fill="#F1DACA"/>
<path d="M21.0072 7.59376C21.0314 7.73436 21.0709 7.59376 21.1017 7.59376C21.0405 7.85063 20.9107 8.08604 20.726 8.2748C20.5882 8.46922 20.4299 8.64821 20.2537 8.80865C20.0582 8.81963 19.9242 8.68123 19.7726 8.58896C19.309 8.34528 18.8883 8.0277 18.5269 7.64868L18.4522 7.45536C18.6829 7.62671 18.8631 7.75633 19.0366 7.89474C19.2999 8.10153 19.5791 8.28737 19.8714 8.45055C20.1702 8.61752 20.2273 8.60434 20.491 8.38465C20.7546 8.16496 20.8403 7.87277 21.0072 7.59376Z" fill="#D1AF96"/>
<path d="M23.5556 13.2793C23.8795 13.2347 24.207 13.2229 24.5333 13.2442C24.7024 13.2442 24.876 13.2442 25.0473 13.2442C25.1176 13.2442 25.2121 13.2771 25.2319 13.1563C25.3154 13.376 25.267 13.4749 25.0583 13.4771C24.6299 13.4771 24.2015 13.4771 23.7731 13.4771C23.6325 13.4771 23.5469 13.4353 23.5556 13.2793Z" fill="#7B4427"/>
<path d="M39.3118 27.4252C38.6299 27.1218 37.8586 27.0873 37.1523 27.3285C37.1242 27.3404 37.0983 27.3567 37.0754 27.3769C37.0117 27.3769 36.9282 27.445 36.9216 27.3153L37.5323 26.988C37.6474 27.0461 37.7771 27.0692 37.9052 27.0543C38.0332 27.0395 38.1541 26.9874 38.2529 26.9045C38.3298 27.0517 38.488 27.0012 38.6044 27.032C38.8907 27.0952 39.1636 27.2082 39.4107 27.3659C39.4173 27.4538 39.3646 27.4406 39.3118 27.4252Z" fill="#F7E4D4"/>
<path d="M30.3902 7.51466C29.9508 7.99798 29.3994 8.3385 28.8853 8.72515C28.8084 8.78227 28.725 8.86576 28.6151 8.78227C28.547 8.64607 28.3471 8.61531 28.3339 8.43516C28.4324 8.51773 28.5579 8.56114 28.6863 8.55708C28.8148 8.55303 28.9372 8.50181 29.0303 8.41319C29.428 8.10563 29.8388 7.81344 30.2474 7.52125C30.2804 7.49708 30.3397 7.37406 30.3902 7.51466Z" fill="#D7B196"/>
<path d="M28.8963 13.4749C29.3665 13.4287 29.8366 13.3892 30.3045 13.3343C30.3739 13.3283 30.4436 13.3381 30.5086 13.3628C30.5737 13.3875 30.6323 13.4266 30.6802 13.4771C30.6319 13.5298 30.5682 13.521 30.5066 13.521H29.0611C29.0084 13.5254 28.9446 13.5254 28.8963 13.4749Z" fill="#693017"/>
<path d="M37.2665 30.3712C36.7898 30.0747 36.2999 30.1757 35.8078 30.3295C35.766 30.3427 35.7045 30.4064 35.6782 30.3163C35.6782 30.2987 35.7221 30.2614 35.7485 30.2328C36.0866 30.0966 36.4496 30.0329 36.814 30.0461C37.0249 30.0725 37.2072 30.1362 37.2665 30.3712Z" fill="#E3C3A8"/>
<path d="M13.0764 30.2372L13.1753 30.3317C13.0283 30.3424 12.881 30.316 12.7469 30.2548C12.5681 30.2032 12.3806 30.189 12.1962 30.2132C12.0117 30.2374 11.8342 30.2994 11.6748 30.3954C11.6396 30.4174 11.6001 30.4723 11.5803 30.3822C11.8747 30.011 12.2723 30.0417 12.6788 30.112C12.814 30.1446 12.9469 30.1864 13.0764 30.2372Z" fill="#E3C6AD"/>
<path d="M13.3181 14.5052L13.3027 13.6638V12.9674C13.3027 12.706 13.3203 12.695 13.5861 12.7675C13.3928 12.7455 13.3378 12.8334 13.3444 13.0223C13.3598 13.4353 13.3444 13.8461 13.3444 14.2592C13.3532 14.3404 13.3774 14.4305 13.3181 14.5052Z" fill="#6B3018"/>
<path d="M36.9216 27.3153C36.9546 27.3769 37.0205 27.3593 37.0754 27.3769L36.3702 27.7635C36.3284 27.7855 36.2867 27.8075 36.2603 27.7437C36.4665 27.5801 36.6879 27.4366 36.9216 27.3153Z" fill="#DDBC9F"/>
<path d="M27.7166 7.70799L27.7737 7.64867C27.9275 7.9123 28.0351 8.20888 28.2878 8.4044C28.1478 8.33658 28.0243 8.23919 27.9257 8.11895C27.827 7.99871 27.7557 7.85849 27.7166 7.70799Z" fill="#D7B196"/>
<path d="M35.7484 25.7687H35.8407C35.8693 25.8961 35.7463 25.9884 35.7463 26.0983C35.6759 26.0983 35.7463 26.318 35.5969 26.1883C35.6154 26.0389 35.6672 25.8955 35.7484 25.7687Z" fill="#BB8C70"/>
<path d="M39.3118 27.4252C39.3492 27.4252 39.3975 27.4252 39.4107 27.3681C39.5383 27.4201 39.652 27.5013 39.7424 27.6053H39.4151C39.4283 27.5175 39.3448 27.4867 39.3118 27.4252Z" fill="#B7957E"/>
<path d="M17.2549 13.4771H17.9579C17.729 13.5485 17.4838 13.5485 17.2549 13.4771Z" fill="#6B3018"/>
<path d="M38.9471 26.6563C39.1292 26.5927 39.3275 26.5927 39.5096 26.6563H38.9471Z" fill="#F7E4D4"/>
<path d="M18.5159 13.4771H19.0784C18.8971 13.5452 18.6972 13.5452 18.5159 13.4771Z" fill="#6B3018"/>
<path d="M33.7163 32.9021C33.5794 33.1305 33.3942 33.3261 33.1737 33.4755C33.0351 33.7087 32.845 33.9071 32.6179 34.0555C31.8205 34.7186 30.9785 35.3264 30.098 35.8745C28.982 36.6083 27.8572 37.3332 26.9389 38.3174C26.4687 38.8183 26.0228 39.339 25.5394 39.8289C25.2635 40.1034 24.97 40.3595 24.6607 40.5956C24.4212 40.7802 24.3663 40.778 24.1312 40.5956C23.5216 40.0962 22.9551 39.5465 22.4374 38.9523C21.7248 38.1311 20.9206 37.394 20.0406 36.7554C19.2124 36.1579 18.3292 35.6394 17.5076 35.0309C16.8878 34.5838 16.295 34.1004 15.7325 33.5831C15.689 33.5387 15.652 33.4885 15.6226 33.4337C15.4406 33.2997 15.2805 33.1381 15.1481 32.9548C14.9895 32.8701 14.8676 32.7302 14.8054 32.5616C14.5571 32.0629 14.3111 31.562 14.0409 31.0765C14.0319 31.0642 14.0256 31.0504 14.0222 31.0356C14.0188 31.0209 14.0184 31.0056 14.0211 30.9908C14.0211 30.8765 14.1199 30.815 14.1793 30.7359C14.6438 30.0716 14.8805 29.2745 14.8537 28.4643C14.8537 24.5319 14.8537 20.6002 14.8537 16.6692C14.8186 16.1924 14.8537 15.7157 14.8383 15.2412C14.8383 15.1072 14.9218 15.0698 14.9855 15.1577C15.2162 15.4828 15.5501 15.4059 15.8643 15.4059C21.5879 15.4059 27.3094 15.4059 33.0287 15.4059C33.3341 15.4059 33.646 15.4411 33.8591 15.1489C33.8734 15.1352 33.8912 15.1255 33.9105 15.1209C33.9298 15.1162 33.95 15.1168 33.969 15.1225V25.5754C33.969 26.4717 33.969 27.3703 33.969 28.2688C33.9373 29.1821 34.2317 30.0769 34.7994 30.7931C34.8433 30.8458 34.9048 30.8919 34.8983 30.971C34.8033 31.2164 34.6778 31.4489 34.5248 31.663C34.3622 31.964 34.2172 32.2738 34.0612 32.5791C33.9821 32.7241 33.9053 32.8735 33.7163 32.9021Z" fill="#2A1A10"/>
<path d="M33.9624 15.1247C33.9338 15.1511 33.8943 15.1709 33.8811 15.2038C33.8366 15.304 33.7606 15.3868 33.6645 15.4396C33.5685 15.4923 33.4578 15.5122 33.3494 15.496C29.3599 15.496 25.3703 15.496 21.3807 15.496C19.5104 15.496 17.6401 15.496 15.7698 15.496C15.4425 15.496 15.058 15.6146 14.913 15.1181L14.8515 15.1643L14.8515 16.6736C14.8127 16.1788 14.8025 15.6822 14.8208 15.1862C14.8208 15.094 14.8779 15.0742 14.9592 15.0698C15.1305 15.0698 15.2997 15.0435 15.471 15.0303C17.6269 15.0303 19.7821 15.0303 21.9365 15.0303L33.5625 15.0303C33.6328 15.0303 33.7031 15.0303 33.7822 15.0303C33.8196 15.0918 33.9338 15.0237 33.9624 15.1247Z" fill="#6C351B"/>
<path d="M15.616 33.4315C16.0027 33.7567 16.3849 34.0906 16.7804 34.4048C17.6152 35.0748 18.5115 35.657 19.4057 36.2436C20.6615 37.0672 21.7915 38.0684 22.7604 39.216C23.2137 39.7323 23.7162 40.2032 24.2608 40.622C24.3663 40.7055 24.4212 40.6901 24.5179 40.622C25.1707 40.1472 25.7612 39.5922 26.2754 38.9699C27.2103 37.8869 28.3035 36.9514 29.518 36.1952C30.5897 35.5358 31.6171 34.8071 32.5937 34.0137C32.7936 33.8401 32.9848 33.6578 33.1825 33.4799C33.3406 33.5458 33.1825 33.6073 33.1649 33.6314C32.9452 33.8511 32.7079 34.084 32.4619 34.2905C31.6177 34.957 30.7376 35.5767 29.8256 36.1469C28.7333 36.818 27.7277 37.6207 26.8312 38.5371C26.3391 39.071 25.8778 39.6356 25.3373 40.1233C25.0825 40.343 24.8057 40.5627 24.5508 40.7824C24.4366 40.8856 24.3773 40.8636 24.263 40.7824C23.3008 40.0354 22.5187 39.1061 21.6795 38.2361C20.9347 37.4913 20.1086 36.8325 19.2168 36.2721C18.0736 35.5678 16.9899 34.7713 15.9763 33.8907C15.8335 33.7611 15.6358 33.6622 15.616 33.4315Z" fill="#EACBB2"/>
<path d="M15.7566 34.8244C15.0426 34.8463 14.333 34.7848 13.6234 34.7387C13.5356 34.7387 13.4828 34.7145 13.5531 34.6157C13.6234 34.5168 13.7047 34.396 13.7728 34.2707C13.7728 34.3191 13.7904 34.3806 13.8365 34.385C14.1264 34.442 14.4202 34.4765 14.7153 34.4882C15.0976 34.4597 15.4776 34.5014 15.7566 34.8244Z" fill="#915732"/>
<path d="M35.0476 34.2664C35.1509 34.4004 35.353 34.5541 35.2827 34.686C35.2124 34.8178 34.9664 34.7892 34.7884 34.7848C34.3697 34.7771 33.951 34.7925 33.534 34.831C33.4098 34.8398 33.2852 34.8241 33.1671 34.7848C33.5142 34.4553 33.9514 34.486 34.3754 34.497C34.5526 34.4877 34.7289 34.465 34.9027 34.4289C34.9423 34.4237 34.9787 34.4044 35.0053 34.3745C35.0319 34.3447 35.0469 34.3063 35.0476 34.2664Z" fill="#935934"/>
<path d="M33.7163 32.9021C33.905 32.7288 34.0516 32.5146 34.1447 32.276C34.3564 31.8209 34.6071 31.385 34.8939 30.9732C34.9817 31.0215 34.9312 31.0808 34.9048 31.1314C34.6214 31.6608 34.3424 32.1903 34.0546 32.7175C34.0032 32.7954 33.9403 32.8651 33.8679 32.924C33.8174 32.9702 33.7559 32.9856 33.7163 32.9021Z" fill="#E3C1A6"/>
<path d="M14.0145 30.9886C14.2477 31.3266 14.4492 31.6855 14.6164 32.0607C14.7551 32.3779 14.9314 32.6774 15.1415 32.9526C14.9855 32.9834 14.9042 32.8691 14.8493 32.7659C14.5593 32.2144 14.2803 31.6674 13.9991 31.105C13.9771 31.0633 13.953 31.0193 14.0145 30.9886Z" fill="#E0BCA3"/>
<path d="M14.9833 15.0237C14.8911 15.0237 14.8142 15.0237 14.7636 14.9358C14.7131 14.8479 14.6999 14.8018 14.8208 14.7908C14.8669 14.7908 14.9108 14.7732 14.957 14.7622C15.0031 14.7513 15.0976 14.7205 15.1547 14.7798C15.1731 14.8053 15.1843 14.8353 15.187 14.8667C15.1897 14.898 15.1839 14.9295 15.1701 14.9578C15.1371 15.0632 15.0426 15.0105 14.9833 15.0237Z" fill="#AF7A56"/>
<path d="M34.237 14.4569C34.4267 14.4276 34.6184 14.4136 34.8104 14.4151V14.681C34.7426 14.5969 34.6541 14.532 34.5535 14.4927C34.4529 14.4533 34.3438 14.441 34.237 14.4569Z" fill="#AF7A56"/>
<path d="M23.3491 17.7786C23.1624 17.8269 23.2129 17.9829 23.2129 18.1037V22.1153C23.2129 24.3517 23.2129 26.586 23.2129 28.8224C23.2129 29.0201 23.2656 29.0729 23.459 29.0663C23.8984 29.0509 24.3377 29.0663 24.7771 29.0663C25.0473 29.0663 25.1462 28.9652 25.1462 28.6994V27.434C25.1308 27.3505 25.1879 27.3637 25.2297 27.3813C25.2975 27.4109 25.3547 27.4603 25.3939 27.523C25.4331 27.5857 25.4525 27.6588 25.4494 27.7328C25.4747 28.1618 25.457 28.5924 25.3966 29.0179C25.3846 29.1349 25.331 29.2436 25.2455 29.3242C25.16 29.4049 25.0483 29.4521 24.9309 29.4573C24.463 29.4837 23.995 29.5276 23.5249 29.5122C23.0547 29.4969 22.8658 29.3343 22.8658 28.8532C22.8504 28.2117 22.8526 27.568 22.8504 26.988C22.7933 27.2077 22.7955 27.5219 22.4111 27.5768C22.332 27.5768 22.3232 27.6559 22.31 27.7174C22.1404 28.3525 22.1016 29.0154 22.1958 29.666C22.2089 29.7429 22.2551 29.844 22.1145 29.8616C21.9549 29.6916 21.8675 29.4663 21.8706 29.2332C21.8706 27.9832 21.8706 26.731 21.8706 25.4809C21.8706 23.0314 21.8706 20.584 21.8706 18.1345C21.8552 17.9648 21.8774 17.7937 21.9355 17.6335C21.9936 17.4733 22.0862 17.3278 22.2067 17.2074C22.2433 17.1665 22.2771 17.1232 22.3078 17.0778C22.4489 16.8647 22.6479 16.6962 22.8814 16.5923C23.1149 16.4884 23.3732 16.4533 23.6259 16.4912C24.1652 16.5209 24.7058 16.5209 25.2451 16.4912C25.354 16.4807 25.4639 16.4974 25.5648 16.54C25.6657 16.5826 25.7544 16.6496 25.8228 16.7351C25.9063 16.8405 25.9942 16.9372 26.0843 17.036C26.2115 17.1627 26.3095 17.3156 26.3714 17.4841C26.4332 17.6526 26.4575 17.8326 26.4424 18.0115C26.416 18.3849 26.4534 18.765 26.4314 19.1385C26.4078 19.3055 26.4306 19.4758 26.4972 19.6308C26.5639 19.7858 26.6718 19.9194 26.8093 20.0172C26.2139 20.3138 25.836 20.8059 25.4757 21.3354C25.434 21.1948 25.5175 21.1157 25.5482 21.0036C25.5871 20.8938 25.6187 20.7815 25.6427 20.6675C25.6515 20.5505 25.6515 20.433 25.6427 20.316C25.9283 19.9272 25.9547 19.479 25.9437 19.0198C25.936 18.7859 25.9448 18.5517 25.97 18.319C25.996 18.1243 25.9878 17.9266 25.9459 17.7347C25.891 17.4842 25.8009 17.4117 25.5482 17.3897C24.8907 17.3336 24.2303 17.3197 23.571 17.348C22.8351 17.3744 22.9119 17.4315 22.8878 18.0268C22.8878 18.174 22.8878 18.3234 22.8878 18.4333C22.8957 18.3038 22.8957 18.1739 22.8878 18.0444C22.8873 17.9693 22.9076 17.8955 22.9464 17.8312C22.9851 17.7669 23.0409 17.7145 23.1075 17.6797C23.191 17.6336 23.3096 17.605 23.3491 17.7786Z" fill="#FFFEFD"/>
<path d="M27.7781 29.4332C27.7157 29.2649 27.6931 29.0844 27.7122 28.9059C27.7122 25.2766 27.7085 21.6473 27.7012 18.0181C27.6984 17.7799 27.7758 17.5478 27.9209 17.359C28.5646 16.511 28.58 16.5 29.6586 16.5044C30.2445 16.5044 30.8303 16.5044 31.4162 16.5044C31.5092 16.4986 31.6023 16.5143 31.6884 16.5501C31.7744 16.5859 31.8512 16.6409 31.9127 16.7109C32.1665 16.9727 32.3678 17.2807 32.5058 17.6182C32.5542 18.0356 32.5058 18.453 32.5278 18.8727C32.5197 19.0815 32.5249 19.2906 32.5432 19.4988C32.5523 19.6544 32.6035 19.8047 32.6913 19.9335C32.7791 20.0624 32.9003 20.165 33.0419 20.2303C32.7182 20.2938 32.4255 20.4649 32.2114 20.7159C32.0291 20.6609 32.0511 20.4962 32.0511 20.3687V17.9082C32.0511 17.4952 32.0225 17.4688 31.6117 17.4029C31.1989 17.3689 30.7843 17.3601 30.3704 17.3766C29.986 17.3766 29.6037 17.3766 29.2215 17.3766C28.8392 17.3766 28.7469 17.4886 28.7469 17.8577C28.7469 18.4904 28.8128 19.1209 28.7931 19.7558C28.7557 20.918 28.8172 22.0823 28.7931 23.2445C28.7777 23.8442 28.7733 24.444 28.7579 25.0438C28.7513 25.0985 28.7513 25.1538 28.7579 25.2085C28.8853 25.7072 28.6634 26.1598 28.5734 26.6299C28.5636 26.6853 28.5329 26.7349 28.4877 26.7683C28.0813 27.0188 28.1142 27.4603 28.0483 27.8448C27.9653 28.2791 27.9278 28.7209 27.9363 29.1629C27.9429 29.2706 27.9319 29.4024 27.7781 29.4332Z" fill="#FFFEFD"/>
<path d="M16.1279 17.605C16.3365 17.2049 16.6243 16.8514 16.9737 16.5659C17.0732 16.5017 17.1932 16.4774 17.3099 16.4978C18.059 16.4978 18.8103 16.4978 19.5595 16.4978C19.6354 16.4908 19.7117 16.5061 19.7792 16.5417C20.1878 16.8735 20.5898 17.2118 20.5832 17.8094C20.5832 18.3015 20.5832 18.7936 20.5832 19.2857C20.5733 19.5439 20.6252 19.8008 20.7348 20.0348C20.7671 20.0741 20.7848 20.1234 20.7848 20.1743C20.7848 20.2252 20.7671 20.2745 20.7348 20.3138C20.458 20.6675 20.1856 21.0256 19.8978 21.3771C19.9688 21.2123 20.0055 21.0348 20.0055 20.8554C20.0055 20.6759 19.9688 20.4984 19.8978 20.3336C19.8793 20.298 19.8728 20.2575 19.8791 20.2179C19.8854 20.1784 19.9043 20.1419 19.933 20.1139C20.0234 19.9858 20.0682 19.8311 20.0604 19.6745C20.0362 19.1121 20.1263 18.5519 20.0889 17.9895C20.086 17.9115 20.0786 17.8338 20.067 17.7566C20.023 17.515 19.9373 17.4337 19.6957 17.4139C18.8714 17.3337 18.041 17.3381 17.2176 17.4271C17.0616 17.4469 17.0155 17.5303 17.0286 17.6863C17.0924 18.5126 17.0924 19.3426 17.0286 20.1688C17.0265 20.1995 17.0265 20.2304 17.0286 20.2611C17.1319 21.0015 16.9671 21.744 17.0638 22.4844C17.0693 22.5311 17.0693 22.5783 17.0638 22.625C16.9913 23.4883 17.0946 24.3561 17.0111 25.2217C17.013 25.3311 16.9882 25.4393 16.9388 25.5369C16.8894 25.6345 16.8169 25.7186 16.7277 25.7819C16.6759 25.8175 16.6331 25.8646 16.6026 25.9194C16.5721 25.9743 16.5548 26.0355 16.5519 26.0983C16.5252 26.301 16.4555 26.4957 16.3476 26.6695C16.3059 26.7442 16.2443 26.8342 16.1521 26.8035C16.0598 26.7727 16.1147 26.6782 16.1147 26.6123V17.8643C16.0961 17.7782 16.1006 17.6888 16.1279 17.605Z" fill="#FEFEFC"/>
<path d="M30.8735 31.7465C30.7075 32.2188 30.4483 32.6528 30.1112 33.0229C29.5949 33.682 28.9183 34.1411 28.2702 34.6398C27.1256 35.5186 25.8536 36.1777 24.5684 36.8367C24.5129 36.8707 24.449 36.8887 24.3839 36.8887C24.3188 36.8887 24.2549 36.8707 24.1993 36.8367C22.8932 36.1868 21.6439 35.4284 20.4646 34.5695C19.7396 34.0137 19.0037 33.4711 18.472 32.7044C18.2598 32.4344 18.101 32.1265 18.0041 31.797C18.2106 31.5774 18.4874 31.5774 18.7532 31.562C18.8411 31.562 18.8916 31.6499 18.9224 31.7355C19.2849 32.6912 19.9835 33.3766 20.759 33.9961C21.8119 34.803 22.9581 35.4801 24.173 36.0129C24.223 36.0414 24.279 36.058 24.3365 36.0615C24.3941 36.0649 24.4516 36.055 24.5047 36.0327C25.8433 35.4858 27.1001 34.7569 28.2394 33.8665C28.8466 33.3973 29.3507 32.808 29.7202 32.1354C29.7876 31.9926 29.8463 31.8459 29.8959 31.696C29.9376 31.5905 30.0079 31.5115 30.1156 31.5334C30.3792 31.557 30.6362 31.6292 30.8735 31.7465Z" fill="#AE7853"/>
<path d="M27.7781 29.4332C27.8126 29.3958 27.8381 29.3511 27.8526 29.3023C27.8671 29.2535 27.8701 29.2021 27.8616 29.152C27.8088 28.6489 27.9429 28.159 27.9692 27.6625C27.9824 27.4428 28.123 27.2231 28.1164 26.9858C28.1164 26.9353 28.1911 26.8562 28.2504 26.8342C28.3387 26.7997 28.4145 26.7392 28.4678 26.6608C28.5212 26.5824 28.5495 26.4897 28.5492 26.3949C28.5931 26.0521 28.7689 25.7358 28.7074 25.3733C28.6478 24.9438 28.6375 24.5089 28.6766 24.0771C28.7272 23.2181 28.6766 22.3591 28.7074 21.5023C28.7074 21.1816 28.6481 20.8587 28.6744 20.5467C28.7228 19.9601 28.7052 19.3757 28.7008 18.7892C28.7008 18.4399 28.6525 18.0906 28.6612 17.7391C28.6612 17.4447 28.7887 17.2997 29.0787 17.2997C29.8849 17.2997 30.689 17.2997 31.4952 17.2997C31.6029 17.2997 31.7149 17.3326 31.8182 17.3458C31.8627 17.3469 31.9066 17.357 31.9471 17.3756C31.9876 17.3942 32.0239 17.4209 32.0537 17.454C32.0835 17.4871 32.1063 17.526 32.1206 17.5682C32.1348 17.6104 32.1403 17.6551 32.1367 17.6995C32.1367 18.2465 32.1367 18.798 32.1367 19.3406C32.1554 19.6889 32.1554 20.038 32.1367 20.3863C32.1257 20.4404 32.1273 20.4963 32.1414 20.5496C32.1555 20.603 32.1817 20.6523 32.218 20.6939C32.0225 20.9795 31.8028 21.2541 31.7787 21.632C31.559 21.2343 31.2338 20.8938 31.2492 20.3841C31.2734 19.6526 31.2492 18.9166 31.2492 18.1872C31.2492 17.8181 31.1679 17.7478 30.7944 17.7369C30.366 17.7369 29.9354 17.7369 29.5071 17.7369C29.4142 17.7252 29.3204 17.7484 29.2437 17.802C29.167 17.8556 29.1129 17.9357 29.0918 18.0268C28.9534 18.174 29.0369 18.3827 28.9315 18.5629C29.0062 18.4904 28.9315 18.3278 29.0874 18.3432V19.2835C28.9424 19.2681 28.96 19.1561 28.9468 19.0638C28.9828 19.5536 28.9923 20.0449 28.9754 20.5357C28.9754 20.6258 28.9864 20.6719 29.0874 20.6478V24.3122C29.0874 24.4374 29.0874 24.5604 29.0874 24.6857C29.0325 24.6857 28.9732 24.6549 28.9732 24.7648C28.9732 25.3491 28.9732 25.9313 28.9732 26.5223C28.9675 26.561 28.975 26.6005 28.9945 26.6344C29.0141 26.6683 29.0445 26.6946 29.0809 26.709C29.1006 27.2407 29.1072 27.7745 29.0809 28.3062C29.0018 28.3765 29.0127 28.4709 29.0106 28.5632C29.0278 28.8152 29.013 29.0684 28.9666 29.3167C28.837 29.3936 28.8106 29.275 28.7711 29.2025C28.7089 29.0521 28.6639 28.8951 28.6371 28.7346C28.6217 28.684 28.6151 28.6159 28.547 28.6137C28.4789 28.6115 28.4789 28.673 28.4635 28.7148C28.4138 28.8456 28.3332 28.9625 28.2285 29.0553C28.16 29.1357 28.1172 29.2347 28.1054 29.3396C28.0937 29.4445 28.1136 29.5505 28.1625 29.6441C28.1955 29.7451 28.2658 29.8352 28.2966 29.9407C28.3163 30.011 28.3515 30.0988 28.2175 30.0988C27.9928 29.9398 27.836 29.7023 27.7781 29.4332Z" fill="#FCF4E7"/>
<path d="M28.9864 31.54C28.7035 32.0171 28.3417 32.4427 27.9165 32.7988C26.9081 33.7061 25.7372 34.363 24.5421 34.9847C24.4987 35.01 24.4494 35.0233 24.3993 35.0233C24.3491 35.0233 24.2998 35.01 24.2565 34.9847C23.0569 34.3696 21.8948 33.6996 20.8952 32.7878C20.4734 32.435 20.1146 32.013 19.8341 31.54C20.0424 31.2586 20.3202 31.036 20.6404 30.8941C20.7071 30.868 20.7805 30.8645 20.8495 30.8839C20.9185 30.9033 20.9793 30.9447 21.0226 31.0018C21.0931 31.0754 21.1523 31.1591 21.1984 31.25C21.8574 32.6077 22.9163 33.5655 24.2279 34.2685C24.2714 34.3002 24.3232 34.3187 24.3769 34.3218C24.4307 34.3249 24.4842 34.3125 24.5311 34.2861C25.2325 33.906 25.8743 33.4249 26.4358 32.8581C26.8336 32.4395 27.1748 31.9705 27.4508 31.4631C27.5315 31.2935 27.6416 31.1396 27.7759 31.0083C27.8221 30.9538 27.8864 30.9177 27.957 30.9069C28.0277 30.896 28.0999 30.9109 28.1604 30.949C28.4533 31.1202 28.7298 31.318 28.9864 31.54Z" fill="#AC7651"/>
<path d="M16.1279 17.605V26.7595L16.1828 26.7749C16.2949 26.5552 16.4553 26.3597 16.4553 26.0939C16.4468 26.0069 16.4667 25.9196 16.5118 25.8448C16.5569 25.77 16.6249 25.7118 16.7057 25.6787C16.7714 25.6527 16.8269 25.6061 16.8637 25.5459C16.9006 25.4856 16.9168 25.415 16.91 25.3447C16.91 24.9251 16.9957 24.5055 16.9649 24.0881C16.9309 23.6311 16.9309 23.1721 16.9649 22.715C16.9825 22.469 16.9254 22.2185 16.9276 21.9703C16.9276 21.6671 16.9847 21.3617 16.9649 21.0608C16.899 19.9777 17.033 18.8968 16.954 17.8159C16.9364 17.5831 16.8902 17.3766 17.2044 17.3238C17.2439 17.4315 17.1341 17.4908 17.1209 17.5809C17.1077 17.671 17.1077 17.7742 17.2615 17.7281C17.4153 17.6819 17.5251 17.6424 17.5779 17.8357C17.4395 17.9456 17.4724 18.1037 17.4724 18.2465L17.457 21.2453C17.457 21.3156 17.457 21.3837 17.4439 21.465C17.4104 21.5046 17.3921 21.5548 17.3921 21.6067C17.3921 21.6586 17.4104 21.7088 17.4439 21.7484V21.8736C17.4008 21.9172 17.3766 21.976 17.3766 22.0373C17.3766 22.0986 17.4008 22.1574 17.4439 22.201C17.4625 22.4826 17.4625 22.7651 17.4439 23.0468C17.3929 23.1569 17.3665 23.2769 17.3665 23.3983C17.3665 23.5197 17.3929 23.6396 17.4439 23.7498C17.4691 23.9842 17.4691 24.2206 17.4439 24.455C17.384 24.5961 17.3532 24.7477 17.3532 24.901C17.3532 25.0542 17.384 25.2059 17.4439 25.3469C17.4678 25.4182 17.4678 25.4953 17.4439 25.5666C17.4682 25.7854 17.4733 26.006 17.4592 26.2257C17.4592 27.0122 17.4592 27.7965 17.4592 28.583C17.4489 28.6674 17.4542 28.753 17.4746 28.8356C17.4746 28.9499 17.613 28.9674 17.6284 29.0707C17.6427 29.1278 17.6759 29.1783 17.7226 29.2142C17.7692 29.2501 17.8266 29.2692 17.8854 29.2684C18.2832 29.2956 18.6828 29.2765 19.0762 29.2113C19.2958 29.1717 19.3661 29.0948 19.3574 28.8598C19.3824 28.5514 19.3883 28.2418 19.3749 27.9327C19.4145 28.2403 19.3442 28.6137 19.353 28.9872C19.353 29.0355 19.3354 29.1036 19.2519 29.0663C19.2907 28.4526 19.2944 27.8372 19.2629 27.2231C19.2629 27.1066 19.2629 27.0232 19.4035 27.0034C19.5793 27.0034 19.6232 27.1264 19.6232 27.2516C19.6583 27.8443 19.6583 28.4385 19.6232 29.0311C19.6265 29.0908 19.6175 29.1506 19.5969 29.2067C19.5763 29.2628 19.5445 29.3142 19.5034 29.3576C19.4622 29.401 19.4127 29.4355 19.3577 29.4591C19.3028 29.4827 19.2436 29.4948 19.1838 29.4947C18.686 29.5518 18.1833 29.5518 17.6855 29.4947C17.5042 29.4733 17.3375 29.3848 17.2183 29.2465C17.0992 29.1082 17.0362 28.9302 17.0418 28.7477C17.0444 28.5134 17.0305 28.2793 17.0001 28.0469C16.9887 27.7075 17.0197 27.3681 17.0924 27.0363C17.0791 27.109 17.0703 27.1823 17.066 27.256C17.0653 27.324 17.0396 27.3893 16.9938 27.4396C16.948 27.4898 16.8853 27.5214 16.8177 27.5285C16.631 27.546 16.5717 27.6603 16.5475 27.8228C16.4659 28.316 16.4116 28.8132 16.3849 29.3123C16.3953 29.4449 16.4226 29.5756 16.4662 29.7012C16.486 29.8066 16.519 29.9341 16.33 29.9033C16.165 29.6772 16.0786 29.4033 16.084 29.1234C16.084 25.3608 16.084 21.5961 16.084 17.8291C16.084 17.7522 16.062 17.6688 16.1279 17.605Z" fill="#FDF8F3"/>
<path d="M22.1013 29.8528C22.1189 29.8308 22.1562 29.8001 22.1518 29.7825C21.9541 29.097 22.0552 28.4248 22.2177 27.7503C22.2243 27.7044 22.2243 27.6578 22.2177 27.6119C22.2177 27.4867 22.2177 27.3922 22.3913 27.4867C22.4945 27.5416 22.5956 27.4604 22.6439 27.3417C22.731 27.1581 22.7788 26.9583 22.7845 26.7551C22.7845 26.7046 22.7648 26.6453 22.8416 26.5926C22.8979 26.7318 22.9176 26.883 22.8988 27.032C22.8812 27.3395 22.9163 27.6471 22.8988 27.9569C22.8802 28.3452 22.8912 28.7345 22.9317 29.1212C22.9559 29.3409 23.1514 29.4112 23.3535 29.4244C23.8989 29.443 24.445 29.4254 24.988 29.3717C25.0801 29.361 25.1652 29.3173 25.2274 29.2486C25.2897 29.1799 25.3248 29.0909 25.3263 28.9982C25.3721 28.5722 25.3882 28.1435 25.3747 27.7152C25.3747 27.557 25.3154 27.4406 25.1352 27.4252C25.1067 27.3307 25.0825 27.2341 25.0451 27.1418C25.0078 27.0495 25.0451 27.0539 25.0869 27.0144C25.2165 26.9199 25.3395 26.8123 25.4647 26.709C25.746 26.6958 25.97 26.9287 26.0096 27.2846C26.077 27.8099 26.1115 28.3389 26.1128 28.8686C26.1077 28.9698 26.1114 29.0712 26.1238 29.1717C26.1238 29.2157 26.137 29.2728 26.1985 29.2684C26.26 29.264 26.2534 29.2201 26.2622 29.1827C26.2786 29.0981 26.2853 29.0118 26.282 28.9257C26.282 28.5061 26.282 28.0843 26.282 27.6647C26.282 27.557 26.2446 27.423 26.3962 27.3703C26.3809 28.0711 26.4534 28.7741 26.3567 29.4705C26.3273 29.6887 26.2242 29.8902 26.0645 30.0417C24.9858 30.0197 23.9093 30.0417 22.8307 30.0307C22.6747 30.0307 22.5363 30.0461 22.4572 30.2021C22.305 30.1257 22.1805 30.0035 22.1013 29.8528Z" fill="#FBEBD8"/>
<path d="M16.319 29.9033C16.4069 29.9033 16.4487 29.855 16.4047 29.7627C16.185 29.3014 16.3454 28.8334 16.3806 28.3699C16.3981 28.1238 16.4596 27.88 16.4926 27.6339C16.508 27.5087 16.5717 27.4494 16.6925 27.4647C16.9627 27.4977 17.0023 27.3241 17.0155 27.1198C17.0155 26.999 16.9825 26.8694 17.0792 26.7508C17.112 26.7758 17.1366 26.8101 17.1495 26.8494C17.1625 26.8886 17.1632 26.9308 17.1517 26.9704C17.062 27.4988 17.0457 28.037 17.1033 28.5698C17.1275 29.1981 17.3362 29.4332 17.9645 29.4244C18.3769 29.4419 18.7901 29.4331 19.2014 29.398C19.2503 29.3953 19.2982 29.3827 19.3421 29.3611C19.3861 29.3394 19.4252 29.3091 19.4572 29.272C19.4892 29.2349 19.5134 29.1917 19.5283 29.145C19.5432 29.0984 19.5486 29.0492 19.5441 29.0004C19.5573 28.4028 19.5441 27.8053 19.5441 27.2055C19.5446 27.1586 19.5311 27.1126 19.5052 27.0735C19.4794 27.0343 19.4424 27.0038 19.3991 26.9858L19.7792 26.6607C19.8818 26.6668 19.9782 26.7118 20.0488 26.7865C20.1194 26.8612 20.1589 26.9599 20.1592 27.0627C20.2044 27.3247 20.2286 27.5899 20.2317 27.8558C20.2317 28.3633 20.2317 28.8708 20.2713 29.3783C20.2845 29.543 20.3196 29.6638 20.491 29.7144C20.5019 29.7979 20.4294 29.8374 20.3943 29.8967C20.1935 30.0077 19.9631 30.053 19.7352 30.0263C18.9861 30.0263 18.2369 30.0263 17.4878 30.0263C17.1679 29.9938 16.8447 30.0282 16.5387 30.1274C16.4444 30.0768 16.3677 29.9987 16.319 29.9033Z" fill="#FCEEDC"/>
<path d="M28.2197 30.101C28.3317 30.0175 28.2197 29.9472 28.1999 29.8813C28.0905 29.7139 28.036 29.5166 28.0439 29.3167C28.0681 29.1607 28.0813 29.0311 28.246 28.9608C28.3383 28.9191 28.3515 28.8158 28.3888 28.7411C28.4262 28.6664 28.4152 28.4863 28.5602 28.5039C28.67 28.5193 28.6986 28.6445 28.7162 28.7631C28.7376 28.9322 28.7835 29.0972 28.8524 29.253C28.8692 29.2965 28.9012 29.3323 28.9424 29.3541C28.9584 29.3405 28.9769 29.3304 28.997 29.3243C29.017 29.3183 29.0381 29.3164 29.0589 29.3189C29.2163 29.3658 29.3803 29.3866 29.5444 29.3804C30.0585 29.3804 30.5747 29.3804 31.0822 29.3629C31.1567 29.3622 31.2291 29.3381 31.2891 29.2939C31.349 29.2497 31.3935 29.1878 31.4162 29.1168C31.4515 29.0214 31.4614 28.9184 31.4447 28.818C31.3546 28.2424 31.4974 27.6647 31.4162 27.0891C31.4044 26.9243 31.4354 26.7594 31.5062 26.6101C31.5546 26.4915 31.6183 26.3729 31.7699 26.3905C31.8374 26.3944 31.9018 26.4198 31.954 26.4628C32.0061 26.5059 32.0432 26.5644 32.0599 26.6299C32.1233 26.8069 32.156 26.9934 32.1565 27.1813C32.1345 27.8404 32.2268 28.4995 32.2092 29.1586C32.2092 29.4793 32.2092 29.4793 32.508 29.4178C32.5006 29.6345 32.4165 29.8416 32.2708 30.0022C31.983 30.0241 31.6974 30.0395 31.4096 30.0373C30.5528 30.0373 29.6938 30.0373 28.837 30.0373C28.659 30.0373 28.4833 30.0066 28.4284 30.2394C28.3229 30.2438 28.2856 30.1494 28.2197 30.101Z" fill="#FBEBD7"/>
<path d="M23.3491 17.7786C23.1536 17.6534 22.9449 17.7786 22.9317 18.029C22.9463 18.2225 22.9208 18.417 22.857 18.6002C22.7731 18.2604 22.7552 17.9077 22.8043 17.5611C22.8043 17.4117 22.9251 17.3414 23.0987 17.3194C23.9382 17.2568 24.7812 17.2568 25.6207 17.3194C25.7041 17.3194 25.7848 17.3489 25.8484 17.4029C25.9119 17.4568 25.9543 17.5316 25.9678 17.6138C26.0244 17.887 26.0347 18.1677 25.9986 18.4442C25.9591 18.7518 25.9986 19.0682 25.9788 19.3801C25.979 19.6136 25.9365 19.8451 25.8536 20.0634C25.8349 20.1233 25.8026 20.1781 25.7591 20.2235C25.7156 20.2689 25.6623 20.3035 25.6032 20.3248C25.541 20.0997 25.3957 19.9066 25.1967 19.7844C25.1089 19.7382 25.1374 19.6482 25.1374 19.5647C25.1374 19.0967 25.1374 18.6288 25.1374 18.1609C25.1374 17.8291 25.0386 17.7215 24.698 17.7215C24.2476 17.7076 23.7968 17.7267 23.3491 17.7786Z" fill="#FAEDDE"/>
<path d="M17.5801 17.8357C17.5442 17.795 17.496 17.7672 17.4429 17.7565C17.3897 17.7458 17.3345 17.7528 17.2857 17.7764C17.2264 17.8028 17.178 17.9368 17.0989 17.8291C17.0614 17.79 17.0374 17.7399 17.0303 17.6862C17.0232 17.6325 17.0334 17.5779 17.0594 17.5303C17.1055 17.46 17.1583 17.3919 17.2066 17.3238C17.7265 17.2751 18.249 17.2605 18.7708 17.2799C19.1025 17.2799 19.4299 17.3041 19.7704 17.3282C20.0318 17.3458 20.1636 17.5479 20.1592 17.917C20.1482 18.5563 20.1241 19.1956 20.1219 19.8349C20.1219 20.0546 19.922 20.1447 19.8824 20.327C19.7612 20.127 19.5901 19.962 19.3859 19.8481C19.2958 19.8085 19.3156 19.7163 19.3134 19.6416C19.3024 19.1736 19.2936 18.7035 19.2871 18.2355C19.2871 17.8115 19.2146 17.7412 18.7993 17.7412C18.5116 17.7412 18.2216 17.7412 17.9206 17.7412C17.8002 17.738 17.6816 17.7709 17.5801 17.8357Z" fill="#FAECDB"/>
<path d="M32.5146 29.3892C32.488 29.4043 32.463 29.4219 32.4399 29.442C32.3872 29.5013 32.3718 29.6243 32.2576 29.5804C32.1433 29.5364 32.1302 29.4288 32.1367 29.3233C32.1675 28.6445 32.0621 27.9678 32.0884 27.289C32.0837 27.0668 32.055 26.8459 32.0027 26.6299C31.9938 26.5715 31.9653 26.5178 31.9217 26.4779C31.8782 26.4379 31.8223 26.4141 31.7633 26.4102C31.6359 26.3905 31.6073 26.5223 31.5787 26.6123C31.5175 26.8037 31.4944 27.0052 31.5106 27.2055C31.5549 27.5232 31.5475 27.8459 31.4887 28.1612C31.4337 28.3962 31.5304 28.6247 31.526 28.8598C31.526 29.2574 31.3986 29.3629 31.0053 29.398C30.4737 29.4442 29.942 29.398 29.4126 29.4244C29.2793 29.4399 29.145 29.4063 29.0347 29.3299C29.127 29.2311 29.2544 29.2486 29.3643 29.2486C29.8036 29.2486 30.254 29.2486 30.7 29.2486C30.8091 29.2522 30.9183 29.2426 31.0251 29.2201C31.2887 29.1454 31.3305 29.0861 31.3393 28.8092C31.3525 28.4028 31.3063 27.9986 31.3151 27.5922C31.3151 28.0052 31.359 28.416 31.3349 28.8268C31.3349 28.9059 31.3854 29.0245 31.2404 29.0465C31.2822 28.6071 31.2404 28.1875 31.2404 27.7591C31.2514 27.2451 31.2536 26.7288 31.258 26.2213C31.2629 25.9955 31.3289 25.7754 31.4491 25.5842C31.559 25.3997 31.6381 25.1953 31.7457 24.9713C31.7848 25.3847 31.9288 25.7813 32.1641 26.1234C32.3994 26.4656 32.7182 26.742 33.0902 26.9265C33.08 26.936 33.0681 26.9434 33.0551 26.9485C32.5586 27.1176 32.5586 27.1176 32.5586 27.6449V29.1234C32.5735 29.2144 32.5581 29.3079 32.5146 29.3892Z" fill="#FDFAF3"/>
<path d="M26.2688 37.0323L27.1476 36.6368C27.0909 36.8463 26.9704 37.0329 26.8027 37.1707C26.3479 37.7155 25.8734 38.2428 25.4032 38.7744C25.1516 39.0191 24.8876 39.2508 24.6124 39.4686C24.5646 39.522 24.498 39.5546 24.4266 39.5595C24.3552 39.5644 24.2847 39.5413 24.2301 39.495C24.0983 39.3983 23.9687 39.2995 23.8456 39.1918C23.0064 38.4603 22.3452 37.5683 21.6487 36.7071C21.6412 36.6798 21.6361 36.6519 21.6334 36.6236C21.9327 36.7136 22.2153 36.8516 22.4704 37.0323C22.4901 37.0806 22.5407 37.096 22.5758 37.1311C22.7955 37.3201 22.8922 37.5903 23.0833 37.7902C23.4433 38.1681 23.8441 38.5048 24.2784 38.7942C24.3179 38.8271 24.3677 38.8451 24.419 38.8451C24.4704 38.8451 24.5202 38.8271 24.5596 38.7942C25.0234 38.5121 25.4321 38.1481 25.7657 37.7199C25.9415 37.4936 26.0909 37.252 26.2688 37.0323Z" fill="#6A3317"/>
<path d="M26.728 30.7952C26.5921 31.2852 26.3174 31.7254 25.9371 32.0628C25.6493 32.3638 25.2385 32.4319 24.8892 32.6121C24.8057 32.656 24.7156 32.6846 24.6365 32.7307C24.574 32.7714 24.5017 32.7947 24.4272 32.7982C24.3527 32.8016 24.2786 32.7852 24.2125 32.7505C24.0372 32.6649 23.854 32.5965 23.6655 32.5462C23.4179 32.4746 23.186 32.3569 22.9822 32.1991C22.5652 31.8534 22.2551 31.3962 22.0881 30.8809C22.2727 30.7974 22.3342 30.9776 22.4264 31.0545C22.7719 31.3482 23.1754 31.5661 23.6106 31.6938C24.2265 31.8586 24.8807 31.8035 25.4604 31.5378C25.8536 31.3826 26.2165 31.1595 26.5324 30.8787C26.5874 30.8502 26.6313 30.7689 26.728 30.7952Z" fill="#AB7450"/>
<path d="M32.6926 32.0695C32.7151 32.0662 32.7381 32.0662 32.7607 32.0695C32.8727 32.098 33.0353 32.1024 33.0704 32.2057C33.1056 32.3089 32.976 32.4254 32.8881 32.5022C31.7974 33.5595 30.5815 34.4795 29.2676 35.2418C28.9578 35.4175 28.6437 35.5801 28.2746 35.78C28.4932 35.4093 28.751 35.0631 29.0435 34.7475C29.378 34.5544 29.7008 34.3416 30.0101 34.1104C30.7703 33.6029 31.4865 33.0361 32.2071 32.4715C32.3153 32.3826 32.416 32.2849 32.508 32.1793C32.5498 32.1134 32.6376 32.12 32.6926 32.0695Z" fill="#6D3418"/>
<path d="M19.7089 34.6925C20.001 34.92 20.2471 35.2011 20.4338 35.5208C20.4602 35.5559 20.4976 35.6087 20.4602 35.6482C20.4229 35.6877 20.3416 35.6724 20.2866 35.6482C19.9901 35.479 19.6913 35.3121 19.3969 35.1363C18.1532 34.4266 17.0121 33.5508 16.0049 32.533L15.9873 32.5176C15.906 32.4253 15.7676 32.3353 15.8247 32.21C15.8629 32.1547 15.9169 32.1123 15.9797 32.0884C16.0424 32.0645 16.111 32.0602 16.1762 32.076C16.9372 32.7588 17.7447 33.3879 18.5928 33.9588C18.9663 34.2019 19.3383 34.4465 19.7089 34.6925Z" fill="#6B3418"/>
<path d="M26.2688 37.0323C26.315 37.0476 26.3765 37.0696 26.3106 37.1179C25.97 37.3728 25.8712 37.8056 25.5526 38.0868C25.2175 38.389 24.8639 38.67 24.4937 38.9282C24.4698 38.9486 24.4395 38.9598 24.408 38.9598C24.3766 38.9598 24.3462 38.9486 24.3224 38.9282C23.6962 38.4888 23.0526 38.0494 22.6769 37.3354C22.6305 37.264 22.5775 37.1971 22.5187 37.1355C22.6088 37.0806 22.6615 37.1597 22.723 37.1948C23.1861 37.4692 23.6643 37.7171 24.1554 37.9374C24.217 37.971 24.2854 37.9901 24.3555 37.9931C24.4255 37.9962 24.4954 37.9831 24.5596 37.955C25.043 37.7221 25.5241 37.487 26.003 37.2454C26.0447 37.2234 26.0909 37.2058 26.0931 37.1487C26.0953 37.0916 26.2183 37.0806 26.2688 37.0323Z" fill="#A9744E"/>
<path d="M30.8735 31.7465L30.1859 31.6015C30.0826 31.5795 30.0013 31.5708 29.953 31.7114C29.6521 32.5298 29.1231 33.245 28.4284 33.7721C27.2411 34.742 25.9109 35.5223 24.4849 36.0854C24.44 36.107 24.3909 36.1182 24.341 36.1182C24.2912 36.1182 24.242 36.107 24.1971 36.0854C23.3333 35.7004 22.5004 35.2494 21.7058 34.7365C20.77 34.1082 19.867 33.4403 19.2365 32.4759C19.0726 32.2473 18.9438 31.9956 18.8543 31.7289C18.8257 31.6323 18.7796 31.5664 18.6741 31.5971C18.4447 31.6414 18.2197 31.7061 18.0019 31.7904C17.9557 31.7333 17.8964 31.674 18.0216 31.6411C18.2787 31.5773 18.5357 31.5136 18.7949 31.4565C18.8543 31.4411 18.9246 31.406 18.9531 31.5224C19.1486 32.3616 19.6913 32.9768 20.2998 33.5326C21.2939 34.4018 22.4092 35.1219 23.6106 35.6702C23.6171 35.669 23.6238 35.669 23.6303 35.6702C24.1378 36.0524 24.6123 35.958 25.1528 35.6812C26.4028 35.0441 27.6221 34.363 28.6678 33.4118C29.1794 32.9659 29.5695 32.3974 29.8014 31.7597C29.9135 31.4214 29.9091 31.4192 30.265 31.507C30.4539 31.5532 30.6428 31.5993 30.834 31.6411C30.9153 31.6564 30.9197 31.6872 30.8735 31.7465Z" fill="#E9CAB2"/>
<path d="M20.4932 29.721C20.2405 29.7869 20.2229 29.7627 20.2032 29.5013C20.1548 28.8752 20.1614 28.249 20.1548 27.6207C20.1481 27.4433 20.1305 27.2665 20.1021 27.0913C20.0895 26.9991 20.0536 26.9116 19.9979 26.837C19.9422 26.7625 19.8684 26.7033 19.7836 26.6651C19.879 26.5302 19.9407 26.3745 19.9637 26.2109C19.9866 26.0474 19.97 25.8807 19.9154 25.7248C20.1441 25.9435 20.3455 26.1892 20.5151 26.4564C20.5894 26.5448 20.6397 26.6509 20.6613 26.7643C20.6828 26.8778 20.6749 26.9949 20.6382 27.1045C20.5107 27.5021 20.5942 27.9239 20.581 28.3347C20.57 28.6533 20.581 28.974 20.581 29.2926C20.5214 29.431 20.4943 29.5814 20.5019 29.7319L20.4932 29.721Z" fill="#FDF8F3"/>
<path d="M19.7089 34.6926C19.3403 34.5257 18.9918 34.3179 18.6697 34.073C17.8721 33.5556 17.1149 32.9783 16.4047 32.3463C16.3168 32.2672 16.185 32.2101 16.185 32.0673C16.4706 31.986 16.7562 31.9069 17.0396 31.8234C17.1319 31.797 17.1912 31.797 17.2417 31.9047C17.7803 32.9784 18.587 33.8948 19.5836 34.5651C19.628 34.605 19.6698 34.6476 19.7089 34.6926Z" fill="#AC7652"/>
<path d="M32.5542 32.1991C32.275 32.5117 31.9568 32.7871 31.6073 33.0185C30.808 33.6483 29.9756 34.235 29.1138 34.776C29.0633 34.8068 29.0457 34.8024 29.0435 34.7453C29.671 34.2793 30.2508 33.7524 30.7747 33.1723C31.1023 32.7573 31.385 32.3089 31.6183 31.8344C31.831 31.918 32.0519 31.9791 32.2774 32.0167C32.3938 32.0431 32.5168 32.0629 32.5542 32.1991Z" fill="#AB744E"/>
<path d="M28.9864 31.54L28.2614 31.0655C28 30.8919 27.8945 30.8985 27.7188 31.1555C27.4837 31.4961 27.2794 31.8585 27.0487 32.1969C26.4657 32.9928 25.731 33.6655 24.887 34.1763C24.7554 34.2827 24.592 34.3421 24.4228 34.3448C24.2536 34.3476 24.0883 34.2937 23.9533 34.1917C22.7494 33.4777 21.7696 32.5638 21.1566 31.2896C20.9677 30.9007 20.7656 30.8502 20.4229 31.1094C20.2317 31.2544 20.0406 31.4038 19.8495 31.5488C19.7264 31.4609 19.8363 31.4192 19.889 31.3752C20.0692 31.228 20.2515 31.0808 20.4404 30.9358C20.4868 30.8949 20.541 30.8638 20.5998 30.8445C20.6585 30.8251 20.7206 30.8179 20.7822 30.8233C20.8438 30.8286 20.9037 30.8464 20.9583 30.8756C21.0128 30.9047 21.0609 30.9447 21.0995 30.993C21.2196 31.1364 21.3187 31.2962 21.3939 31.4675C22.0641 32.6506 23.0641 33.6131 24.2718 34.2378C24.3151 34.2623 24.3647 34.2736 24.4143 34.27C24.464 34.2665 24.5115 34.2484 24.5508 34.218C25.7884 33.5505 26.8046 32.5366 27.4749 31.3005C27.5073 31.238 27.544 31.1778 27.5848 31.1204C27.8242 30.7887 28.0241 30.7557 28.3471 30.9952C28.5426 31.1358 28.7359 31.283 28.9271 31.4345C28.9644 31.4565 29.0413 31.4741 28.9864 31.54Z" fill="#E8C9B1"/>
<path d="M25.8031 23.4796C25.8624 23.4949 25.8888 23.5235 25.825 23.5652C25.7613 23.607 25.6515 23.6663 25.5636 23.7146C25.3329 23.8091 25.0803 23.7827 24.843 23.8596C24.7404 23.9005 24.6288 23.914 24.5194 23.8985C24.41 23.8831 24.3065 23.8394 24.2191 23.7718C24.1444 23.7102 24.0543 23.7322 23.9753 23.7037C23.9049 23.5046 23.9049 23.2875 23.9753 23.0885C24.0783 22.7943 24.2185 22.5145 24.3927 22.2559C24.4827 22.1175 24.5596 22.1285 24.6299 22.2559C24.7802 22.5556 24.9725 22.8323 25.2011 23.0775C25.3442 23.2824 25.5591 23.4259 25.8031 23.4796Z" fill="#A76D47"/>
<path d="M26.4006 27.3659C26.3369 27.4406 26.3633 27.5306 26.3611 27.6119V29.0399C26.3666 29.0947 26.3666 29.1499 26.3611 29.2047C26.3369 29.3145 26.2666 29.4244 26.17 29.4244C26.0733 29.4244 26.0601 29.2904 26.0425 29.2047C26.033 29.1318 26.033 29.0579 26.0425 28.985C26.0485 28.3975 26.014 27.8103 25.9393 27.2275C25.9243 27.1021 25.8705 26.9845 25.7854 26.8912C25.7003 26.7978 25.5882 26.7334 25.4648 26.7068C25.5568 26.5612 25.6066 26.3929 25.6085 26.2207C25.6105 26.0484 25.5645 25.879 25.4757 25.7314C25.8039 26.1513 26.1537 26.5539 26.5237 26.9375C26.572 26.9836 26.5808 27.0298 26.5237 27.0759C26.4533 27.1573 26.4103 27.2587 26.4006 27.3659Z" fill="#FDF9F0"/>
<path d="M28.4284 30.2219C28.3515 29.9385 28.3515 29.9407 28.6898 29.9407C29.7048 29.9407 30.7175 29.9407 31.7325 29.9407C31.9127 29.9407 32.1016 29.8396 32.2707 29.9846C32.2022 30.089 32.108 30.174 31.9973 30.2317C31.8865 30.2894 31.7629 30.3178 31.638 30.3141C30.678 30.3141 29.7179 30.3141 28.7579 30.3141C28.641 30.3194 28.5255 30.2871 28.4284 30.2219Z" fill="#E6C5AD"/>
<path d="M16.5519 30.1384C16.6925 29.9363 16.9012 29.9451 17.1165 29.9472C17.9953 29.9472 18.874 29.9472 19.7528 29.9472C19.9725 29.9472 20.1922 29.9187 20.4009 29.9033C20.3536 30.0315 20.2669 30.1414 20.1532 30.2172C20.0395 30.293 19.9047 30.3308 19.7682 30.3251C18.8499 30.3251 17.9308 30.3251 17.0111 30.3251C16.8395 30.325 16.6748 30.258 16.5519 30.1384Z" fill="#E8C7AE"/>
<path d="M22.4704 30.2021C22.4045 30 22.4704 29.9429 22.6901 29.945C23.6325 29.9582 24.575 29.945 25.5175 29.945C25.6338 29.9632 25.7528 29.9534 25.8646 29.9165C26.003 29.8506 25.9876 30.0373 26.0843 30.0373C26.0129 30.1303 25.92 30.2046 25.8137 30.254C25.7073 30.3033 25.5906 30.3262 25.4735 30.3207C24.5948 30.3207 23.7358 30.3207 22.868 30.3207C22.7261 30.325 22.5867 30.2834 22.4704 30.2021Z" fill="#E6C5AC"/>
<path d="M20.0296 23.5784C19.7607 23.8002 19.475 24.0007 19.175 24.1782C19.0993 24.2229 19.015 24.2512 18.9276 24.2614C18.8403 24.2716 18.7517 24.2634 18.6677 24.2373C18.5837 24.2112 18.5061 24.1679 18.4399 24.11C18.3736 24.0522 18.3202 23.9811 18.2831 23.9014C18.2162 23.7874 18.1733 23.6611 18.1571 23.53C18.1408 23.3989 18.1516 23.2658 18.1886 23.139C18.2045 23.1079 18.2276 23.081 18.256 23.0605C18.2844 23.0401 18.3173 23.0268 18.3519 23.0216C18.3865 23.0165 18.4218 23.0196 18.4549 23.0309C18.4881 23.0421 18.518 23.0611 18.5423 23.0863C18.8718 23.3433 19.309 23.306 19.6605 23.5257C19.7748 23.5784 19.922 23.462 20.0296 23.5784Z" fill="#9A5E39"/>
<path d="M29.8432 23.473C29.8432 23.3126 29.7773 23.1478 29.8761 22.994C30.0387 22.7612 30.131 22.4866 30.3155 22.2647C30.3726 22.1944 30.399 22.0779 30.5176 22.0999C30.6363 22.1219 30.6231 22.2229 30.6604 22.2976C30.8552 22.7959 31.2234 23.2071 31.6974 23.4554C31.7457 23.4796 31.7918 23.5125 31.849 23.484C31.8841 23.5037 31.9852 23.5279 31.8797 23.5609C31.7743 23.5938 31.7347 23.629 31.66 23.6597C31.6164 23.6761 31.5696 23.6824 31.5232 23.6783C31.4768 23.6741 31.432 23.6595 31.392 23.6355C31.3376 23.5974 31.2728 23.5769 31.2064 23.5769C31.1399 23.5769 31.0751 23.5974 31.0207 23.6355C30.9328 23.6905 30.8603 23.6927 30.801 23.5916C30.7816 23.5524 30.7487 23.5216 30.7083 23.5046C30.668 23.4877 30.6229 23.4858 30.5813 23.4993C30.3397 23.563 30.0936 23.4554 29.8432 23.473Z" fill="#A86D45"/>
<path d="M29.8432 23.473C29.9032 23.4318 29.9732 23.4075 30.0458 23.4025C30.1184 23.3975 30.191 23.4119 30.2562 23.4444C30.3529 23.5015 30.4517 23.4444 30.5506 23.4444C30.7132 23.418 30.8889 23.3873 30.8889 23.6399C31.0647 23.5652 31.2075 23.3807 31.4074 23.5872C31.4623 23.6443 31.5765 23.6421 31.6622 23.6685C31.4425 23.8267 31.2228 23.9914 31.0031 24.1386C30.4693 24.4857 30.0497 24.1386 29.8937 23.6839C29.8718 23.6149 29.8549 23.5444 29.8432 23.473Z" fill="#975935"/>
<path d="M22.9822 32.1991C23.4216 32.3638 23.861 32.522 24.285 32.7021C24.321 32.7222 24.3614 32.7327 24.4026 32.7327C24.4437 32.7327 24.4841 32.7222 24.5201 32.7021C24.8964 32.5147 25.2821 32.3468 25.6757 32.1991C25.7701 32.1573 25.8272 32.0584 25.9371 32.0541C25.5263 32.5571 24.988 32.9021 24.4674 33.2711C24.4437 33.292 24.4132 33.3035 24.3817 33.3035C24.3501 33.3035 24.3197 33.292 24.296 33.2711C23.8522 32.9284 23.3491 32.656 22.9822 32.1991Z" fill="#693318"/>
<path d="M20.0296 23.5784C19.7308 23.6619 19.487 23.4532 19.2168 23.4224C18.9542 23.3794 18.7048 23.2772 18.4874 23.1237C18.3578 23.0468 18.2941 23.0512 18.2413 23.1896C18.2413 23.2071 18.2413 23.2665 18.1996 23.2093C18.1886 23.1918 18.1996 23.1632 18.1886 23.139C18.1733 22.9765 18.2062 22.813 18.2831 22.6689C18.4105 22.5371 18.4325 22.3504 18.5379 22.2054C18.6807 22.0098 18.7576 21.9988 18.8543 22.2251C19.0376 22.6285 19.3059 22.9874 19.6408 23.2774C19.7497 23.4011 19.9009 23.4795 20.0648 23.4971C20.1043 23.4971 20.1439 23.5235 20.1285 23.563C20.1131 23.6026 20.0648 23.5696 20.0296 23.5784Z" fill="#A9744C"/>
<path d="M31.2404 29.0553C31.3217 28.9894 31.2887 28.8971 31.2909 28.8158C31.2909 28.4028 31.2909 27.9898 31.3063 27.5768C31.3786 28.0506 31.4007 28.5307 31.3722 29.0092C31.3481 29.2289 31.1745 29.3387 30.8625 29.3387C30.2518 29.3387 29.6433 29.3387 29.0347 29.3387H28.9425C28.9425 29.0377 28.9425 28.7367 28.9425 28.438C28.9421 28.4202 28.9455 28.4025 28.9523 28.3861C28.959 28.3697 28.9691 28.3548 28.9819 28.3425C28.9947 28.3301 29.0099 28.3205 29.0265 28.3142C29.0432 28.308 29.0609 28.3052 29.0787 28.3062C29.0787 28.4929 29.094 28.6796 29.0787 28.8664C29.0633 29.0531 29.1314 29.0663 29.283 29.0641C29.9398 29.0553 30.5989 29.0575 31.2404 29.0553Z" fill="#FFFEFD"/>
<path d="M26.728 30.7952C26.2603 31.2665 25.672 31.6001 25.0276 31.7597C23.9665 32.0453 23.0679 31.7267 22.2792 31.0061C22.2243 30.9556 22.1826 30.8809 22.0881 30.8919L21.9871 30.6217C22.6725 31.2544 23.3953 31.7707 24.3795 31.7201C25.3285 31.6806 26.0799 31.217 26.7631 30.6063C26.8005 30.692 26.7104 30.7337 26.728 30.7952Z" fill="#ECCAB3"/>
<path d="M23.9753 23.7036C24.0653 23.6377 24.1334 23.5828 24.2433 23.7036C24.345 23.7782 24.4656 23.8229 24.5913 23.8326C24.7171 23.8423 24.8431 23.8167 24.9551 23.7586C25.0364 23.708 25.0891 23.6487 25.1901 23.7344C25.2473 23.7827 25.3198 23.7344 25.3791 23.6839C25.4384 23.6333 25.5175 23.596 25.5636 23.7102C25.3423 23.9404 25.0741 24.1202 24.7771 24.2375C24.4322 24.3583 24.1159 24.1474 23.9753 23.7036Z" fill="#8A512E"/>
<path d="M19.2585 29.0531C19.3552 28.9938 19.3178 28.8993 19.32 28.818C19.32 28.4819 19.32 28.1458 19.32 27.8097C19.32 27.7372 19.2893 27.6559 19.3749 27.5724C19.4535 27.8252 19.4789 28.0914 19.4496 28.3545C19.4233 28.5393 19.4101 28.7258 19.4101 28.9125C19.4143 28.9577 19.4095 29.0033 19.3959 29.0466C19.3824 29.09 19.3603 29.1302 19.3311 29.1649C19.3019 29.1997 19.266 29.2283 19.2257 29.2491C19.1853 29.2698 19.1412 29.2824 19.0959 29.286C18.6782 29.3438 18.2558 29.36 17.8349 29.3343C17.6855 29.3343 17.5229 29.275 17.6328 29.0575H17.7229C18.1912 29.0828 18.6606 29.0828 19.1289 29.0575L19.2585 29.0531Z" fill="#FEFEFC"/>
<path d="M26.0931 37.1443C26.1809 37.2366 26.0689 37.2475 26.0338 37.2651C25.6427 37.4716 25.2385 37.6584 24.8584 37.8803C24.7149 37.9707 24.5494 38.0202 24.3797 38.0233C24.2101 38.0264 24.0429 37.983 23.8962 37.8978C23.4238 37.6606 22.9779 37.386 22.5187 37.1311C22.4858 37.1069 22.4176 37.1048 22.4638 37.0344C22.9238 37.2102 23.3653 37.4309 23.7819 37.6935C23.9498 37.8164 24.1515 37.8844 24.3595 37.8883C24.5675 37.8922 24.7717 37.8319 24.9441 37.7155C25.3159 37.5033 25.6995 37.3126 26.0931 37.1443Z" fill="#D3AE94"/>
<path d="M29.0809 26.7068C29.0018 26.7485 28.8963 26.876 28.8963 26.6541V24.5978C28.8939 24.5778 28.8971 24.5575 28.9057 24.5392C28.9142 24.521 28.9277 24.5055 28.9446 24.4945C29.0501 24.5165 29.0084 24.6439 29.0787 24.6901L29.0809 26.7068Z" fill="#FFFEFD"/>
<path d="M31.849 23.484C31.7347 23.5718 31.6424 23.484 31.5546 23.4334C31.1295 23.1793 30.7986 22.7938 30.6121 22.335L30.5044 22.0977C30.2886 22.3724 30.0989 22.6666 29.9376 22.9765C29.9091 23.0314 29.9003 23.0643 29.8761 22.9765C29.9948 22.5173 30.2848 22.1548 30.5506 21.7418C30.7439 22.5525 31.124 23.15 31.849 23.484Z" fill="#E7CBB8"/>
<path d="M20.0648 23.4862C19.9984 23.506 19.9278 23.5064 19.8612 23.4873C19.7946 23.4682 19.7349 23.4305 19.6891 23.3785C19.3093 23.1004 19.0099 22.7267 18.8213 22.2954C18.7928 22.2251 18.7532 22.157 18.7049 22.056C18.5953 22.2089 18.5011 22.3722 18.4237 22.5437C18.4017 22.6074 18.3929 22.6953 18.2831 22.6689C18.3911 22.315 18.5534 21.98 18.7642 21.6759C18.8304 22.0562 18.9818 22.4166 19.2071 22.7301C19.4323 23.0435 19.7255 23.302 20.0648 23.4862Z" fill="#E0C2AD"/>
<path d="M25.8031 23.4796C25.7042 23.574 25.6295 23.4796 25.5592 23.4378C25.0957 23.1742 24.8277 22.737 24.5728 22.291L24.5069 22.1724L23.9709 23.0885C24.0022 22.8251 24.0972 22.5732 24.2477 22.3547C24.3443 22.1878 24.4498 22.0252 24.5508 21.8604C24.7969 22.5327 25.1418 23.1324 25.8031 23.4796Z" fill="#E3C8B2"/>
<path d="M29.0808 20.6565C28.993 20.6917 28.9952 20.7884 28.9271 20.8499V18.9276C29.0106 19.0462 28.9578 19.2 29.0808 19.2967V20.6565Z" fill="#FFFEFD"/>
<path d="M17.4812 28.8224C17.4658 28.8048 17.4541 28.7842 17.4469 28.7619C17.4397 28.7397 17.4372 28.7161 17.4395 28.6928V25.5622C17.4658 25.9102 17.4724 26.2593 17.4592 26.608C17.479 27.3461 17.4768 28.0843 17.4812 28.8224Z" fill="#FCEEDC"/>
<path d="M32.5542 32.1991C32.3921 32.0931 32.2066 32.0282 32.0137 32.0101C31.8753 31.9728 31.704 31.997 31.6183 31.8344C31.9918 31.8344 32.3323 32.0013 32.6926 32.0673C32.7057 32.1771 32.5893 32.1463 32.5542 32.1991Z" fill="#BE9579"/>
<path d="M17.4483 25.3513C17.2286 25.1316 17.2286 24.6022 17.4483 24.4594C17.4757 24.7561 17.4757 25.0546 17.4483 25.3513Z" fill="#FEFEFC"/>
<path d="M32.5498 19.4834C32.4904 19.4175 32.5124 19.3362 32.5102 19.2637V17.6072C32.5607 17.6556 32.552 17.7215 32.552 17.783L32.5498 19.4834Z" fill="#FCF4E7"/>
<path d="M17.4439 23.7542C17.3968 23.7085 17.3594 23.6539 17.3339 23.5935C17.3084 23.5331 17.2952 23.4682 17.2952 23.4027C17.2952 23.3371 17.3084 23.2722 17.3339 23.2118C17.3594 23.1515 17.3968 23.0968 17.4439 23.0512V23.7542Z" fill="#FEFEFC"/>
<path d="M19.1311 29.0685C18.6646 29.1322 18.1916 29.1322 17.7251 29.0685C18.193 29.0663 18.6631 29.0663 19.1311 29.0685Z" fill="#FDF8F3"/>
<path d="M29.0852 18.3586C28.982 18.4003 28.993 18.5014 28.9578 18.5783C29.0215 18.3959 28.7909 18.1389 29.0896 18.0268L29.0852 18.3586Z" fill="#FFFEFD"/>
<path d="M17.4439 22.2054C17.2571 22.0494 17.2571 22.0076 17.4439 21.878C17.4658 21.986 17.4658 22.0973 17.4439 22.2054Z" fill="#FEFEFC"/>
<path d="M20.4932 29.7232C20.4558 29.6515 20.4433 29.5695 20.4576 29.49C20.4719 29.4104 20.5122 29.3379 20.5722 29.2838C20.5785 29.4343 20.5515 29.5843 20.4932 29.7232Z" fill="#FCEEDC"/>
<path d="M17.4461 21.7374C17.2747 21.6429 17.3296 21.5485 17.4461 21.454C17.4666 21.5474 17.4666 21.6441 17.4461 21.7374Z" fill="#FEFEFC"/>
<path d="M29.0127 22.1526C28.9666 22.6887 29.1116 23.2247 28.9249 23.7586V22.1614L29.0127 22.1526Z" fill="#FFFEFD"/>
<path d="M28.9249 21.5397C28.96 21.5902 28.982 21.6078 28.982 21.6254C28.982 21.6429 28.982 21.7308 28.982 21.8451C28.9401 21.8076 28.9119 21.7573 28.9015 21.7021C28.8912 21.6469 28.8994 21.5898 28.9249 21.5397Z" fill="#FFFEFD"/>
<path d="M28.9798 27.7855C28.8809 27.6888 28.8809 27.6229 28.9293 27.5372C29.0084 27.6031 28.9864 27.6756 28.9798 27.7855Z" fill="#FFFEFD"/>
</svg>
