<svg data-made-by="cubiq" width="48" height="48" viewBox="0 0 48 48" fill="none" xmlns="http://www.w3.org/2000/svg">
<rect width="48" height="48" rx="11.2" fill="#F5F5F5"/>
<path d="M14.1156 12.7928C14.287 12.7849 14.458 12.8142 14.617 12.8787C14.776 12.9432 14.9191 13.0414 15.0365 13.1665C15.7039 13.8339 16.3712 14.5145 17.0563 15.1685C17.261 15.3665 17.2343 15.4866 17.0563 15.6668C16.5892 16.1117 16.1309 16.5699 15.6905 17.0415C15.4948 17.2484 15.3546 17.2417 15.1945 17.0282C15.1822 17.0137 15.1688 17.0003 15.1544 16.9881C14.8118 16.6611 14.4871 16.0805 14.1267 16.0739C13.713 16.0739 13.4038 16.67 13.0568 17.017C10.8546 19.217 8.66126 21.4303 6.45238 23.6236C6.16988 23.9039 6.1076 24.0485 6.43014 24.3666C8.88741 26.7987 11.3284 29.2456 13.753 31.7073C14.0667 32.0254 14.2113 31.9787 14.4982 31.6895C20.5502 25.6093 26.6096 19.5292 32.6764 13.449C33.604 12.517 34.2023 12.517 35.1233 13.449C38.2479 16.5811 41.3717 19.7145 44.4948 22.8495C45.3134 23.6704 45.3134 24.3177 44.4948 25.1429C41.345 28.3031 38.1945 31.4633 35.0432 34.6235C34.2246 35.4443 33.5684 35.4421 32.752 34.6235C32.1736 34.0452 31.6064 33.4579 31.0169 32.8929C30.7945 32.6705 30.75 32.5325 31.0014 32.3034C31.4596 31.8763 31.8911 31.427 32.336 30.9688C32.5251 30.7708 32.6697 30.7463 32.8387 30.9688C32.8887 31.0261 32.9422 31.0804 32.9989 31.1311C33.9043 32.0343 33.9043 32.0343 34.7785 31.1467C37.0318 28.9111 39.2785 26.6489 41.5452 24.4044C41.8566 24.0952 41.8722 23.9328 41.5452 23.6147C39.1028 21.1945 36.6752 18.761 34.2624 16.3141C33.9621 16.0094 33.8175 16.0138 33.5128 16.3141C27.5157 22.3468 21.5097 28.3721 15.4948 34.39L15.2545 34.6302C14.4226 35.451 13.7753 35.4577 12.9611 34.6435L6.33004 27.9924C5.36463 27.0226 4.39922 26.0572 3.43826 25.0851C2.71977 24.3577 2.70642 23.6659 3.4138 22.9563C6.63034 19.7264 9.84838 16.4987 13.0679 13.2733C13.1962 13.1209 13.3568 12.9987 13.5379 12.9156C13.719 12.8326 13.9163 12.7906 14.1156 12.7928Z" fill="#A7BB00"/>
<path d="M22.7954 30.6907C23.0957 31.031 23.4449 31.4047 23.7697 31.8029C23.9921 32.0676 24.1212 32.012 24.3414 31.8029C26.8224 29.2819 29.3145 26.7794 31.8177 24.2954C32.0402 24.073 32.1203 23.9262 31.8333 23.7237C31.7884 23.6889 31.7481 23.6485 31.7132 23.6036C31.4195 23.2655 30.8234 22.9941 30.8612 22.6182C30.899 22.2423 31.4173 21.9509 31.7354 21.6261C32.5829 20.7697 32.5852 20.7719 33.4171 21.6061C33.8865 22.0754 34.3625 22.5403 34.823 23.0186C35.4236 23.6437 35.428 24.3533 34.823 24.9783C31.5723 28.2483 28.3172 31.5108 25.0576 34.7659C24.4437 35.3798 23.723 35.3798 23.0957 34.7837C22.4283 34.1408 21.761 33.4802 21.0937 32.8351C20.9246 32.6705 20.8201 32.5526 21.0514 32.3412C21.612 31.8363 22.1525 31.3046 22.7954 30.6907Z" fill="#181A32"/>
<path d="M12.801 23.9351C12.8077 23.7576 12.8507 23.5834 12.9272 23.4231C13.0037 23.2628 13.1121 23.1199 13.2459 23.003C16.5084 19.7405 19.7709 16.478 23.0334 13.2155C23.6229 12.626 24.3681 12.6171 24.9575 13.1776C25.6471 13.8294 26.31 14.5123 26.9974 15.1663C27.1842 15.3443 27.2198 15.4644 27.0174 15.6646C26.5525 16.1095 26.1031 16.5744 25.6627 17.046C25.487 17.235 25.3669 17.2817 25.1733 17.0638C24.9242 16.779 24.6217 16.5388 24.3703 16.2563C24.1189 15.9738 23.9899 15.9426 23.703 16.2318C21.2338 18.7291 18.7528 21.2153 16.26 23.6904C16.0019 23.9462 16.0064 24.0841 16.26 24.3088C16.5136 24.5334 16.7872 24.856 17.0741 25.1029C17.3121 25.3098 17.2743 25.4432 17.0608 25.6412C16.6025 26.0705 16.1576 26.511 15.7261 26.9759C15.5037 27.2117 15.3902 27.1605 15.1967 26.9603C14.5494 26.293 13.8887 25.639 13.2303 24.9806C13.0887 24.8467 12.9772 24.6842 12.9032 24.504C12.8292 24.3237 12.7943 24.1298 12.801 23.9351Z" fill="#181A32"/>
</svg>
