<svg data-made-by="cubiq" width="48" height="49" viewBox="0 0 48 49" fill="none" xmlns="http://www.w3.org/2000/svg">
<rect width="48" height="49" rx="11.2" fill="#242938"/>
<path d="M14.1156 13.0593C14.287 13.0513 14.458 13.0812 14.617 13.147C14.776 13.2129 14.9191 13.3131 15.0365 13.4408C15.7039 14.1221 16.3712 14.8169 17.0563 15.4845C17.261 15.6866 17.2343 15.8093 17.0563 15.9932C16.5892 16.4474 16.1309 16.9151 15.6905 17.3965C15.4948 17.6077 15.3546 17.6009 15.1945 17.3829C15.1822 17.3682 15.1688 17.3545 15.1544 17.342C14.8118 17.0082 14.4871 16.4156 14.1267 16.4087C13.713 16.4087 13.4038 17.0173 13.0568 17.3716C10.8546 19.6174 8.66126 21.8768 6.45238 24.1158C6.16988 24.4019 6.1076 24.5495 6.43014 24.8742C8.88741 27.357 11.3284 29.8548 13.753 32.3678C14.0667 32.6926 14.2113 32.6449 14.4982 32.3497C20.5502 26.1429 26.6096 19.936 32.6764 13.7292C33.604 12.7778 34.2023 12.7778 35.1233 13.7292C38.2479 16.9265 41.3717 20.1253 44.4948 23.3256C45.3134 24.1635 45.3134 24.8243 44.4948 25.6667C41.345 28.8928 38.1945 32.1188 35.0432 35.3448C34.2246 36.1828 33.5684 36.1805 32.752 35.3448C32.1736 34.7544 31.6064 34.1549 31.0169 33.5782C30.7945 33.3511 30.75 33.2103 31.0014 32.9764C31.4596 32.5404 31.8911 32.0817 32.336 31.6139C32.5251 31.4118 32.6697 31.3869 32.8387 31.6139C32.8887 31.6725 32.9422 31.7279 32.9989 31.7797C33.9043 32.7016 33.9043 32.7016 34.7785 31.7956C37.0318 29.5135 39.2785 27.2041 41.5452 24.9128C41.8566 24.5972 41.8722 24.4314 41.5452 24.1067C39.1028 21.6361 36.6752 19.1519 34.2624 16.654C33.9621 16.3429 33.8175 16.3474 33.5128 16.654C27.5157 22.8124 21.5097 28.9632 15.4948 35.1064L15.2545 35.3517C14.4226 36.1896 13.7753 36.1964 12.9611 35.3653L6.33004 28.5756C5.36463 27.5856 4.39922 26.6 3.43826 25.6077C2.71977 24.8652 2.70642 24.1589 3.4138 23.4346C6.63034 20.1374 9.84838 16.8425 13.0679 13.5498C13.1962 13.3942 13.3568 13.2695 13.5379 13.1847C13.719 13.0999 13.9163 13.0571 14.1156 13.0593Z" fill="#C8DA2E"/>
<path d="M22.7954 31.3301C23.0957 31.6775 23.4449 32.059 23.7697 32.4655C23.9921 32.7357 24.1212 32.6789 24.3414 32.4655C26.8224 29.8919 29.3145 27.3373 31.8177 24.8016C32.0402 24.5745 32.1203 24.4246 31.8333 24.218C31.7884 24.1824 31.7481 24.1412 31.7132 24.0954C31.4195 23.7502 30.8234 23.4732 30.8612 23.0894C30.899 22.7056 31.4173 22.4082 31.7354 22.0766C32.5829 21.2024 32.5852 21.2047 33.4171 22.0562C33.8865 22.5353 34.3625 23.0099 34.823 23.4981C35.4236 24.1362 35.428 24.8606 34.823 25.4987C31.5723 28.8368 28.3172 32.1673 25.0576 35.4902C24.4437 36.1169 23.723 36.1169 23.0957 35.5083C22.4283 34.8521 21.761 34.1777 21.0937 33.5191C20.9246 33.3511 20.8201 33.2307 21.0514 33.015C21.612 32.4995 22.1525 31.9568 22.7954 31.3301Z" fill="white"/>
<path d="M12.801 24.4337C12.8077 24.2525 12.8507 24.0747 12.9272 23.9111C13.0037 23.7475 13.1121 23.6015 13.2459 23.4822C16.5084 20.1518 19.7709 16.8213 23.0334 13.4908C23.6229 12.889 24.3681 12.8799 24.9575 13.4522C25.6471 14.1175 26.31 14.8147 26.9974 15.4823C27.1842 15.6639 27.2198 15.7866 27.0174 15.9909C26.5525 16.4451 26.1031 16.9197 25.6627 17.4011C25.487 17.5941 25.3669 17.6418 25.1733 17.4192C24.9242 17.1286 24.6217 16.8833 24.3703 16.595C24.1189 16.3066 23.9899 16.2748 23.703 16.57C21.2338 19.1193 18.7528 21.6573 16.26 24.1839C16.0019 24.4451 16.0064 24.5859 16.26 24.8152C16.5136 25.0445 16.7872 25.3738 17.0741 25.6259C17.3121 25.8371 17.2743 25.9733 17.0608 26.1754C16.6025 26.6137 16.1576 27.0633 15.7261 27.5379C15.5037 27.7786 15.3902 27.7264 15.1967 27.522C14.5494 26.8407 13.8887 26.1731 13.2303 25.501C13.0887 25.3643 12.9772 25.1985 12.9032 25.0145C12.8292 24.8305 12.7943 24.6325 12.801 24.4337Z" fill="white"/>
</svg>
