<svg width="48" height="48" viewBox="0 0 49 48" fill="none" xmlns="http://www.w3.org/2000/svg">
<rect x="0.551403" width="47.5514" height="47.5514" rx="11.2" fill="#181A32"/>
<path d="M14.5351 12.6733C14.7049 12.6654 14.8743 12.6945 15.0318 12.7584C15.1893 12.8223 15.3311 12.9195 15.4474 13.0435C16.1085 13.7046 16.7696 14.3789 17.4483 15.0268C17.651 15.2229 17.6246 15.3419 17.4483 15.5204C16.9855 15.9611 16.5316 16.4151 16.0953 16.8822C15.9013 17.0872 15.7625 17.0806 15.6039 16.869C15.5918 16.8547 15.5785 16.8415 15.5642 16.8294C15.2248 16.5054 14.9031 15.9303 14.5461 15.9237C14.1362 15.9237 13.8299 16.5142 13.4861 16.858C11.3045 19.0374 9.1317 21.2301 6.94347 23.4029C6.66361 23.6805 6.60191 23.8238 6.92144 24.1389C9.35575 26.5482 11.7739 28.9722 14.1759 31.4109C14.4866 31.7261 14.6298 31.6798 14.9141 31.3933C20.9095 25.37 26.9123 19.3467 32.9224 13.3233C33.8413 12.4 34.4341 12.4 35.3464 13.3233C38.4418 16.4261 41.5365 19.5303 44.6304 22.636C45.4413 23.4491 45.4413 24.0904 44.6304 24.908C41.51 28.0386 38.3889 31.1693 35.2671 34.2999C34.4561 35.1131 33.806 35.1109 32.9973 34.2999C32.4244 33.727 31.8624 33.1452 31.2785 32.5855C31.0581 32.3651 31.014 32.2285 31.263 32.0015C31.717 31.5784 32.1445 31.1333 32.5852 30.6793C32.7725 30.4832 32.9158 30.459 33.0832 30.6793C33.1327 30.7362 33.1857 30.7899 33.2419 30.8402C34.1388 31.7349 34.1388 31.7349 35.0048 30.8556C37.2371 28.6409 39.4628 26.3998 41.7083 24.1763C42.0169 23.87 42.0323 23.7092 41.7083 23.394C39.2887 20.9965 36.8838 18.5857 34.4936 16.1616C34.1961 15.8597 34.0528 15.8642 33.7509 16.1616C27.8099 22.138 21.86 28.1069 15.9013 34.0686L15.6633 34.3065C14.8392 35.1197 14.1979 35.1263 13.3914 34.3198L6.82228 27.7308C5.86589 26.77 4.9095 25.8137 3.95752 24.8507C3.24574 24.1301 3.23252 23.4447 3.93329 22.7418C7.11977 19.5421 10.3077 16.3446 13.4972 13.1493C13.6243 12.9982 13.7833 12.8772 13.9628 12.7949C14.1422 12.7126 14.3377 12.6711 14.5351 12.6733Z" fill="#C8DA2E"/>
<path d="M23.1337 30.4039C23.4312 30.741 23.7772 31.1112 24.0989 31.5057C24.3193 31.7679 24.4471 31.7128 24.6653 31.5057C27.1231 29.0082 29.5919 26.5291 32.0718 24.0684C32.2921 23.848 32.3715 23.7026 32.0872 23.502C32.0427 23.4675 32.0027 23.4275 31.9682 23.383C31.6773 23.0481 31.0867 22.7792 31.1242 22.4068C31.1617 22.0344 31.6751 21.7457 31.9902 21.424C32.8298 20.5756 32.832 20.5778 33.6562 21.4041C34.1212 21.8691 34.5928 22.3297 35.0489 22.8035C35.6439 23.4227 35.6483 24.1257 35.0489 24.7449C31.8286 27.9843 28.6039 31.2163 25.3749 34.441C24.7666 35.0492 24.0527 35.0492 23.4312 34.4586C22.7701 33.8217 22.109 33.1673 21.4479 32.5282C21.2805 32.3651 21.1769 32.2483 21.4061 32.039C21.9614 31.5388 22.4969 31.0121 23.1337 30.4039Z" fill="white"/>
<path d="M13.2327 23.7114C13.2394 23.5356 13.282 23.363 13.3577 23.2042C13.4335 23.0454 13.541 22.9038 13.6735 22.788C16.9055 19.556 20.1375 16.324 23.3695 13.092C23.9535 12.508 24.6917 12.4992 25.2757 13.0545C25.9588 13.7002 26.6155 14.3767 27.2965 15.0246C27.4816 15.2009 27.5168 15.3199 27.3163 15.5182C26.8557 15.9589 26.4106 16.4195 25.9743 16.8867C25.8002 17.074 25.6812 17.1202 25.4895 16.9043C25.2426 16.6222 24.943 16.3842 24.6939 16.1044C24.4449 15.8245 24.3171 15.7936 24.0328 16.0801C21.5868 18.5541 19.129 21.017 16.6594 23.469C16.4038 23.7224 16.4082 23.859 16.6594 24.0816C16.9106 24.3042 17.1817 24.6237 17.4659 24.8683C17.7017 25.0732 17.6643 25.2055 17.4527 25.4016C16.9988 25.8269 16.558 26.2632 16.1305 26.7238C15.9102 26.9574 15.7978 26.9067 15.6061 26.7083C14.9648 26.0472 14.3103 25.3994 13.658 24.7471C13.5178 24.6145 13.4073 24.4535 13.334 24.275C13.2607 24.0964 13.2262 23.9043 13.2327 23.7114Z" fill="white"/>
</svg>
