<svg width="48" height="48" viewBox="0 0 48 48" fill="none" xmlns="http://www.w3.org/2000/svg">
<rect x="0.102806" width="47.5514" height="47.5514" rx="11.2" fill="#F5F5F5"/>
<path d="M14.0865 12.6733C14.2563 12.6654 14.4257 12.6945 14.5832 12.7584C14.7407 12.8223 14.8825 12.9195 14.9988 13.0435C15.6599 13.7046 16.321 14.3789 16.9997 15.0268C17.2024 15.2229 17.176 15.3419 16.9997 15.5204C16.5369 15.9611 16.083 16.4151 15.6467 16.8822C15.4527 17.0872 15.3139 17.0806 15.1553 16.869C15.1432 16.8547 15.1299 16.8415 15.1156 16.8294C14.7762 16.5054 14.4545 15.9303 14.0975 15.9237C13.6876 15.9237 13.3813 16.5142 13.0375 16.858C10.8559 19.0374 8.68311 21.2301 6.49488 23.4029C6.21501 23.6805 6.15332 23.8238 6.47285 24.1389C8.90715 26.5482 11.3253 28.9722 13.7273 31.4109C14.038 31.7261 14.1812 31.6798 14.4655 31.3933C20.4609 25.37 26.4637 19.3467 32.4738 13.3233C33.3927 12.4 33.9855 12.4 34.8978 13.3233C37.9932 16.4261 41.0879 19.5303 44.1818 22.636C44.9927 23.4491 44.9927 24.0904 44.1818 24.908C41.0614 28.0386 37.9403 31.1693 34.8185 34.2999C34.0075 35.1131 33.3574 35.1109 32.5487 34.2999C31.9758 33.727 31.4138 33.1452 30.8299 32.5855C30.6095 32.3651 30.5654 32.2285 30.8144 32.0015C31.2684 31.5784 31.6959 31.1333 32.1366 30.6793C32.3239 30.4832 32.4672 30.459 32.6346 30.6793C32.6841 30.7362 32.7371 30.7899 32.7933 30.8402C33.6902 31.7349 33.6902 31.7349 34.5562 30.8556C36.7885 28.6409 39.0142 26.3998 41.2597 24.1763C41.5683 23.87 41.5837 23.7092 41.2597 23.394C38.8401 20.9965 36.4352 18.5857 34.045 16.1616C33.7475 15.8597 33.6043 15.8642 33.3024 16.1616C27.3613 22.138 21.4114 28.1069 15.4527 34.0686L15.2147 34.3065C14.3906 35.1197 13.7493 35.1263 12.9428 34.3198L6.37368 27.7308C5.41729 26.77 4.46091 25.8137 3.50893 24.8507C2.79715 24.1301 2.78393 23.4447 3.48469 22.7418C6.67117 19.5421 9.85913 16.3446 13.0486 13.1493C13.1757 12.9982 13.3347 12.8772 13.5142 12.7949C13.6936 12.7126 13.8891 12.6711 14.0865 12.6733Z" fill="#C8DA2E"/>
<path d="M22.6851 30.4039C22.9826 30.741 23.3286 31.1112 23.6503 31.5057C23.8707 31.7679 23.9985 31.7128 24.2167 31.5057C26.6745 29.0082 29.1433 26.5291 31.6232 24.0684C31.8435 23.848 31.9229 23.7026 31.6386 23.502C31.5941 23.4675 31.5542 23.4275 31.5196 23.383C31.2287 23.0481 30.6381 22.7792 30.6756 22.4068C30.7131 22.0344 31.2265 21.7457 31.5416 21.424C32.3812 20.5756 32.3834 20.5778 33.2076 21.4041C33.6726 21.8691 34.1442 22.3297 34.6003 22.8035C35.1953 23.4227 35.1997 24.1257 34.6003 24.7449C31.38 27.9843 28.1553 31.2163 24.9263 34.441C24.3181 35.0492 23.6041 35.0492 22.9826 34.4586C22.3215 33.8217 21.6604 33.1673 20.9993 32.5282C20.8319 32.3651 20.7283 32.2483 20.9575 32.039C21.5128 31.5388 22.0483 31.0121 22.6851 30.4039Z" fill="#181A32"/>
<path d="M12.7841 23.7114C12.7908 23.5356 12.8334 23.363 12.9091 23.2042C12.9849 23.0454 13.0924 22.9038 13.2249 22.788C16.4569 19.556 19.6889 16.324 22.9209 13.092C23.5049 12.508 24.2431 12.4992 24.8271 13.0545C25.5102 13.7002 26.1669 14.3767 26.8479 15.0246C27.033 15.2009 27.0682 15.3199 26.8677 15.5182C26.4071 15.9589 25.962 16.4195 25.5257 16.8867C25.3516 17.074 25.2326 17.1202 25.0409 16.9043C24.794 16.6222 24.4944 16.3842 24.2453 16.1044C23.9963 15.8245 23.8685 15.7936 23.5842 16.0801C21.1382 18.5541 18.6804 21.017 16.2108 23.469C15.9552 23.7224 15.9596 23.859 16.2108 24.0816C16.462 24.3042 16.7331 24.6237 17.0173 24.8683C17.2531 25.0732 17.2157 25.2055 17.0041 25.4016C16.5502 25.8269 16.1094 26.2632 15.6819 26.7238C15.4616 26.9574 15.3492 26.9067 15.1575 26.7083C14.5162 26.0472 13.8617 25.3994 13.2094 24.7471C13.0692 24.6145 12.9587 24.4535 12.8854 24.275C12.8121 24.0964 12.7776 23.9043 12.7841 23.7114Z" fill="#181A32"/>
</svg>
